<svg width="127" height="39" viewBox="0 0 127 39" fill="none" xmlns="http://www.w3.org/2000/svg">
<path d="M10.8633 11.8948L9.91233 9.68667H3.72317L2.75611 11.8948H0L5.22211 0.612452H8.4134L13.6194 11.8948H10.8633ZM4.59352 7.7042H9.04198L6.81775 2.5788L4.59352 7.7042ZM17.9222 12.1365C15.714 12.1365 14.4246 10.9277 14.4246 8.99361V3.30409H16.8745V8.38114C16.8745 9.41267 17.4709 10.2991 18.9859 10.2991C20.501 10.2991 21.1779 9.38044 21.1779 8.38114V3.30409H23.6278V11.8948H21.1779V10.686C20.8072 11.2017 19.7596 12.1365 17.9222 12.1365ZM25.5685 -1.72923e-05H28.0183V11.8948H25.5685V-1.72923e-05ZM34.231 3.07845C36.697 3.07845 38.8568 3.78762 38.8568 6.31809V11.8948H36.4069V10.7504C36.0362 11.3145 34.7952 12.1365 32.8772 12.1365C30.8625 12.1365 29.4763 11.2984 29.4763 9.60608C29.4763 7.80091 30.4112 6.35032 36.4069 6.72103V6.31809C36.4069 5.4155 36.004 4.75468 34.231 4.75468C32.7482 4.75468 32.2808 5.18986 32.1519 5.78621H29.8632C30.1372 3.88433 31.8779 3.07845 34.231 3.07845ZM36.4069 9.38044V8.17161C33.1512 7.99432 31.9423 8.30056 31.9423 9.52549C31.9423 10.3314 32.5387 10.6537 33.6025 10.6537C34.9241 10.6537 35.9556 10.138 36.4069 9.38044ZM45.6242 6.72103C48.0418 7.14009 49.6858 7.31738 49.6858 9.29985C49.6858 11.2662 48.0096 12.1365 44.8989 12.1365C41.8688 12.1365 39.983 11.1856 39.983 9.25149H42.6424C42.6424 10.1057 43.6578 10.4764 45.0601 10.4764C46.4462 10.4764 47.1715 10.2186 47.1715 9.55773C47.1715 8.78408 46.1077 8.68738 43.819 8.30056C41.5464 7.92985 40.3215 7.44632 40.3215 5.73785C40.3215 4.01327 41.8527 3.07845 44.7538 3.07845C47.7839 3.07845 49.299 4.20668 49.299 5.78621H46.833C46.833 5.23821 46.2044 4.69021 44.7216 4.69021C43.3838 4.69021 42.6585 4.96421 42.6585 5.62503C42.6585 6.36644 44.093 6.44703 45.6242 6.72103ZM60.3252 6.72103C62.7429 7.14009 64.3869 7.31738 64.3869 9.29985C64.3869 11.2662 62.7106 12.1365 59.5999 12.1365C56.5698 12.1365 54.684 11.1856 54.684 9.25149H57.3435C57.3435 10.1057 58.3589 10.4764 59.7611 10.4764C61.1472 10.4764 61.8725 10.2186 61.8725 9.55773C61.8725 8.78408 60.8087 8.68738 58.52 8.30056C56.2475 7.92985 55.0225 7.44632 55.0225 5.73785C55.0225 4.01327 56.5537 3.07845 59.4549 3.07845C62.485 3.07845 64 4.20668 64 5.78621H61.534C61.534 5.23821 60.9054 4.69021 59.4226 4.69021C58.0849 4.69021 57.3596 4.96421 57.3596 5.62503C57.3596 6.36644 58.794 6.44703 60.3252 6.72103ZM70.3155 3.07845C72.8298 3.07845 75.4409 4.36786 75.4409 7.6075C75.4409 10.8471 72.8298 12.1365 70.3155 12.1365C67.8173 12.1365 65.1901 10.8471 65.1901 7.6075C65.1901 4.36786 67.8173 3.07845 70.3155 3.07845ZM70.3155 10.4442C72.3785 10.4442 73.1522 9.10644 73.1522 7.6075C73.1522 6.09244 72.3785 4.75468 70.3155 4.75468C68.2524 4.75468 67.4949 6.09244 67.4949 7.6075C67.4949 9.10644 68.2524 10.4442 70.3155 10.4442ZM82.4084 3.07845C84.9227 3.07845 86.9535 4.69021 86.9535 7.6075C86.9535 10.5248 84.9227 12.1365 82.4084 12.1365C80.9739 12.1365 79.9746 11.6369 79.346 10.831V11.8948H76.8961V0.612452H79.346V4.38397C79.9746 3.57809 80.9739 3.07845 82.4084 3.07845ZM81.8765 10.4442C83.6494 10.4442 84.6648 9.41267 84.6648 7.6075C84.6648 5.80232 83.6494 4.75468 81.8765 4.75468C80.1035 4.75468 79.0398 5.80232 79.0398 7.6075C79.0398 9.41267 80.1035 10.4442 81.8765 10.4442ZM94.0593 3.09457C94.6234 3.09457 95.0424 3.14292 95.3325 3.22351V5.47997H95.252C94.9457 5.35103 94.3655 5.20597 93.6241 5.20597C91.5933 5.20597 90.8518 6.47926 90.8518 7.81703V11.8948H88.402V3.30409H90.8518V4.88362C91.2064 4.27115 92.2218 3.09457 94.0593 3.09457ZM105.809 8.23608H98.1854C98.3788 9.41267 99.2008 10.4442 100.99 10.4442C102.295 10.4442 103.133 9.86396 103.472 9.13867H105.632C105.068 11.2823 103.117 12.1365 100.99 12.1365C98.54 12.1365 95.9773 10.7827 95.9773 7.6075C95.9773 4.43233 98.5077 3.07845 100.974 3.07845C103.472 3.07845 106.067 4.60962 105.809 8.23608ZM100.974 4.75468C99.4425 4.75468 98.5883 5.5928 98.266 6.62432H103.569C103.311 5.5928 102.585 4.75468 100.974 4.75468Z" fill="#7D7D7D"/>
<path d="M6.89834 34.3466C9.23539 34.3466 10.1863 33.0733 10.5248 31.6066H13.2164C12.6846 34.9591 9.83175 36.313 6.89834 36.313C3.64258 36.313 0.483528 34.669 0.483528 30.43C0.483528 26.1911 3.64258 24.5632 6.89834 24.5632C9.83175 24.5632 12.6846 25.9171 13.2164 29.2696H10.5248C10.1863 27.8029 9.23539 26.5296 6.89834 26.5296C4.19058 26.5296 3.14294 28.2542 3.14294 30.43C3.14294 32.622 4.19058 34.3466 6.89834 34.3466ZM20.318 27.271C20.8821 27.271 21.3012 27.3193 21.5913 27.3999V29.6564H21.5107C21.2045 29.5275 20.6243 29.3824 19.8828 29.3824C17.852 29.3824 17.1106 30.6557 17.1106 31.9934V36.0712H14.6607V27.4805H17.1106V29.06C17.4652 28.4476 18.4806 27.271 20.318 27.271ZM22.8769 36.0712V27.4805H25.3107V36.0712H22.8769ZM24.0858 26.4812C23.3444 26.4812 22.8286 26.0622 22.8286 25.3369C22.8286 24.5955 23.3444 24.1764 24.0858 24.1764C24.8272 24.1764 25.3591 24.5955 25.3591 25.3369C25.3591 26.0622 24.8272 26.4812 24.0858 26.4812ZM32.781 27.2549C35.2792 27.2549 37.31 28.8666 37.31 31.7839C37.31 34.7012 35.2792 36.313 32.781 36.313C31.3304 36.313 30.3311 35.8133 29.7025 35.0074V38.7628H27.2526V27.4805H29.7025V28.5604C30.3311 27.7545 31.3304 27.2549 32.781 27.2549ZM32.233 34.6206C34.0059 34.6206 35.0213 33.5891 35.0213 31.7839C35.0213 29.9787 34.0059 28.9311 32.233 28.9311C30.4761 28.9311 29.3963 29.9787 29.3963 31.7839C29.3963 33.5891 30.4761 34.6206 32.233 34.6206ZM44.3588 29.1567H41.8445V32.7671C41.8445 34.1693 42.3602 34.4433 44.3588 34.2338V36.0712C44.0365 36.1196 43.6497 36.2001 43.0855 36.2001C39.991 36.2001 39.3946 34.8624 39.3946 32.7187V29.1567H37.799V27.4805H39.3946V25.2563H41.8445V27.4805H44.3588V29.1567ZM50.4518 27.2549C52.9661 27.2549 55.5772 28.5443 55.5772 31.7839C55.5772 35.0236 52.9661 36.313 50.4518 36.313C47.9536 36.313 45.3264 35.0236 45.3264 31.7839C45.3264 28.5443 47.9536 27.2549 50.4518 27.2549ZM50.4518 34.6206C52.5148 34.6206 53.2885 33.2829 53.2885 31.7839C53.2885 30.2689 52.5148 28.9311 50.4518 28.9311C48.3887 28.9311 47.6312 30.2689 47.6312 31.7839C47.6312 33.2829 48.3887 34.6206 50.4518 34.6206ZM68.4115 27.2549C70.6196 27.2549 71.7639 28.4476 71.7639 30.3817V36.0712H69.3141V30.9942C69.3141 29.9626 68.8628 29.0762 67.4928 29.0762C66.1228 29.0762 65.6231 29.9787 65.6231 30.9942V36.0712H63.1732V30.9942C63.1732 29.9626 62.722 29.0762 61.352 29.0762C59.982 29.0762 59.4662 29.9949 59.4662 30.9942V36.0712H57.0324V27.4805H59.4662V28.6087C59.7724 28.0769 60.5138 27.2549 62.2707 27.2549C63.7696 27.2549 64.7689 27.8029 65.2524 28.7538C65.5587 28.2864 66.5257 27.2549 68.4115 27.2549ZM78.3428 27.2549C80.8572 27.2549 83.4682 28.5443 83.4682 31.7839C83.4682 35.0236 80.8572 36.313 78.3428 36.313C75.8446 36.313 73.2174 35.0236 73.2174 31.7839C73.2174 28.5443 75.8446 27.2549 78.3428 27.2549ZM78.3428 34.6206C80.4059 34.6206 81.1795 33.2829 81.1795 31.7839C81.1795 30.2689 80.4059 28.9311 78.3428 28.9311C76.2798 28.9311 75.5222 30.2689 75.5222 31.7839C75.5222 33.2829 76.2798 34.6206 78.3428 34.6206ZM94.2717 32.4125H86.648C86.8415 33.5891 87.6635 34.6206 89.4525 34.6206C90.758 34.6206 91.5962 34.0404 91.9346 33.3151H94.0944C93.5303 35.4587 91.58 36.313 89.4525 36.313C87.0026 36.313 84.4399 34.9591 84.4399 31.7839C84.4399 28.6087 86.9704 27.2549 89.4364 27.2549C91.9346 27.2549 94.5296 28.786 94.2717 32.4125ZM89.4364 28.9311C87.9052 28.9311 87.051 29.7692 86.7286 30.8007H92.0313C91.7734 29.7692 91.0482 28.9311 89.4364 28.9311ZM102.893 24.7889H105.342V36.0712H102.893V35.0074C102.264 35.8133 101.265 36.313 99.8141 36.313C97.3159 36.313 95.269 34.7012 95.269 31.7839C95.269 28.8666 97.3159 27.2549 99.8141 27.2549C101.265 27.2549 102.264 27.7545 102.893 28.5604V24.7889ZM100.362 34.6206C102.119 34.6206 103.199 33.5891 103.199 31.7839C103.199 29.9787 102.119 28.9311 100.362 28.9311C98.5892 28.9311 97.5738 29.9787 97.5738 31.7839C97.5738 33.5891 98.5892 34.6206 100.362 34.6206ZM111.545 27.2549C114.011 27.2549 116.171 27.964 116.171 30.4945V36.0712H113.721V34.9269C113.35 35.491 112.109 36.313 110.191 36.313C108.177 36.313 106.791 35.4749 106.791 33.7825C106.791 31.9773 107.725 30.5267 113.721 30.8975V30.4945C113.721 29.5919 113.318 28.9311 111.545 28.9311C110.062 28.9311 109.595 29.3663 109.466 29.9626H107.177C107.451 28.0608 109.192 27.2549 111.545 27.2549ZM113.721 33.5569V32.348C110.465 32.1707 109.257 32.477 109.257 33.7019C109.257 34.5078 109.853 34.8301 110.917 34.8301C112.238 34.8301 113.27 34.3144 113.721 33.5569ZM122.938 30.8975C125.356 31.3165 127 31.4938 127 33.4763C127 35.4426 125.324 36.313 122.213 36.313C119.183 36.313 117.297 35.362 117.297 33.4279H119.957C119.957 34.2822 120.972 34.6529 122.374 34.6529C123.76 34.6529 124.486 34.395 124.486 33.7342C124.486 32.9605 123.422 32.8638 121.133 32.477C118.861 32.1063 117.636 31.6227 117.636 29.9143C117.636 28.1897 119.167 27.2549 122.068 27.2549C125.098 27.2549 126.613 28.3831 126.613 29.9626H124.147C124.147 29.4146 123.519 28.8666 122.036 28.8666C120.698 28.8666 119.973 29.1406 119.973 29.8015C119.973 30.5429 121.407 30.6235 122.938 30.8975Z" fill="url(#paint0_radial_660_952)"/>
<defs>
<radialGradient id="paint0_radial_660_952" cx="0" cy="0" r="1" gradientUnits="userSpaceOnUse" gradientTransform="translate(85.6248 -0.52923) rotate(90) scale(42.6445 151.033)">
<stop stop-color="white"/>
<stop offset="1" stop-color="#9F9F9F"/>
</radialGradient>
</defs>
</svg>
