<svg width="106" height="37" viewBox="0 0 106 37" fill="none" xmlns="http://www.w3.org/2000/svg">
<path d="M10.8564 11.8873L9.90609 9.68056H3.72082L2.75438 11.8873H0L5.21882 0.612066H8.40809L13.6108 11.8873H10.8564ZM4.59063 7.69935H9.03628L6.81345 2.57718L4.59063 7.69935ZM17.9109 12.1289C15.7041 12.1289 14.4155 10.9208 14.4155 8.98794V3.30201H16.8639V8.37586C16.8639 9.40674 17.4599 10.2926 18.974 10.2926C20.4881 10.2926 21.1646 9.37452 21.1646 8.37586V3.30201H23.6129V11.8873H21.1646V10.6792C20.7941 11.1947 19.7471 12.1289 17.9109 12.1289ZM25.5523 -1.72814e-05H28.0007V11.8873H25.5523V-1.72814e-05ZM34.2095 3.07651C36.6739 3.07651 38.8323 3.78524 38.8323 6.31411V11.8873H36.384V10.7437C36.0135 11.3074 34.7732 12.1289 32.8564 12.1289C30.843 12.1289 29.4578 11.2913 29.4578 9.60003C29.4578 7.79599 30.392 6.34632 36.384 6.71679V6.31411C36.384 5.41209 35.9813 4.75168 34.2095 4.75168C32.7276 4.75168 32.2605 5.18658 32.1316 5.78256H29.8443C30.1182 3.88188 31.8578 3.07651 34.2095 3.07651ZM36.384 9.37452V8.16646C33.1303 7.98928 31.9222 8.29532 31.9222 9.51949C31.9222 10.3249 32.5182 10.647 33.5813 10.647C34.9021 10.647 35.933 10.1316 36.384 9.37452ZM45.5954 6.71679C48.0115 7.13559 49.6545 7.31277 49.6545 9.29399C49.6545 11.2591 47.9793 12.1289 44.8706 12.1289C41.8424 12.1289 39.9578 11.1786 39.9578 9.24566H42.6155C42.6155 10.0994 43.6303 10.4698 45.0317 10.4698C46.4169 10.4698 47.1417 10.2121 47.1417 9.55171C47.1417 8.77855 46.0787 8.6819 43.7914 8.29532C41.5202 7.92485 40.2961 7.44163 40.2961 5.73424C40.2961 4.01074 41.8263 3.07651 44.7256 3.07651C47.7538 3.07651 49.2679 4.20403 49.2679 5.78256H46.8035C46.8035 5.23491 46.1753 4.68725 44.6934 4.68725C43.3565 4.68725 42.6317 4.96108 42.6317 5.62149C42.6317 6.36243 44.0652 6.44297 45.5954 6.71679ZM60.2872 6.71679C62.7033 7.13559 64.3463 7.31277 64.3463 9.29399C64.3463 11.2591 62.6711 12.1289 59.5624 12.1289C56.5342 12.1289 54.6496 11.1786 54.6496 9.24566H57.3073C57.3073 10.0994 58.3221 10.4698 59.7234 10.4698C61.1087 10.4698 61.8335 10.2121 61.8335 9.55171C61.8335 8.77855 60.7704 8.6819 58.4832 8.29532C56.212 7.92485 54.9878 7.44163 54.9878 5.73424C54.9878 4.01074 56.518 3.07651 59.4174 3.07651C62.4456 3.07651 63.9597 4.20403 63.9597 5.78256H61.4953C61.4953 5.23491 60.8671 4.68725 59.3852 4.68725C58.0483 4.68725 57.3234 4.96108 57.3234 5.62149C57.3234 6.36243 58.757 6.44297 60.2872 6.71679ZM70.2712 3.07651C72.7839 3.07651 75.3933 4.3651 75.3933 7.6027C75.3933 10.8403 72.7839 12.1289 70.2712 12.1289C67.7745 12.1289 65.149 10.8403 65.149 7.6027C65.149 4.3651 67.7745 3.07651 70.2712 3.07651ZM70.2712 10.4376C72.3329 10.4376 73.1061 9.1007 73.1061 7.6027C73.1061 6.0886 72.3329 4.75168 70.2712 4.75168C68.2094 4.75168 67.4524 6.0886 67.4524 7.6027C67.4524 9.1007 68.2094 10.4376 70.2712 10.4376ZM82.3564 3.07651C84.8692 3.07651 86.8987 4.68725 86.8987 7.6027C86.8987 10.5182 84.8692 12.1289 82.3564 12.1289C80.9229 12.1289 79.9242 11.6296 79.296 10.8242V11.8873H76.8477V0.612066H79.296V4.38121C79.9242 3.57584 80.9229 3.07651 82.3564 3.07651ZM81.8249 10.4376C83.5967 10.4376 84.6115 9.40674 84.6115 7.6027C84.6115 5.79867 83.5967 4.75168 81.8249 4.75168C80.0531 4.75168 78.99 5.79867 78.99 7.6027C78.99 9.40674 80.0531 10.4376 81.8249 10.4376ZM94 3.09261C94.5637 3.09261 94.9825 3.14094 95.2725 3.22147V5.47652H95.1919C94.8859 5.34766 94.306 5.20269 93.5651 5.20269C91.5355 5.20269 90.7946 6.47518 90.7946 7.8121V11.8873H88.3463V3.30201H90.7946V4.88054C91.149 4.26846 92.1637 3.09261 94 3.09261ZM105.742 8.23089H98.1235C98.3168 9.40674 99.1383 10.4376 100.926 10.4376C102.231 10.4376 103.068 9.85775 103.407 9.13291H105.565C105.001 11.2752 103.052 12.1289 100.926 12.1289C98.4778 12.1289 95.9168 10.7759 95.9168 7.6027C95.9168 4.42953 98.4456 3.07651 100.91 3.07651C103.407 3.07651 106 4.60672 105.742 8.23089ZM100.91 4.75168C99.3799 4.75168 98.5262 5.58927 98.204 6.62015H103.503C103.246 5.58927 102.521 4.75168 100.91 4.75168Z" fill="#7D7D7D"/>
<path d="M12.3061 24.7733H16.3491V36.0485H13.7558V27.141L9.97052 36.0485H7.50608L3.72082 27.141V36.0485H1.12752V24.7733H5.17049L8.73024 33.4391L12.3061 24.7733ZM18.4424 36.0485V27.4632H20.8746V36.0485H18.4424ZM19.6505 26.4645C18.9095 26.4645 18.3941 26.0457 18.3941 25.3209C18.3941 24.58 18.9095 24.1612 19.6505 24.1612C20.3914 24.1612 20.923 24.58 20.923 25.3209C20.923 26.0457 20.3914 26.4645 19.6505 26.4645ZM28.5174 27.2377C30.7241 27.2377 32.0127 28.4296 32.0127 30.3625V36.0485H29.5644V30.9746C29.5644 29.9437 28.9684 29.0578 27.4543 29.0578C25.9402 29.0578 25.2637 29.976 25.2637 30.9746V36.0485H22.8153V27.4632H25.2637V28.6713C25.6341 28.1558 26.6811 27.2377 28.5174 27.2377ZM41.0877 24.7733H43.5361V36.0485H41.0877V34.9854C40.4595 35.7908 39.4609 36.2901 38.0112 36.2901C35.5146 36.2901 33.4689 34.6793 33.4689 31.7639C33.4689 28.8484 35.5146 27.2377 38.0112 27.2377C39.4609 27.2377 40.4595 27.737 41.0877 28.5424V24.7733ZM38.5589 34.5988C40.3146 34.5988 41.3938 33.5679 41.3938 31.7639C41.3938 29.9599 40.3146 28.9129 38.5589 28.9129C36.787 28.9129 35.7723 29.9599 35.7723 31.7639C35.7723 33.5679 36.787 34.5988 38.5589 34.5988ZM50.2987 30.878C52.7148 31.2968 54.3578 31.474 54.3578 33.4552C54.3578 35.4203 52.6826 36.2901 49.5738 36.2901C46.5456 36.2901 44.6611 35.3397 44.6611 33.4068H47.3188C47.3188 34.2605 48.3336 34.631 49.7349 34.631C51.1202 34.631 51.845 34.3733 51.845 33.7129C51.845 32.9397 50.7819 32.8431 48.4946 32.4565C46.2235 32.086 44.9993 31.6028 44.9993 29.8954C44.9993 28.1719 46.5295 27.2377 49.4289 27.2377C52.4571 27.2377 53.9712 28.3652 53.9712 29.9437H51.5067C51.5067 29.3961 50.8785 28.8484 49.3967 28.8484C48.0597 28.8484 47.3349 29.1223 47.3349 29.7827C47.3349 30.5236 48.7685 30.6042 50.2987 30.878ZM64.986 32.3921H57.3672C57.5605 33.5679 58.382 34.5988 60.1699 34.5988C61.4746 34.5988 62.3122 34.0189 62.6505 33.2941H64.8089C64.2451 35.4364 62.2961 36.2901 60.1699 36.2901C57.7216 36.2901 55.1605 34.9371 55.1605 31.7639C55.1605 28.5907 57.6894 27.2377 60.1538 27.2377C62.6505 27.2377 65.2438 28.7679 64.986 32.3921ZM60.1538 28.9129C58.6236 28.9129 57.7699 29.7505 57.4477 30.7813H62.7471C62.4894 29.7505 61.7645 28.9129 60.1538 28.9129ZM72.0627 29.1384H69.55V32.7464C69.55 34.1478 70.0654 34.4216 72.0627 34.2122V36.0485C71.7406 36.0968 71.354 36.1773 70.7903 36.1773C67.6976 36.1773 67.1017 34.8404 67.1017 32.6981V29.1384H65.507V27.4632H67.1017V25.2404H69.55V27.4632H72.0627V29.1384Z" fill="url(#paint0_radial_660_960)"/>
<defs>
<radialGradient id="paint0_radial_660_960" cx="0" cy="0" r="1" gradientUnits="userSpaceOnUse" gradientTransform="translate(70.4701 -0.528896) rotate(90) scale(42.6177 124.302)">
<stop stop-color="white"/>
<stop offset="1" stop-color="#9F9F9F"/>
</radialGradient>
</defs>
</svg>
