<svg width="40" height="41" viewBox="0 0 40 41" fill="none" xmlns="http://www.w3.org/2000/svg">
<rect width="39.375" height="40.0716" rx="6.47898" fill="url(#paint0_radial_603_660)"/>
<path fill-rule="evenodd" clip-rule="evenodd" d="M19.3799 10.4148C19.7377 10.4148 20.0278 10.7049 20.0278 11.0627V13.6517C22.064 13.7404 23.3552 14.2532 24.1463 15.0023C25.0307 15.8398 25.168 16.8557 25.168 17.5089C25.168 17.8668 24.8779 18.1568 24.5201 18.1568C24.1622 18.1568 23.8722 17.8668 23.8722 17.5089C23.8722 17.0298 23.7738 16.4341 23.2553 15.9432C22.778 15.4912 21.8484 15.0361 20.0278 14.9488V20.0911C22.0604 20.1356 23.5414 20.3985 24.5478 20.9474C25.1205 21.2597 25.5508 21.6704 25.831 22.1876C26.1082 22.6994 26.2141 23.2704 26.2141 23.8682C26.2141 25.2849 25.172 26.2618 23.9249 26.8498C22.8275 27.3672 21.442 27.6564 20.0278 27.7239V29.9661C20.0278 30.3239 19.7377 30.614 19.3799 30.614C19.0221 30.614 18.732 30.3239 18.732 29.9661V27.7291C15.9427 27.6394 14.3014 26.9612 13.4745 25.9283C13.197 25.5817 13.0176 25.0695 12.9072 24.6371C12.7921 24.1868 12.7226 23.7039 12.7226 23.3455C12.7226 22.9877 13.0127 22.6976 13.3705 22.6976C13.7283 22.6976 14.0184 22.9877 14.0184 23.3455C14.0184 23.5679 14.0665 23.9399 14.1626 24.3163C14.2634 24.7107 14.3889 24.997 14.4861 25.1184C14.9549 25.704 16.1101 26.3425 18.732 26.4327V21.3694C16.6812 21.2998 15.2797 20.8933 14.3629 20.2348C13.3097 19.4784 12.983 18.4549 12.983 17.5089C12.983 17.4886 12.983 17.4673 12.9829 17.4451C12.9812 16.9148 12.9779 15.8853 13.8698 15.035C14.6973 14.2463 16.1736 13.7218 18.732 13.6472V11.0627C18.732 10.7049 19.0221 10.4148 19.3799 10.4148ZM18.732 14.9436C16.3173 15.0189 15.2435 15.5158 14.7639 15.973C14.2788 16.4354 14.2788 16.9651 14.2788 17.5052V17.5089C14.2788 18.131 14.4739 18.7192 15.1188 19.1823C15.7391 19.6278 16.8373 20.0033 18.732 20.0728V14.9436ZM20.0278 21.3873V26.4264C21.292 26.3598 22.4787 26.0991 23.3723 25.6778C24.4346 25.1769 24.9183 24.5422 24.9183 23.8682C24.9183 23.4207 24.8391 23.077 24.6916 22.8048C24.5471 22.538 24.313 22.2953 23.9274 22.085C23.1985 21.6875 21.9804 21.4326 20.0278 21.3873Z" fill="#FBE6EE"/>
<defs>
<radialGradient id="paint0_radial_603_660" cx="0" cy="0" r="1" gradientUnits="userSpaceOnUse" gradientTransform="translate(39.375 1.21957) rotate(132.924) scale(47.5854 46.7582)">
<stop stop-color="#ED613A"/>
<stop offset="0.495" stop-color="#CC0B2D"/>
<stop offset="1" stop-color="#7D278E"/>
</radialGradient>
</defs>
</svg>
