<svg width="619" height="221" viewBox="0 0 619 221" fill="none" xmlns="http://www.w3.org/2000/svg">
<path d="M21.8919 19.6515V23.6202H1.92034V1.21621H21.5719V5.18493H7.07326V10.1458H20.6757V14.0825H7.07326V19.6515H21.8919ZM36.4345 6.11309C40.8193 6.11309 43.3798 8.48152 43.3798 12.3222V23.6202H38.5149V13.5384C38.5149 11.4901 37.3307 9.72974 34.3221 9.72974C31.3136 9.72974 29.9694 11.5541 29.9694 13.5384V23.6202H25.1045V6.56117H29.9694V8.9616C30.7055 7.93742 32.7859 6.11309 36.4345 6.11309ZM58.3545 9.88977H53.3616V17.0591C53.3616 19.8436 54.3857 20.3877 58.3545 19.9716V23.6202C57.7143 23.7163 56.9462 23.8763 55.826 23.8763C49.6809 23.8763 48.4967 21.2198 48.4967 16.963V9.88977H45.3281V6.56117H48.4967V2.14438H53.3616V6.56117H58.3545V9.88977ZM72.7825 6.1451C73.9027 6.1451 74.7349 6.24112 75.311 6.40114V10.8819H75.151C74.5429 10.6259 73.3907 10.3379 71.9184 10.3379C67.8857 10.3379 66.4134 12.8663 66.4134 15.5228V23.6202H61.5485V6.56117H66.4134V9.69774C67.1175 8.48152 69.1339 6.1451 72.7825 6.1451ZM96.1147 16.3549H80.976C81.3601 18.6913 82.9924 20.7397 86.545 20.7397C89.1375 20.7397 90.8018 19.5875 91.4739 18.1473H95.7627C94.6425 22.404 90.7698 24.1003 86.545 24.1003C81.6801 24.1003 76.5912 21.4118 76.5912 15.1067C76.5912 8.80158 81.6161 6.11309 86.513 6.11309C91.4739 6.11309 96.6268 9.15364 96.1147 16.3549ZM86.513 9.44169C83.4725 9.44169 81.7762 11.106 81.136 13.1544H91.6659C91.1538 11.106 89.7136 9.44169 86.513 9.44169ZM119.004 6.11309C123.964 6.11309 127.997 9.31367 127.997 15.1067C127.997 20.8997 123.964 24.1003 119.004 24.1003C116.123 24.1003 114.139 23.1081 112.89 21.5079V28.9652H108.026V6.56117H112.89V8.70556C114.139 7.10527 116.123 6.11309 119.004 6.11309ZM117.915 20.7397C121.436 20.7397 123.452 18.6913 123.452 15.1067C123.452 11.5221 121.436 9.44169 117.915 9.44169C114.427 9.44169 112.282 11.5221 112.282 15.1067C112.282 18.6913 114.427 20.7397 117.915 20.7397ZM139.042 6.11309C143.939 6.11309 148.228 7.52135 148.228 12.5462V23.6202H143.363V21.3478C142.627 22.468 140.163 24.1003 136.354 24.1003C132.353 24.1003 129.601 22.436 129.601 19.0754C129.601 15.4908 131.457 12.6103 143.363 13.3464V12.5462C143.363 10.7539 142.563 9.44169 139.042 9.44169C136.098 9.44169 135.17 10.3058 134.914 11.4901H130.369C130.913 7.71338 134.37 6.11309 139.042 6.11309ZM143.363 18.6273V16.2269C136.898 15.8748 134.498 16.483 134.498 18.9154C134.498 20.5157 135.682 21.1558 137.794 21.1558C140.419 21.1558 142.467 20.1316 143.363 18.6273ZM163.299 6.1451C164.419 6.1451 165.251 6.24112 165.827 6.40114V10.8819H165.667C165.059 10.6259 163.907 10.3379 162.435 10.3379C158.402 10.3379 156.93 12.8663 156.93 15.5228V23.6202H152.065V6.56117H156.93V9.69774C157.634 8.48152 159.65 6.1451 163.299 6.1451ZM176.237 6.11309C181.133 6.11309 185.422 7.52135 185.422 12.5462V23.6202H180.557V21.3478C179.821 22.468 177.357 24.1003 173.548 24.1003C169.547 24.1003 166.795 22.436 166.795 19.0754C166.795 15.4908 168.651 12.6103 180.557 13.3464V12.5462C180.557 10.7539 179.757 9.44169 176.237 9.44169C173.292 9.44169 172.364 10.3058 172.108 11.4901H167.563C168.107 7.71338 171.564 6.11309 176.237 6.11309ZM180.557 18.6273V16.2269C174.092 15.8748 171.692 16.483 171.692 18.9154C171.692 20.5157 172.876 21.1558 174.988 21.1558C177.613 21.1558 179.661 20.1316 180.557 18.6273ZM207.447 6.11309C212.44 6.11309 217.625 8.67355 217.625 15.1067C217.625 21.5399 212.44 24.1003 207.447 24.1003C202.486 24.1003 197.269 21.5399 197.269 15.1067C197.269 8.67355 202.486 6.11309 207.447 6.11309ZM207.447 20.7397C211.544 20.7397 213.08 18.0832 213.08 15.1067C213.08 12.0982 211.544 9.44169 207.447 9.44169C203.35 9.44169 201.846 12.0982 201.846 15.1067C201.846 18.0832 203.35 20.7397 207.447 20.7397ZM249.488 5.18493H234.958V10.7539H248.56V14.6906H234.958V23.6202H229.805V1.21621H249.488V5.18493ZM270.615 16.3549H255.476C255.86 18.6913 257.492 20.7397 261.045 20.7397C263.638 20.7397 265.302 19.5875 265.974 18.1473H270.263C269.143 22.404 265.27 24.1003 261.045 24.1003C256.18 24.1003 251.091 21.4118 251.091 15.1067C251.091 8.80158 256.116 6.11309 261.013 6.11309C265.974 6.11309 271.127 9.15364 270.615 16.3549ZM261.013 9.44169C257.973 9.44169 256.276 11.106 255.636 13.1544H266.166C265.654 11.106 264.214 9.44169 261.013 9.44169ZM284.789 6.1451C285.91 6.1451 286.742 6.24112 287.318 6.40114V10.8819H287.158C286.55 10.6259 285.397 10.3379 283.925 10.3379C279.892 10.3379 278.42 12.8663 278.42 15.5228V23.6202H273.555V6.56117H278.42V9.69774C279.124 8.48152 281.141 6.1451 284.789 6.1451ZM301.105 6.1451C302.225 6.1451 303.057 6.24112 303.633 6.40114V10.8819H303.473C302.865 10.6259 301.713 10.3379 300.241 10.3379C296.208 10.3379 294.736 12.8663 294.736 15.5228V23.6202H289.871V6.56117H294.736V9.69774C295.44 8.48152 297.456 6.1451 301.105 6.1451ZM324.437 16.3549H309.298C309.682 18.6913 311.315 20.7397 314.867 20.7397C317.46 20.7397 319.124 19.5875 319.796 18.1473H324.085C322.965 22.404 319.092 24.1003 314.867 24.1003C310.002 24.1003 304.913 21.4118 304.913 15.1067C304.913 8.80158 309.938 6.11309 314.835 6.11309C319.796 6.11309 324.949 9.15364 324.437 16.3549ZM314.835 9.44169C311.795 9.44169 310.098 11.106 309.458 13.1544H319.988C319.476 11.106 318.036 9.44169 314.835 9.44169ZM327.377 23.6202V6.56117H332.21V23.6202H327.377ZM329.778 4.57682C328.306 4.57682 327.281 3.74467 327.281 2.30441C327.281 0.832146 328.306 -3.81538e-06 329.778 -3.81538e-06C331.25 -3.81538e-06 332.306 0.832146 332.306 2.30441C332.306 3.74467 331.25 4.57682 329.778 4.57682ZM347.301 6.1451C348.421 6.1451 349.253 6.24112 349.829 6.40114V10.8819H349.669C349.061 10.6259 347.909 10.3379 346.436 10.3379C342.404 10.3379 340.931 12.8663 340.931 15.5228V23.6202H336.067V6.56117H340.931V9.69774C341.636 8.48152 343.652 6.1451 347.301 6.1451ZM360.238 6.11309C365.135 6.11309 369.424 7.52135 369.424 12.5462V23.6202H364.559V21.3478C363.823 22.468 361.359 24.1003 357.55 24.1003C353.549 24.1003 350.797 22.436 350.797 19.0754C350.797 15.4908 352.653 12.6103 364.559 13.3464V12.5462C364.559 10.7539 363.759 9.44169 360.238 9.44169C357.294 9.44169 356.366 10.3058 356.11 11.4901H351.565C352.109 7.71338 355.566 6.11309 360.238 6.11309ZM364.559 18.6273V16.2269C358.094 15.8748 355.694 16.483 355.694 18.9154C355.694 20.5157 356.878 21.1558 358.99 21.1558C361.615 21.1558 363.663 20.1316 364.559 18.6273ZM393.264 5.18493H378.734V10.7539H392.336V14.6906H378.734V23.6202H373.581V1.21621H393.264V5.18493ZM396.14 -3.81538e-06H401.005V23.6202H396.14V-3.81538e-06ZM404.86 23.6202V6.56117H409.693V23.6202H404.86ZM407.261 4.57682C405.788 4.57682 404.764 3.74467 404.764 2.30441C404.764 0.832146 405.788 -3.81538e-06 407.261 -3.81538e-06C408.733 -3.81538e-06 409.789 0.832146 409.789 2.30441C409.789 3.74467 408.733 4.57682 407.261 4.57682ZM425.391 14.9787L432.785 23.6202H427.024L422.351 17.9232L417.71 23.6202H411.949L419.342 14.9787L412.429 6.56117H418.222L422.351 12.0662L426.511 6.56117H432.273L425.391 14.9787ZM462.555 16.3549H447.417C447.801 18.6913 449.433 20.7397 452.986 20.7397C455.578 20.7397 457.243 19.5875 457.915 18.1473H462.203C461.083 22.404 457.21 24.1003 452.986 24.1003C448.121 24.1003 443.032 21.4118 443.032 15.1067C443.032 8.80158 448.057 6.11309 452.954 6.11309C457.915 6.11309 463.068 9.15364 462.555 16.3549ZM452.954 9.44169C449.913 9.44169 448.217 11.106 447.577 13.1544H458.107C457.595 11.106 456.154 9.44169 452.954 9.44169ZM482.948 6.11309C487.845 6.11309 492.134 7.52135 492.134 12.5462V23.6202H487.269V21.3478C486.533 22.468 484.068 24.1003 480.259 24.1003C476.259 24.1003 473.506 22.436 473.506 19.0754C473.506 15.4908 475.363 12.6103 487.269 13.3464V12.5462C487.269 10.7539 486.468 9.44169 482.948 9.44169C480.003 9.44169 479.075 10.3058 478.819 11.4901H474.274C474.818 7.71338 478.275 6.11309 482.948 6.11309ZM487.269 18.6273V16.2269C480.803 15.8748 478.403 16.483 478.403 18.9154C478.403 20.5157 479.587 21.1558 481.7 21.1558C484.324 21.1558 486.372 20.1316 487.269 18.6273ZM506.948 6.11309C511.909 6.11309 515.942 9.31367 515.942 15.1067C515.942 20.8997 511.909 24.1003 506.948 24.1003C504.068 24.1003 502.083 23.1081 500.835 21.5079V28.9652H495.97V6.56117H500.835V8.70556C502.083 7.10527 504.068 6.11309 506.948 6.11309ZM505.86 20.7397C509.381 20.7397 511.397 18.6913 511.397 15.1067C511.397 11.5221 509.381 9.44169 505.86 9.44169C502.371 9.44169 500.227 11.5221 500.227 15.1067C500.227 18.6913 502.371 20.7397 505.86 20.7397ZM530.052 6.1451C531.172 6.1451 532.004 6.24112 532.581 6.40114V10.8819H532.42C531.812 10.6259 530.66 10.3379 529.188 10.3379C525.155 10.3379 523.683 12.8663 523.683 15.5228V23.6202H518.818V6.56117H523.683V9.69774C524.387 8.48152 526.403 6.1451 530.052 6.1451ZM553.384 16.3549H538.246C538.63 18.6913 540.262 20.7397 543.815 20.7397C546.407 20.7397 548.071 19.5875 548.743 18.1473H553.032C551.912 22.404 548.039 24.1003 543.815 24.1003C538.95 24.1003 533.861 21.4118 533.861 15.1067C533.861 8.80158 538.886 6.11309 543.783 6.11309C548.743 6.11309 553.896 9.15364 553.384 16.3549ZM543.783 9.44169C540.742 9.44169 539.046 11.106 538.406 13.1544H548.935C548.423 11.106 546.983 9.44169 543.783 9.44169ZM567.655 6.11309C572.04 6.11309 574.6 8.48152 574.6 12.3222V23.6202H569.735V13.5384C569.735 11.4901 568.551 9.72974 565.542 9.72974C562.534 9.72974 561.19 11.5541 561.19 13.5384V23.6202H556.325V6.56117H561.19V8.9616C561.926 7.93742 564.006 6.11309 567.655 6.11309ZM592.632 1.21621H597.497V23.6202H592.632V21.5079C591.384 23.1081 589.4 24.1003 586.519 24.1003C581.558 24.1003 577.494 20.8997 577.494 15.1067C577.494 9.31367 581.558 6.11309 586.519 6.11309C589.4 6.11309 591.384 7.10527 592.632 8.70556V1.21621ZM587.607 20.7397C591.096 20.7397 593.24 18.6913 593.24 15.1067C593.24 11.5221 591.096 9.44169 587.607 9.44169C584.087 9.44169 582.07 11.5221 582.07 15.1067C582.07 18.6913 584.087 20.7397 587.607 20.7397ZM609.814 6.11309C614.711 6.11309 619 7.52135 619 12.5462V23.6202H614.135V21.3478C613.399 22.468 610.935 24.1003 607.126 24.1003C603.125 24.1003 600.373 22.436 600.373 19.0754C600.373 15.4908 602.229 12.6103 614.135 13.3464V12.5462C614.135 10.7539 613.335 9.44169 609.814 9.44169C606.87 9.44169 605.942 10.3058 605.686 11.4901H601.141C601.685 7.71338 605.142 6.11309 609.814 6.11309ZM614.135 18.6273V16.2269C607.67 15.8748 605.27 16.483 605.27 18.9154C605.27 20.5157 606.454 21.1558 608.566 21.1558C611.191 21.1558 613.239 20.1316 614.135 18.6273Z" fill="url(#paint0_linear_603_675)"/>
<path d="M10.0818 54.1217C14.9787 54.1217 19.2674 55.53 19.2674 60.5549V71.6288H14.4026V69.3564C13.6664 70.4766 11.202 72.1089 7.39332 72.1089C3.3926 72.1089 0.640108 70.4446 0.640108 67.084C0.640108 63.4994 2.49644 60.6189 14.4026 61.355V60.5549C14.4026 58.7625 13.6024 57.4503 10.0818 57.4503C7.13727 57.4503 6.20911 58.3145 5.95306 59.4987H1.40825C1.95234 55.722 5.40896 54.1217 10.0818 54.1217ZM14.4026 66.6359V64.2355C7.93742 63.8835 5.53699 64.4916 5.53699 66.924C5.53699 68.5243 6.7212 69.1644 8.83358 69.1644C11.458 69.1644 13.5064 68.1402 14.4026 66.6359ZM41.2921 54.1217C46.285 54.1217 51.47 56.6822 51.47 63.1153C51.47 69.5485 46.285 72.1089 41.2921 72.1089C36.3313 72.1089 31.1143 69.5485 31.1143 63.1153C31.1143 56.6822 36.3313 54.1217 41.2921 54.1217ZM41.2921 68.7483C45.3889 68.7483 46.9252 66.0919 46.9252 63.1153C46.9252 60.1068 45.3889 57.4503 41.2921 57.4503C37.1954 57.4503 35.6911 60.1068 35.6911 63.1153C35.6911 66.0919 37.1954 68.7483 41.2921 68.7483ZM65.3377 54.1217C70.2986 54.1217 74.3313 57.3223 74.3313 63.1153C74.3313 68.9084 70.2986 72.1089 65.3377 72.1089C62.4572 72.1089 60.4728 71.1168 59.2246 69.5165V76.9738H54.3597V54.5698H59.2246V56.7142C60.4728 55.1139 62.4572 54.1217 65.3377 54.1217ZM64.2495 68.7483C67.7701 68.7483 69.7865 66.7 69.7865 63.1153C69.7865 59.5307 67.7701 57.4503 64.2495 57.4503C60.7609 57.4503 58.6165 59.5307 58.6165 63.1153C58.6165 66.7 60.7609 68.7483 64.2495 68.7483ZM95.7709 64.3635H80.6322C81.0163 66.7 82.6486 68.7483 86.2012 68.7483C88.7937 68.7483 90.458 67.5961 91.1301 66.1559H95.4189C94.2987 70.4126 90.426 72.1089 86.2012 72.1089C81.3363 72.1089 76.2474 69.4204 76.2474 63.1153C76.2474 56.8102 81.2723 54.1217 86.1692 54.1217C91.1301 54.1217 96.283 57.1622 95.7709 64.3635ZM86.1692 57.4503C83.1287 57.4503 81.4323 59.1146 80.7922 61.163H91.3221C90.81 59.1146 89.3698 57.4503 86.1692 57.4503ZM109.945 54.1537C111.066 54.1537 111.898 54.2497 112.474 54.4098V58.8906H112.314C111.706 58.6345 110.554 58.3465 109.081 58.3465C105.049 58.3465 103.576 60.8749 103.576 63.5314V71.6288H98.7114V54.5698H103.576V57.7063C104.28 56.4901 106.297 54.1537 109.945 54.1537ZM122.883 54.1217C127.78 54.1217 132.069 55.53 132.069 60.5549V71.6288H127.204V69.3564C126.468 70.4766 124.003 72.1089 120.195 72.1089C116.194 72.1089 113.442 70.4446 113.442 67.084C113.442 63.4994 115.298 60.6189 127.204 61.355V60.5549C127.204 58.7625 126.404 57.4503 122.883 57.4503C119.939 57.4503 119.011 58.3145 118.755 59.4987H114.21C114.754 55.722 118.21 54.1217 122.883 54.1217ZM127.204 66.6359V64.2355C120.739 63.8835 118.338 64.4916 118.338 66.924C118.338 68.5243 119.523 69.1644 121.635 69.1644C124.26 69.1644 126.308 68.1402 127.204 66.6359ZM147.14 54.1537C148.26 54.1537 149.092 54.2497 149.668 54.4098V58.8906H149.508C148.9 58.6345 147.748 58.3465 146.275 58.3465C142.243 58.3465 140.77 60.8749 140.77 63.5314V71.6288H135.906V54.5698H140.77V57.7063C141.475 56.4901 143.491 54.1537 147.14 54.1537ZM170.473 68.7483C173.674 68.7483 175.242 67.116 175.818 64.9717H180.171C179.275 70.0926 174.954 72.1089 170.473 72.1089C165.48 72.1089 160.231 69.7085 160.231 63.1153C160.231 56.5221 165.48 54.1217 170.473 54.1217C174.954 54.1217 179.275 56.1381 180.171 61.259H175.818C175.242 59.0826 173.674 57.4503 170.473 57.4503C166.376 57.4503 164.808 60.1068 164.808 63.1153C164.808 66.0919 166.376 68.7483 170.473 68.7483ZM191.944 54.1217C196.937 54.1217 202.122 56.6822 202.122 63.1153C202.122 69.5485 196.937 72.1089 191.944 72.1089C186.983 72.1089 181.766 69.5485 181.766 63.1153C181.766 56.6822 186.983 54.1217 191.944 54.1217ZM191.944 68.7483C196.041 68.7483 197.577 66.0919 197.577 63.1153C197.577 60.1068 196.041 57.4503 191.944 57.4503C187.847 57.4503 186.343 60.1068 186.343 63.1153C186.343 66.0919 187.847 68.7483 191.944 68.7483ZM227.608 54.1217C231.993 54.1217 234.265 56.4901 234.265 60.3308V71.6288H229.4V61.547C229.4 59.4987 228.504 57.7384 225.783 57.7384C223.063 57.7384 222.071 59.5307 222.071 61.547V71.6288H217.206V61.547C217.206 59.4987 216.31 57.7384 213.589 57.7384C210.869 57.7384 209.845 59.5627 209.845 61.547V71.6288H205.012V54.5698H209.845V56.8102C210.453 55.754 211.925 54.1217 215.414 54.1217C218.39 54.1217 220.375 55.2099 221.335 57.0982C221.943 56.1701 223.863 54.1217 227.608 54.1217ZM256.684 61.355C261.484 62.1872 264.749 62.5392 264.749 66.4759C264.749 70.3806 261.42 72.1089 255.243 72.1089C249.226 72.1089 245.482 70.2206 245.482 66.3799H250.762C250.762 68.0762 252.779 68.8123 255.563 68.8123C258.316 68.8123 259.756 68.3002 259.756 66.988C259.756 65.4517 257.644 65.2597 253.099 64.4916C248.586 63.7554 246.154 62.7953 246.154 59.4027C246.154 55.978 249.194 54.1217 254.955 54.1217C260.972 54.1217 263.981 56.3621 263.981 59.4987H259.084C259.084 58.4105 257.836 57.3223 254.891 57.3223C252.235 57.3223 250.794 57.8664 250.794 59.1786C250.794 60.6509 253.643 60.8109 256.684 61.355ZM285.868 64.3635H270.729C271.113 66.7 272.745 68.7483 276.298 68.7483C278.89 68.7483 280.555 67.5961 281.227 66.1559H285.515C284.395 70.4126 280.523 72.1089 276.298 72.1089C271.433 72.1089 266.344 69.4204 266.344 63.1153C266.344 56.8102 271.369 54.1217 276.266 54.1217C281.227 54.1217 286.38 57.1622 285.868 64.3635ZM276.266 57.4503C273.225 57.4503 271.529 59.1146 270.889 61.163H281.419C280.907 59.1146 279.466 57.4503 276.266 57.4503ZM302.987 54.5698H307.819V70.0286C307.819 76.6858 302.282 77.5819 297.386 77.5819C291.689 77.5819 288.424 75.6296 288.104 72.365H292.649C293.001 73.4212 294.697 74.2213 297.386 74.2213C301.258 74.2213 302.987 73.1011 302.987 70.0286V68.4603C301.706 69.8365 299.754 70.5727 296.873 70.5727C291.881 70.5727 287.848 68.3002 287.848 62.5072C287.848 56.7142 291.881 54.1217 296.873 54.1217C299.498 54.1217 301.61 55.1139 302.987 56.8102V54.5698ZM297.93 67.5321C301.45 67.5321 303.595 65.7078 303.595 62.5072C303.595 59.2746 301.45 57.4823 297.93 57.4823C294.441 57.4823 292.425 59.3066 292.425 62.5072C292.425 65.7078 294.441 67.5321 297.93 67.5321ZM318.601 72.1089C314.216 72.1089 311.656 69.7085 311.656 65.8678V54.5698H316.521V64.6516C316.521 66.7 317.705 68.4603 320.714 68.4603C323.722 68.4603 325.066 66.6359 325.066 64.6516V54.5698H329.931V71.6288H325.066V69.2284C324.33 70.2526 322.25 72.1089 318.601 72.1089ZM345.019 54.1537C346.139 54.1537 346.971 54.2497 347.547 54.4098V58.8906H347.387C346.779 58.6345 345.627 58.3465 344.155 58.3465C340.122 58.3465 338.65 60.8749 338.65 63.5314V71.6288H333.785V54.5698H338.65V57.7063C339.354 56.4901 341.37 54.1537 345.019 54.1537ZM357.957 54.1217C362.854 54.1217 367.142 55.53 367.142 60.5549V71.6288H362.277V69.3564C361.541 70.4766 359.077 72.1089 355.268 72.1089C351.267 72.1089 348.515 70.4446 348.515 67.084C348.515 63.4994 350.371 60.6189 362.277 61.355V60.5549C362.277 58.7625 361.477 57.4503 357.957 57.4503C355.012 57.4503 354.084 58.3145 353.828 59.4987H349.283C349.827 55.722 353.284 54.1217 357.957 54.1217ZM362.277 66.6359V64.2355C355.812 63.8835 353.412 64.4916 353.412 66.924C353.412 68.5243 354.596 69.1644 356.708 69.1644C359.333 69.1644 361.381 68.1402 362.277 66.6359ZM382.309 54.1217C386.694 54.1217 389.254 56.4901 389.254 60.3308V71.6288H384.389V61.547C384.389 59.4987 383.205 57.7384 380.197 57.7384C377.188 57.7384 375.844 59.5627 375.844 61.547V71.6288H370.979V54.5698H375.844V56.9702C376.58 55.946 378.66 54.1217 382.309 54.1217ZM402.39 68.7483C405.622 68.7483 407.191 67.116 407.735 64.9717H412.119C411.255 69.7725 407.415 71.8209 403.254 72.0769L402.454 73.1331C404.406 72.589 407.671 72.7811 407.671 75.5976C407.671 78.094 405.814 79.0542 402.838 79.0542C401.333 79.0542 400.245 78.8941 399.029 78.5421V76.3657C399.637 76.5897 400.629 76.9098 401.814 76.9098C403.542 76.9098 404.118 76.4617 404.118 75.6296C404.118 74.5094 402.582 74.3493 399.765 74.7654V73.4852L400.853 72.0129C396.373 71.5648 392.148 69.0044 392.148 63.1153C392.148 56.4901 397.429 54.1217 402.39 54.1217C406.87 54.1217 411.223 56.1381 412.119 61.227H407.735C407.191 59.0826 405.622 57.4503 402.39 57.4503C398.293 57.4503 396.725 60.1068 396.725 63.1153C396.725 66.0919 398.293 68.7483 402.39 68.7483ZM423.156 54.1217C428.053 54.1217 432.342 55.53 432.342 60.5549V71.6288H427.477V69.3564C426.741 70.4766 424.276 72.1089 420.467 72.1089C416.467 72.1089 413.714 70.4446 413.714 67.084C413.714 63.4994 415.571 60.6189 427.477 61.355V60.5549C427.477 58.7625 426.677 57.4503 423.156 57.4503C420.211 57.4503 419.283 58.3145 419.027 59.4987H414.482C415.026 55.722 418.483 54.1217 423.156 54.1217ZM427.477 66.6359V64.2355C421.012 63.8835 418.611 64.4916 418.611 66.924C418.611 68.5243 419.795 69.1644 421.908 69.1644C424.532 69.1644 426.581 68.1402 427.477 66.6359ZM454.75 61.355C459.551 62.1872 462.816 62.5392 462.816 66.4759C462.816 70.3806 459.487 72.1089 453.31 72.1089C447.293 72.1089 443.548 70.2206 443.548 66.3799H448.829C448.829 68.0762 450.846 68.8123 453.63 68.8123C456.383 68.8123 457.823 68.3002 457.823 66.988C457.823 65.4517 455.71 65.2597 451.166 64.4916C446.653 63.7554 444.22 62.7953 444.22 59.4027C444.22 55.978 447.261 54.1217 453.022 54.1217C459.039 54.1217 462.048 56.3621 462.048 59.4987H457.151C457.151 58.4105 455.903 57.3223 452.958 57.3223C450.302 57.3223 448.861 57.8664 448.861 59.1786C448.861 60.6509 451.71 60.8109 454.75 61.355ZM483.934 64.3635H468.796C469.18 66.7 470.812 68.7483 474.365 68.7483C476.957 68.7483 478.621 67.5961 479.293 66.1559H483.582C482.462 70.4126 478.589 72.1089 474.365 72.1089C469.5 72.1089 464.411 69.4204 464.411 63.1153C464.411 56.8102 469.436 54.1217 474.333 54.1217C479.293 54.1217 484.446 57.1622 483.934 64.3635ZM474.333 57.4503C471.292 57.4503 469.596 59.1146 468.956 61.163H479.485C478.973 59.1146 477.533 57.4503 474.333 57.4503ZM501.053 54.5698H505.886V70.0286C505.886 76.6858 500.349 77.5819 495.452 77.5819C489.755 77.5819 486.491 75.6296 486.171 72.365H490.716C491.068 73.4212 492.764 74.2213 495.452 74.2213C499.325 74.2213 501.053 73.1011 501.053 70.0286V68.4603C499.773 69.8365 497.821 70.5727 494.94 70.5727C489.947 70.5727 485.915 68.3002 485.915 62.5072C485.915 56.7142 489.947 54.1217 494.94 54.1217C497.565 54.1217 499.677 55.1139 501.053 56.8102V54.5698ZM495.996 67.5321C499.517 67.5321 501.661 65.7078 501.661 62.5072C501.661 59.2746 499.517 57.4823 495.996 57.4823C492.508 57.4823 490.491 59.3066 490.491 62.5072C490.491 65.7078 492.508 67.5321 495.996 67.5321ZM516.668 72.1089C512.283 72.1089 509.723 69.7085 509.723 65.8678V54.5698H514.588V64.6516C514.588 66.7 515.772 68.4603 518.78 68.4603C521.789 68.4603 523.133 66.6359 523.133 64.6516V54.5698H527.998V71.6288H523.133V69.2284C522.397 70.2526 520.317 72.1089 516.668 72.1089ZM531.852 71.6288V54.5698H536.685V71.6288H531.852ZM534.252 52.5854C532.78 52.5854 531.756 51.7533 531.756 50.313C531.756 48.8408 532.78 48.0086 534.252 48.0086C535.724 48.0086 536.781 48.8408 536.781 50.313C536.781 51.7533 535.724 52.5854 534.252 52.5854ZM551.871 54.1217C556.256 54.1217 558.816 56.4901 558.816 60.3308V71.6288H553.951V61.547C553.951 59.4987 552.767 57.7384 549.758 57.7384C546.75 57.7384 545.406 59.5627 545.406 61.547V71.6288H540.541V54.5698H545.406V56.9702C546.142 55.946 548.222 54.1217 551.871 54.1217ZM576.848 49.2248H581.713V71.6288H576.848V69.5165C575.6 71.1168 573.616 72.1089 570.735 72.1089C565.774 72.1089 561.709 68.9084 561.709 63.1153C561.709 57.3223 565.774 54.1217 570.735 54.1217C573.616 54.1217 575.6 55.1139 576.848 56.7142V49.2248ZM571.823 68.7483C575.312 68.7483 577.456 66.7 577.456 63.1153C577.456 59.5307 575.312 57.4503 571.823 57.4503C568.303 57.4503 566.286 59.5307 566.286 63.1153C566.286 66.7 568.303 68.7483 571.823 68.7483ZM594.766 54.1217C599.759 54.1217 604.944 56.6822 604.944 63.1153C604.944 69.5485 599.759 72.1089 594.766 72.1089C589.806 72.1089 584.589 69.5485 584.589 63.1153C584.589 56.6822 589.806 54.1217 594.766 54.1217ZM594.766 68.7483C598.863 68.7483 600.399 66.0919 600.399 63.1153C600.399 60.1068 598.863 57.4503 594.766 57.4503C590.67 57.4503 589.165 60.1068 589.165 63.1153C589.165 66.0919 590.67 68.7483 594.766 68.7483ZM8.54553 120.118C4.16074 120.118 1.60028 117.717 1.60028 113.876V102.578H6.46515V112.66C6.46515 114.709 7.64937 116.469 10.6579 116.469C13.6664 116.469 15.0107 114.645 15.0107 112.66V102.578H19.8756V119.637H15.0107V117.237C14.2746 118.261 12.1942 120.118 8.54553 120.118ZM46.3253 102.13C50.7101 102.13 52.9825 104.499 52.9825 108.339V119.637H48.1176V109.556C48.1176 107.507 47.2215 105.747 44.501 105.747C41.7805 105.747 40.7883 107.539 40.7883 109.556V119.637H35.9234V109.556C35.9234 107.507 35.0273 105.747 32.3068 105.747C29.5863 105.747 28.5621 107.571 28.5621 109.556V119.637H23.7292V102.578H28.5621V104.819C29.1702 103.763 30.6425 102.13 34.1311 102.13C37.1076 102.13 39.092 103.219 40.0522 105.107C40.6603 104.179 42.5806 102.13 46.3253 102.13ZM76.7773 102.13C81.7382 102.13 85.7709 105.331 85.7709 111.124C85.7709 116.917 81.7382 120.118 76.7773 120.118C73.8967 120.118 71.9124 119.125 70.6642 117.525V124.982H65.7993V102.578H70.6642V104.723C71.9124 103.122 73.8967 102.13 76.7773 102.13ZM75.6891 116.757C79.2097 116.757 81.2261 114.709 81.2261 111.124C81.2261 107.539 79.2097 105.459 75.6891 105.459C72.2004 105.459 70.0561 107.539 70.0561 111.124C70.0561 114.709 72.2004 116.757 75.6891 116.757ZM96.8161 102.13C101.713 102.13 106.002 103.539 106.002 108.563V119.637H101.137V117.365C100.401 118.485 97.9363 120.118 94.1276 120.118C90.1269 120.118 87.3744 118.453 87.3744 115.093C87.3744 111.508 89.2307 108.627 101.137 109.364V108.563C101.137 106.771 100.337 105.459 96.8161 105.459C93.8716 105.459 92.9434 106.323 92.6874 107.507H88.1426C88.6866 103.731 92.1433 102.13 96.8161 102.13ZM101.137 114.645V112.244C94.6717 111.892 92.2713 112.5 92.2713 114.933C92.2713 116.533 93.4555 117.173 95.5679 117.173C98.1924 117.173 100.241 116.149 101.137 114.645ZM119.44 109.364C124.241 110.196 127.506 110.548 127.506 114.485C127.506 118.389 124.177 120.118 118 120.118C111.983 120.118 108.238 118.229 108.238 114.389H113.519C113.519 116.085 115.535 116.821 118.32 116.821C121.072 116.821 122.513 116.309 122.513 114.997C122.513 113.46 120.4 113.268 115.856 112.5C111.343 111.764 108.91 110.804 108.91 107.411C108.91 103.987 111.951 102.13 117.712 102.13C123.729 102.13 126.737 104.371 126.737 107.507H121.841C121.841 106.419 120.592 105.331 117.648 105.331C114.991 105.331 113.551 105.875 113.551 107.187C113.551 108.659 116.4 108.82 119.44 109.364ZM139.663 109.364C144.463 110.196 147.728 110.548 147.728 114.485C147.728 118.389 144.399 120.118 138.222 120.118C132.205 120.118 128.461 118.229 128.461 114.389H133.741C133.741 116.085 135.758 116.821 138.542 116.821C141.295 116.821 142.735 116.309 142.735 114.997C142.735 113.46 140.623 113.268 136.078 112.5C131.565 111.764 129.133 110.804 129.133 107.411C129.133 103.987 132.173 102.13 137.934 102.13C143.951 102.13 146.96 104.371 146.96 107.507H142.063C142.063 106.419 140.815 105.331 137.87 105.331C135.214 105.331 133.773 105.875 133.773 107.187C133.773 108.659 136.622 108.82 139.663 109.364ZM159.501 102.13C164.494 102.13 169.679 104.691 169.679 111.124C169.679 117.557 164.494 120.118 159.501 120.118C154.54 120.118 149.323 117.557 149.323 111.124C149.323 104.691 154.54 102.13 159.501 102.13ZM159.501 116.757C163.598 116.757 165.134 114.1 165.134 111.124C165.134 108.115 163.598 105.459 159.501 105.459C155.404 105.459 153.9 108.115 153.9 111.124C153.9 114.1 155.404 116.757 159.501 116.757ZM190.02 102.13C194.917 102.13 199.206 103.539 199.206 108.563V119.637H194.341V117.365C193.605 118.485 191.141 120.118 187.332 120.118C183.331 120.118 180.579 118.453 180.579 115.093C180.579 111.508 182.435 108.627 194.341 109.364V108.563C194.341 106.771 193.541 105.459 190.02 105.459C187.076 105.459 186.148 106.323 185.892 107.507H181.347C181.891 103.731 185.347 102.13 190.02 102.13ZM194.341 114.645V112.244C187.876 111.892 185.476 112.5 185.476 114.933C185.476 116.533 186.66 117.173 188.772 117.173C191.397 117.173 193.445 116.149 194.341 114.645ZM222.991 102.13C227.952 102.13 231.985 105.331 231.985 111.124C231.985 116.917 227.952 120.118 222.991 120.118C220.11 120.118 218.126 119.125 216.878 117.525V124.982H212.013V102.578H216.878V104.723C218.126 103.122 220.11 102.13 222.991 102.13ZM221.903 116.757C225.423 116.757 227.44 114.709 227.44 111.124C227.44 107.539 225.423 105.459 221.903 105.459C218.414 105.459 216.27 107.539 216.27 111.124C216.27 114.709 218.414 116.757 221.903 116.757ZM243.03 102.13C247.927 102.13 252.215 103.539 252.215 108.563V119.637H247.351V117.365C246.614 118.485 244.15 120.118 240.341 120.118C236.341 120.118 233.588 118.453 233.588 115.093C233.588 111.508 235.444 108.627 247.351 109.364V108.563C247.351 106.771 246.55 105.459 243.03 105.459C240.085 105.459 239.157 106.323 238.901 107.507H234.356C234.9 103.731 238.357 102.13 243.03 102.13ZM247.351 114.645V112.244C240.885 111.892 238.485 112.5 238.485 114.933C238.485 116.533 239.669 117.173 241.782 117.173C244.406 117.173 246.454 116.149 247.351 114.645ZM265.654 109.364C270.455 110.196 273.719 110.548 273.719 114.485C273.719 118.389 270.391 120.118 264.214 120.118C258.197 120.118 254.452 118.229 254.452 114.389H259.733C259.733 116.085 261.749 116.821 264.534 116.821C267.286 116.821 268.726 116.309 268.726 114.997C268.726 113.46 266.614 113.268 262.069 112.5C257.556 111.764 255.124 110.804 255.124 107.411C255.124 103.987 258.165 102.13 263.926 102.13C269.943 102.13 272.951 104.371 272.951 107.507H268.054C268.054 106.419 266.806 105.331 263.862 105.331C261.205 105.331 259.765 105.875 259.765 107.187C259.765 108.659 262.613 108.82 265.654 109.364ZM285.876 109.364C290.677 110.196 293.942 110.548 293.942 114.485C293.942 118.389 290.613 120.118 284.436 120.118C278.419 120.118 274.674 118.229 274.674 114.389H279.955C279.955 116.085 281.972 116.821 284.756 116.821C287.509 116.821 288.949 116.309 288.949 114.997C288.949 113.46 286.836 113.268 282.292 112.5C277.779 111.764 275.346 110.804 275.346 107.411C275.346 103.987 278.387 102.13 284.148 102.13C290.165 102.13 293.174 104.371 293.174 107.507H288.277C288.277 106.419 287.028 105.331 284.084 105.331C281.427 105.331 279.987 105.875 279.987 107.187C279.987 108.659 282.836 108.82 285.876 109.364ZM305.715 102.13C310.707 102.13 315.892 104.691 315.892 111.124C315.892 117.557 310.707 120.118 305.715 120.118C300.754 120.118 295.537 117.557 295.537 111.124C295.537 104.691 300.754 102.13 305.715 102.13ZM305.715 116.757C309.811 116.757 311.348 114.1 311.348 111.124C311.348 108.115 309.811 105.459 305.715 105.459C301.618 105.459 300.114 108.115 300.114 111.124C300.114 114.1 301.618 116.757 305.715 116.757ZM341.899 102.578H346.764V124.982H341.899V117.525C340.651 119.125 338.698 120.118 335.818 120.118C330.825 120.118 326.792 116.917 326.792 111.124C326.792 105.331 330.825 102.13 335.818 102.13C338.698 102.13 340.651 103.122 341.899 104.723V102.578ZM336.874 116.757C340.395 116.757 342.507 114.709 342.507 111.124C342.507 107.539 340.395 105.459 336.874 105.459C333.354 105.459 331.337 107.539 331.337 111.124C331.337 114.709 333.354 116.757 336.874 116.757ZM357.546 120.118C353.161 120.118 350.6 117.717 350.6 113.876V102.578H355.465V112.66C355.465 114.709 356.649 116.469 359.658 116.469C362.667 116.469 364.011 114.645 364.011 112.66V102.578H368.876V119.637H364.011V117.237C363.275 118.261 361.194 120.118 357.546 120.118ZM391.293 112.372H376.154C376.538 114.709 378.17 116.757 381.723 116.757C384.315 116.757 385.98 115.605 386.652 114.164H390.941C389.82 118.421 385.948 120.118 381.723 120.118C376.858 120.118 371.769 117.429 371.769 111.124C371.769 104.819 376.794 102.13 381.691 102.13C386.652 102.13 391.805 105.171 391.293 112.372ZM381.691 105.459C378.65 105.459 376.954 107.123 376.314 109.172H386.844C386.332 107.123 384.892 105.459 381.691 105.459ZM414.95 105.907H409.957V113.076C409.957 115.861 410.981 116.405 414.95 115.989V119.637C414.31 119.733 413.541 119.894 412.421 119.894C406.276 119.894 405.092 117.237 405.092 112.98V105.907H401.923V102.578H405.092V98.1616H409.957V102.578H414.95V105.907ZM436.395 112.372H421.256C421.64 114.709 423.272 116.757 426.825 116.757C429.417 116.757 431.082 115.605 431.754 114.164H436.042C434.922 118.421 431.05 120.118 426.825 120.118C421.96 120.118 416.871 117.429 416.871 111.124C416.871 104.819 421.896 102.13 426.793 102.13C431.754 102.13 436.907 105.171 436.395 112.372ZM426.793 105.459C423.752 105.459 422.056 107.123 421.416 109.172H431.946C431.434 107.123 429.993 105.459 426.793 105.459ZM459.603 99.6979C456.435 99.4418 454.707 99.5699 454.707 102.578H459.155V105.907H454.707V119.637H449.874V105.907H447.025V102.578H449.874C449.874 99.1858 451.058 96.0172 456.755 96.0172C457.875 96.0172 458.611 96.1132 459.603 96.2413V99.6979ZM470.008 102.13C474.905 102.13 479.194 103.539 479.194 108.563V119.637H474.329V117.365C473.593 118.485 471.128 120.118 467.32 120.118C463.319 120.118 460.566 118.453 460.566 115.093C460.566 111.508 462.423 108.627 474.329 109.364V108.563C474.329 106.771 473.529 105.459 470.008 105.459C467.064 105.459 466.135 106.323 465.879 107.507H461.334C461.879 103.731 465.335 102.13 470.008 102.13ZM474.329 114.645V112.244C467.864 111.892 465.463 112.5 465.463 114.933C465.463 116.533 466.647 117.173 468.76 117.173C471.384 117.173 473.433 116.149 474.329 114.645ZM494.264 102.162C495.385 102.162 496.217 102.258 496.793 102.418V106.899H496.633C496.025 106.643 494.873 106.355 493.4 106.355C489.368 106.355 487.895 108.884 487.895 111.54V119.637H483.03V102.578H487.895V105.715C488.599 104.499 490.616 102.162 494.264 102.162ZM507.202 102.13C512.099 102.13 516.388 103.539 516.388 108.563V119.637H511.523V117.365C510.787 118.485 508.322 120.118 504.514 120.118C500.513 120.118 497.761 118.453 497.761 115.093C497.761 111.508 499.617 108.627 511.523 109.364V108.563C511.523 106.771 510.723 105.459 507.202 105.459C504.258 105.459 503.33 106.323 503.073 107.507H498.529C499.073 103.731 502.529 102.13 507.202 102.13ZM511.523 114.645V112.244C505.058 111.892 502.657 112.5 502.657 114.933C502.657 116.533 503.842 117.173 505.954 117.173C508.578 117.173 510.627 116.149 511.523 114.645ZM507.522 95.7932H512.995L508.738 100.242H504.962L507.522 95.7932ZM10.0818 150.139C14.9787 150.139 19.2674 151.547 19.2674 156.572V167.646H14.4026V165.374C13.6664 166.494 11.202 168.126 7.39332 168.126C3.3926 168.126 0.640108 166.462 0.640108 163.101C0.640108 159.517 2.49644 156.636 14.4026 157.372V156.572C14.4026 154.78 13.6024 153.468 10.0818 153.468C7.13727 153.468 6.20911 154.332 5.95306 155.516H1.40825C1.95234 151.739 5.40896 150.139 10.0818 150.139ZM14.4026 162.653V160.253C7.93742 159.901 5.53699 160.509 5.53699 162.941C5.53699 164.542 6.7212 165.182 8.83358 165.182C11.458 165.182 13.5064 164.157 14.4026 162.653ZM23.1041 144.026H27.969V167.646H23.1041V144.026ZM41.1061 164.766C44.3067 164.766 45.875 163.133 46.4511 160.989H50.8039C49.9077 166.11 45.5869 168.126 41.1061 168.126C36.1132 168.126 30.8643 165.726 30.8643 159.133C30.8643 152.539 36.1132 150.139 41.1061 150.139C45.5869 150.139 49.9077 152.155 50.8039 157.276H46.4511C45.875 155.1 44.3067 153.468 41.1061 153.468C37.0094 153.468 35.4411 156.124 35.4411 159.133C35.4411 162.109 37.0094 164.766 41.1061 164.766ZM61.8411 150.139C66.738 150.139 71.0267 151.547 71.0267 156.572V167.646H66.1619V165.374C65.4257 166.494 62.9613 168.126 59.1526 168.126C55.1519 168.126 52.3994 166.462 52.3994 163.101C52.3994 159.517 54.2557 156.636 66.1619 157.372V156.572C66.1619 154.78 65.3617 153.468 61.8411 153.468C58.8966 153.468 57.9684 154.332 57.7123 155.516H53.1675C53.7116 151.739 57.1682 150.139 61.8411 150.139ZM66.1619 162.653V160.253C59.6967 159.901 57.2963 160.509 57.2963 162.941C57.2963 164.542 58.4805 165.182 60.5929 165.182C63.2173 165.182 65.2657 164.157 66.1619 162.653ZM86.1935 150.139C90.5782 150.139 93.1387 152.507 93.1387 156.348V167.646H88.2738V157.564C88.2738 155.516 87.0896 153.756 84.0811 153.756C81.0725 153.756 79.7283 155.58 79.7283 157.564V167.646H74.8634V150.587H79.7283V152.987C80.4644 151.963 82.5448 150.139 86.1935 150.139ZM106.274 164.766C109.507 164.766 111.075 163.133 111.619 160.989H116.004C115.14 165.79 111.299 167.838 107.138 168.094L106.338 169.15C108.29 168.606 111.555 168.798 111.555 171.615C111.555 174.111 109.699 175.071 106.722 175.071C105.218 175.071 104.13 174.911 102.913 174.559V172.383C103.522 172.607 104.514 172.927 105.698 172.927C107.426 172.927 108.002 172.479 108.002 171.647C108.002 170.527 106.466 170.367 103.65 170.783V169.502L104.738 168.03C100.257 167.582 96.0322 165.022 96.0322 159.133C96.0322 152.507 101.313 150.139 106.274 150.139C110.755 150.139 115.108 152.155 116.004 157.244H111.619C111.075 155.1 109.507 153.468 106.274 153.468C102.177 153.468 100.609 156.124 100.609 159.133C100.609 162.109 102.177 164.766 106.274 164.766ZM127.04 150.139C131.937 150.139 136.226 151.547 136.226 156.572V167.646H131.361V165.374C130.625 166.494 128.16 168.126 124.352 168.126C120.351 168.126 117.599 166.462 117.599 163.101C117.599 159.517 119.455 156.636 131.361 157.372V156.572C131.361 154.78 130.561 153.468 127.04 153.468C124.096 153.468 123.168 154.332 122.912 155.516H118.367C118.911 151.739 122.367 150.139 127.04 150.139ZM131.361 162.653V160.253C124.896 159.901 122.495 160.509 122.495 162.941C122.495 164.542 123.68 165.182 125.792 165.182C128.417 165.182 130.465 164.157 131.361 162.653ZM151.297 150.171C152.417 150.171 153.249 150.267 153.825 150.427V154.908H153.665C153.057 154.652 151.905 154.364 150.432 154.364C146.4 154.364 144.927 156.892 144.927 159.549V167.646H140.063V150.587H144.927V153.724C145.632 152.507 147.648 150.171 151.297 150.171ZM189.449 167.646H183.72L178.983 160.061C178.951 160.061 178.887 160.061 178.855 160.061H170.821V167.646H165.668V145.242H179.495C185.576 145.242 188.713 148.155 188.713 152.667C188.713 156.188 187.048 158.3 184.104 159.325L189.449 167.646ZM170.821 149.211V156.156H179.303C182.439 156.156 183.464 154.524 183.464 152.667C183.464 150.747 182.503 149.211 179.303 149.211H170.821ZM214.509 160.669C214.509 165.246 210.925 167.806 203.852 168.094V171.295H201.419V168.094C194.41 167.806 190.729 164.99 190.729 160.669H196.106C196.234 162.685 198.251 163.837 201.419 164.125V158.556C200.779 158.492 200.139 158.396 199.467 158.268C193.354 157.244 191.433 155.388 191.433 151.835C191.433 148.315 193.802 145.018 201.419 144.794V141.625H203.852V144.826C210.509 145.242 213.133 148.091 213.293 151.771H208.268C208.14 150.427 206.764 149.179 203.852 148.827V154.268C203.916 154.3 203.98 154.3 204.044 154.3C210.221 155.164 214.509 155.676 214.509 160.669ZM196.394 151.515C196.394 153.147 198.603 153.596 201.419 153.98V148.731C197.386 148.859 196.394 150.043 196.394 151.515ZM203.852 164.157C207.5 164.029 209.036 162.973 209.036 161.373C209.036 159.709 207.212 159.357 203.852 158.908V164.157ZM232.696 145.242H236.121V167.646H231.288V149.947L225.399 153.596V149.787L232.696 145.242ZM249.941 144.794C255.574 144.794 260.855 148.059 260.855 156.444C260.855 164.862 255.574 168.126 249.941 168.126C244.276 168.126 238.995 164.862 238.995 156.444C238.995 148.059 244.276 144.794 249.941 144.794ZM249.941 164.51C254.678 164.51 256.214 160.861 256.214 156.444C256.214 152.059 254.678 148.379 249.941 148.379C245.172 148.379 243.668 152.059 243.668 156.444C243.668 160.861 245.172 164.51 249.941 164.51ZM295.307 150.139C299.692 150.139 301.965 152.507 301.965 156.348V167.646H297.1V157.564C297.1 155.516 296.204 153.756 293.483 153.756C290.763 153.756 289.77 155.548 289.77 157.564V167.646H284.906V157.564C284.906 155.516 284.009 153.756 281.289 153.756C278.568 153.756 277.544 155.58 277.544 157.564V167.646H272.711V150.587H277.544V152.827C278.152 151.771 279.625 150.139 283.113 150.139C286.09 150.139 288.074 151.227 289.034 153.115C289.642 152.187 291.563 150.139 295.307 150.139ZM305.811 167.646V150.587H310.644V167.646H305.811ZM308.212 148.603C306.739 148.603 305.715 147.77 305.715 146.33C305.715 144.858 306.739 144.026 308.212 144.026C309.684 144.026 310.74 144.858 310.74 146.33C310.74 147.77 309.684 148.603 308.212 148.603ZM314.5 144.026H319.365V167.646H314.5V144.026ZM343.425 150.171C344.545 150.171 345.377 150.267 345.953 150.427V154.908H345.793C345.185 154.652 344.033 154.364 342.561 154.364C338.528 154.364 337.056 156.892 337.056 159.549V167.646H332.191V150.587H337.056V153.724C337.76 152.507 339.776 150.171 343.425 150.171ZM366.757 160.381H351.618C352.002 162.717 353.635 164.766 357.187 164.766C359.78 164.766 361.444 163.613 362.116 162.173H366.405C365.285 166.43 361.412 168.126 357.187 168.126C352.322 168.126 347.234 165.438 347.234 159.133C347.234 152.827 352.258 150.139 357.155 150.139C362.116 150.139 367.269 153.179 366.757 160.381ZM357.155 153.468C354.115 153.468 352.418 155.132 351.778 157.18H362.308C361.796 155.132 360.356 153.468 357.155 153.468ZM377.867 150.139C382.763 150.139 387.052 151.547 387.052 156.572V167.646H382.187V165.374C381.451 166.494 378.987 168.126 375.178 168.126C371.177 168.126 368.425 166.462 368.425 163.101C368.425 159.517 370.281 156.636 382.187 157.372V156.572C382.187 154.78 381.387 153.468 377.867 153.468C374.922 153.468 373.994 154.332 373.738 155.516H369.193C369.737 151.739 373.194 150.139 377.867 150.139ZM382.187 162.653V160.253C375.722 159.901 373.322 160.509 373.322 162.941C373.322 164.542 374.506 165.182 376.618 165.182C379.243 165.182 381.291 164.157 382.187 162.653ZM390.889 167.646V150.587H395.722V167.646H390.889ZM393.289 148.603C391.817 148.603 390.793 147.77 390.793 146.33C390.793 144.858 391.817 144.026 393.289 144.026C394.762 144.026 395.818 144.858 395.818 146.33C395.818 147.77 394.762 148.603 393.289 148.603ZM409.18 157.372C413.98 158.204 417.245 158.556 417.245 162.493C417.245 166.398 413.916 168.126 407.739 168.126C401.722 168.126 397.978 166.238 397.978 162.397H403.259C403.259 164.093 405.275 164.83 408.059 164.83C410.812 164.83 412.252 164.317 412.252 163.005C412.252 161.469 410.14 161.277 405.595 160.509C401.082 159.773 398.65 158.812 398.65 155.42C398.65 151.995 401.69 150.139 407.451 150.139C413.468 150.139 416.477 152.379 416.477 155.516H411.58C411.58 154.428 410.332 153.339 407.387 153.339C404.731 153.339 403.291 153.884 403.291 155.196C403.291 156.668 406.139 156.828 409.18 157.372ZM442.949 145.242H447.814V167.646H442.949V165.534C441.701 167.134 439.717 168.126 436.836 168.126C431.875 168.126 427.81 164.926 427.81 159.133C427.81 153.339 431.875 150.139 436.836 150.139C439.717 150.139 441.701 151.131 442.949 152.731V145.242ZM437.924 164.766C441.413 164.766 443.557 162.717 443.557 159.133C443.557 155.548 441.413 153.468 437.924 153.468C434.404 153.468 432.387 155.548 432.387 159.133C432.387 162.717 434.404 164.766 437.924 164.766ZM470.213 160.381H455.074C455.458 162.717 457.091 164.766 460.643 164.766C463.236 164.766 464.9 163.613 465.572 162.173H469.861C468.741 166.43 464.868 168.126 460.643 168.126C455.778 168.126 450.69 165.438 450.69 159.133C450.69 152.827 455.714 150.139 460.611 150.139C465.572 150.139 470.725 153.179 470.213 160.381ZM460.611 153.468C457.571 153.468 455.875 155.132 455.234 157.18H465.764C465.252 155.132 463.812 153.468 460.611 153.468ZM493.422 147.706C490.253 147.45 488.525 147.578 488.525 150.587H492.974V153.916H488.525V167.646H483.692V153.916H480.844V150.587H483.692C483.692 147.194 484.876 144.026 490.573 144.026C491.694 144.026 492.43 144.122 493.422 144.25V147.706ZM504.563 150.139C509.556 150.139 514.741 152.699 514.741 159.133C514.741 165.566 509.556 168.126 504.563 168.126C499.602 168.126 494.385 165.566 494.385 159.133C494.385 152.699 499.602 150.139 504.563 150.139ZM504.563 164.766C508.659 164.766 510.196 162.109 510.196 159.133C510.196 156.124 508.659 153.468 504.563 153.468C500.466 153.468 498.962 156.124 498.962 159.133C498.962 162.109 500.466 164.766 504.563 164.766ZM528.864 150.171C529.985 150.171 530.817 150.267 531.393 150.427V154.908H531.233C530.625 154.652 529.472 154.364 528 154.364C523.967 154.364 522.495 156.892 522.495 159.549V167.646H517.63V150.587H522.495V153.724C523.199 152.507 525.216 150.171 528.864 150.171ZM556.542 150.139C560.927 150.139 563.199 152.507 563.199 156.348V167.646H558.334V157.564C558.334 155.516 557.438 153.756 554.717 153.756C551.997 153.756 551.005 155.548 551.005 157.564V167.646H546.14V157.564C546.14 155.516 545.244 153.756 542.523 153.756C539.803 153.756 538.779 155.58 538.779 157.564V167.646H533.946V150.587H538.779V152.827C539.387 151.771 540.859 150.139 544.348 150.139C547.324 150.139 549.309 151.227 550.269 153.115C550.877 152.187 552.797 150.139 556.542 150.139ZM575.527 150.139C580.424 150.139 584.713 151.547 584.713 156.572V167.646H579.848V165.374C579.112 166.494 576.647 168.126 572.838 168.126C568.838 168.126 566.085 166.462 566.085 163.101C566.085 159.517 567.942 156.636 579.848 157.372V156.572C579.848 154.78 579.048 153.468 575.527 153.468C572.582 153.468 571.654 154.332 571.398 155.516H566.853C567.398 151.739 570.854 150.139 575.527 150.139ZM579.848 162.653V160.253C573.383 159.901 570.982 160.509 570.982 162.941C570.982 164.542 572.166 165.182 574.279 165.182C576.903 165.182 578.952 164.157 579.848 162.653ZM11.202 205.381C16.0029 206.213 19.2674 206.565 19.2674 210.502C19.2674 214.406 15.9389 216.135 9.76174 216.135C3.74466 216.135 -7.30288e-06 214.246 -7.30288e-06 210.406H5.28094C5.28094 212.102 7.2973 212.838 10.0818 212.838C12.8343 212.838 14.2746 212.326 14.2746 211.014C14.2746 209.478 12.1622 209.286 7.61736 208.517C3.10455 207.781 0.672113 206.821 0.672113 203.428C0.672113 200.004 3.71266 198.148 9.47369 198.148C15.4908 198.148 18.4993 200.388 18.4993 203.525H13.6024C13.6024 202.436 12.3542 201.348 9.40968 201.348C6.7532 201.348 5.31295 201.892 5.31295 203.204C5.31295 204.677 8.16146 204.837 11.202 205.381ZM21.8227 215.655V198.596H26.6555V215.655H21.8227ZM24.2231 196.611C22.7508 196.611 21.7266 195.779 21.7266 194.339C21.7266 192.867 22.7508 192.034 24.2231 192.034C25.6954 192.034 26.7515 192.867 26.7515 194.339C26.7515 195.779 25.6954 196.611 24.2231 196.611ZM53.1078 198.148C57.4926 198.148 59.765 200.516 59.765 204.357V215.655H54.9001V205.573C54.9001 203.525 54.0039 201.764 51.2834 201.764C48.563 201.764 47.5708 203.557 47.5708 205.573V215.655H42.7059V205.573C42.7059 203.525 41.8097 201.764 39.0893 201.764C36.3688 201.764 35.3446 203.589 35.3446 205.573V215.655H30.5117V198.596H35.3446V200.836C35.9527 199.78 37.425 198.148 40.9136 198.148C43.8901 198.148 45.8745 199.236 46.8346 201.124C47.4428 200.196 49.3631 198.148 53.1078 198.148ZM74.5894 198.148C79.5503 198.148 83.583 201.348 83.583 207.141C83.583 212.934 79.5503 216.135 74.5894 216.135C71.7089 216.135 69.7245 215.143 68.4763 213.542V221H63.6114V198.596H68.4763V200.74C69.7245 199.14 71.7089 198.148 74.5894 198.148ZM73.5012 212.774C77.0218 212.774 79.0382 210.726 79.0382 207.141C79.0382 203.557 77.0218 201.476 73.5012 201.476C70.0126 201.476 67.8682 203.557 67.8682 207.141C67.8682 210.726 70.0126 212.774 73.5012 212.774ZM86.4592 192.034H91.3241V215.655H86.4592V192.034ZM113.743 208.389H98.6042C98.9882 210.726 100.621 212.774 104.173 212.774C106.766 212.774 108.43 211.622 109.102 210.182H113.391C112.271 214.438 108.398 216.135 104.173 216.135C99.3083 216.135 94.2194 213.446 94.2194 207.141C94.2194 200.836 99.2443 198.148 104.141 198.148C109.102 198.148 114.255 201.188 113.743 208.389ZM104.141 201.476C101.101 201.476 99.4043 203.14 98.7642 205.189H109.294C108.782 203.14 107.342 201.476 104.141 201.476ZM126.285 205.381C131.086 206.213 134.351 206.565 134.351 210.502C134.351 214.406 131.022 216.135 124.845 216.135C118.828 216.135 115.083 214.246 115.083 210.406H120.364C120.364 212.102 122.38 212.838 125.165 212.838C127.917 212.838 129.358 212.326 129.358 211.014C129.358 209.478 127.245 209.286 122.701 208.517C118.188 207.781 115.755 206.821 115.755 203.428C115.755 200.004 118.796 198.148 124.557 198.148C130.574 198.148 133.582 200.388 133.582 203.525H128.686C128.686 202.436 127.437 201.348 124.493 201.348C121.836 201.348 120.396 201.892 120.396 203.204C120.396 204.677 123.245 204.837 126.285 205.381ZM164.439 208.389H149.301C149.685 210.726 151.317 212.774 154.87 212.774C157.462 212.774 159.127 211.622 159.799 210.182H164.087C162.967 214.438 159.095 216.135 154.87 216.135C150.005 216.135 144.916 213.446 144.916 207.141C144.916 200.836 149.941 198.148 154.838 198.148C159.799 198.148 164.952 201.188 164.439 208.389ZM154.838 201.476C151.797 201.476 150.101 203.14 149.461 205.189H159.991C159.479 203.14 158.038 201.476 154.838 201.476ZM194.914 208.389H179.775C180.159 210.726 181.791 212.774 185.344 212.774C187.936 212.774 189.601 211.622 190.273 210.182H194.562C193.441 214.438 189.569 216.135 185.344 216.135C180.479 216.135 175.39 213.446 175.39 207.141C175.39 200.836 180.415 198.148 185.312 198.148C190.273 198.148 195.426 201.188 194.914 208.389ZM185.312 201.476C182.271 201.476 180.575 203.14 179.935 205.189H190.465C189.953 203.14 188.513 201.476 185.312 201.476ZM208.84 195.715C205.671 195.459 203.943 195.587 203.943 198.596H208.392V201.924H203.943V215.655H199.11V201.924H196.261V198.596H199.11C199.11 195.203 200.294 192.034 205.991 192.034C207.111 192.034 207.848 192.13 208.84 192.258V195.715ZM211.388 215.655V198.596H216.221V215.655H211.388ZM213.788 196.611C212.316 196.611 211.292 195.779 211.292 194.339C211.292 192.867 212.316 192.034 213.788 192.034C215.261 192.034 216.317 192.867 216.317 194.339C216.317 195.779 215.261 196.611 213.788 196.611ZM229.359 212.774C232.559 212.774 234.127 211.142 234.704 208.997H239.056C238.16 214.118 233.839 216.135 229.359 216.135C224.366 216.135 219.117 213.734 219.117 207.141C219.117 200.548 224.366 198.148 229.359 198.148C233.839 198.148 238.16 200.164 239.056 205.285H234.704C234.127 203.108 232.559 201.476 229.359 201.476C225.262 201.476 223.694 204.133 223.694 207.141C223.694 210.118 225.262 212.774 229.359 212.774ZM241.925 215.655V198.596H246.758V215.655H241.925ZM244.325 196.611C242.853 196.611 241.829 195.779 241.829 194.339C241.829 192.867 242.853 192.034 244.325 192.034C245.797 192.034 246.854 192.867 246.854 194.339C246.854 195.779 245.797 196.611 244.325 196.611ZM269.177 208.389H254.038C254.422 210.726 256.055 212.774 259.607 212.774C262.2 212.774 263.864 211.622 264.536 210.182H268.825C267.705 214.438 263.832 216.135 259.607 216.135C254.742 216.135 249.654 213.446 249.654 207.141C249.654 200.836 254.678 198.148 259.575 198.148C264.536 198.148 269.689 201.188 269.177 208.389ZM259.575 201.476C256.535 201.476 254.838 203.14 254.198 205.189H264.728C264.216 203.14 262.776 201.476 259.575 201.476ZM283.448 198.148C287.832 198.148 290.393 200.516 290.393 204.357V215.655H285.528V205.573C285.528 203.525 284.344 201.764 281.335 201.764C278.327 201.764 276.982 203.589 276.982 205.573V215.655H272.118V198.596H276.982V200.996C277.719 199.972 279.799 198.148 283.448 198.148ZM305.368 201.924H300.375V209.093C300.375 211.878 301.399 212.422 305.368 212.006V215.655C304.727 215.751 303.959 215.911 302.839 215.911C296.694 215.911 295.51 213.254 295.51 208.997V201.924H292.341V198.596H295.51V194.179H300.375V198.596H305.368V201.924ZM326.812 208.389H311.674C312.058 210.726 313.69 212.774 317.243 212.774C319.835 212.774 321.499 211.622 322.172 210.182H326.46C325.34 214.438 321.467 216.135 317.243 216.135C312.378 216.135 307.289 213.446 307.289 207.141C307.289 200.836 312.314 198.148 317.211 198.148C322.172 198.148 327.324 201.188 326.812 208.389ZM317.211 201.476C314.17 201.476 312.474 203.14 311.834 205.189H322.364C321.851 203.14 320.411 201.476 317.211 201.476Z" fill="url(#paint1_radial_603_675)"/>
<defs>
<linearGradient id="paint0_linear_603_675" x1="7.68137" y1="180.082" x2="589.786" y2="162.078" gradientUnits="userSpaceOnUse">
<stop stop-color="#FF0000"/>
<stop offset="1" stop-color="#FF0048"/>
</linearGradient>
<radialGradient id="paint1_radial_603_675" cx="0" cy="0" r="1" gradientUnits="userSpaceOnUse" gradientTransform="translate(314.736 15.9521) rotate(90) scale(211.705 555.725)">
<stop stop-color="white"/>
<stop offset="1" stop-color="#9F9F9F"/>
</radialGradient>
</defs>
</svg>
