<svg width="206" height="36" viewBox="0 0 206 36" fill="none" xmlns="http://www.w3.org/2000/svg">
<path d="M0.0560621 35.4985C0.0485871 34.0596 0.0448496 32.6188 0.0448496 31.1761C0.0411122 29.7297 0.0373747 28.2814 0.0336372 26.8313C0.0298998 25.3774 0.028031 23.9254 0.028031 22.4753C0.0242936 21.0214 0.0224248 19.5675 0.0224248 18.1136C0.0224248 16.6598 0.0205561 15.204 0.0168186 13.7464C0.0168186 12.2925 0.0149499 10.8387 0.0112124 9.38479C0.0112124 7.93465 0.00934367 6.48264 0.0056062 5.02877C0.0056062 3.58237 0.00373747 2.13783 0 0.695169C1.21842 0.676482 2.43683 0.659664 3.65525 0.644714C4.87366 0.629764 6.09021 0.616683 7.30489 0.60547C8.5233 0.59052 9.74172 0.577439 10.9601 0.566227C12.1785 0.555014 13.397 0.543802 14.6154 0.53259C14.6266 2.11728 14.6378 3.70757 14.649 5.30347C13.1316 5.33711 11.6142 5.36888 10.0968 5.39878C8.57936 5.43241 7.06195 5.46792 5.54454 5.50529C5.54827 7.10119 5.55388 8.70083 5.56136 10.3042C5.56509 11.9076 5.56883 13.511 5.57257 15.1143C6.76856 15.0583 7.96455 15.0041 9.16054 14.9517C10.3528 14.8957 11.5469 14.8415 12.7429 14.7892C12.7504 16.4 12.7597 18.0127 12.7709 19.6273C11.5749 19.6983 10.379 19.7694 9.18296 19.8404C7.98324 19.9076 6.78538 19.9749 5.58939 20.0422C5.59312 21.298 5.59686 22.5519 5.6006 23.8039C5.60807 25.0523 5.61368 26.2987 5.61742 27.5433C5.62489 28.7879 5.6305 30.0287 5.63424 31.2658C5.64171 32.4992 5.65105 33.7269 5.66227 34.9491C3.79353 35.136 1.9248 35.3191 0.0560621 35.4985ZM17.5867 33.7325C17.568 32.3796 17.5493 31.021 17.5306 29.6568C17.5119 28.2852 17.4951 26.9117 17.4801 25.5363C17.4652 24.1534 17.4502 22.7687 17.4353 21.3821C17.4241 19.9917 17.411 18.5995 17.3961 17.2054C17.3848 15.8114 17.3736 14.4173 17.3624 13.0232C17.3512 11.6254 17.34 10.2295 17.3288 8.83538C17.3176 7.4413 17.3064 6.0491 17.2951 4.65876C17.2839 3.26842 17.2727 1.88369 17.2615 0.504558C18.5173 0.493346 19.7731 0.482134 21.0289 0.470921C22.2847 0.455971 23.5405 0.44289 24.7962 0.431678C26.0483 0.420465 27.3022 0.409253 28.558 0.398041C29.8138 0.386828 31.0677 0.375616 32.3198 0.364403C32.3385 1.88929 32.3571 3.41792 32.3758 4.95028C30.7874 4.98018 29.1971 5.01195 27.605 5.04558C26.0165 5.07548 24.4262 5.10538 22.8341 5.13528C22.8453 6.58916 22.8584 8.04304 22.8733 9.49691C22.8883 10.9508 22.9051 12.4028 22.9238 13.8529C24.1908 13.7969 25.4596 13.7427 26.7304 13.6904C27.9974 13.638 29.2663 13.5838 30.537 13.5278C30.5594 15.0639 30.5837 16.5981 30.6099 18.1305C29.3391 18.1977 28.0665 18.2688 26.7921 18.3435C25.5213 18.4145 24.2487 18.4855 22.9742 18.5565C22.9967 20.2384 23.0191 21.9147 23.0415 23.5853C23.0677 25.2522 23.0938 26.9135 23.12 28.5692C24.7308 28.4272 26.3417 28.2852 27.9525 28.1432C29.5597 28.0011 31.1686 27.861 32.7795 27.7227C32.8131 29.2102 32.8486 30.6921 32.886 32.1684C31.6115 32.2955 30.337 32.4244 29.0626 32.5552C27.7881 32.686 26.5136 32.8169 25.2391 32.9477C23.9647 33.0785 22.6883 33.2093 21.4101 33.3401C20.1356 33.4709 18.8611 33.6017 17.5867 33.7325ZM36.1152 31.8432C36.0815 30.5613 36.0479 29.2793 36.0143 27.9974C35.9806 26.708 35.947 25.4148 35.9134 24.1179C35.8835 22.8173 35.8536 21.5147 35.8237 20.2104C35.7975 18.8985 35.7713 17.5848 35.7452 16.2692C35.719 14.9461 35.6947 13.6231 35.6723 12.3C35.6499 10.9732 35.6293 9.64641 35.6106 8.31961C35.5919 6.98907 35.5732 5.65666 35.5546 4.32238C35.5359 2.99184 35.519 1.66317 35.5041 0.336372C36.8645 0.321422 38.2268 0.308341 39.591 0.297129C40.9552 0.285916 42.3175 0.274704 43.6779 0.263492C45.1075 0.252279 46.3353 0.386828 47.378 0.678351C48.4152 0.958661 49.2673 1.39595 49.9401 1.9846C50.6128 2.57325 51.1062 3.30766 51.4425 4.19344C51.7789 5.07922 51.9471 6.11637 51.9695 7.30489C51.9807 7.93278 51.992 8.56254 52.0032 9.19418C52.0368 10.7695 51.7733 12.0646 51.1959 13.0849C50.624 14.1052 49.7383 14.8564 48.5217 15.3386C48.5217 15.3685 48.5217 15.3984 48.5217 15.4283C49.912 15.7422 50.8483 16.4542 51.4425 17.5082C52.0424 18.5621 52.3115 19.9525 52.362 21.6287C52.3919 22.4958 52.4218 23.3629 52.4517 24.23C52.4816 25.0896 52.5152 25.9474 52.5526 26.8033C52.6086 28.2104 52.7039 29.2308 53.3038 30.2623C52.3694 30.3258 51.4332 30.395 50.4951 30.4697C49.5532 30.5482 48.6095 30.6286 47.664 30.7108C47.3332 29.9876 47.1089 29.5447 47.0136 27.1452C46.98 26.2408 46.9482 25.3344 46.9183 24.4262C46.8884 23.5143 46.8585 22.5986 46.8286 21.6792C46.7502 18.8649 45.7691 17.9959 43.2519 18.1249C42.6128 18.1548 41.9755 18.1865 41.3402 18.2202C41.3663 19.3265 41.3925 20.429 41.4186 21.5278C41.4485 22.6229 41.4803 23.7161 41.514 24.8075C41.5476 25.8913 41.5812 26.9733 41.6149 28.0535C41.6485 29.1298 41.684 30.2062 41.7214 31.2826C39.8526 31.4658 37.9839 31.6526 36.1152 31.8432ZM41.2392 13.7801C41.9083 13.7539 42.5773 13.7277 43.2463 13.7016C45.3094 13.6231 46.5539 12.7821 46.5035 10.3098C46.4885 9.50999 46.4736 8.71017 46.4586 7.91036C46.4194 5.68469 45.5504 4.71482 43.5939 4.74846C42.7567 4.76341 41.9213 4.77836 41.0879 4.79331C41.1103 6.29577 41.1327 7.79636 41.1552 9.29509C41.1851 10.7938 41.2131 12.2888 41.2392 13.7801ZM56.5106 30.0717C56.4582 28.8757 56.4078 27.6778 56.3592 26.4781C56.3143 25.2672 56.2714 24.0525 56.2302 22.8341C56.1891 21.6082 56.1499 20.3786 56.1125 19.1452C56.0789 17.9044 56.0471 16.6598 56.0172 15.4115C55.9873 14.1557 55.9593 12.8999 55.9331 11.6441C55.907 10.3771 55.8808 9.11008 55.8546 7.84308C55.8322 6.5686 55.8116 5.29226 55.793 4.01404C55.7705 2.73209 55.75 1.45014 55.7313 0.168186C57.0955 0.160711 58.4578 0.153236 59.8182 0.145761C61.1824 0.134549 62.5447 0.125205 63.9051 0.11773C65.3347 0.112124 66.5569 0.246673 67.594 0.526983C68.6368 0.807294 69.4833 1.23337 70.1505 1.8052C70.8232 2.37703 71.3165 3.09463 71.6473 3.95798C71.9781 4.81573 72.1463 5.81924 72.1631 6.97412C72.1743 7.58333 72.1836 8.19253 72.1911 8.80174C72.2135 10.3266 71.95 11.5768 71.3726 12.5579C70.7952 13.5334 69.9094 14.251 68.6984 14.6995C68.6984 14.7256 68.6984 14.7537 68.6984 14.7836C70.0776 15.1031 71.0026 15.8039 71.5856 16.8354C72.1743 17.8614 72.4266 19.2125 72.4546 20.8439C72.4733 21.6885 72.492 22.5332 72.5107 23.3779C72.5293 24.2188 72.548 25.0597 72.5667 25.9007C72.5948 27.291 72.6676 28.3057 73.2283 29.3485C72.3088 29.3859 71.3894 29.4232 70.47 29.4606C69.5506 29.498 68.6312 29.5354 67.7118 29.5727C67.3978 28.8439 67.1904 28.4066 67.1231 26.0632C67.1007 25.1849 67.0783 24.3048 67.0558 23.4227C67.0334 22.5407 67.011 21.6586 66.9885 20.7766C66.9213 18.0632 65.957 17.2111 63.4678 17.2895C62.8325 17.3082 62.199 17.3288 61.5673 17.3512C61.5935 18.4052 61.6215 19.4554 61.6514 20.5019C61.6813 21.5484 61.7112 22.5911 61.7411 23.6302C61.7748 24.6654 61.8084 25.6988 61.8421 26.7304C61.8757 27.7619 61.9112 28.7916 61.9486 29.8194C60.1359 29.8979 58.3232 29.982 56.5106 30.0717ZM61.472 13.1073C62.1373 13.0886 62.8026 13.0718 63.4678 13.0569C65.5141 13.0064 66.7531 12.2103 66.7082 9.83328C66.6933 9.06336 66.6802 8.29345 66.669 7.52353C66.6354 5.37074 65.772 4.43451 63.8154 4.45693C62.9782 4.46441 62.1448 4.47375 61.3151 4.48496C61.3375 5.93137 61.3618 7.37403 61.3879 8.81296C61.4141 10.2481 61.4421 11.6796 61.472 13.1073ZM76.4014 29.2251C76.3789 28.0366 76.3565 26.8481 76.3341 25.6596C76.3117 24.4711 76.2892 23.2807 76.2668 22.0884C76.2481 20.8887 76.2276 19.689 76.2051 18.4893C76.1865 17.2821 76.1678 16.0749 76.1491 14.8677C76.1304 13.6492 76.1117 12.429 76.093 11.2068C76.0743 9.98091 76.0575 8.75129 76.0426 7.51792C76.0239 6.28082 76.0071 5.04185 75.9921 3.80101C75.9772 2.55269 75.9622 1.30438 75.9473 0.0560621C77.1993 0.0523246 78.4514 0.0467184 79.7034 0.0392435C80.9555 0.035506 82.2075 0.0317685 83.4596 0.0280311C84.7116 0.0242936 85.9637 0.0205561 87.2157 0.0168187C88.4678 0.0130812 89.7198 0.0112125 90.9719 0.0112125C90.9831 1.42024 90.9943 2.8274 91.0055 4.23268C89.4208 4.24016 87.838 4.2495 86.2571 4.26072C84.6724 4.26819 83.0877 4.27753 81.503 4.28875C81.518 5.59312 81.5329 6.89563 81.5479 8.19627C81.5628 9.4857 81.5778 10.7733 81.5927 12.0589C82.8485 12.044 84.1043 12.0272 85.3601 12.0085C86.6159 11.9935 87.8717 11.9786 89.1275 11.9636C89.1387 13.339 89.1499 14.7088 89.1611 16.073C87.909 16.0917 86.6551 16.1122 85.3993 16.1347C84.1473 16.1571 82.8952 16.1795 81.6432 16.2019C81.6618 17.6745 81.6824 19.1415 81.7048 20.6028C81.7235 22.0604 81.7422 23.5162 81.7609 24.97C83.3232 24.9177 84.8873 24.8691 86.4533 24.8243C88.0193 24.7794 89.5853 24.7346 91.1513 24.6897C91.155 26.0165 91.1606 27.3433 91.1681 28.6701C89.9385 28.7112 88.707 28.7542 87.4736 28.7991C86.244 28.8477 85.0144 28.8944 83.7847 28.9392C82.5514 28.9878 81.3199 29.0345 80.0902 29.0794C78.8606 29.128 77.631 29.1766 76.4014 29.2251ZM94.2852 28.5636C94.2852 27.4125 94.2833 26.2613 94.2796 25.1102C94.2758 23.9553 94.2739 22.7986 94.2739 21.64C94.2665 20.4739 94.2609 19.3059 94.2571 18.1361C94.2534 16.955 94.2478 15.7721 94.2403 14.5873C94.2328 13.3951 94.2254 12.1991 94.2179 10.9994C94.2104 9.79217 94.2029 8.58123 94.1955 7.36655C94.188 6.14814 94.1805 4.92599 94.173 3.7001C94.1618 2.47047 94.1525 1.23897 94.145 0.0056062C95.9801 0.00186873 97.8189 0 99.6615 0C99.669 1.22963 99.6765 2.45926 99.6839 3.68888C99.6877 4.91104 99.6933 6.13132 99.7008 7.34973C99.7082 8.56067 99.7138 9.76788 99.7176 10.9713C99.7213 12.1673 99.725 13.3615 99.7288 14.5537C99.7325 15.7347 99.7363 16.9121 99.74 18.0856C99.74 19.2517 99.74 20.4141 99.74 21.5727C99.74 22.7238 99.7381 23.8712 99.7344 25.0149C99.7307 26.1511 99.725 27.2835 99.7176 28.4122C97.9049 28.4571 96.0941 28.5076 94.2852 28.5636ZM103.804 28.3786C103.812 27.2574 103.819 26.1305 103.827 24.9981C103.834 23.8581 103.84 22.7145 103.844 21.5671C103.844 20.4085 103.844 19.2461 103.844 18.08C103.844 16.9064 103.844 15.7291 103.844 14.5481C103.84 13.3596 103.838 12.1673 103.838 10.9713C103.831 9.76414 103.825 8.55694 103.821 7.34973C103.818 6.13132 103.812 4.91104 103.804 3.68888C103.801 2.45926 103.795 1.22963 103.788 0C105.148 0 106.51 0 107.875 0C109.235 0 110.595 0.00186873 111.956 0.0056062C113.386 0.0056062 114.613 0.151368 115.645 0.437284C116.682 0.723201 117.523 1.14367 118.19 1.70989C118.852 2.28173 119.339 2.99371 119.664 3.85146C119.984 4.70361 120.141 5.6959 120.141 6.83396C120.141 7.43196 120.141 8.03182 120.141 8.63356C120.141 10.136 119.855 11.3582 119.261 12.3056C118.667 13.2419 117.764 13.909 116.542 14.307C116.542 14.3332 116.542 14.3612 116.542 14.3911C117.915 14.7555 118.829 15.4787 119.401 16.5103C119.967 17.5418 120.191 18.8761 120.186 20.4795C120.186 21.3092 120.184 22.137 120.18 22.963C120.18 23.789 120.178 24.615 120.175 25.441C120.169 26.8089 120.219 27.8124 120.763 28.8776C119.829 28.8439 118.895 28.8103 117.96 28.7767C117.022 28.743 116.086 28.7094 115.151 28.6757C114.86 27.9469 114.658 27.5097 114.664 25.2447C114.667 24.3963 114.671 23.5461 114.675 22.6939C114.679 21.8418 114.681 20.9878 114.681 20.1319C114.686 17.5026 113.739 16.6392 111.233 16.6112C110.601 16.6037 109.969 16.5981 109.338 16.5944C109.338 17.6035 109.336 18.6089 109.332 19.6105C109.332 20.6084 109.33 21.6026 109.327 22.593C109.323 23.5834 109.319 24.5701 109.315 25.5531C109.308 26.5323 109.302 27.5096 109.299 28.4851C107.463 28.4403 105.632 28.4048 103.804 28.3786ZM109.338 12.5243C109.999 12.528 110.665 12.5317 111.334 12.5355C113.386 12.5523 114.636 11.8235 114.636 9.50812C114.636 8.75689 114.634 8.00753 114.63 7.26004C114.63 5.15771 113.772 4.23268 111.821 4.22147C110.984 4.22147 110.149 4.2196 109.315 4.21587C109.323 5.61368 109.328 7.00776 109.332 8.39809C109.332 9.77722 109.334 11.1526 109.338 12.5243ZM122.535 28.9448C122.778 27.775 123.019 26.6052 123.258 25.4354C123.497 24.2655 123.738 23.092 123.981 21.9147C124.22 20.7336 124.46 19.5488 124.699 18.3603C124.938 17.1681 125.177 15.9721 125.416 14.7724C125.656 13.5689 125.895 12.3617 126.134 11.1507C126.369 9.93233 126.607 8.71017 126.846 7.48428C127.081 6.25466 127.317 5.02129 127.552 3.78419C127.788 2.53961 128.025 1.29503 128.264 0.0504559C129.505 0.0541933 130.75 0.0597995 131.998 0.0672745C133.243 0.0710119 134.487 0.0766182 135.732 0.0840931C135.971 1.33988 136.21 2.59754 136.449 3.85707C136.689 5.11286 136.928 6.36491 137.167 7.61323C137.406 8.86154 137.645 10.108 137.885 11.3526C138.124 12.5934 138.361 13.8305 138.597 15.0639C138.836 16.2972 139.073 17.5269 139.309 18.7528C139.548 19.9749 139.785 21.1952 140.021 22.4136C140.256 23.6283 140.493 24.8411 140.733 26.052C140.968 27.263 141.205 28.472 141.445 29.6793C139.606 29.6045 137.767 29.5298 135.928 29.455C135.76 28.5019 135.594 27.547 135.429 26.5902C135.261 25.6334 135.095 24.6766 134.93 23.7199C134.93 23.746 134.93 23.7741 134.93 23.8039C133.887 23.7666 132.843 23.7311 131.796 23.6974C130.754 23.6638 129.711 23.6302 128.668 23.5965C128.496 24.5234 128.326 25.4484 128.158 26.3716C127.99 27.291 127.821 28.2123 127.653 29.1355C125.945 29.0719 124.239 29.0084 122.535 28.9448ZM129.324 19.7282C130.976 19.7731 132.628 19.8198 134.28 19.8684C134.078 18.6687 133.874 17.4652 133.669 16.258C133.467 15.0508 133.263 13.8417 133.058 12.6308C132.852 11.4124 132.648 10.1921 132.447 8.96993C132.241 7.74404 132.035 6.51628 131.83 5.28665C131.796 5.28665 131.763 5.28665 131.729 5.28665C131.527 6.51254 131.327 7.73469 131.129 8.95311C130.931 10.1641 130.731 11.3731 130.529 12.5803C130.327 13.7801 130.128 14.9779 129.929 16.1739C129.728 17.3624 129.526 18.5472 129.324 19.7282ZM144.119 29.7914C144.119 28.5916 144.119 27.3919 144.119 26.1922C144.119 24.985 144.121 23.7778 144.124 22.5706C144.124 21.3522 144.124 20.1319 144.124 18.9097C144.124 17.6838 144.126 16.4523 144.13 15.2152C144.13 13.9781 144.13 12.7354 144.13 11.4871C144.13 10.2351 144.13 8.98114 144.13 7.72535C144.13 6.46582 144.128 5.20256 144.124 3.93556C144.124 2.66855 144.124 1.39968 144.124 0.128943C145.339 0.136418 146.556 0.143893 147.774 0.151368C148.989 0.16258 150.203 0.171924 151.418 0.179399C152.636 0.186874 153.853 0.196217 155.068 0.20743C156.282 0.214905 157.497 0.224248 158.712 0.235461C158.715 1.71924 158.717 3.20301 158.717 4.68679C157.204 4.66436 155.692 4.64007 154.182 4.61391C152.668 4.59148 151.154 4.57093 149.641 4.55224C149.641 5.97248 149.641 7.39085 149.641 8.80735C149.641 10.2164 149.641 11.6235 149.641 13.0288C150.829 13.0625 152.016 13.098 153.201 13.1353C154.389 13.1765 155.576 13.2157 156.761 13.2531C156.761 14.7069 156.761 16.1571 156.761 17.6035C155.572 17.5512 154.386 17.5007 153.201 17.4521C152.012 17.4035 150.826 17.3568 149.641 17.312C149.641 18.3921 149.641 19.4704 149.641 20.5467C149.641 21.6157 149.639 22.6827 149.635 23.7479C149.635 24.8056 149.635 25.8596 149.635 26.9098C149.635 27.9563 149.635 29.0009 149.635 30.0437C147.796 29.9577 145.958 29.8736 144.119 29.7914ZM161.358 30.9294C161.358 29.6961 161.358 28.4608 161.358 27.2237C161.358 25.9754 161.358 24.7252 161.358 23.4732C161.358 22.2137 161.358 20.9485 161.358 19.6778C161.362 18.4033 161.363 17.1251 161.363 15.8431C161.363 14.5574 161.363 13.2699 161.363 11.9805C161.363 10.6836 161.363 9.38479 161.363 8.08415C161.363 6.78351 161.363 5.481 161.363 4.17662C161.36 2.86851 161.358 1.56226 161.358 0.257885C163.197 0.272835 165.035 0.287785 166.874 0.302735C166.874 1.43145 166.874 2.56204 166.874 3.69449C166.878 4.83068 166.88 5.96313 166.88 7.09185C166.88 8.2243 166.88 9.35302 166.88 10.478C166.88 11.6067 166.88 12.7317 166.88 13.8529C166.88 14.9742 166.878 16.0935 166.874 17.2111C166.874 18.3248 166.874 19.4367 166.874 20.5467C166.874 21.653 166.874 22.7556 166.874 23.8544C166.874 24.9532 166.874 26.0483 166.874 27.1396C168.388 27.2667 169.902 27.3957 171.415 27.5265C172.925 27.661 174.437 27.7937 175.951 27.9245C175.951 29.427 175.951 30.922 175.951 32.4095C174.732 32.2824 173.516 32.1572 172.301 32.0339C171.086 31.9068 169.87 31.7816 168.651 31.6582C167.437 31.5349 166.222 31.4116 165.007 31.2882C163.789 31.1686 162.572 31.049 161.358 30.9294ZM178.597 32.6842C178.597 31.3686 178.597 30.0511 178.597 28.7318C178.597 27.405 178.597 26.0763 178.597 24.7458C178.597 23.4078 178.597 22.0679 178.597 20.7261C178.597 19.3769 178.597 18.0277 178.597 16.6785C178.597 15.3255 178.597 13.9707 178.597 12.614C178.597 11.2573 178.597 9.90056 178.597 8.54386C178.597 7.18342 178.597 5.82485 178.597 4.46815C178.597 3.11144 178.597 1.75848 178.597 0.409253C180.436 0.42794 182.275 0.444759 184.113 0.459709C184.113 1.82762 184.113 3.19741 184.113 4.56906C184.113 5.94445 184.113 7.3217 184.113 8.70083C184.113 10.08 184.113 11.4572 184.113 12.8326C184.113 14.2117 184.113 15.589 184.113 16.9644C184.113 18.3398 184.113 19.7133 184.113 21.0849C184.113 22.4491 184.113 23.8133 184.113 25.1775C184.113 26.5342 184.113 27.8871 184.113 29.2364C184.113 30.5819 184.113 31.9217 184.113 33.256C182.275 33.0654 180.436 32.8748 178.597 32.6842ZM186.743 33.5307C187.273 32.2077 187.804 30.8752 188.335 29.5335C188.866 28.1768 189.396 26.8145 189.927 25.4466C190.458 24.0637 190.988 22.6752 191.519 21.2812C192.05 19.8759 192.581 18.4668 193.111 17.0541C192.607 15.6525 192.102 14.251 191.598 12.8494C191.089 11.4591 190.583 10.0706 190.078 8.68401C189.574 7.30489 189.069 5.9295 188.565 4.55784C188.056 3.19741 187.55 1.8407 187.045 0.48774C188.013 0.498952 188.981 0.508296 189.949 0.515771C190.917 0.526983 191.887 0.536327 192.859 0.543802C193.169 1.44453 193.478 2.35087 193.784 3.26281C194.094 4.17475 194.405 5.09043 194.715 6.00985C195.025 6.92927 195.333 7.85242 195.64 8.77932C195.95 9.70621 196.26 10.635 196.57 11.5656C196.604 11.5656 196.638 11.5675 196.671 11.5712C196.989 10.6593 197.307 9.74919 197.624 8.84099C197.942 7.92531 198.26 7.01149 198.577 6.09955C198.895 5.18761 199.213 4.2738 199.53 3.35812C199.848 2.44617 200.166 1.53423 200.484 0.622289C202.221 0.644714 203.961 0.669007 205.703 0.695169C205.195 2.08925 204.688 3.48519 204.184 4.88301C203.675 6.28082 203.169 7.67863 202.664 9.07645C202.16 10.4668 201.653 11.8571 201.145 13.2475C200.64 14.6303 200.136 16.0113 199.631 17.3904C200.162 18.8929 200.693 20.3954 201.224 21.8978C201.754 23.404 202.285 24.9121 202.816 26.422C203.346 27.9357 203.877 29.4494 204.408 30.9631C204.939 32.4767 205.469 33.9904 206 35.5041C205.028 35.4144 204.058 35.321 203.09 35.2238C202.119 35.1266 201.149 35.0294 200.181 34.9323C199.844 33.9231 199.51 32.9122 199.177 31.8993C198.845 30.8865 198.51 29.8717 198.174 28.8551C197.841 27.8423 197.508 26.8276 197.176 25.811C196.839 24.7981 196.505 23.7853 196.172 22.7724C196.139 22.7687 196.105 22.7668 196.071 22.7668C195.728 23.7311 195.384 24.6916 195.04 25.6484C194.696 26.6052 194.354 27.5564 194.014 28.5019C193.67 29.4438 193.326 30.38 192.982 31.3107C192.639 32.2376 192.297 33.1588 191.956 34.0745C190.219 33.8951 188.481 33.7139 186.743 33.5307Z" fill="#F10A14"/>
</svg>
