<svg width="414" height="40" viewBox="0 0 414 40" fill="none" xmlns="http://www.w3.org/2000/svg">
<path d="M67.5216 25.1216L65.5845 22.3237L60.7059 29.211H64.6518L67.5216 25.1216Z" fill="#3A3946"/>
<path d="M68.9565 25.1216L70.8936 22.3237L75.9874 29.211H71.9698L68.9565 25.1216Z" fill="#3A3946"/>
<path d="M52.4559 16.7277V13.4274H64.5805L68.2394 18.7364L75.1986 8.97932L72.831 7.25747L80.0771 3.74207V12.0643L77.9248 10.6295L68.2394 24.0455L62.9304 16.7277H52.4559Z" fill="#3A3946"/>
<path d="M51.1647 13.4274V19.4538H57.3341V22.6823H51.1647V25.9825H58.482V29.3545H48.0794V13.4274H51.1647Z" fill="#3A3946"/>
<path d="M12.925 19.4897H7.04188V16.62H14.3597V13.4632H3.742V29.3903H7.04188V22.5029H12.925V19.4897Z" fill="#3A3946"/>
<path fill-rule="evenodd" clip-rule="evenodd" d="M23.9734 26.8525C26.9699 26.8525 29.3991 24.4233 29.3991 21.4268C29.3991 18.4303 26.9699 16.0012 23.9734 16.0012C20.9769 16.0012 18.5477 18.4303 18.5477 21.4268C18.5477 24.4233 20.9769 26.8525 23.9734 26.8525ZM23.9734 29.8209C28.6093 29.8209 32.3674 26.0627 32.3674 21.4268C32.3674 16.7909 28.6093 13.0328 23.9734 13.0328C19.3375 13.0328 15.5793 16.7909 15.5793 21.4268C15.5793 26.0627 19.3375 29.8209 23.9734 29.8209Z" fill="#3A3946"/>
<path fill-rule="evenodd" clip-rule="evenodd" d="M34.1883 13.4632V29.3904H37.48V22.7899H39.9435L42.9567 29.3904H46.2569L42.9567 22.3595C43.8655 22.0247 45.683 20.7237 45.683 18.1984C45.683 15.0416 42.9567 13.4632 41.9523 13.4632H34.1883ZM37.3364 16.4407V19.8843H41.3788C42.0245 19.8843 42.8137 19.253 42.8137 18.1625C42.8137 17.072 42.0245 16.4885 41.3788 16.4407H37.3364Z" fill="#3A3946"/>
<path fill-rule="evenodd" clip-rule="evenodd" d="M127.566 9.96861C126.778 10.1011 126.113 10.2342 126.088 10.2645C126.062 10.2947 125.908 10.8826 125.745 11.5709C125.582 12.2593 124.63 16.259 123.629 20.4592C122.628 24.6595 121.838 28.1727 121.874 28.2666C122.031 28.6739 124.936 29.2999 126.67 29.3003C130.597 29.301 133.885 26.7595 134.848 22.979C135.313 21.1546 135.02 18.6105 134.213 17.4588C133.153 15.9455 131.16 15.2345 129.346 15.7223C128.924 15.8356 128.554 15.9032 128.523 15.8723C128.479 15.8285 129.145 12.8974 129.856 10.0066C129.925 9.72679 129.884 9.69551 129.465 9.7108C129.208 9.72012 128.353 9.83623 127.566 9.96861ZM140.744 9.97014C139.087 10.4685 138.331 12.5688 139.418 13.6532C140.485 14.7183 142.628 14.2382 143.231 12.7987C143.492 12.1743 143.473 11.0812 143.193 10.6829C142.925 10.3005 141.964 9.83512 141.47 9.84777C141.278 9.85264 140.951 9.9077 140.744 9.97014ZM181.675 10.0337C181.368 10.1445 180.89 10.4877 180.612 10.7965C179.571 11.9554 179.746 13.4095 181.001 14.0157C181.769 14.3868 182.665 14.3085 183.43 13.8035C184.326 13.2117 184.783 11.7876 184.368 10.8787C184.008 10.0906 182.675 9.67228 181.675 10.0337ZM147.059 12.3173C146.109 12.4666 145.57 12.6164 145.491 12.7532C145.426 12.8678 144.796 15.3706 144.093 18.3151C142.881 23.3909 142.814 23.7518 142.804 25.2679C142.795 26.6778 142.831 26.9372 143.111 27.4598C143.774 28.6993 145.084 29.2408 147.323 29.2012C148.428 29.1816 150.561 28.7945 150.724 28.5838C150.745 28.5574 150.701 27.9197 150.626 27.1668L150.491 25.798L150.056 25.8828C148.972 26.0947 147.594 26.1328 147.181 25.9622C146.271 25.5862 146.254 24.7819 147.085 21.3743L147.678 18.9409L151.835 18.8018L152.081 17.8284C152.216 17.2931 152.367 16.6205 152.415 16.3336L152.504 15.8121H148.432L148.506 15.4993C148.547 15.3272 148.736 14.5478 148.927 13.7673C149.118 12.9868 149.274 12.2829 149.274 12.2029C149.274 12.0155 148.835 12.0382 147.059 12.3173ZM158.332 15.6857C157.412 15.8639 155.815 16.6955 155.014 17.4135C152.536 19.6368 151.656 23.7689 153.051 26.6296C154.087 28.7544 156.917 29.7663 159.943 29.0944C161.688 28.7071 161.705 28.6936 161.608 27.7802C161.42 26.0216 161.367 25.6852 161.28 25.6866C161.23 25.6874 160.881 25.7813 160.505 25.8952C159.463 26.2104 157.999 26.1677 157.349 25.803C156.114 25.1106 155.856 22.4928 156.836 20.6023C157.156 19.9867 158.2 19.0763 158.832 18.8627C159.561 18.6163 161.183 18.6493 161.938 18.926C162.273 19.0489 162.561 19.1495 162.578 19.1495C162.594 19.1495 162.881 18.5167 163.216 17.7435C163.794 16.4083 163.812 16.328 163.571 16.1517C162.868 15.639 159.926 15.3774 158.332 15.6857ZM168.89 15.7967C165.967 16.756 163.849 19.7795 163.665 23.2545C163.622 24.0595 163.657 24.9539 163.747 25.3722C164.258 27.7521 165.804 29.0699 168.311 29.2617C172.425 29.5768 175.771 26.2486 176.128 21.4853C176.324 18.878 175.326 16.8649 173.395 15.9723C172.339 15.4842 170.107 15.3972 168.89 15.7967ZM189.011 15.6757C188.032 15.8113 186.091 16.3519 185.989 16.5171C185.924 16.6214 182.998 28.6384 182.998 28.7995C182.998 28.8456 183.835 28.8833 184.858 28.8833H186.718L186.945 27.8752C187.267 26.4436 188.832 19.8777 189 19.2537L189.141 18.7323H190.243C191.207 18.7323 191.393 18.7741 191.735 19.0685C192.097 19.3794 192.125 19.4765 192.11 20.3548C192.098 20.994 191.812 22.4645 191.235 24.8507C190.763 26.801 190.343 28.5061 190.302 28.64C190.232 28.8634 190.38 28.8833 192.114 28.8833C193.958 28.8833 194.004 28.8758 194.076 28.5704C194.117 28.3983 194.53 26.6932 194.994 24.7812C195.97 20.7603 196.122 19.4451 195.748 18.2601C195.405 17.1717 194.631 16.328 193.62 15.9406C192.71 15.5919 190.522 15.4662 189.011 15.6757ZM138.489 16.0555C138.361 16.4811 135.477 28.6656 135.477 28.7808C135.477 28.8416 136.307 28.8739 137.321 28.8526L139.164 28.8138L139.323 28.1185C139.41 27.7361 140.086 24.9091 140.824 21.8361C141.562 18.7633 142.167 16.1509 142.167 16.0306C142.167 15.8433 141.91 15.8121 140.364 15.8121C138.769 15.8121 138.554 15.8401 138.489 16.0555ZM179.579 15.9859C179.543 16.0816 178.836 19.0069 178.008 22.4868L176.503 28.8138L178.306 28.8527C179.298 28.8741 180.135 28.8668 180.166 28.8363C180.225 28.7767 183.277 16.1133 183.277 15.9252C183.277 15.7279 179.654 15.7874 179.579 15.9859ZM169.847 18.7929C168.166 19.4046 166.924 22.2844 167.387 24.4943C167.633 25.6686 168.093 26.1022 169.094 26.1022C170.906 26.1022 172.257 24.2412 172.373 21.5829C172.458 19.648 172.048 18.8524 170.874 18.6715C170.605 18.6299 170.145 18.6843 169.847 18.7929ZM128.197 18.9623C127.785 19.133 127.649 19.2836 127.544 19.6852C127.432 20.1171 126.968 22.0469 126.203 25.2662C125.977 26.2182 126.048 26.2791 127.278 26.1887C128.381 26.1076 129.143 25.7543 129.905 24.9714C131.484 23.3479 131.933 20.1936 130.74 19.1147C130.379 18.7885 130.199 18.7334 129.518 18.7395C129.078 18.7434 128.484 18.8437 128.197 18.9623Z" fill="#3A3946"/>
<path fill-rule="evenodd" clip-rule="evenodd" d="M107.883 10.658C107.384 10.7687 106.381 11.1501 105.653 11.5057C103.197 12.7045 101.284 15.0659 100.539 17.815C100.169 19.1842 100.205 21.4841 100.619 22.8161C101.711 26.3352 104.113 28.7012 107.562 29.6539C108.926 30.0306 111.02 30.0598 112.342 29.7207C115.196 28.9883 117.664 26.9956 118.879 24.4431C121.408 19.1273 118.72 12.826 113.108 10.9189C111.734 10.4518 109.347 10.3327 107.883 10.658ZM109.415 14.6168C109.215 15.5594 109.239 15.5497 107.941 15.2243C107.443 15.0997 107.01 15.0238 106.978 15.0558C106.946 15.0877 106.878 15.3732 106.827 15.6903C106.735 16.2644 106.737 16.2671 107.234 16.3601C108.09 16.5203 108.092 16.5722 107.391 19.3649C107.038 20.7687 106.698 21.9692 106.636 22.0326C106.574 22.0961 106.296 22.0857 106.019 22.0093L105.516 21.8708L105.236 22.5026C105.082 22.8502 104.956 23.1525 104.956 23.1745C104.956 23.1965 105.432 23.3265 106.015 23.4636L107.074 23.7126L106.99 24.1707C106.721 25.654 106.716 25.556 107.066 25.6497C107.767 25.8367 107.855 25.775 108.036 24.97C108.228 24.1117 108.312 24.0131 108.735 24.147C108.979 24.2245 109.011 24.3107 108.933 24.6775C108.651 26.004 108.645 25.9735 109.2 26.1563C109.482 26.2491 109.739 26.2992 109.771 26.2675C109.802 26.2359 109.911 25.8466 110.012 25.4024L110.196 24.5949L111.468 24.5771C112.924 24.5566 113.309 24.3698 113.828 23.4344C114.374 22.4515 114.312 21.4583 113.667 20.8332L113.18 20.3617L113.528 20.2036C114.022 19.9789 114.431 19.2378 114.432 18.5656C114.433 17.7889 113.968 17.1419 113.058 16.6529C112.446 16.3239 112.332 16.2044 112.394 15.9577C112.435 15.7937 112.508 15.406 112.558 15.0961C112.646 14.5428 112.638 14.5297 112.139 14.3767C111.666 14.2321 111.621 14.244 111.507 14.5431C111.44 14.7202 111.342 15.0909 111.29 15.3667C111.214 15.7723 111.134 15.8683 110.871 15.8683C110.404 15.8683 110.355 15.694 110.581 14.8324L110.781 14.066L110.273 13.925C109.993 13.8474 109.725 13.7837 109.678 13.7833C109.631 13.7828 109.513 14.1579 109.415 14.6168ZM109.852 17.8526C109.762 18.2525 109.652 18.716 109.608 18.8824C109.54 19.1397 109.608 19.2074 110.064 19.3336C111.354 19.691 112.203 19.3973 112.203 18.5935C112.203 17.9523 111.606 17.5002 110.378 17.2106C110.037 17.1302 110.006 17.1673 109.852 17.8526ZM108.951 21.4652C108.821 22.0196 108.716 22.5173 108.717 22.5711C108.72 22.7443 109.74 22.9585 110.565 22.9592C111.181 22.9599 111.431 22.8958 111.645 22.682C112.302 22.027 111.699 21.0661 110.389 20.6779C109.219 20.3311 109.217 20.3319 108.951 21.4652Z" fill="#3A3946"/>
<path fill-rule="evenodd" clip-rule="evenodd" d="M224.13 11.8103L220.61 15.3028L221.929 16.6106L223.248 17.9185L225.49 15.6999L227.732 13.4814L229.935 15.6618C231.147 16.8613 232.207 17.8424 232.292 17.8424C232.501 17.8424 234.775 15.5912 234.775 15.3847C234.775 15.2248 227.888 8.31799 227.729 8.31799C227.685 8.31799 226.065 9.88953 224.13 11.8103ZM283.391 13.8277C283.275 14.0179 278.158 25.9598 278.158 26.0397C278.158 26.0781 278.778 26.0887 279.535 26.0635L280.913 26.0176L281.425 24.7477L281.938 23.4777L284.586 23.4344L287.234 23.3909L287.782 24.7043L288.33 26.0176L289.727 26.0635C290.496 26.0887 291.125 26.0779 291.125 26.0395C291.125 25.9524 289.547 22.2246 287.487 17.4456L285.913 13.7946L284.691 13.7484C284.018 13.7231 283.433 13.7588 283.391 13.8277ZM312.942 13.9455C311.247 14.4708 309.667 15.9028 309.028 17.4929C308.732 18.228 308.663 18.7109 308.659 20.0648C308.654 21.6256 308.687 21.7981 309.17 22.7775C309.792 24.0373 310.938 25.1548 312.221 25.7509C313.047 26.1351 313.315 26.1763 314.977 26.1763C316.629 26.1763 316.909 26.1338 317.698 25.7628C318.183 25.5353 318.89 25.071 319.27 24.731L319.96 24.1127L319.09 23.265L318.22 22.4174L317.425 22.9833C314.704 24.9215 311.448 23.2796 311.459 19.975C311.463 18.6262 311.8 17.824 312.7 17.0197C314.032 15.8282 315.636 15.8066 317.36 16.957L318.158 17.4899L318.972 16.5355C319.639 15.7533 319.751 15.5393 319.592 15.3491C319.197 14.8769 318.064 14.2171 317.225 13.97C316.18 13.6622 313.898 13.6491 312.942 13.9455ZM243.458 19.9351L243.5 26.0176L246.621 26.0681C250.267 26.1271 251.577 25.9584 252.577 25.3009C253.465 24.717 253.84 24.0675 253.933 22.9496C254.033 21.7559 253.563 20.8179 252.517 20.125L251.77 19.6296L252.234 19.2887C252.907 18.7958 253.237 18.0588 253.237 17.0487C253.237 15.746 252.707 14.9284 251.424 14.2497C250.932 13.9896 250.407 13.9471 247.14 13.903L243.416 13.8528L243.458 19.9351ZM257.347 19.9854V26.097H258.708H260.068V19.9854V13.8739H258.708H257.347V19.9854ZM264.231 19.9854V26.097H265.588H266.946L266.989 22.2948L267.032 18.4925L269.914 22.2551L272.795 26.0176L273.956 26.0643L275.116 26.1109V19.9924V13.8739H273.836H272.555V17.525C272.555 19.533 272.501 21.1743 272.435 21.1724C272.369 21.1703 271.057 19.5273 269.52 17.5213L266.726 13.8739H265.478H264.231V19.9854ZM294.166 19.9854V26.097H295.447H296.728V22.2872C296.728 20.1918 296.782 18.48 296.848 18.483C296.914 18.486 298.264 20.1963 299.849 22.2837L302.731 26.0789L303.891 26.0879L305.052 26.097V19.9854V13.8739H303.771H302.491V17.5381C302.491 19.7981 302.432 21.1822 302.338 21.1495C302.21 21.1055 300.426 18.8254 297.233 14.6279L296.659 13.8739H295.413H294.166V19.9854ZM323.141 19.9854V26.097H327.784H332.426V24.9064V23.7159H329.144H325.863V22.4459V21.176H328.744H331.626V19.9854V18.7949H328.744H325.863V17.525V16.255H329.144H332.426V15.0645V13.8739H327.784H323.141V19.9854ZM246.141 17.5253V18.8222L247.996 18.7689C249.801 18.717 249.862 18.7035 250.238 18.2701C250.703 17.7334 250.729 17.2137 250.318 16.7092C250.032 16.359 249.885 16.3309 248.077 16.2814L246.141 16.2285V17.5253ZM217.411 18.473L216.142 19.7388L216.534 20.1661C217.178 20.8685 218.672 22.2872 218.766 22.2872C218.815 22.2872 219.411 21.7321 220.091 21.0535L221.328 19.8197L220.004 18.5134L218.68 17.207L217.411 18.473ZM226.371 18.4776L225.098 19.7475L226.451 21.0968L227.805 22.4459L229.049 21.2193C229.733 20.5449 230.293 19.9181 230.293 19.8267C230.293 19.6645 227.883 17.2075 227.724 17.2075C227.68 17.2075 227.071 17.779 226.371 18.4776ZM235.452 18.5206L234.134 19.8337L235.379 21.0604C236.063 21.7351 236.692 22.2872 236.776 22.2872C236.985 22.2872 239.258 20.0343 239.258 19.827C239.258 19.7354 238.698 19.1086 238.013 18.4341L236.769 17.2075L235.452 18.5206ZM284.52 17.3062C284.297 17.6664 283.12 20.6036 283.12 20.7976C283.12 20.9692 283.453 21.0173 284.641 21.0173C285.478 21.0173 286.162 20.9576 286.162 20.8847C286.162 20.7288 284.989 17.8466 284.762 17.4435C284.676 17.2913 284.567 17.2294 284.52 17.3062ZM246.141 22.351V23.7159H248.15C250.76 23.7159 251.264 23.4873 251.264 22.302C251.264 22.0389 251.1 21.7137 250.851 21.4814C250.464 21.1206 250.304 21.0931 248.29 21.0414L246.141 20.9862V22.351ZM221.898 22.9122C220.835 23.9729 220.665 24.2119 220.833 24.4126C220.943 24.5439 222.555 26.1576 224.416 27.9987L227.798 31.3461L231.366 27.8111L234.933 24.2761L233.616 22.9634L232.3 21.6506L230.016 23.9114L227.732 26.1722L225.448 23.9114L223.163 21.6505L221.898 22.9122Z" fill="#3A3946"/>
<path d="M396.71 7.48389H393.725V22.2299H396.71V7.48389Z" fill="#3A3946"/>
<path fill-rule="evenodd" clip-rule="evenodd" d="M352.633 26.9696V12.1223L356.249 12.1574C359.321 12.1874 359.945 12.2152 360.392 12.3425C362.089 12.826 363.147 13.9324 363.422 15.5109C363.679 16.9877 363.159 18.3172 361.993 19.1622L361.661 19.4034L362.04 19.6254C362.563 19.9324 363.125 20.5685 363.398 21.1612C363.674 21.7622 363.767 23.0123 363.593 23.8009C363.25 25.3589 362.134 26.4521 360.492 26.8398C360.067 26.9401 359.18 26.9673 356.293 26.9683L352.633 26.9696ZM355.613 18.2052V14.7691L357.301 14.7696C358.262 14.7699 359.139 14.8118 359.337 14.8669C360.392 15.16 360.841 16.5523 360.177 17.4697C359.75 18.0599 359.435 18.1394 357.389 18.1746L355.613 18.2052ZM355.613 22.6312C355.613 20.9993 355.627 20.8343 355.767 20.7937C355.851 20.7692 356.69 20.7568 357.63 20.7663C359.23 20.7823 359.366 20.7967 359.762 20.9907C360.364 21.2859 360.642 21.7384 360.68 22.4834C360.728 23.4319 360.27 24.0913 359.394 24.335C359.219 24.3835 358.297 24.4234 357.345 24.4236L355.613 24.4242V22.6312Z" fill="#3A3946"/>
<path d="M367.537 16.5533C366.283 14.1644 365.257 12.1931 365.257 12.1728C365.257 12.1525 365.979 12.1359 366.862 12.1359H368.466L369.854 15.0544C370.616 16.6595 371.265 18 371.296 18.0333C371.326 18.0666 371.979 16.7533 372.747 15.1148L374.143 12.1359H375.75C376.633 12.1359 377.356 12.1516 377.356 12.1708C377.356 12.1899 376.33 14.1613 375.077 16.5517L372.797 20.8977V26.9696H369.816V20.8969L367.537 16.5533Z" fill="#3A3946"/>
<path fill-rule="evenodd" clip-rule="evenodd" d="M379.46 26.9696V12.1221L383.033 12.1593C386.965 12.2002 387.244 12.2326 388.237 12.7623C388.967 13.1519 389.516 13.7329 389.886 14.5058C390.192 15.1482 390.2 15.1895 390.2 16.2174C390.2 17.1859 390.181 17.3094 389.962 17.7534C389.65 18.3859 389.249 18.8621 388.773 19.1644L388.387 19.4094L388.754 19.5968C389.792 20.1269 390.511 21.4387 390.506 22.7904C390.503 23.3541 390.27 24.3218 390.018 24.812C389.696 25.4377 388.982 26.1413 388.359 26.4455C387.327 26.9499 387.129 26.9696 383.124 26.9696H379.46ZM382.441 18.2102V14.7691H384.179C385.901 14.7691 385.921 14.7713 386.393 15.0105C386.967 15.3015 387.263 15.7918 387.263 16.4497C387.263 17.1785 387.001 17.6073 386.343 17.9563C386.026 18.1239 385.818 18.1456 384.217 18.1762L382.441 18.2102ZM382.441 22.6395C382.441 21.6578 382.468 20.8275 382.502 20.7941C382.535 20.7609 383.354 20.7464 384.321 20.7619C385.759 20.7851 386.143 20.8182 386.429 20.9437C387.167 21.2678 387.47 21.744 387.471 22.581C387.472 23.2066 387.38 23.4447 386.97 23.878C386.537 24.3365 386.081 24.4242 384.135 24.4242H382.441V22.6395Z" fill="#3A3946"/>
<path d="M399.362 14.7691V12.1359H410.321V14.7691H406.288V26.9696H403.307V14.7691H399.362Z" fill="#3A3946"/>
</svg>
