<svg width="46" height="110" viewBox="0 0 46 110" fill="none" xmlns="http://www.w3.org/2000/svg">
<path d="M0.17604 109.796C0.152568 105.278 0.140832 100.753 0.140832 96.2234C0.129096 91.6815 0.11736 87.1338 0.105624 82.5803C0.0938879 78.015 0.0880199 73.4555 0.0880199 68.902C0.0762839 64.3367 0.0704159 59.7714 0.0704159 55.2061C0.0704159 50.6408 0.0645479 46.0696 0.0528119 41.4926C0.0528119 36.9273 0.046944 32.362 0.035208 27.7967C0.035208 23.2431 0.0293399 18.6837 0.017604 14.1184C0.017604 9.57657 0.011736 5.04061 0 0.510515C3.82593 0.451835 7.65186 0.399024 11.4778 0.35208C15.3037 0.305136 19.1238 0.26406 22.938 0.228852C26.7639 0.181908 30.5898 0.140832 34.4158 0.105624C38.2417 0.0704158 42.0676 0.035208 45.8936 0C45.9288 4.97606 45.964 9.96972 45.9992 14.981C41.2344 15.0866 36.4696 15.1864 31.7048 15.2803C26.94 15.3859 22.1751 15.4974 17.4103 15.6147C17.4221 20.626 17.4397 25.649 17.4631 30.6837C17.4749 35.7185 17.4866 40.7532 17.4984 45.788C21.2539 45.6119 25.0094 45.4417 28.7649 45.2774C32.5087 45.1014 36.2583 44.9312 40.0138 44.7669C40.0373 49.8251 40.0667 54.8892 40.1019 59.9592C36.3464 60.1821 32.5908 60.4051 28.8353 60.6281C25.0681 60.8394 21.3067 61.0506 17.5512 61.2619C17.5629 65.2051 17.5746 69.1426 17.5864 73.0741C17.6098 76.9939 17.6275 80.9079 17.6392 84.816C17.6627 88.7241 17.6803 92.6204 17.692 96.505C17.7155 100.378 17.7448 104.233 17.78 108.071C11.912 108.658 6.04403 109.233 0.17604 109.796Z" fill="url(#paint0_linear_603_811)"/>
<rect y="13.1733" width="17.3644" height="12.5925" fill="url(#paint1_radial_603_811)"/>
<path d="M0 0H46V14.9795L0 16.0234V0Z" fill="#F10A14"/>
<path d="M17.5052 45.7812L39.9978 44.7539L40.1055 59.9561L17.6875 61.2567L17.5052 45.7812Z" fill="#F10A14"/>
<path d="M17.5634 61.2812L17.5177 45.7428L30.8127 45.1842L31.1832 60.4285L17.5634 61.2812Z" fill="url(#paint2_radial_603_811)"/>
<defs>
<linearGradient id="paint0_linear_603_811" x1="22.9996" y1="0" x2="22.9996" y2="109.796" gradientUnits="userSpaceOnUse">
<stop stop-color="#F10A14"/>
<stop offset="1" stop-color="#8B060C"/>
</linearGradient>
<radialGradient id="paint1_radial_603_811" cx="0" cy="0" r="1" gradientUnits="userSpaceOnUse" gradientTransform="translate(8.68221 15.957) rotate(90) scale(9.80892 65.1498)">
<stop offset="0.256757" stop-color="#97060D"/>
<stop offset="1" stop-color="#F10A14" stop-opacity="0"/>
</radialGradient>
<radialGradient id="paint2_radial_603_811" cx="0" cy="0" r="1" gradientUnits="userSpaceOnUse" gradientTransform="translate(12.2282 53.6683) rotate(1.94726) scale(18.7807 124.739)">
<stop offset="0.256757" stop-color="#97060D"/>
<stop offset="1" stop-color="#F10A14" stop-opacity="0"/>
</radialGradient>
</defs>
</svg>
