<svg width="1971" height="582" viewBox="0 0 1971 582" fill="none" xmlns="http://www.w3.org/2000/svg">
<rect y="23.043" width="1970.79" height="178.164" fill="black"/>
<mask id="mask0_665_984" style="mask-type:alpha" maskUnits="userSpaceOnUse" x="0" y="0" width="1971" height="582">
<rect width="1970.79" height="581.543" fill="#D9D9D9"/>
</mask>
<g mask="url(#mask0_665_984)">
<path d="M982.423 28.5769C1302.2 28.5769 1596.42 49.0754 1810.7 69.5759C1917.83 79.8257 2004.97 90.0749 2065.32 97.7605C2095.5 101.603 2118.97 104.805 2134.9 107.046C2142.87 108.166 2148.94 109.045 2153.03 109.644C2153.56 109.722 2154.06 109.797 2154.52 109.865V649.889H-189.673V109.865C-189.209 109.797 -188.712 109.722 -188.181 109.644C-184.098 109.045 -178.02 108.166 -170.057 107.046C-154.129 104.805 -130.653 101.603 -100.479 97.7605C-40.1287 90.0749 47.0132 79.8257 154.148 69.5759C368.429 49.0754 662.646 28.5769 982.423 28.5769Z" fill="black"/>
<path d="M982.423 28.5769C1302.2 28.5769 1596.42 49.0754 1810.7 69.5759C1917.83 79.8257 2004.97 90.0749 2065.32 97.7605C2095.5 101.603 2118.97 104.805 2134.9 107.046C2142.87 108.166 2148.94 109.045 2153.03 109.644C2153.56 109.722 2154.06 109.797 2154.52 109.865V649.889H-189.673V109.865C-189.209 109.797 -188.712 109.722 -188.181 109.644C-184.098 109.045 -178.02 108.166 -170.057 107.046C-154.129 104.805 -130.653 101.603 -100.479 97.7605C-40.1287 90.0749 47.0132 79.8257 154.148 69.5759C368.429 49.0754 662.646 28.5769 982.423 28.5769Z" fill="url(#paint0_radial_665_984)" fill-opacity="0.2"/>
<path d="M982.423 28.5769C1302.2 28.5769 1596.42 49.0754 1810.7 69.5759C1917.83 79.8257 2004.97 90.0749 2065.32 97.7605C2095.5 101.603 2118.97 104.805 2134.9 107.046C2142.87 108.166 2148.94 109.045 2153.03 109.644C2153.56 109.722 2154.06 109.797 2154.52 109.865V649.889H-189.673V109.865C-189.209 109.797 -188.712 109.722 -188.181 109.644C-184.098 109.045 -178.02 108.166 -170.057 107.046C-154.129 104.805 -130.653 101.603 -100.479 97.7605C-40.1287 90.0749 47.0132 79.8257 154.148 69.5759C368.429 49.0754 662.646 28.5769 982.423 28.5769Z" stroke="url(#paint1_radial_665_984)" stroke-width="11"/>
</g>
<defs>
<radialGradient id="paint0_radial_665_984" cx="0" cy="0" r="1" gradientUnits="userSpaceOnUse" gradientTransform="translate(1023.66 148.483) rotate(90) scale(380.883 852.361)">
<stop stop-color="#1C3EC9"/>
<stop offset="1" stop-color="#1C3EC9" stop-opacity="0"/>
</radialGradient>
<radialGradient id="paint1_radial_665_984" cx="0" cy="0" r="1" gradientUnits="userSpaceOnUse" gradientTransform="translate(982.423 58.7145) scale(805.136 216.16)">
<stop stop-color="#FD0821"/>
<stop offset="1" stop-color="#F91382"/>
</radialGradient>
</defs>
</svg>
