<svg width="195" height="163" viewBox="0 0 195 163" fill="none" xmlns="http://www.w3.org/2000/svg">
<g filter="url(#filter0_f_603_744)">
<ellipse cx="98.8705" cy="90.1003" rx="28.1032" ry="18.2178" transform="rotate(-24.5677 98.8705 90.1003)" fill="#4C8899" fill-opacity="0.6"/>
</g>
<path d="M58.5754 54.2725H143.48V70.3216C130.797 80.9348 103.875 101.126 98.0511 144.872H75.66C78.8957 101.902 118.889 74.9811 126.267 70.3216H58.5754V54.2725Z" fill="url(#paint0_linear_603_744)"/>
<path d="M151.429 100.193H153.286C154.184 100.193 154.912 100.921 154.912 101.819V117.492C154.912 118.39 154.184 119.117 153.286 119.117H151.429V132.673H151.197V119.117H149.571C148.674 119.117 147.946 118.39 147.945 117.492V101.819C147.945 100.921 148.673 100.193 149.571 100.193H151.197V85.2162H151.429V100.193Z" fill="url(#paint1_radial_603_744)"/>
<path d="M23.2427 24.2835H25.1002C25.9979 24.2835 26.7258 25.0115 26.7258 25.9092V41.5828C26.7257 42.4803 25.9978 43.2084 25.1002 43.2084H23.2427V56.7643H23.0109V43.2084H21.3852C20.4876 43.2084 19.7597 42.4803 19.7596 41.5828V25.9092C19.7596 25.0115 20.4875 24.2835 21.3852 24.2835H23.0109V9.30642H23.2427V24.2835Z" fill="url(#paint2_radial_603_744)"/>
<path d="M37.9416 45.5207L37.9416 30.5436L37.7094 30.5436L37.7094 45.5207H36.084C35.1863 45.5207 34.4585 46.2484 34.4585 47.1461V81.4323C34.4585 82.33 35.1863 83.0577 36.084 83.0577H37.7094L37.7094 96.6135H37.9416L37.9416 83.0577H39.7992C40.6969 83.0577 41.4246 82.33 41.4246 81.4323V47.1461C41.4246 46.2484 40.6969 45.5207 39.7992 45.5207H37.9416Z" fill="url(#paint3_radial_603_744)"/>
<path d="M16.2765 111.59L16.2765 96.6133L16.0443 96.6133L16.0443 111.59H14.4189C13.5212 111.59 12.7935 112.318 12.7935 113.216V147.502C12.7935 148.4 13.5212 149.127 14.4189 149.127H16.0443L16.0443 162.683H16.2765L16.2765 149.127H18.1341C19.0318 149.127 19.7595 148.4 19.7595 147.502V113.216C19.7595 112.318 19.0318 111.59 18.1341 111.59H16.2765Z" fill="url(#paint4_radial_603_744)"/>
<path d="M168.609 14.9771L168.609 1.01495e-08L168.377 0L168.377 14.9771H166.752C165.854 14.9771 165.126 15.7048 165.126 16.6025V50.8887C165.126 51.7864 165.854 52.5141 166.752 52.5141H168.377L168.377 66.0699H168.609L168.609 52.5141H170.467C171.365 52.5141 172.092 51.7864 172.092 50.8887V16.6025C172.092 15.7048 171.365 14.9771 170.467 14.9771H168.609Z" fill="url(#paint5_radial_603_744)"/>
<path d="M191.517 121.459L191.517 106.482L191.285 106.482L191.285 121.459H189.659C188.762 121.459 188.034 122.187 188.034 123.085V129.691C188.034 130.588 188.762 131.316 189.659 131.316H191.285L191.285 144.872H191.517L191.517 131.316H193.375C194.272 131.316 195 130.588 195 129.691V123.085C195 122.187 194.272 121.459 193.375 121.459H191.517Z" fill="url(#paint6_radial_603_744)"/>
<path d="M3.48305 80.9984L3.48305 66.0213L3.25084 66.0213L3.25084 80.9984H1.62542C0.727726 80.9984 0 81.7261 0 82.6238V89.2299C0 90.1276 0.727726 90.8553 1.62542 90.8553H3.25084L3.25084 104.411H3.48304L3.48305 90.8553H5.34067C6.23836 90.8553 6.96609 90.1276 6.96609 89.2299V82.6238C6.96609 81.7261 6.23836 80.9984 5.34067 80.9984H3.48305Z" fill="url(#paint7_radial_603_744)"/>
<path d="M101.028 23.705L102.563 28.4306H107.532L103.512 31.3512L105.048 36.0769L101.028 33.1563L97.0078 36.0769L98.5433 31.3512L94.5234 28.4306H99.4922L101.028 23.705Z" fill="url(#paint8_radial_603_744)"/>
<path d="M79.0746 33.0354L80.3368 36.9201L84.4215 36.9201L81.1169 39.321L82.3792 43.2058L79.0746 40.8049L75.77 43.2058L77.0323 39.321L73.7277 36.9201L77.8124 36.9201L79.0746 33.0354Z" fill="url(#paint9_radial_603_744)"/>
<path d="M122.981 33.0354L124.243 36.9201L128.328 36.9201L125.023 39.321L126.286 43.2058L122.981 40.8049L119.677 43.2058L120.939 39.321L117.634 36.9201L121.719 36.9201L122.981 33.0354Z" fill="url(#paint10_radial_603_744)"/>
<defs>
<filter id="filter0_f_603_744" x="21.8089" y="19.4274" width="154.123" height="141.346" filterUnits="userSpaceOnUse" color-interpolation-filters="sRGB">
<feFlood flood-opacity="0" result="BackgroundImageFix"/>
<feBlend mode="normal" in="SourceGraphic" in2="BackgroundImageFix" result="shape"/>
<feGaussianBlur stdDeviation="25.1581" result="effect1_foregroundBlur_603_744"/>
</filter>
<linearGradient id="paint0_linear_603_744" x1="101.028" y1="144.872" x2="101.028" y2="54.2725" gradientUnits="userSpaceOnUse">
<stop stop-color="#C2E3F1"/>
<stop offset="1" stop-color="#BFBFBF"/>
</linearGradient>
<radialGradient id="paint1_radial_603_744" cx="0" cy="0" r="1" gradientUnits="userSpaceOnUse" gradientTransform="translate(151.429 90.8187) rotate(90) scale(41.8544 6.14384)">
<stop stop-color="#C2E3F1"/>
<stop offset="1" stop-color="#CDE4EA"/>
</radialGradient>
<radialGradient id="paint2_radial_603_744" cx="0" cy="0" r="1" gradientUnits="userSpaceOnUse" gradientTransform="translate(23.2427 14.9091) rotate(90) scale(41.8552 6.14384)">
<stop stop-color="#C2E3F1"/>
<stop offset="1" stop-color="#CDE4EA"/>
</radialGradient>
<radialGradient id="paint3_radial_603_744" cx="0" cy="0" r="1" gradientUnits="userSpaceOnUse" gradientTransform="translate(37.9416 38.3435) rotate(90) scale(58.27 6.14371)">
<stop stop-color="#C2E3F1"/>
<stop offset="1" stop-color="#CDE4EA"/>
</radialGradient>
<radialGradient id="paint4_radial_603_744" cx="0" cy="0" r="1" gradientUnits="userSpaceOnUse" gradientTransform="translate(16.2765 104.413) rotate(90) scale(58.27 6.14371)">
<stop stop-color="#C2E3F1"/>
<stop offset="1" stop-color="#CDE4EA"/>
</radialGradient>
<radialGradient id="paint5_radial_603_744" cx="0" cy="0" r="1" gradientUnits="userSpaceOnUse" gradientTransform="translate(168.609 7.79989) rotate(90) scale(58.27 6.14371)">
<stop stop-color="#C2E3F1"/>
<stop offset="1" stop-color="#CDE4EA"/>
</radialGradient>
<radialGradient id="paint6_radial_603_744" cx="0" cy="0" r="1" gradientUnits="userSpaceOnUse" gradientTransform="translate(191.517 111.014) rotate(90) scale(33.8577 6.14371)">
<stop stop-color="#C2E3F1"/>
<stop offset="1" stop-color="#CDE4EA"/>
</radialGradient>
<radialGradient id="paint7_radial_603_744" cx="0" cy="0" r="1" gradientUnits="userSpaceOnUse" gradientTransform="translate(3.48304 70.5534) rotate(90) scale(33.8577 6.14371)">
<stop stop-color="#C2E3F1"/>
<stop offset="1" stop-color="#CDE4EA"/>
</radialGradient>
<radialGradient id="paint8_radial_603_744" cx="0" cy="0" r="1" gradientUnits="userSpaceOnUse" gradientTransform="translate(101.028 25.3197) rotate(90) scale(12.0633)">
<stop stop-color="#C2E3F1"/>
<stop offset="1" stop-color="#CDE4EA"/>
</radialGradient>
<radialGradient id="paint9_radial_603_744" cx="0" cy="0" r="1" gradientUnits="userSpaceOnUse" gradientTransform="translate(79.0746 34.3628) rotate(90) scale(9.91669)">
<stop stop-color="#C2E3F1"/>
<stop offset="1" stop-color="#CDE4EA"/>
</radialGradient>
<radialGradient id="paint10_radial_603_744" cx="0" cy="0" r="1" gradientUnits="userSpaceOnUse" gradientTransform="translate(122.981 34.3628) rotate(90) scale(9.91669)">
<stop stop-color="#C2E3F1"/>
<stop offset="1" stop-color="#CDE4EA"/>
</radialGradient>
</defs>
</svg>
