<svg width="40" height="41" viewBox="0 0 40 41" fill="none" xmlns="http://www.w3.org/2000/svg">
<rect width="39.377" height="40.0736" rx="6.4793" fill="url(#paint0_radial_603_638)"/>
<path fill-rule="evenodd" clip-rule="evenodd" d="M17.4652 11.7542C16.989 12.1086 16.5586 12.5529 16.2718 12.877C15.8668 13.3349 15.2514 13.4307 14.7887 13.3543C14.4531 13.2989 13.8474 13.2937 13.0383 13.7114C12.1544 14.1676 11.7883 14.7264 11.5739 15.3463C11.4598 15.6765 11.3871 16.0302 11.313 16.4289C11.3039 16.4774 11.2949 16.5268 11.2856 16.5769C11.2218 16.9244 11.1515 17.3066 11.0472 17.6819L11.0161 17.7941L10.9477 17.8885C10.6146 18.3485 10.1495 19.1674 9.87039 20.0817C9.58813 21.0062 9.52548 21.9283 9.85596 22.6719C10.2562 23.5724 11.3444 24.1867 12.4742 24.2037C13.559 24.2199 14.5128 23.6903 14.7971 22.4717C14.8886 22.0797 14.8683 21.8071 14.8096 21.6188C14.6939 21.2481 14.34 20.9744 13.7022 20.8254C13.0769 20.6793 12.3377 20.6988 11.7853 20.7832C11.4316 20.8373 11.101 20.5944 11.0469 20.2407C10.9928 19.887 11.2357 19.5564 11.5894 19.5023C12.2482 19.4015 13.163 19.3687 13.997 19.5635C14.4001 19.6577 14.8248 19.8165 15.1902 20.0741C15.263 19.9419 15.3503 19.8128 15.4549 19.7007C15.829 19.2998 16.2504 19.0872 16.4882 19.0192C16.8322 18.9209 17.1909 19.1202 17.2892 19.4642C17.3875 19.8083 17.1882 20.1669 16.8442 20.2652C16.8456 20.2648 16.8451 20.265 16.8428 20.2659C16.8319 20.2703 16.7797 20.2908 16.7012 20.3391C16.6122 20.3938 16.5053 20.4744 16.4023 20.5848C16.351 20.6397 16.2725 20.7793 16.1978 20.9998C16.1494 21.1426 16.1139 21.2853 16.0912 21.397C16.1768 21.7655 16.1763 22.1683 16.094 22.6012C16.1132 22.6792 16.1294 22.7537 16.1439 22.8216C16.1479 22.8402 16.1517 22.8583 16.1555 22.8758C16.1759 22.9723 16.1932 23.0536 16.2142 23.1356C16.2611 23.3185 16.3162 23.4586 16.4106 23.5891C16.5988 23.849 17.0542 24.219 18.3873 24.5745C19.2872 24.8144 20.0036 24.3576 20.2713 24.0832C20.4258 23.8103 20.6856 23.4384 21.0301 23.0765C21.4074 22.68 21.9175 22.2626 22.5392 22.0165C23.0892 21.7988 23.5413 21.6919 23.8974 21.6534C24.2242 21.6181 24.5437 21.6323 24.7794 21.7371C25.1064 21.8824 25.2537 22.2653 25.1084 22.5923C24.9681 22.9079 24.6067 23.0561 24.2877 22.9355C24.2877 22.9354 24.2879 22.9356 24.2877 22.9355C24.2873 22.9373 24.2137 22.9226 24.0367 22.9418C23.8159 22.9656 23.4777 23.0387 23.0162 23.2214C22.6263 23.3757 22.2671 23.6564 21.9687 23.9699C21.7788 24.1695 21.6261 24.369 21.5171 24.5317C21.5304 24.5726 21.5433 24.6128 21.5554 24.6509L21.5628 24.6742C21.6152 24.8387 21.6678 25.0036 21.7295 25.1648C21.8706 25.5332 21.9954 25.6982 22.0657 25.7414C22.0617 25.739 22.0803 25.7528 22.1509 25.7539C22.2241 25.7551 22.3234 25.742 22.452 25.7099C22.5793 25.6783 22.7115 25.6344 22.8528 25.5853C22.8719 25.5786 22.8918 25.5717 22.9123 25.5645C23.0279 25.5241 23.162 25.4771 23.2773 25.4459C23.5922 25.3606 23.8839 25.4567 24.0841 25.6036C24.3638 25.8089 24.8571 26.201 25.2261 26.6111C25.4412 26.8501 25.7617 27.3073 26.0611 27.7535C26.2967 28.1047 26.537 28.4763 26.7346 28.7873L27.7031 28.5676C27.5919 28.2207 27.4487 27.8146 27.2946 27.4623C27.0944 27.0047 26.8132 26.4145 26.5943 25.9653C26.2725 25.3046 26.7141 24.6555 27.2352 24.4634C27.4755 24.3749 27.8024 24.1983 28.3764 23.7809C28.6509 23.5813 28.7953 23.2714 28.8447 22.8943C28.895 22.5109 28.8351 22.1275 28.7696 21.9112L28.7501 21.8468L28.7442 21.7797C28.7119 21.4094 28.5663 20.8011 28.2414 20.2521C27.9217 19.712 27.4572 19.2724 26.7898 19.1135C25.1391 18.7205 23.7658 18.9597 23.3514 19.0978C23.0119 19.211 22.645 19.0275 22.5318 18.6881C22.4186 18.3486 22.6021 17.9816 22.9416 17.8685C23.5809 17.6554 25.2001 17.4029 27.0899 17.8528C28.1927 18.1154 28.9136 18.8437 29.3566 19.5921C29.4244 19.7068 29.4865 19.823 29.543 19.9394C29.6414 19.575 29.7184 19.1397 29.7436 18.6352C29.7957 17.5927 29.002 16.874 28.2796 16.5148C27.8787 16.3155 27.5661 15.9339 27.4834 15.4623C27.3472 14.686 26.9476 13.3802 25.9998 12.5053C25.4722 12.0183 24.7168 11.7993 23.8617 11.7611C23.0584 11.7252 22.2365 11.8525 21.5891 12.0014C21.2419 12.2338 20.7364 12.6128 20.2653 13.0509C19.7337 13.5452 19.3226 14.0453 19.1676 14.4482C19.0109 14.8556 18.9878 15.3982 19.0518 15.9592C19.1147 16.5104 19.2533 17.0089 19.3549 17.2837C19.4791 17.6193 19.3076 17.992 18.972 18.1162C18.6364 18.2403 18.2637 18.0689 18.1396 17.7332C18.0041 17.3671 17.8397 16.7671 17.7643 16.1061C17.69 15.4549 17.6933 14.6715 17.9581 13.983C18.2246 13.2901 18.8232 12.6223 19.3828 12.102C19.6344 11.868 19.8936 11.6498 20.1392 11.4566C20.1199 11.4479 20.1 11.4392 20.0794 11.4306C19.81 11.3173 19.4331 11.2212 18.7293 11.2017C18.4037 11.1926 17.9637 11.3831 17.4652 11.7542ZM21.4382 10.7072C21.4209 10.6965 21.4033 10.6857 21.3854 10.6747C21.1485 10.5285 20.8727 10.3583 20.5815 10.2359C20.1239 10.0436 19.5788 9.92892 18.7652 9.90633C17.9865 9.88469 17.2469 10.3012 16.6914 10.7147C16.1136 11.1448 15.6159 11.6628 15.3012 12.0184C15.293 12.0278 15.267 12.0504 15.2071 12.0669C15.1466 12.0836 15.072 12.0877 14.9998 12.0758C14.4041 11.9774 13.5141 12.0075 12.4439 12.5598C11.2343 13.1842 10.6608 14.0215 10.3492 14.9228C10.2004 15.3531 10.1135 15.7913 10.039 16.1919C10.0293 16.244 10.0198 16.2953 10.0105 16.3461C9.95277 16.659 9.89964 16.9471 9.82712 17.2287C9.4327 17.7963 8.93894 18.6947 8.63101 19.7033C8.30739 20.7633 8.1593 22.0451 8.67178 23.1982C9.32528 24.6686 10.9504 25.4768 12.4548 25.4994C13.5116 25.5152 14.5926 25.1417 15.317 24.2862C15.3312 24.3071 15.3458 24.328 15.3609 24.3489C15.8116 24.9715 16.6206 25.4445 18.0534 25.8266C19.0346 26.0882 19.8776 25.8577 20.4805 25.5239C20.4931 25.5585 20.506 25.5934 20.5194 25.6283C20.6595 25.9941 20.9089 26.5511 21.3866 26.845C21.8709 27.1431 22.4264 27.0517 22.7651 26.9674C22.9533 26.9206 23.1327 26.8599 23.2779 26.8094C23.3037 26.8005 23.328 26.792 23.3508 26.7841C23.3878 26.7712 23.421 26.7596 23.4513 26.7492C23.6996 26.9404 24.0266 27.2155 24.2629 27.478C24.4055 27.6364 24.6754 28.014 24.9849 28.4754C25.2846 28.922 25.5944 29.4063 25.8077 29.7466C25.9982 30.0508 26.3599 30.2011 26.7099 30.1217L28.466 29.7233C28.9284 29.6184 29.2246 29.1455 29.0895 28.6731C28.9714 28.2603 28.7465 27.5479 28.4818 26.9429C28.3018 26.5315 28.0641 26.028 27.8612 25.6078C28.2197 25.4516 28.6173 25.208 29.1386 24.8289C29.7913 24.3542 30.0509 23.6629 30.1296 23.0628C30.1862 22.6313 30.1554 22.2124 30.0921 21.8762C30.4912 21.2946 30.9625 20.2057 31.0378 18.6999C31.129 16.8759 29.7408 15.7942 28.8565 15.3545C28.7961 15.3244 28.766 15.2743 28.7597 15.2384C28.604 14.3509 28.1334 12.7112 26.8788 11.5531C26.0366 10.7757 24.9305 10.5117 23.9196 10.4665C23.0198 10.4263 22.1327 10.5561 21.4382 10.7072Z" fill="#FBE6EE"/>
<defs>
<radialGradient id="paint0_radial_603_638" cx="0" cy="0" r="1" gradientUnits="userSpaceOnUse" gradientTransform="translate(39.377 1.21963) rotate(132.924) scale(47.5878 46.7605)">
<stop stop-color="#ED613A"/>
<stop offset="0.495" stop-color="#CC0B2D"/>
<stop offset="1" stop-color="#7D278E"/>
</radialGradient>
</defs>
</svg>
