<svg width="14" height="14" viewBox="0 0 14 14" fill="none" xmlns="http://www.w3.org/2000/svg">
<path d="M14 1.02137C14 0.457282 13.5427 -8.79992e-07 12.9786 -1.13828e-06L3.78631 -3.20375e-07C3.22222 -6.64755e-07 2.76494 0.457282 2.76494 1.02137C2.76494 1.58545 3.22222 2.04274 3.78631 2.04274L11.9573 2.04274L11.9573 10.2137C11.9573 10.7778 12.4145 11.2351 12.9786 11.2351C13.5427 11.2351 14 10.7778 14 10.2137L14 1.02137ZM0.722202 13.2778L1.44442 14L13.7008 1.74359L12.9786 1.02137L12.2564 0.299151L-1.47934e-05 12.5556L0.722202 13.2778Z" fill="white"/>
</svg>
