<svg width="651" height="139" viewBox="0 0 651 139" fill="none" xmlns="http://www.w3.org/2000/svg">
<path d="M2.07106 48.4769V1.86633H30.9751V7.92024H9.10361V22.1219H28.904V28.153H9.10361V48.4769H2.07106ZM51.2363 49.1824C47.959 49.1824 45.0989 48.4314 42.6561 46.9293C40.2133 45.4272 38.3168 43.3257 36.9664 40.625C35.616 37.9243 34.9408 34.7683 34.9408 31.1572C34.9408 27.531 35.616 24.3599 36.9664 21.6439C38.3168 18.928 40.2133 16.819 42.6561 15.3169C45.0989 13.8148 47.959 13.0638 51.2363 13.0638C54.5136 13.0638 57.3737 13.8148 59.8165 15.3169C62.2593 16.819 64.1559 18.928 65.5062 21.6439C66.8566 24.3599 67.5318 27.531 67.5318 31.1572C67.5318 34.7683 66.8566 37.9243 65.5062 40.625C64.1559 43.3257 62.2593 45.4272 59.8165 46.9293C57.3737 48.4314 54.5136 49.1824 51.2363 49.1824ZM51.2591 43.4699C53.3832 43.4699 55.1433 42.9085 56.5392 41.7857C57.9351 40.6629 58.9668 39.1684 59.6344 37.3022C60.3172 35.4359 60.6586 33.38 60.6586 31.1345C60.6586 28.9041 60.3172 26.8558 59.6344 24.9895C58.9668 23.1081 57.9351 21.5984 56.5392 20.4605C55.1433 19.3225 53.3832 18.7535 51.2591 18.7535C49.1197 18.7535 47.3445 19.3225 45.9334 20.4605C44.5376 21.5984 43.4982 23.1081 42.8155 24.9895C42.1479 26.8558 41.8141 28.9041 41.8141 31.1345C41.8141 33.38 42.1479 35.4359 42.8155 37.3022C43.4982 39.1684 44.5376 40.6629 45.9334 41.7857C47.3445 42.9085 49.1197 43.4699 51.2591 43.4699ZM75.1276 48.4769V13.519H81.9326V48.4769H75.1276ZM78.5642 8.12507C77.3808 8.12507 76.3642 7.73058 75.5145 6.9416C74.68 6.13745 74.2628 5.18157 74.2628 4.07396C74.2628 2.95118 74.68 1.9953 75.5145 1.20632C76.3642 0.402164 77.3808 8.78607e-05 78.5642 8.78607e-05C79.7477 8.78607e-05 80.7567 0.402164 81.5912 1.20632C82.4409 1.9953 82.8657 2.95118 82.8657 4.07396C82.8657 5.18157 82.4409 6.13745 81.5912 6.9416C80.7567 7.73058 79.7477 8.12507 78.5642 8.12507ZM108.049 61.5861V13.519H114.694V19.186H115.263C115.658 18.4577 116.227 17.6156 116.97 16.6597C117.714 15.7038 118.745 14.8693 120.065 14.1562C121.385 13.4279 123.13 13.0638 125.3 13.0638C128.122 13.0638 130.641 13.7769 132.856 15.2031C135.071 16.6294 136.808 18.6853 138.068 21.3708C139.342 24.0564 139.98 27.2882 139.98 31.0662C139.98 34.8442 139.35 38.0836 138.091 40.7843C136.831 43.4699 135.102 45.541 132.901 46.9975C130.701 48.4389 128.19 49.1596 125.368 49.1596C123.244 49.1596 121.507 48.8031 120.156 48.09C118.821 47.3769 117.774 46.5424 117.016 45.5865C116.257 44.6306 115.673 43.7809 115.263 43.0375H114.854V61.5861H108.049ZM114.717 30.9979C114.717 33.4559 115.074 35.6104 115.787 37.4615C116.5 39.3126 117.532 40.7616 118.882 41.8085C120.232 42.8402 121.886 43.3561 123.843 43.3561C125.877 43.3561 127.576 42.8175 128.941 41.7402C130.307 40.6478 131.339 39.1684 132.037 37.3022C132.75 35.4359 133.106 33.3345 133.106 30.9979C133.106 28.6917 132.757 26.6206 132.059 24.7847C131.377 22.9488 130.345 21.4998 128.964 20.4377C127.599 19.3756 125.892 18.8446 123.843 18.8446C121.871 18.8446 120.202 19.3529 118.836 20.3694C117.486 21.386 116.462 22.8047 115.764 24.6254C115.066 26.4461 114.717 28.5703 114.717 30.9979ZM162.67 49.1824C159.226 49.1824 156.26 48.4465 153.772 46.9748C151.298 45.4879 149.387 43.4016 148.036 40.716C146.701 38.0153 146.033 34.8518 146.033 31.2255C146.033 27.6448 146.701 24.4888 148.036 21.7577C149.387 19.0267 151.268 16.8949 153.681 15.3624C156.108 13.83 158.945 13.0638 162.192 13.0638C164.165 13.0638 166.077 13.39 167.928 14.0424C169.779 14.6949 171.44 15.719 172.912 17.1149C174.384 18.5108 175.544 20.3239 176.394 22.5543C177.244 24.7695 177.669 27.4627 177.669 30.6338V33.0462H149.88V27.9482H171C171 26.1578 170.636 24.5723 169.908 23.1916C169.179 21.7957 168.155 20.6957 166.835 19.8915C165.53 19.0873 163.998 18.6853 162.238 18.6853C160.326 18.6853 158.657 19.1556 157.231 20.0963C155.82 21.0219 154.727 22.2357 153.954 23.7378C153.195 25.2247 152.816 26.8406 152.816 28.5855V32.5683C152.816 34.9049 153.225 36.8925 154.045 38.5312C154.879 40.1698 156.04 41.4216 157.527 42.2864C159.014 43.1361 160.751 43.5609 162.739 43.5609C164.028 43.5609 165.204 43.3788 166.266 43.0147C167.328 42.6354 168.246 42.074 169.02 41.3305C169.794 40.5871 170.386 39.6691 170.795 38.5767L177.236 39.7374C176.72 41.634 175.795 43.2954 174.46 44.7216C173.139 46.1327 171.478 47.2327 169.475 48.0217C167.488 48.7955 165.219 49.1824 162.67 49.1824ZM192.024 27.7206V48.4769H185.219V13.519H191.751V19.2087H192.183C192.987 17.3577 194.247 15.8707 195.961 14.748C197.691 13.6252 199.868 13.0638 202.493 13.0638C204.875 13.0638 206.961 13.5645 208.752 14.5659C210.542 15.5521 211.93 17.0239 212.917 18.9811C213.903 20.9384 214.396 23.3585 214.396 26.2413V48.4769H207.591V27.0606C207.591 24.5268 206.931 22.5467 205.611 21.1205C204.291 19.6791 202.478 18.9584 200.172 18.9584C198.594 18.9584 197.19 19.2998 195.961 19.9825C194.747 20.6653 193.784 21.6667 193.071 22.9867C192.373 24.2916 192.024 25.8695 192.024 27.7206ZM249.718 22.0536L243.55 23.146C243.292 22.3571 242.883 21.606 242.321 20.8929C241.775 20.1798 241.032 19.5956 240.091 19.1405C239.15 18.6853 237.974 18.4577 236.563 18.4577C234.636 18.4577 233.028 18.8901 231.738 19.7549C230.449 20.6046 229.804 21.7046 229.804 23.055C229.804 24.2233 230.236 25.164 231.101 25.8771C231.966 26.5903 233.362 27.1744 235.289 27.6296L240.842 28.9041C244.059 29.6476 246.456 30.7931 248.034 32.3407C249.612 33.8883 250.401 35.8987 250.401 38.3719C250.401 40.4657 249.794 42.3319 248.58 43.9706C247.381 45.5941 245.705 46.8686 243.55 47.7941C241.411 48.7196 238.93 49.1824 236.108 49.1824C232.194 49.1824 229 48.3479 226.527 46.6789C224.053 44.9947 222.536 42.605 221.975 39.5098L228.552 38.5084C228.962 40.2229 229.804 41.5202 231.078 42.4002C232.353 43.2651 234.014 43.6975 236.063 43.6975C238.293 43.6975 240.076 43.2347 241.411 42.3092C242.746 41.3685 243.414 40.2229 243.414 38.8726C243.414 37.7801 243.004 36.8622 242.185 36.1187C241.381 35.3752 240.144 34.8139 238.475 34.4345L232.558 33.1373C229.296 32.3938 226.883 31.2103 225.32 29.5869C223.773 27.9634 222.999 25.9075 222.999 23.4192C222.999 21.3557 223.575 19.5501 224.729 18.0025C225.882 16.4549 227.475 15.2487 229.508 14.3838C231.541 13.5038 233.87 13.0638 236.495 13.0638C240.273 13.0638 243.247 13.8831 245.417 15.5218C247.586 17.1452 249.02 19.3225 249.718 22.0536ZM268.056 49.2507C265.841 49.2507 263.838 48.841 262.048 48.0217C260.257 47.1872 258.839 45.981 257.792 44.403C256.76 42.825 256.244 40.8905 256.244 38.5994C256.244 36.627 256.624 35.0035 257.382 33.729C258.141 32.4545 259.165 31.4455 260.455 30.7021C261.744 29.9586 263.186 29.3972 264.779 29.0179C266.372 28.6386 267.995 28.3503 269.649 28.153C271.743 27.9103 273.442 27.713 274.747 27.5613C276.052 27.3944 277 27.1289 277.592 26.7647C278.184 26.4006 278.48 25.8089 278.48 24.9895V24.8302C278.48 22.8426 277.918 21.3026 276.796 20.2101C275.688 19.1177 274.034 18.5715 271.834 18.5715C269.543 18.5715 267.738 19.0798 266.417 20.0963C265.113 21.0977 264.21 22.2129 263.709 23.4419L257.314 21.9853C258.073 19.8612 259.18 18.1466 260.637 16.8418C262.108 15.5218 263.8 14.5659 265.712 13.9741C267.624 13.3672 269.634 13.0638 271.743 13.0638C273.139 13.0638 274.618 13.2307 276.181 13.5645C277.759 13.8831 279.231 14.4748 280.596 15.3397C281.977 16.2045 283.107 17.4411 283.987 19.0494C284.867 20.6426 285.308 22.7136 285.308 25.2626V48.4769H278.662V43.6975H278.389C277.949 44.5775 277.289 45.4423 276.409 46.292C275.529 47.1417 274.398 47.8472 273.018 48.4086C271.637 48.97 269.983 49.2507 268.056 49.2507ZM269.535 43.7885C271.417 43.7885 273.025 43.4168 274.36 42.6733C275.711 41.9299 276.735 40.9588 277.433 39.7602C278.146 38.5463 278.503 37.2491 278.503 35.8684V31.3621C278.26 31.6048 277.789 31.8324 277.091 32.0448C276.409 32.2421 275.627 32.4166 274.747 32.5683C273.867 32.7049 273.01 32.8338 272.176 32.9552C271.341 33.0614 270.643 33.1524 270.082 33.2283C268.762 33.3952 267.555 33.6759 266.463 34.0704C265.386 34.4649 264.521 35.0339 263.868 35.7773C263.231 36.5056 262.913 37.4767 262.913 38.6905C262.913 40.3747 263.535 41.6492 264.779 42.514C266.023 43.3637 267.609 43.7885 269.535 43.7885ZM301.176 27.7206V48.4769H294.371V13.519H300.903V19.2087H301.336C302.14 17.3577 303.399 15.8707 305.114 14.748C306.843 13.6252 309.021 13.0638 311.645 13.0638C314.028 13.0638 316.114 13.5645 317.904 14.5659C319.695 15.5521 321.083 17.0239 322.069 18.9811C323.055 20.9384 323.548 23.3585 323.548 26.2413V48.4769H316.743V27.0606C316.743 24.5268 316.083 22.5467 314.763 21.1205C313.443 19.6791 311.63 18.9584 309.324 18.9584C307.746 18.9584 306.343 19.2998 305.114 19.9825C303.9 20.6653 302.936 21.6667 302.223 22.9867C301.525 24.2916 301.176 25.8695 301.176 27.7206ZM345.761 49.1596C342.939 49.1596 340.42 48.4389 338.205 46.9975C336.005 45.541 334.276 43.4699 333.016 40.7843C331.772 38.0836 331.15 34.8442 331.15 31.0662C331.15 27.2882 331.78 24.0564 333.039 21.3708C334.313 18.6853 336.058 16.6294 338.274 15.2031C340.489 13.7769 343 13.0638 345.807 13.0638C347.976 13.0638 349.721 13.4279 351.041 14.1562C352.377 14.8693 353.408 15.7038 354.137 16.6597C354.88 17.6156 355.457 18.4577 355.866 19.186H356.276V1.86633H363.081V48.4769H356.435V43.0375H355.866C355.457 43.7809 354.865 44.6306 354.091 45.5865C353.332 46.5424 352.286 47.3769 350.95 48.09C349.615 48.8031 347.885 49.1596 345.761 49.1596ZM347.263 43.3561C349.221 43.3561 350.874 42.8402 352.225 41.8085C353.59 40.7616 354.622 39.3126 355.32 37.4615C356.033 35.6104 356.39 33.4559 356.39 30.9979C356.39 28.5703 356.041 26.4461 355.343 24.6254C354.645 22.8047 353.621 21.386 352.27 20.3694C350.92 19.3529 349.251 18.8446 347.263 18.8446C345.215 18.8446 343.508 19.3756 342.143 20.4377C340.777 21.4998 339.745 22.9488 339.047 24.7847C338.365 26.6206 338.023 28.6917 338.023 30.9979C338.023 33.3345 338.372 35.4359 339.07 37.3022C339.768 39.1684 340.8 40.6478 342.165 41.7402C343.546 42.8175 345.245 43.3561 347.263 43.3561ZM387.518 49.1824C384.241 49.1824 381.381 48.4314 378.938 46.9293C376.495 45.4272 374.599 43.3257 373.248 40.625C371.898 37.9243 371.223 34.7683 371.223 31.1572C371.223 27.531 371.898 24.3599 373.248 21.6439C374.599 18.928 376.495 16.819 378.938 15.3169C381.381 13.8148 384.241 13.0638 387.518 13.0638C390.796 13.0638 393.656 13.8148 396.099 15.3169C398.541 16.819 400.438 18.928 401.788 21.6439C403.139 24.3599 403.814 27.531 403.814 31.1572C403.814 34.7683 403.139 37.9243 401.788 40.625C400.438 43.3257 398.541 45.4272 396.099 46.9293C393.656 48.4314 390.796 49.1824 387.518 49.1824ZM387.541 43.4699C389.665 43.4699 391.425 42.9085 392.821 41.7857C394.217 40.6629 395.249 39.1684 395.917 37.3022C396.599 35.4359 396.941 33.38 396.941 31.1345C396.941 28.9041 396.599 26.8558 395.917 24.9895C395.249 23.1081 394.217 21.5984 392.821 20.4605C391.425 19.3225 389.665 18.7535 387.541 18.7535C385.402 18.7535 383.627 19.3225 382.216 20.4605C380.82 21.5984 379.78 23.1081 379.098 24.9895C378.43 26.8558 378.096 28.9041 378.096 31.1345C378.096 33.38 378.43 35.4359 379.098 37.3022C379.78 39.1684 380.82 40.6629 382.216 41.7857C383.627 42.9085 385.402 43.4699 387.541 43.4699ZM435.176 27.7206V48.4769H428.371V13.519H434.903V19.2087H435.335C436.139 17.3577 437.399 15.8707 439.113 14.748C440.843 13.6252 443.02 13.0638 445.645 13.0638C448.027 13.0638 450.113 13.5645 451.904 14.5659C453.694 15.5521 455.082 17.0239 456.069 18.9811C457.055 20.9384 457.548 23.3585 457.548 26.2413V48.4769H450.743V27.0606C450.743 24.5268 450.083 22.5467 448.763 21.1205C447.443 19.6791 445.63 18.9584 443.324 18.9584C441.746 18.9584 440.342 19.2998 439.113 19.9825C437.899 20.6653 436.936 21.6667 436.223 22.9867C435.525 24.2916 435.176 25.8695 435.176 27.7206ZM466.674 48.4769V13.519H473.479V48.4769H466.674ZM470.111 8.12507C468.928 8.12507 467.911 7.73058 467.061 6.9416C466.227 6.13745 465.81 5.18157 465.81 4.07396C465.81 2.95118 466.227 1.9953 467.061 1.20632C467.911 0.402164 468.928 8.78607e-05 470.111 8.78607e-05C471.295 8.78607e-05 472.303 0.402164 473.138 1.20632C473.988 1.9953 474.412 2.95118 474.412 4.07396C474.412 5.18157 473.988 6.13745 473.138 6.9416C472.303 7.73058 471.295 8.12507 470.111 8.12507ZM508.83 22.0536L502.662 23.146C502.404 22.3571 501.995 21.606 501.433 20.8929C500.887 20.1798 500.144 19.5956 499.203 19.1405C498.262 18.6853 497.086 18.4577 495.675 18.4577C493.748 18.4577 492.14 18.8901 490.85 19.7549C489.561 20.6046 488.916 21.7046 488.916 23.055C488.916 24.2233 489.348 25.164 490.213 25.8771C491.078 26.5903 492.474 27.1744 494.401 27.6296L499.954 28.9041C503.17 29.6476 505.568 30.7931 507.146 32.3407C508.724 33.8883 509.513 35.8987 509.513 38.3719C509.513 40.4657 508.906 42.3319 507.692 43.9706C506.493 45.5941 504.817 46.8686 502.662 47.7941C500.523 48.7196 498.042 49.1824 495.22 49.1824C491.305 49.1824 488.112 48.3479 485.638 46.6789C483.165 44.9947 481.648 42.605 481.087 39.5098L487.664 38.5084C488.074 40.2229 488.916 41.5202 490.19 42.4002C491.465 43.2651 493.126 43.6975 495.174 43.6975C497.405 43.6975 499.188 43.2347 500.523 42.3092C501.858 41.3685 502.526 40.2229 502.526 38.8726C502.526 37.7801 502.116 36.8622 501.297 36.1187C500.492 35.3752 499.256 34.8139 497.587 34.4345L491.67 33.1373C488.407 32.3938 485.995 31.2103 484.432 29.5869C482.885 27.9634 482.111 25.9075 482.111 23.4192C482.111 21.3557 482.687 19.5501 483.84 18.0025C484.994 16.4549 486.587 15.2487 488.62 14.3838C490.653 13.5038 492.982 13.0638 495.607 13.0638C499.385 13.0638 502.359 13.8831 504.528 15.5218C506.698 17.1452 508.132 19.3225 508.83 22.0536ZM543.19 22.0536L537.023 23.146C536.765 22.3571 536.355 21.606 535.794 20.8929C535.247 20.1798 534.504 19.5956 533.563 19.1405C532.623 18.6853 531.447 18.4577 530.036 18.4577C528.109 18.4577 526.5 18.8901 525.211 19.7549C523.921 20.6046 523.276 21.7046 523.276 23.055C523.276 24.2233 523.709 25.164 524.573 25.8771C525.438 26.5903 526.834 27.1744 528.761 27.6296L534.314 28.9041C537.531 29.6476 539.928 30.7931 541.506 32.3407C543.084 33.8883 543.873 35.8987 543.873 38.3719C543.873 40.4657 543.266 42.3319 542.052 43.9706C540.854 45.5941 539.177 46.8686 537.023 47.7941C534.883 48.7196 532.403 49.1824 529.58 49.1824C525.666 49.1824 522.472 48.3479 519.999 46.6789C517.526 44.9947 516.008 42.605 515.447 39.5098L522.024 38.5084C522.434 40.2229 523.276 41.5202 524.551 42.4002C525.825 43.2651 527.487 43.6975 529.535 43.6975C531.765 43.6975 533.548 43.2347 534.883 42.3092C536.219 41.3685 536.886 40.2229 536.886 38.8726C536.886 37.7801 536.476 36.8622 535.657 36.1187C534.853 35.3752 533.616 34.8139 531.947 34.4345L526.03 33.1373C522.768 32.3938 520.355 31.2103 518.793 29.5869C517.245 27.9634 516.471 25.9075 516.471 23.4192C516.471 21.3557 517.048 19.5501 518.201 18.0025C519.354 16.4549 520.947 15.2487 522.98 14.3838C525.013 13.5038 527.342 13.0638 529.967 13.0638C533.745 13.0638 536.719 13.8831 538.889 15.5218C541.059 17.1452 542.492 19.3225 543.19 22.0536ZM566.08 49.1824C562.803 49.1824 559.943 48.4314 557.5 46.9293C555.057 45.4272 553.161 43.3257 551.81 40.625C550.46 37.9243 549.785 34.7683 549.785 31.1572C549.785 27.531 550.46 24.3599 551.81 21.6439C553.161 18.928 555.057 16.819 557.5 15.3169C559.943 13.8148 562.803 13.0638 566.08 13.0638C569.358 13.0638 572.218 13.8148 574.66 15.3169C577.103 16.819 579 18.928 580.35 21.6439C581.701 24.3599 582.376 27.531 582.376 31.1572C582.376 34.7683 581.701 37.9243 580.35 40.625C579 43.3257 577.103 45.4272 574.66 46.9293C572.218 48.4314 569.358 49.1824 566.08 49.1824ZM566.103 43.4699C568.227 43.4699 569.987 42.9085 571.383 41.7857C572.779 40.6629 573.811 39.1684 574.478 37.3022C575.161 35.4359 575.503 33.38 575.503 31.1345C575.503 28.9041 575.161 26.8558 574.478 24.9895C573.811 23.1081 572.779 21.5984 571.383 20.4605C569.987 19.3225 568.227 18.7535 566.103 18.7535C563.964 18.7535 562.188 19.3225 560.777 20.4605C559.382 21.5984 558.342 23.1081 557.659 24.9895C556.992 26.8558 556.658 28.9041 556.658 31.1345C556.658 33.38 556.992 35.4359 557.659 37.3022C558.342 39.1684 559.382 40.6629 560.777 41.7857C562.188 42.9085 563.964 43.4699 566.103 43.4699ZM25.126 138.694V120.145H24.7163C24.3067 120.889 23.7149 121.738 22.9411 122.694C22.1825 123.65 21.1356 124.485 19.8004 125.198C18.4652 125.911 16.7355 126.267 14.6113 126.267C11.7892 126.267 9.27051 125.547 7.05529 124.105C4.85525 122.649 3.12556 120.578 1.86623 117.892C0.622064 115.191 -1.64739e-05 111.952 -1.64739e-05 108.174C-1.64739e-05 104.396 0.629651 101.164 1.88899 98.4785C3.16349 95.793 4.90835 93.7371 7.12357 92.3108C9.33878 90.8846 11.8499 90.1715 14.6568 90.1715C16.8265 90.1715 18.5714 90.5356 19.8914 91.2639C21.2266 91.977 22.2583 92.8115 22.9866 93.7674C23.7301 94.7233 24.3067 95.5654 24.7163 96.2937H25.2853V90.6266H31.9309V138.694H25.126ZM16.1134 120.464C18.0707 120.464 19.7245 119.948 21.0749 118.916C22.4404 117.869 23.4722 116.42 24.1701 114.569C24.8832 112.718 25.2398 110.564 25.2398 108.106C25.2398 105.678 24.8908 103.554 24.1929 101.733C23.4949 99.9123 22.4708 98.4937 21.1204 97.4771C19.77 96.4606 18.101 95.9523 16.1134 95.9523C14.0651 95.9523 12.3582 96.4833 10.9926 97.5454C9.62706 98.6075 8.59532 100.056 7.89738 101.892C7.2146 103.728 6.87322 105.799 6.87322 108.106C6.87322 110.442 7.22219 112.544 7.92014 114.41C8.61808 116.276 9.64982 117.755 11.0154 118.848C12.3961 119.925 14.0954 120.464 16.1134 120.464ZM63.2246 111.087V90.6266H70.0524V125.585H63.3612V119.531H62.997C62.1929 121.397 60.9032 122.952 59.128 124.196C57.368 125.425 55.1755 126.04 52.5506 126.04C50.3051 126.04 48.3175 125.547 46.5878 124.56C44.8733 123.559 43.5229 122.08 42.5367 120.122C41.5656 118.165 41.0801 115.745 41.0801 112.862V90.6266H47.885V112.043C47.885 114.425 48.545 116.322 49.8651 117.733C51.1851 119.144 52.8996 119.849 55.0086 119.849C56.2831 119.849 57.55 119.531 58.8094 118.893C60.0839 118.256 61.1384 117.293 61.9729 116.003C62.8226 114.713 63.2398 113.075 63.2246 111.087ZM94.2623 126.29C90.8181 126.29 87.8518 125.554 85.3635 124.082C82.8904 122.596 80.9786 120.509 79.6282 117.824C78.293 115.123 77.6254 111.959 77.6254 108.333C77.6254 104.752 78.293 101.597 79.6282 98.8654C80.9786 96.1343 82.86 94.0026 85.2725 92.4701C87.7001 90.9377 90.5374 90.1715 93.7844 90.1715C95.7568 90.1715 97.6686 90.4977 99.5196 91.1501C101.371 91.8025 103.032 92.8267 104.504 94.2226C105.976 95.6185 107.136 97.4316 107.986 99.662C108.836 101.877 109.261 104.57 109.261 107.741V110.154H81.4717V105.056H102.592C102.592 103.266 102.228 101.68 101.5 100.299C100.771 98.9034 99.7472 97.8033 98.4272 96.9992C97.1224 96.195 95.5899 95.793 93.8299 95.793C91.9181 95.793 90.2491 96.2633 88.8229 97.204C87.4118 98.1295 86.3194 99.3434 85.5456 100.845C84.7869 102.332 84.4076 103.948 84.4076 105.693V109.676C84.4076 112.013 84.8173 114 85.6366 115.639C86.4711 117.278 87.6318 118.529 89.1188 119.394C90.6057 120.244 92.343 120.669 94.3306 120.669C95.6203 120.669 96.7961 120.487 97.8582 120.122C98.9203 119.743 99.8383 119.182 100.612 118.438C101.386 117.695 101.978 116.777 102.387 115.684L108.828 116.845C108.312 118.742 107.387 120.403 106.051 121.829C104.731 123.24 103.07 124.34 101.067 125.129C99.0796 125.903 96.8113 126.29 94.2623 126.29ZM148.497 126.29C145.114 126.29 142.2 125.524 139.758 123.991C137.33 122.444 135.464 120.312 134.159 117.596C132.854 114.88 132.202 111.77 132.202 108.265C132.202 104.715 132.869 101.581 134.204 98.8654C135.54 96.1343 137.421 94.0026 139.849 92.4701C142.276 90.9377 145.136 90.1715 148.429 90.1715C151.084 90.1715 153.451 90.6646 155.53 91.6508C157.608 92.6219 159.285 93.9874 160.559 95.7474C161.849 97.5075 162.615 99.5634 162.858 101.915H156.235C155.871 100.276 155.037 98.8654 153.732 97.682C152.442 96.4985 150.712 95.9067 148.543 95.9067C146.646 95.9067 144.985 96.4074 143.558 97.4088C142.147 98.3951 141.047 99.8061 140.258 101.642C139.469 103.463 139.075 105.617 139.075 108.106C139.075 110.655 139.462 112.855 140.236 114.706C141.009 116.557 142.102 117.991 143.513 119.007C144.939 120.024 146.616 120.532 148.543 120.532C149.832 120.532 151.001 120.297 152.048 119.827C153.11 119.341 153.997 118.651 154.71 117.755C155.439 116.86 155.947 115.783 156.235 114.524H162.858C162.615 116.784 161.879 118.802 160.65 120.578C159.421 122.353 157.775 123.749 155.712 124.765C153.663 125.782 151.259 126.29 148.497 126.29ZM170.135 125.585V90.6266H176.713V96.1799H177.077C177.714 94.2984 178.837 92.8191 180.445 91.7418C182.069 90.6494 183.905 90.1032 185.953 90.1032C186.378 90.1032 186.878 90.1184 187.455 90.1487C188.047 90.1791 188.509 90.217 188.843 90.2625V96.7716C188.57 96.6957 188.085 96.6123 187.387 96.5212C186.689 96.415 185.991 96.3619 185.293 96.3619C183.685 96.3619 182.251 96.7033 180.991 97.3861C179.747 98.0537 178.761 98.9868 178.033 100.185C177.304 101.369 176.94 102.719 176.94 104.237V125.585H170.135ZM194.732 125.585V90.6266H201.537V125.585H194.732ZM198.169 85.2328C196.985 85.2328 195.969 84.8383 195.119 84.0493C194.285 83.2451 193.867 82.2892 193.867 81.1816C193.867 80.0589 194.285 79.103 195.119 78.314C195.969 77.5098 196.985 77.1078 198.169 77.1078C199.352 77.1078 200.361 77.5098 201.196 78.314C202.045 79.103 202.47 80.0589 202.47 81.1816C202.47 82.2892 202.045 83.2451 201.196 84.0493C200.361 84.8383 199.352 85.2328 198.169 85.2328ZM225.758 126.29C222.314 126.29 219.348 125.554 216.86 124.082C214.386 122.596 212.475 120.509 211.124 117.824C209.789 115.123 209.122 111.959 209.122 108.333C209.122 104.752 209.789 101.597 211.124 98.8654C212.475 96.1343 214.356 94.0026 216.769 92.4701C219.196 90.9377 222.034 90.1715 225.28 90.1715C227.253 90.1715 229.165 90.4977 231.016 91.1501C232.867 91.8025 234.528 92.8267 236 94.2226C237.472 95.6185 238.632 97.4316 239.482 99.662C240.332 101.877 240.757 104.57 240.757 107.741V110.154H212.968V105.056H234.088C234.088 103.266 233.724 101.68 232.996 100.299C232.268 98.9034 231.243 97.8033 229.923 96.9992C228.618 96.195 227.086 95.793 225.326 95.793C223.414 95.793 221.745 96.2633 220.319 97.204C218.908 98.1295 217.816 99.3434 217.042 100.845C216.283 102.332 215.904 103.948 215.904 105.693V109.676C215.904 112.013 216.313 114 217.133 115.639C217.967 117.278 219.128 118.529 220.615 119.394C222.102 120.244 223.839 120.669 225.827 120.669C227.116 120.669 228.292 120.487 229.354 120.122C230.416 119.743 231.334 119.182 232.108 118.438C232.882 117.695 233.474 116.777 233.883 115.684L240.324 116.845C239.808 118.742 238.883 120.403 237.548 121.829C236.228 123.24 234.566 124.34 232.563 125.129C230.576 125.903 228.307 126.29 225.758 126.29ZM248.307 125.585V90.6266H255.112V125.585H248.307ZM251.744 85.2328C250.56 85.2328 249.544 84.8383 248.694 84.0493C247.859 83.2451 247.442 82.2892 247.442 81.1816C247.442 80.0589 247.859 79.103 248.694 78.314C249.544 77.5098 250.56 77.1078 251.744 77.1078C252.927 77.1078 253.936 77.5098 254.771 78.314C255.62 79.103 256.045 80.0589 256.045 81.1816C256.045 82.2892 255.62 83.2451 254.771 84.0493C253.936 84.8383 252.927 85.2328 251.744 85.2328ZM291.401 126.358C289.186 126.358 287.183 125.949 285.393 125.129C283.602 124.295 282.184 123.089 281.137 121.511C280.105 119.933 279.589 117.998 279.589 115.707C279.589 113.735 279.969 112.111 280.727 110.837C281.486 109.562 282.51 108.553 283.8 107.81C285.089 107.066 286.531 106.505 288.124 106.126C289.717 105.746 291.341 105.458 292.994 105.261C295.088 105.018 296.788 104.821 298.092 104.669C299.397 104.502 300.346 104.237 300.937 103.872C301.529 103.508 301.825 102.917 301.825 102.097V101.938C301.825 99.9503 301.263 98.4102 300.141 97.3178C299.033 96.2254 297.379 95.6792 295.179 95.6792C292.888 95.6792 291.083 96.1874 289.763 97.204C288.458 98.2054 287.555 99.3206 287.054 100.55L280.659 99.093C281.418 96.9688 282.525 95.2543 283.982 93.9495C285.454 92.6294 287.145 91.6736 289.057 91.0818C290.969 90.4749 292.979 90.1715 295.088 90.1715C296.484 90.1715 297.963 90.3384 299.526 90.6722C301.104 90.9908 302.576 91.5825 303.941 92.4474C305.322 93.3122 306.453 94.5488 307.333 96.1571C308.213 97.7502 308.653 99.8213 308.653 102.37V125.585H302.007V120.805H301.734C301.294 121.685 300.634 122.55 299.754 123.4C298.874 124.249 297.743 124.955 296.363 125.516C294.982 126.078 293.328 126.358 291.401 126.358ZM292.881 120.896C294.762 120.896 296.37 120.524 297.706 119.781C299.056 119.038 300.08 118.066 300.778 116.868C301.491 115.654 301.848 114.357 301.848 112.976V108.47C301.605 108.713 301.135 108.94 300.437 109.153C299.754 109.35 298.972 109.524 298.092 109.676C297.212 109.813 296.355 109.941 295.521 110.063C294.686 110.169 293.988 110.26 293.427 110.336C292.107 110.503 290.901 110.784 289.808 111.178C288.731 111.573 287.866 112.142 287.214 112.885C286.576 113.613 286.258 114.584 286.258 115.798C286.258 117.482 286.88 118.757 288.124 119.622C289.368 120.471 290.954 120.896 292.881 120.896ZM373.436 78.974V125.585H362.876L346.034 101.096H345.761V125.585H333.107V78.974H343.849L360.418 103.372H360.782V78.974H373.436ZM396.355 126.222C392.622 126.222 389.406 125.509 386.705 124.082C384.019 122.641 381.948 120.578 380.492 117.892C379.05 115.191 378.329 111.959 378.329 108.197C378.329 104.586 379.058 101.43 380.514 98.7289C381.971 96.0281 384.027 93.9267 386.682 92.4246C389.337 90.9225 392.47 90.1715 396.082 90.1715C398.722 90.1715 401.111 90.5811 403.251 91.4005C405.39 92.2198 407.218 93.4108 408.736 94.9736C410.253 96.5212 411.421 98.4027 412.24 100.618C413.06 102.833 413.469 105.329 413.469 108.106V111.019H382.244V104.1H401.908C401.893 103.099 401.635 102.219 401.134 101.46C400.649 100.686 399.988 100.087 399.154 99.662C398.335 99.222 397.402 99.002 396.355 99.002C395.338 99.002 394.405 99.222 393.555 99.662C392.706 100.087 392.023 100.679 391.507 101.437C391.006 102.196 390.741 103.083 390.71 104.1V111.565C390.71 112.688 390.946 113.689 391.416 114.569C391.886 115.449 392.561 116.14 393.441 116.64C394.321 117.141 395.384 117.391 396.628 117.391C397.493 117.391 398.282 117.27 398.995 117.027C399.723 116.784 400.345 116.435 400.861 115.98C401.377 115.51 401.756 114.948 401.999 114.296H413.469C413.075 116.724 412.142 118.833 410.67 120.623C409.198 122.398 407.249 123.779 404.821 124.765C402.409 125.736 399.586 126.222 396.355 126.222ZM441.264 110.29V90.6266H453.827V125.585H441.901V118.939H441.537C440.778 121.169 439.451 122.914 437.554 124.173C435.658 125.418 433.404 126.04 430.795 126.04C428.352 126.04 426.213 125.478 424.377 124.356C422.556 123.233 421.137 121.685 420.121 119.713C419.119 117.74 418.611 115.48 418.596 112.931V90.6266H431.159V110.29C431.174 112.02 431.614 113.378 432.479 114.364C433.359 115.351 434.588 115.844 436.166 115.844C437.213 115.844 438.116 115.624 438.874 115.184C439.648 114.728 440.24 114.091 440.649 113.272C441.074 112.437 441.279 111.444 441.264 110.29ZM460.217 125.585V90.6266H472.415V97.2723H472.78C473.417 94.8143 474.426 93.0163 475.806 91.8784C477.202 90.7404 478.833 90.1715 480.7 90.1715C481.246 90.1715 481.785 90.217 482.316 90.308C482.862 90.3839 483.385 90.4977 483.886 90.6494V101.369C483.264 101.157 482.498 100.997 481.587 100.891C480.677 100.785 479.896 100.732 479.243 100.732C478.014 100.732 476.907 101.012 475.92 101.574C474.949 102.12 474.183 102.894 473.622 103.895C473.06 104.881 472.78 106.042 472.78 107.377V125.585H460.217ZM502.844 126.222C499.051 126.222 495.804 125.471 493.103 123.969C490.403 122.451 488.332 120.342 486.89 117.642C485.449 114.926 484.728 111.777 484.728 108.197C484.728 104.616 485.449 101.475 486.89 98.7744C488.332 96.0585 490.403 93.9495 493.103 92.4474C495.804 90.9301 499.051 90.1715 502.844 90.1715C506.637 90.1715 509.884 90.9301 512.585 92.4474C515.286 93.9495 517.357 96.0585 518.798 98.7744C520.24 101.475 520.96 104.616 520.96 108.197C520.96 111.777 520.24 114.926 518.798 117.642C517.357 120.342 515.286 122.451 512.585 123.969C509.884 125.471 506.637 126.222 502.844 126.222ZM502.935 116.936C503.997 116.936 504.915 116.58 505.689 115.866C506.463 115.153 507.062 114.137 507.487 112.817C507.912 111.497 508.124 109.926 508.124 108.106C508.124 106.27 507.912 104.699 507.487 103.394C507.062 102.074 506.463 101.058 505.689 100.345C504.915 99.6316 503.997 99.2751 502.935 99.2751C501.813 99.2751 500.849 99.6316 500.045 100.345C499.241 101.058 498.626 102.074 498.201 103.394C497.777 104.699 497.564 106.27 497.564 108.106C497.564 109.926 497.777 111.497 498.201 112.817C498.626 114.137 499.241 115.153 500.045 115.866C500.849 116.58 501.813 116.936 502.935 116.936ZM538.621 105.921V125.585H526.058V90.6266H537.984V97.2723H538.348C539.107 95.0571 540.442 93.3198 542.354 92.0605C544.281 90.8011 546.526 90.1715 549.091 90.1715C551.564 90.1715 553.711 90.7404 555.531 91.8784C557.367 93.0012 558.786 94.5488 559.787 96.5212C560.804 98.4937 561.305 100.747 561.29 103.281V125.585H548.727V105.921C548.742 104.191 548.302 102.833 547.406 101.847C546.526 100.861 545.297 100.368 543.72 100.368C542.688 100.368 541.785 100.595 541.011 101.05C540.253 101.49 539.668 102.128 539.259 102.962C538.849 103.781 538.637 104.768 538.621 105.921ZM574.319 126.313C572.559 126.313 571.049 125.698 569.79 124.469C568.546 123.225 567.931 121.716 567.947 119.94C567.931 118.211 568.546 116.731 569.79 115.502C571.049 114.273 572.559 113.659 574.319 113.659C575.988 113.659 577.46 114.273 578.734 115.502C580.024 116.731 580.676 118.211 580.692 119.94C580.676 121.124 580.365 122.201 579.758 123.172C579.167 124.128 578.393 124.894 577.437 125.471C576.481 126.032 575.442 126.313 574.319 126.313ZM599.445 125.585H585.79L601.175 78.974H618.472L633.857 125.585H620.201L610.005 91.8101H609.641L599.445 125.585ZM596.896 107.195H622.568V116.663H596.896V107.195ZM651 78.974V125.585H638.346V78.974H651Z" fill="url(#paint0_linear_3_39)"/>
<defs>
<linearGradient id="paint0_linear_3_39" x1="-3.04973" y1="52.4825" x2="671.893" y2="125.585" gradientUnits="userSpaceOnUse">
<stop stop-color="#B5B5B5"/>
<stop offset="0.473868" stop-color="#E4E4E4"/>
<stop offset="1" stop-color="white"/>
</linearGradient>
</defs>
</svg>
