<svg width="650" height="758" viewBox="0 0 650 758" fill="none" xmlns="http://www.w3.org/2000/svg">
<g filter="url(#filter0_f_14_7)">
<path d="M67.7482 18.4986C68.5905 9.69218 76.4122 3.23596 85.2186 4.07821L631.349 56.3103C640.155 57.1526 646.611 64.9743 645.769 73.7807L582.099 739.501C581.257 748.308 573.435 754.764 564.629 753.922L18.4988 701.689C9.6924 700.847 3.23617 693.025 4.07842 684.219L67.7482 18.4986Z" fill="url(#paint0_linear_14_7)"/>
<path d="M85.1233 5.0748L631.253 57.3069C639.509 58.0965 645.562 65.4294 644.772 73.6854L581.103 739.406C580.313 747.662 572.98 753.715 564.724 752.925L18.5941 700.693C10.3381 699.903 4.2854 692.57 5.075 684.314L68.7448 18.5939C69.5344 10.3379 76.8673 4.28519 85.1233 5.0748Z" stroke="#5C5C5C" stroke-width="2"/>
</g>
<defs>
<filter id="filter0_f_14_7" x="0" y="0" width="649.847" height="758" filterUnits="userSpaceOnUse" color-interpolation-filters="sRGB">
<feFlood flood-opacity="0" result="BackgroundImageFix"/>
<feBlend mode="normal" in="SourceGraphic" in2="BackgroundImageFix" result="shape"/>
<feGaussianBlur stdDeviation="2" result="effect1_foregroundBlur_14_7"/>
</filter>
<linearGradient id="paint0_linear_14_7" x1="-31.261" y1="683.216" x2="594.654" y2="380.02" gradientUnits="userSpaceOnUse">
<stop/>
<stop offset="1" stop-color="#222430"/>
</linearGradient>
</defs>
</svg>
