<svg width="616" height="98" viewBox="0 0 616 98" fill="none" xmlns="http://www.w3.org/2000/svg">
<path d="M5.48031 4.92741H8.05219V21.7528H4.42271V8.46075L2.93698e-05 11.2009V8.34057L5.48031 4.92741ZM18.4312 4.5909C22.6616 4.5909 26.6276 7.04261 26.6276 13.3401C26.6276 19.6617 22.6616 22.1134 18.4312 22.1134C14.1768 22.1134 10.2108 19.6617 10.2108 13.3401C10.2108 7.04261 14.1768 4.5909 18.4312 4.5909ZM18.4312 19.3973C21.9886 19.3973 23.1423 16.6571 23.1423 13.3401C23.1423 10.0471 21.9886 7.28297 18.4312 7.28297C14.8498 7.28297 13.7201 10.0471 13.7201 13.3401C13.7201 16.6571 14.8498 19.3973 18.4312 19.3973ZM41.9011 8.60497C45.5787 8.60497 48.7996 9.66256 48.7996 13.4363V21.7528H45.146V20.0462C44.5932 20.8875 42.7424 22.1134 39.8821 22.1134C36.8775 22.1134 34.8104 20.8635 34.8104 18.3397C34.8104 15.6476 36.2045 13.4843 45.146 14.0372V13.4363C45.146 12.0902 44.5451 11.1047 41.9011 11.1047C39.6898 11.1047 38.9927 11.7537 38.8004 12.6431H35.3873C35.7959 9.80678 38.3918 8.60497 41.9011 8.60497ZM45.146 18.0032V16.2004C40.2907 15.936 38.488 16.3927 38.488 18.2195C38.488 19.4213 39.3773 19.902 40.9637 19.902C42.9347 19.902 44.473 19.1329 45.146 18.0032ZM56.8968 22.1134C53.6038 22.1134 51.6809 20.3106 51.6809 17.4263V8.94147H55.3344V16.5129C55.3344 18.0512 56.2238 19.3732 58.4832 19.3732C60.7426 19.3732 61.7521 18.0032 61.7521 16.5129V8.94147H65.4056V21.7528H61.7521V19.9501C61.1993 20.7193 59.6369 22.1134 56.8968 22.1134ZM68.2998 4.01403H71.9533V21.7528H68.2998V4.01403ZM81.2183 8.60497C84.8959 8.60497 88.1167 9.66256 88.1167 13.4363V21.7528H84.4632V20.0462C83.9104 20.8875 82.0596 22.1134 79.1993 22.1134C76.1947 22.1134 74.1276 20.8635 74.1276 18.3397C74.1276 15.6476 75.5217 13.4843 84.4632 14.0372V13.4363C84.4632 12.0902 83.8623 11.1047 81.2183 11.1047C79.007 11.1047 78.3099 11.7537 78.1176 12.6431H74.7045C75.1131 9.80678 77.709 8.60497 81.2183 8.60497ZM84.4632 18.0032V16.2004C79.6079 15.936 77.8052 16.3927 77.8052 18.2195C77.8052 19.4213 78.6945 19.902 80.2809 19.902C82.2519 19.902 83.7902 19.1329 84.4632 18.0032ZM98.209 14.0372C101.814 14.6621 104.266 14.9265 104.266 17.883C104.266 20.8154 101.766 22.1134 97.1274 22.1134C92.6085 22.1134 89.7963 20.6952 89.7963 17.8109H93.7623C93.7623 19.0848 95.2766 19.6376 97.3677 19.6376C99.4348 19.6376 100.516 19.2531 100.516 18.2676C100.516 17.1138 98.9301 16.9696 95.5169 16.3927C92.1278 15.8399 90.301 15.1188 90.301 12.571C90.301 9.99907 92.5845 8.60497 96.911 8.60497C101.43 8.60497 103.689 10.2875 103.689 12.6431H100.012C100.012 11.8258 99.0743 11.0086 96.863 11.0086C94.8679 11.0086 93.7863 11.4172 93.7863 12.4027C93.7863 13.5084 95.9255 13.6286 98.209 14.0372ZM127.488 12.9555C129.699 13.4843 130.949 14.6381 130.949 16.8013C130.949 20.5991 128.545 21.7528 123.281 21.7528H113.162V4.92741H123.786C127.824 4.92741 130.324 5.86483 130.324 9.25395C130.324 11.2249 129.315 12.3066 127.488 12.8354V12.9555ZM123.979 7.90791H117.032V11.8739H123.979C125.661 11.8739 126.598 11.3211 126.598 9.87889C126.598 8.43671 125.541 7.90791 123.979 7.90791ZM124.075 18.7964C126.31 18.7964 127.007 17.9311 127.007 16.5129C127.007 15.0948 125.974 14.6381 124.075 14.6381H117.032V18.7964H124.075ZM142.435 4.5909C147.29 4.5909 152.458 6.92243 152.458 13.3401C152.458 19.7818 147.29 22.1134 142.435 22.1134C137.579 22.1134 132.387 19.7818 132.387 13.3401C132.387 6.92243 137.579 4.5909 142.435 4.5909ZM142.435 19.1809C146.617 19.1809 148.516 16.6571 148.516 13.3401C148.516 10.0471 146.617 7.52333 142.435 7.52333C138.252 7.52333 136.353 10.0471 136.353 13.3401C136.353 16.6571 138.252 19.1809 142.435 19.1809ZM147.963 3.34102H144.309L142.435 1.20179L140.536 3.34102H136.882L140.223 -3.00862e-05H144.646L147.963 3.34102ZM168.503 4.92741H172.397V21.7528H168.046L158.72 9.73467V21.7528H154.85V4.92741H159.177L168.503 16.9696V4.92741ZM188.768 4.92741H192.638V14.9506C192.638 20.8394 188.84 22.1134 184.201 22.1134C179.586 22.1134 175.765 20.8394 175.765 14.9506V4.92741H179.634V14.7102C179.634 18.1474 181.317 19.1809 184.201 19.1809C187.086 19.1809 188.768 18.1474 188.768 14.7102V4.92741ZM204.796 11.7297C209.435 12.3787 212.655 12.7632 212.655 16.5129C212.655 20.1664 209.651 22.1134 203.666 22.1134C197.849 22.1134 194.796 19.9261 194.796 16.5129H198.835C198.931 18.2676 200.95 19.1569 204.002 19.1569C207.199 19.1569 208.545 18.3156 208.545 17.0417C208.545 15.3111 205.949 15.4794 201.358 14.7102C196.767 13.941 195.325 12.5469 195.325 9.90293C195.325 7.13875 197.2 4.5909 203.377 4.5909C209.314 4.5909 211.622 6.85032 211.718 9.83082H207.968C207.824 8.629 206.43 7.54737 203.329 7.54737C199.868 7.54737 199.051 8.48479 199.051 9.63853C199.051 11.2249 201.839 11.3211 204.796 11.7297ZM232.179 8.94147H235.832V25.7669H232.179V20.1664C231.241 21.3682 229.775 22.1134 227.612 22.1134C223.862 22.1134 220.834 19.7097 220.834 15.3592C220.834 11.0086 223.862 8.60497 227.612 8.60497C229.775 8.60497 231.241 9.35009 232.179 10.5519V8.94147ZM228.405 19.5896C231.049 19.5896 232.635 18.0512 232.635 15.3592C232.635 12.6671 231.049 11.1047 228.405 11.1047C225.761 11.1047 224.247 12.6671 224.247 15.3592C224.247 18.0512 225.761 19.5896 228.405 19.5896ZM243.929 22.1134C240.636 22.1134 238.713 20.3106 238.713 17.4263V8.94147H242.367V16.5129C242.367 18.0512 243.256 19.3732 245.516 19.3732C247.775 19.3732 248.785 18.0032 248.785 16.5129V8.94147H252.438V21.7528H248.785V19.9501C248.232 20.7193 246.669 22.1134 243.929 22.1134ZM269.273 16.2966H257.904C258.193 18.0512 259.418 19.5896 262.086 19.5896C264.033 19.5896 265.283 18.7243 265.788 17.6426H269.009C268.168 20.8394 265.259 22.1134 262.086 22.1134C258.433 22.1134 254.611 20.0943 254.611 15.3592C254.611 10.624 258.385 8.60497 262.062 8.60497C265.788 8.60497 269.658 10.8884 269.273 16.2966ZM262.062 11.1047C259.779 11.1047 258.505 12.3546 258.024 13.893H265.932C265.548 12.3546 264.466 11.1047 262.062 11.1047ZM286.703 6.77821C284.324 6.58592 283.026 6.68206 283.026 8.94147H286.367V11.4413H283.026V21.7528H279.396V11.4413H277.257V8.94147H279.396C279.396 6.39363 280.286 4.01403 284.564 4.01403C285.405 4.01403 285.958 4.08614 286.703 4.18229V6.77821ZM295.07 8.60497C298.82 8.60497 302.713 10.5279 302.713 15.3592C302.713 20.1905 298.82 22.1134 295.07 22.1134C291.344 22.1134 287.426 20.1905 287.426 15.3592C287.426 10.5279 291.344 8.60497 295.07 8.60497ZM295.07 19.5896C298.147 19.5896 299.3 17.5945 299.3 15.3592C299.3 13.0998 298.147 11.1047 295.07 11.1047C291.993 11.1047 290.864 13.0998 290.864 15.3592C290.864 17.5945 291.993 19.5896 295.07 19.5896ZM313.32 8.629C314.162 8.629 314.787 8.70111 315.219 8.82129V12.1864H315.099C314.642 11.9941 313.777 11.7778 312.671 11.7778C309.643 11.7778 308.537 13.6766 308.537 15.6716V21.7528H304.884V8.94147H308.537V11.297C309.066 10.3837 310.58 8.629 313.32 8.629ZM323.037 8.60497C326.714 8.60497 329.935 9.66256 329.935 13.4363V21.7528H326.282V20.0462C325.729 20.8875 323.878 22.1134 321.018 22.1134C318.013 22.1134 315.946 20.8635 315.946 18.3397C315.946 15.6476 317.34 13.4843 326.282 14.0372V13.4363C326.282 12.0902 325.681 11.1047 323.037 11.1047C320.825 11.1047 320.128 11.7537 319.936 12.6431H316.523C316.931 9.80678 319.527 8.60497 323.037 8.60497ZM326.282 18.0032V16.2004C321.426 15.936 319.624 16.3927 319.624 18.2195C319.624 19.4213 320.513 19.902 322.099 19.902C324.07 19.902 325.609 19.1329 326.282 18.0032ZM349.786 8.60497C353.079 8.60497 354.786 10.3837 354.786 13.268V21.7528H351.132V14.1814C351.132 12.6431 350.459 11.3211 348.416 11.3211C346.373 11.3211 345.628 12.6671 345.628 14.1814V21.7528H341.974V14.1814C341.974 12.6431 341.301 11.3211 339.258 11.3211C337.215 11.3211 336.446 12.6911 336.446 14.1814V21.7528H332.816V8.94147H336.446V10.624C336.903 9.83082 338.008 8.60497 340.628 8.60497C342.864 8.60497 344.354 9.4222 345.075 10.8403C345.532 10.1433 346.974 8.60497 349.786 8.60497ZM371.622 14.0372C375.227 14.6621 377.679 14.9265 377.679 17.883C377.679 20.8154 375.179 22.1134 370.54 22.1134C366.022 22.1134 363.209 20.6952 363.209 17.8109H367.175C367.175 19.0848 368.69 19.6376 370.781 19.6376C372.848 19.6376 373.929 19.2531 373.929 18.2676C373.929 17.1138 372.343 16.9696 368.93 16.3927C365.541 15.8399 363.714 15.1188 363.714 12.571C363.714 9.99907 365.997 8.60497 370.324 8.60497C374.843 8.60497 377.102 10.2875 377.102 12.6431H373.425C373.425 11.8258 372.487 11.0086 370.276 11.0086C368.281 11.0086 367.199 11.4172 367.199 12.4027C367.199 13.5084 369.339 13.6286 371.622 14.0372ZM393.539 16.2966H382.17C382.458 18.0512 383.684 19.5896 386.352 19.5896C388.299 19.5896 389.549 18.7243 390.054 17.6426H393.275C392.433 20.8394 389.525 22.1134 386.352 22.1134C382.699 22.1134 378.877 20.0943 378.877 15.3592C378.877 10.624 382.651 8.60497 386.328 8.60497C390.054 8.60497 393.924 10.8884 393.539 16.2966ZM386.328 11.1047C384.045 11.1047 382.771 12.3546 382.29 13.893H390.198C389.814 12.3546 388.732 11.1047 386.328 11.1047ZM395.747 4.01403H399.401V21.7528H395.747V4.01403ZM416.237 16.2966H404.868C405.157 18.0512 406.383 19.5896 409.051 19.5896C410.998 19.5896 412.247 18.7243 412.752 17.6426H415.973C415.132 20.8394 412.223 22.1134 409.051 22.1134C405.397 22.1134 401.575 20.0943 401.575 15.3592C401.575 10.624 405.349 8.60497 409.027 8.60497C412.752 8.60497 416.622 10.8884 416.237 16.2966ZM409.027 11.1047C406.743 11.1047 405.469 12.3546 404.988 13.893H412.896C412.512 12.3546 411.43 11.1047 409.027 11.1047ZM425.416 19.5896C427.82 19.5896 428.998 18.3637 429.43 16.7533H432.699C432.026 20.5991 428.781 22.1134 425.416 22.1134C421.667 22.1134 417.725 20.3106 417.725 15.3592C417.725 10.4077 421.667 8.60497 425.416 8.60497C428.781 8.60497 432.026 10.1193 432.699 13.9651H429.43C428.998 12.3306 427.82 11.1047 425.416 11.1047C422.34 11.1047 421.162 13.0998 421.162 15.3592C421.162 17.5945 422.34 19.5896 425.416 19.5896ZM434.853 21.7528V8.94147H438.483V21.7528H434.853ZM436.656 7.45122C435.55 7.45122 434.781 6.82628 434.781 5.74465C434.781 4.63898 435.55 4.01403 436.656 4.01403C437.762 4.01403 438.555 4.63898 438.555 5.74465C438.555 6.82628 437.762 7.45122 436.656 7.45122ZM448.301 8.60497C452.051 8.60497 455.945 10.5279 455.945 15.3592C455.945 20.1905 452.051 22.1134 448.301 22.1134C444.576 22.1134 440.658 20.1905 440.658 15.3592C440.658 10.5279 444.576 8.60497 448.301 8.60497ZM448.301 19.5896C451.378 19.5896 452.532 17.5945 452.532 15.3592C452.532 13.0998 451.378 11.1047 448.301 11.1047C445.225 11.1047 444.095 13.0998 444.095 15.3592C444.095 17.5945 445.225 19.5896 448.301 19.5896ZM466.624 8.60497C469.917 8.60497 471.84 10.3837 471.84 13.268V21.7528H468.186V14.1814C468.186 12.6431 467.297 11.3211 465.038 11.3211C462.778 11.3211 461.769 12.6911 461.769 14.1814V21.7528H458.115V8.94147H461.769V10.7442C462.321 9.97504 463.884 8.60497 466.624 8.60497ZM481.104 8.60497C484.781 8.60497 488.002 9.66256 488.002 13.4363V21.7528H484.348V20.0462C483.796 20.8875 481.945 22.1134 479.085 22.1134C476.08 22.1134 474.013 20.8635 474.013 18.3397C474.013 15.6476 475.407 13.4843 484.348 14.0372V13.4363C484.348 12.0902 483.748 11.1047 481.104 11.1047C478.892 11.1047 478.195 11.7537 478.003 12.6431H474.59C474.998 9.80678 477.594 8.60497 481.104 8.60497ZM484.348 18.0032V16.2004C479.493 15.936 477.69 16.3927 477.69 18.2195C477.69 19.4213 478.58 19.902 480.166 19.902C482.137 19.902 483.675 19.1329 484.348 18.0032ZM501.531 4.92741H505.185V21.7528H501.531V20.1664C500.594 21.3682 499.104 22.1134 496.94 22.1134C493.215 22.1134 490.162 19.7097 490.162 15.3592C490.162 11.0086 493.215 8.60497 496.94 8.60497C499.104 8.60497 500.594 9.35009 501.531 10.5519V4.92741ZM497.758 19.5896C500.378 19.5896 501.988 18.0512 501.988 15.3592C501.988 12.6671 500.378 11.1047 497.758 11.1047C495.114 11.1047 493.599 12.6671 493.599 15.3592C493.599 18.0512 495.114 19.5896 497.758 19.5896ZM514.435 8.60497C518.113 8.60497 521.334 9.66256 521.334 13.4363V21.7528H517.68V20.0462C517.127 20.8875 515.276 22.1134 512.416 22.1134C509.412 22.1134 507.344 20.8635 507.344 18.3397C507.344 15.6476 508.739 13.4843 517.68 14.0372V13.4363C517.68 12.0902 517.079 11.1047 514.435 11.1047C512.224 11.1047 511.527 11.7537 511.334 12.6431H507.921C508.33 9.80678 510.926 8.60497 514.435 8.60497ZM517.68 18.0032V16.2004C512.825 15.936 511.022 16.3927 511.022 18.2195C511.022 19.4213 511.911 19.902 513.498 19.902C515.469 19.902 517.007 19.1329 517.68 18.0032ZM531.426 14.0372C535.031 14.6621 537.483 14.9265 537.483 17.883C537.483 20.8154 534.983 22.1134 530.344 22.1134C525.825 22.1134 523.013 20.6952 523.013 17.8109H526.979C526.979 19.0848 528.493 19.6376 530.585 19.6376C532.652 19.6376 533.733 19.2531 533.733 18.2676C533.733 17.1138 532.147 16.9696 528.734 16.3927C525.345 15.8399 523.518 15.1188 523.518 12.571C523.518 9.99907 525.801 8.60497 530.128 8.60497C534.647 8.60497 536.906 10.2875 536.906 12.6431H533.229C533.229 11.8258 532.291 11.0086 530.08 11.0086C528.085 11.0086 527.003 11.4172 527.003 12.4027C527.003 13.5084 529.142 13.6286 531.426 14.0372ZM554.383 8.60497C558.109 8.60497 561.137 11.0086 561.137 15.3592C561.137 19.7097 558.109 22.1134 554.383 22.1134C552.22 22.1134 550.73 21.3682 549.792 20.1664V25.7669H546.139V8.94147H549.792V10.5519C550.73 9.35009 552.22 8.60497 554.383 8.60497ZM553.566 19.5896C556.21 19.5896 557.724 18.0512 557.724 15.3592C557.724 12.6671 556.21 11.1047 553.566 11.1047C550.946 11.1047 549.336 12.6671 549.336 15.3592C549.336 18.0512 550.946 19.5896 553.566 19.5896ZM577.238 16.2966H565.869C566.158 18.0512 567.384 19.5896 570.052 19.5896C571.999 19.5896 573.248 18.7243 573.753 17.6426H576.974C576.133 20.8394 573.224 22.1134 570.052 22.1134C566.398 22.1134 562.576 20.0943 562.576 15.3592C562.576 10.624 566.35 8.60497 570.028 8.60497C573.753 8.60497 577.623 10.8884 577.238 16.2966ZM570.028 11.1047C567.744 11.1047 566.47 12.3546 565.989 13.893H573.897C573.513 12.3546 572.431 11.1047 570.028 11.1047ZM579.447 4.01403H583.1V21.7528H579.447V4.01403ZM592.918 8.60497C596.668 8.60497 600.562 10.5279 600.562 15.3592C600.562 20.1905 596.668 22.1134 592.918 22.1134C589.193 22.1134 585.275 20.1905 585.275 15.3592C585.275 10.5279 589.193 8.60497 592.918 8.60497ZM592.918 19.5896C595.995 19.5896 597.149 17.5945 597.149 15.3592C597.149 13.0998 595.995 11.1047 592.918 11.1047C589.842 11.1047 588.712 13.0998 588.712 15.3592C588.712 17.5945 589.842 19.5896 592.918 19.5896ZM609.943 14.0372C613.548 14.6621 616 14.9265 616 17.883C616 20.8154 613.5 22.1134 608.861 22.1134C604.342 22.1134 601.53 20.6952 601.53 17.8109H605.496C605.496 19.0848 607.01 19.6376 609.102 19.6376C611.169 19.6376 612.25 19.2531 612.25 18.2676C612.25 17.1138 610.664 16.9696 607.251 16.3927C603.862 15.8399 602.035 15.1188 602.035 12.571C602.035 9.99907 604.318 8.60497 608.645 8.60497C613.164 8.60497 615.423 10.2875 615.423 12.6431H611.746C611.746 11.8258 610.808 11.0086 608.597 11.0086C606.602 11.0086 605.52 11.4172 605.52 12.4027C605.52 13.5084 607.659 13.6286 609.943 14.0372ZM11.2894 44.6594C15.015 44.6594 18.0436 47.0631 18.0436 51.4136C18.0436 55.7642 15.015 58.1678 11.2894 58.1678C9.12613 58.1678 7.63588 57.4227 6.69846 56.2209V61.8213H3.04494V44.9959H6.69846V46.6064C7.63588 45.4045 9.12613 44.6594 11.2894 44.6594ZM10.4722 55.644C13.1162 55.644 14.6304 54.1057 14.6304 51.4136C14.6304 48.7216 13.1162 47.1592 10.4722 47.1592C7.8522 47.1592 6.24177 48.7216 6.24177 51.4136C6.24177 54.1057 7.8522 55.644 10.4722 55.644ZM28.6404 44.6835C29.4817 44.6835 30.1066 44.7556 30.5393 44.8758V48.2408H30.4191C29.9624 48.0485 29.0971 47.8322 27.9914 47.8322C24.9629 47.8322 23.8572 49.7311 23.8572 51.7261V57.8073H20.2037V44.9959H23.8572V47.3515C24.386 46.4381 25.9003 44.6835 28.6404 44.6835ZM39.1443 44.6594C42.8939 44.6594 46.7878 46.5823 46.7878 51.4136C46.7878 56.2449 42.8939 58.1678 39.1443 58.1678C35.4187 58.1678 31.5007 56.2449 31.5007 51.4136C31.5007 46.5823 35.4187 44.6594 39.1443 44.6594ZM39.1443 55.644C42.2209 55.644 43.3747 53.649 43.3747 51.4136C43.3747 49.1542 42.2209 47.1592 39.1443 47.1592C36.0676 47.1592 34.9379 49.1542 34.9379 51.4136C34.9379 53.649 36.0676 55.644 39.1443 55.644ZM39.4808 39.9002H43.591L40.3942 43.2413H37.5579L39.4808 39.9002ZM57.2025 44.6594C60.9281 44.6594 63.9567 47.0631 63.9567 51.4136C63.9567 55.7642 60.9281 58.1678 57.2025 58.1678C55.0392 58.1678 53.549 57.4227 52.6116 56.2209V61.8213H48.958V44.9959H52.6116V46.6064C53.549 45.4045 55.0392 44.6594 57.2025 44.6594ZM56.3853 55.644C59.0293 55.644 60.5435 54.1057 60.5435 51.4136C60.5435 48.7216 59.0293 47.1592 56.3853 47.1592C53.7653 47.1592 52.1549 48.7216 52.1549 51.4136C52.1549 54.1057 53.7653 55.644 56.3853 55.644ZM74.5535 44.6835C75.3948 44.6835 76.0197 44.7556 76.4524 44.8758V48.2408H76.3322C75.8755 48.0485 75.0102 47.8322 73.9045 47.8322C70.876 47.8322 69.7703 49.7311 69.7703 51.7261V57.8073H66.1168V44.9959H69.7703V47.3515C70.2991 46.4381 71.8134 44.6835 74.5535 44.6835ZM78.3697 57.8073V44.9959H81.9991V57.8073H78.3697ZM80.1724 43.5057C79.0667 43.5057 78.2975 42.8807 78.2975 41.7991C78.2975 40.6934 79.0667 40.0685 80.1724 40.0685C81.278 40.0685 82.0712 40.6934 82.0712 41.7991C82.0712 42.8807 81.278 43.5057 80.1724 43.5057ZM91.8176 44.6594C95.5673 44.6594 99.4611 46.5823 99.4611 51.4136C99.4611 56.2449 95.5673 58.1678 91.8176 58.1678C88.092 58.1678 84.174 56.2449 84.174 51.4136C84.174 46.5823 88.092 44.6594 91.8176 44.6594ZM91.8176 55.644C94.8942 55.644 96.048 53.649 96.048 51.4136C96.048 49.1542 94.8942 47.1592 91.8176 47.1592C88.7409 47.1592 87.6112 49.1542 87.6112 51.4136C87.6112 53.649 88.7409 55.644 91.8176 55.644ZM108.842 50.0916C112.448 50.7166 114.899 50.981 114.899 53.9374C114.899 56.8699 112.4 58.1678 107.761 58.1678C103.242 58.1678 100.43 56.7497 100.43 53.8653H104.396C104.396 55.1393 105.91 55.6921 108.001 55.6921C110.068 55.6921 111.15 55.3075 111.15 54.322C111.15 53.1683 109.563 53.0241 106.15 52.4472C102.761 51.8944 100.934 51.1733 100.934 48.6254C100.934 46.0535 103.218 44.6594 107.544 44.6594C112.063 44.6594 114.323 46.342 114.323 48.6975H110.645C110.645 47.8803 109.708 47.0631 107.496 47.0631C105.501 47.0631 104.42 47.4717 104.42 48.4572C104.42 49.5628 106.559 49.683 108.842 50.0916ZM129.925 44.6594C133.602 44.6594 136.823 45.717 136.823 49.4907V57.8073H133.17V56.1007C132.617 56.942 130.766 58.1678 127.906 58.1678C124.901 58.1678 122.834 56.9179 122.834 54.3941C122.834 51.7021 124.228 49.5388 133.17 50.0916V49.4907C133.17 48.1447 132.569 47.1592 129.925 47.1592C127.713 47.1592 127.016 47.8082 126.824 48.6975H123.411C123.819 45.8612 126.415 44.6594 129.925 44.6594ZM133.17 54.0576V52.2549C128.314 51.9905 126.512 52.4472 126.512 54.2739C126.512 55.4758 127.401 55.9565 128.987 55.9565C130.958 55.9565 132.497 55.1873 133.17 54.0576ZM139.704 40.0685H143.358V57.8073H139.704V40.0685ZM151.469 58.1678C148.176 58.1678 146.253 56.3651 146.253 53.4807V44.9959H149.907V52.5674C149.907 54.1057 150.796 55.4277 153.056 55.4277C155.315 55.4277 156.325 54.0576 156.325 52.5674V44.9959H159.978V57.8073H156.325V56.0046C155.772 56.7737 154.209 58.1678 151.469 58.1678ZM171.381 44.6594C174.674 44.6594 176.597 46.4381 176.597 49.3225V57.8073H172.943V50.2358C172.943 48.6975 172.054 47.3755 169.795 47.3755C167.535 47.3755 166.526 48.7456 166.526 50.2358V57.8073H162.872V44.9959H166.526V46.7987C167.079 46.0295 168.641 44.6594 171.381 44.6594ZM186.414 44.6594C190.163 44.6594 194.057 46.5823 194.057 51.4136C194.057 56.2449 190.163 58.1678 186.414 58.1678C182.688 58.1678 178.77 56.2449 178.77 51.4136C178.77 46.5823 182.688 44.6594 186.414 44.6594ZM186.414 55.644C189.49 55.644 190.644 53.649 190.644 51.4136C190.644 49.1542 189.49 47.1592 186.414 47.1592C183.337 47.1592 182.207 49.1542 182.207 51.4136C182.207 53.649 183.337 55.644 186.414 55.644ZM203.438 50.0916C207.044 50.7166 209.495 50.981 209.495 53.9374C209.495 56.8699 206.996 58.1678 202.357 58.1678C197.838 58.1678 195.026 56.7497 195.026 53.8653H198.992C198.992 55.1393 200.506 55.6921 202.597 55.6921C204.664 55.6921 205.746 55.3075 205.746 54.322C205.746 53.1683 204.159 53.0241 200.746 52.4472C197.357 51.8944 195.53 51.1733 195.53 48.6254C195.53 46.0535 197.814 44.6594 202.14 44.6594C206.659 44.6594 208.919 46.342 208.919 48.6975H205.241C205.241 47.8803 204.304 47.0631 202.092 47.0631C200.097 47.0631 199.016 47.4717 199.016 48.4572C199.016 49.5628 201.155 49.683 203.438 50.0916ZM225.122 55.644C227.525 55.644 228.703 54.4182 229.136 52.8077H232.405C231.732 56.6535 228.487 58.1678 225.122 58.1678C221.372 58.1678 217.43 56.3651 217.43 51.4136C217.43 46.4621 221.372 44.6594 225.122 44.6594C228.487 44.6594 231.732 46.1737 232.405 50.0195H229.136C228.703 48.3851 227.525 47.1592 225.122 47.1592C222.045 47.1592 220.867 49.1542 220.867 51.4136C220.867 53.649 222.045 55.644 225.122 55.644ZM241.246 44.6594C244.996 44.6594 248.89 46.5823 248.89 51.4136C248.89 56.2449 244.996 58.1678 241.246 58.1678C237.521 58.1678 233.603 56.2449 233.603 51.4136C233.603 46.5823 237.521 44.6594 241.246 44.6594ZM241.246 55.644C244.323 55.644 245.477 53.649 245.477 51.4136C245.477 49.1542 244.323 47.1592 241.246 47.1592C238.17 47.1592 237.04 49.1542 237.04 51.4136C237.04 53.649 238.17 55.644 241.246 55.644ZM268.03 44.6594C271.323 44.6594 273.029 46.4381 273.029 49.3225V57.8073H269.376V50.2358C269.376 48.6975 268.703 47.3755 266.66 47.3755C264.617 47.3755 263.872 48.7216 263.872 50.2358V57.8073H260.218V50.2358C260.218 48.6975 259.545 47.3755 257.502 47.3755C255.459 47.3755 254.69 48.7456 254.69 50.2358V57.8073H251.06V44.9959H254.69V46.6785C255.146 45.8853 256.252 44.6594 258.872 44.6594C261.107 44.6594 262.598 45.4767 263.319 46.8948C263.775 46.1977 265.218 44.6594 268.03 44.6594ZM282.84 44.6594C286.59 44.6594 290.484 46.5823 290.484 51.4136C290.484 56.2449 286.59 58.1678 282.84 58.1678C279.115 58.1678 275.197 56.2449 275.197 51.4136C275.197 46.5823 279.115 44.6594 282.84 44.6594ZM282.84 55.644C285.917 55.644 287.071 53.649 287.071 51.4136C287.071 49.1542 285.917 47.1592 282.84 47.1592C279.764 47.1592 278.634 49.1542 278.634 51.4136C278.634 53.649 279.764 55.644 282.84 55.644Z" fill="#7D7D7D"/>
<path d="M305.761 44.6594C309.438 44.6594 312.659 45.717 312.659 49.4907V57.8073H309.006V56.1007C308.453 56.942 306.602 58.1678 303.742 58.1678C300.737 58.1678 298.67 56.9179 298.67 54.3941C298.67 51.7021 300.064 49.5388 309.006 50.0916V49.4907C309.006 48.1447 308.405 47.1592 305.761 47.1592C303.549 47.1592 302.852 47.8082 302.66 48.6975H299.247C299.655 45.8612 302.251 44.6594 305.761 44.6594ZM309.006 54.0576V52.2549C304.15 51.9905 302.347 52.4472 302.347 54.2739C302.347 55.4758 303.237 55.9565 304.823 55.9565C306.794 55.9565 308.332 55.1873 309.006 54.0576ZM322.751 50.0916C326.357 50.7166 328.808 50.981 328.808 53.9374C328.808 56.8699 326.309 58.1678 321.67 58.1678C317.151 58.1678 314.339 56.7497 314.339 53.8653H318.305C318.305 55.1393 319.819 55.6921 321.91 55.6921C323.977 55.6921 325.059 55.3075 325.059 54.322C325.059 53.1683 323.472 53.0241 320.059 52.4472C316.67 51.8944 314.843 51.1733 314.843 48.6254C314.843 46.0535 317.127 44.6594 321.453 44.6594C325.972 44.6594 328.232 46.342 328.232 48.6975H324.554C324.554 47.8803 323.617 47.0631 321.405 47.0631C319.41 47.0631 318.329 47.4717 318.329 48.4572C318.329 49.5628 320.468 49.683 322.751 50.0916ZM354.434 44.6594C357.727 44.6594 359.433 46.4381 359.433 49.3225V57.8073H355.78V50.2358C355.78 48.6975 355.107 47.3755 353.064 47.3755C351.021 47.3755 350.275 48.7216 350.275 50.2358V57.8073H346.622V50.2358C346.622 48.6975 345.949 47.3755 343.906 47.3755C341.863 47.3755 341.094 48.7456 341.094 50.2358V57.8073H337.464V44.9959H341.094V46.6785C341.55 45.8853 342.656 44.6594 345.276 44.6594C347.511 44.6594 349.002 45.4767 349.723 46.8948C350.179 46.1977 351.622 44.6594 354.434 44.6594ZM376.263 52.351H364.894C365.182 54.1057 366.408 55.644 369.076 55.644C371.023 55.644 372.273 54.7787 372.778 53.6971H375.999C375.157 56.8939 372.249 58.1678 369.076 58.1678C365.423 58.1678 361.601 56.1488 361.601 51.4136C361.601 46.6785 365.375 44.6594 369.052 44.6594C372.778 44.6594 376.648 46.9429 376.263 52.351ZM369.052 47.1592C366.769 47.1592 365.495 48.4091 365.014 49.9474H372.922C372.537 48.4091 371.456 47.1592 369.052 47.1592ZM378.471 40.0685H382.125V57.8073H378.471V40.0685ZM393.529 44.6594C396.822 44.6594 398.745 46.4381 398.745 49.3225V57.8073H395.116V50.2358C395.116 48.6975 394.202 47.3755 391.943 47.3755C389.683 47.3755 388.674 48.7456 388.674 50.2358V57.8073H385.02V40.9819H388.674V46.7987C389.251 46.0295 390.813 44.6594 393.529 44.6594ZM408.562 44.6594C412.311 44.6594 416.205 46.5823 416.205 51.4136C416.205 56.2449 412.311 58.1678 408.562 58.1678C404.836 58.1678 400.918 56.2449 400.918 51.4136C400.918 46.5823 404.836 44.6594 408.562 44.6594ZM408.562 55.644C411.638 55.644 412.792 53.649 412.792 51.4136C412.792 49.1542 411.638 47.1592 408.562 47.1592C405.485 47.1592 404.355 49.1542 404.355 51.4136C404.355 53.649 405.485 55.644 408.562 55.644ZM426.812 44.6835C427.653 44.6835 428.278 44.7556 428.711 44.8758V48.2408H428.591C428.134 48.0485 427.269 47.8322 426.163 47.8322C423.135 47.8322 422.029 49.7311 422.029 51.7261V57.8073H418.375V44.9959H422.029V47.3515C422.558 46.4381 424.072 44.6835 426.812 44.6835ZM444.335 52.351H432.965C433.254 54.1057 434.48 55.644 437.148 55.644C439.095 55.644 440.345 54.7787 440.849 53.6971H444.07C443.229 56.8939 440.321 58.1678 437.148 58.1678C433.494 58.1678 429.672 56.1488 429.672 51.4136C429.672 46.6785 433.446 44.6594 437.124 44.6594C440.849 44.6594 444.719 46.9429 444.335 52.351ZM437.124 47.1592C434.84 47.1592 433.566 48.4091 433.086 49.9474H440.994C440.609 48.4091 439.527 47.1592 437.124 47.1592ZM453.754 50.0916C457.359 50.7166 459.811 50.981 459.811 53.9374C459.811 56.8699 457.311 58.1678 452.672 58.1678C448.153 58.1678 445.341 56.7497 445.341 53.8653H449.307C449.307 55.1393 450.821 55.6921 452.913 55.6921C454.98 55.6921 456.061 55.3075 456.061 54.322C456.061 53.1683 454.475 53.0241 451.062 52.4472C447.673 51.8944 445.846 51.1733 445.846 48.6254C445.846 46.0535 448.129 44.6594 452.456 44.6594C456.975 44.6594 459.234 46.342 459.234 48.6975H455.557C455.557 47.8803 454.619 47.0631 452.408 47.0631C450.413 47.0631 449.331 47.4717 449.331 48.4572C449.331 49.5628 451.47 49.683 453.754 50.0916ZM482.408 52.351H471.039C471.327 54.1057 472.553 55.644 475.221 55.644C477.168 55.644 478.418 54.7787 478.922 53.6971H482.143C481.302 56.8939 478.394 58.1678 475.221 58.1678C471.567 58.1678 467.746 56.1488 467.746 51.4136C467.746 46.6785 471.519 44.6594 475.197 44.6594C478.922 44.6594 482.792 46.9429 482.408 52.351ZM475.197 47.1592C472.913 47.1592 471.639 48.4091 471.159 49.9474H479.067C478.682 48.4091 477.6 47.1592 475.197 47.1592ZM505.294 52.351H493.925C494.213 54.1057 495.439 55.644 498.107 55.644C500.054 55.644 501.304 54.7787 501.809 53.6971H505.029C504.188 56.8939 501.28 58.1678 498.107 58.1678C494.453 58.1678 490.632 56.1488 490.632 51.4136C490.632 46.6785 494.405 44.6594 498.083 44.6594C501.809 44.6594 505.678 46.9429 505.294 52.351ZM498.083 47.1592C495.8 47.1592 494.526 48.4091 494.045 49.9474H501.953C501.568 48.4091 500.487 47.1592 498.083 47.1592ZM516.011 44.6594C519.304 44.6594 521.227 46.4381 521.227 49.3225V57.8073H517.573V50.2358C517.573 48.6975 516.684 47.3755 514.425 47.3755C512.165 47.3755 511.156 48.7456 511.156 50.2358V57.8073H507.502V44.9959H511.156V46.7987C511.709 46.0295 513.271 44.6594 516.011 44.6594ZM532.473 47.4957H528.723V52.8798C528.723 54.971 529.492 55.3796 532.473 55.0671V57.8073C531.992 57.8794 531.415 57.9996 530.574 57.9996C525.959 57.9996 525.07 56.0046 525.07 52.8077V47.4957H522.69V44.9959H525.07V41.6789H528.723V44.9959H532.473V47.4957ZM543.308 44.6835C544.15 44.6835 544.775 44.7556 545.207 44.8758V48.2408H545.087C544.63 48.0485 543.765 47.8322 542.659 47.8322C539.631 47.8322 538.525 49.7311 538.525 51.7261V57.8073H534.872V44.9959H538.525V47.3515C539.054 46.4381 540.568 44.6835 543.308 44.6835ZM553.025 44.6594C556.702 44.6594 559.923 45.717 559.923 49.4907V57.8073H556.27V56.1007C555.717 56.942 553.866 58.1678 551.006 58.1678C548.001 58.1678 545.934 56.9179 545.934 54.3941C545.934 51.7021 547.328 49.5388 556.27 50.0916V49.4907C556.27 48.1447 555.669 47.1592 553.025 47.1592C550.813 47.1592 550.116 47.8082 549.924 48.6975H546.511C546.919 45.8612 549.515 44.6594 553.025 44.6594ZM556.27 54.0576V52.2549C551.414 51.9905 549.612 52.4472 549.612 54.2739C549.612 55.4758 550.501 55.9565 552.087 55.9565C554.058 55.9565 555.597 55.1873 556.27 54.0576ZM571.241 44.6835C572.082 44.6835 572.707 44.7556 573.14 44.8758V48.2408H573.02C572.563 48.0485 571.698 47.8322 570.592 47.8322C567.564 47.8322 566.458 49.7311 566.458 51.7261V57.8073H562.804V44.9959H566.458V47.3515C566.987 46.4381 568.501 44.6835 571.241 44.6835ZM580.958 44.6594C584.635 44.6594 587.856 45.717 587.856 49.4907V57.8073H584.202V56.1007C583.65 56.942 581.799 58.1678 578.938 58.1678C575.934 58.1678 573.867 56.9179 573.867 54.3941C573.867 51.7021 575.261 49.5388 584.202 50.0916V49.4907C584.202 48.1447 583.602 47.1592 580.958 47.1592C578.746 47.1592 578.049 47.8082 577.857 48.6975H574.444C574.852 45.8612 577.448 44.6594 580.958 44.6594ZM584.202 54.0576V52.2549C579.347 51.9905 577.544 52.4472 577.544 54.2739C577.544 55.4758 578.434 55.9565 580.02 55.9565C581.991 55.9565 583.529 55.1873 584.202 54.0576ZM607.707 44.6594C611 44.6594 612.706 46.4381 612.706 49.3225V57.8073H609.053V50.2358C609.053 48.6975 608.38 47.3755 606.337 47.3755C604.294 47.3755 603.549 48.7216 603.549 50.2358V57.8073H599.895V50.2358C599.895 48.6975 599.222 47.3755 597.179 47.3755C595.136 47.3755 594.367 48.7456 594.367 50.2358V57.8073H590.737V44.9959H594.367V46.6785C594.823 45.8853 595.929 44.6594 598.549 44.6594C600.784 44.6594 602.275 45.4767 602.996 46.8948C603.452 46.1977 604.895 44.6594 607.707 44.6594ZM121.424 80.7139C125.15 80.7139 128.179 83.1175 128.179 87.4681C128.179 91.8187 125.15 94.2223 121.424 94.2223C119.261 94.2223 117.771 93.4772 116.834 92.2753V97.8758H113.18V81.0504H116.834V82.6608C117.771 81.459 119.261 80.7139 121.424 80.7139ZM120.607 91.6985C123.251 91.6985 124.766 90.1602 124.766 87.4681C124.766 84.776 123.251 83.2137 120.607 83.2137C117.987 83.2137 116.377 84.776 116.377 87.4681C116.377 90.1602 117.987 91.6985 120.607 91.6985ZM136.474 80.7139C140.151 80.7139 143.372 81.7715 143.372 85.5452V93.8617H139.719V92.1552C139.166 92.9964 137.315 94.2223 134.455 94.2223C131.45 94.2223 129.383 92.9724 129.383 90.4486C129.383 87.7565 130.777 85.5933 139.719 86.1461V85.5452C139.719 84.1991 139.118 83.2137 136.474 83.2137C134.262 83.2137 133.565 83.8626 133.373 84.752H129.96C130.368 81.9157 132.964 80.7139 136.474 80.7139ZM139.719 90.1121V88.3094C134.863 88.045 133.061 88.5016 133.061 90.3284C133.061 91.5302 133.95 92.0109 135.536 92.0109C137.507 92.0109 139.046 91.2418 139.719 90.1121ZM154.69 80.7379C155.531 80.7379 156.156 80.81 156.589 80.9302V84.2953H156.469C156.012 84.103 155.147 83.8867 154.041 83.8867C151.013 83.8867 149.907 85.7855 149.907 87.7806V93.8617H146.253V81.0504H149.907V83.4059C150.436 82.4926 151.95 80.7379 154.69 80.7379ZM164.406 80.7139C168.084 80.7139 171.305 81.7715 171.305 85.5452V93.8617H167.651V92.1552C167.099 92.9964 165.248 94.2223 162.387 94.2223C159.383 94.2223 157.316 92.9724 157.316 90.4486C157.316 87.7565 158.71 85.5933 167.651 86.1461V85.5452C167.651 84.1991 167.05 83.2137 164.406 83.2137C162.195 83.2137 161.498 83.8626 161.306 84.752H157.893C158.301 81.9157 160.897 80.7139 164.406 80.7139ZM167.651 90.1121V88.3094C162.796 88.045 160.993 88.5016 160.993 90.3284C160.993 91.5302 161.883 92.0109 163.469 92.0109C165.44 92.0109 166.978 91.2418 167.651 90.1121ZM187.845 80.7139C191.595 80.7139 195.489 82.6368 195.489 87.4681C195.489 92.2994 191.595 94.2223 187.845 94.2223C184.12 94.2223 180.202 92.2994 180.202 87.4681C180.202 82.6368 184.12 80.7139 187.845 80.7139ZM187.845 91.6985C190.922 91.6985 192.076 89.7035 192.076 87.4681C192.076 85.2087 190.922 83.2137 187.845 83.2137C184.769 83.2137 183.639 85.2087 183.639 87.4681C183.639 89.7035 184.769 91.6985 187.845 91.6985Z" fill="white"/>
<path d="M220.284 77.0363V80.0168H213.914V93.8617H210.044V80.0168H203.675V77.0363H220.284ZM231.045 76.6998C235.9 76.6998 241.068 79.0313 241.068 85.449C241.068 91.8908 235.9 94.2223 231.045 94.2223C226.19 94.2223 220.998 91.8908 220.998 85.449C220.998 79.0313 226.19 76.6998 231.045 76.6998ZM231.045 91.2899C235.227 91.2899 237.126 88.766 237.126 85.449C237.126 82.1561 235.227 79.6322 231.045 79.6322C226.863 79.6322 224.964 82.1561 224.964 85.449C224.964 88.766 226.863 91.2899 231.045 91.2899ZM253.82 77.0363C258.435 77.0363 260.55 79.3198 260.55 82.7089C260.55 86.5307 258.027 88.4055 253.364 88.4055H247.33V93.8617H243.461V77.0363H253.82ZM253.147 85.4731C255.407 85.4731 256.608 84.5597 256.608 82.7089C256.608 80.81 255.407 80.0168 253.147 80.0168H247.33V85.4731H253.147ZM274.199 77.0363H276.771V93.8617H273.141V80.5697L268.718 83.3098V80.4495L274.199 77.0363ZM287.15 76.6998C291.38 76.6998 295.346 79.1515 295.346 85.449C295.346 91.7706 291.38 94.2223 287.15 94.2223C282.895 94.2223 278.929 91.7706 278.929 85.449C278.929 79.1515 282.895 76.6998 287.15 76.6998ZM287.15 91.5062C290.707 91.5062 291.861 88.766 291.861 85.449C291.861 82.1561 290.707 79.3919 287.15 79.3919C283.568 79.3919 282.438 82.1561 282.438 85.449C282.438 88.766 283.568 91.5062 287.15 91.5062ZM319.273 80.0168H308.36V84.1991H318.576V87.1556H308.36V93.8617H304.49V77.0363H319.273V80.0168ZM336.671 90.8812V93.8617H321.672V77.0363H336.431V80.0168H325.542V83.7425H335.758V86.6989H325.542V90.8812H336.671ZM357.183 93.8617H352.881L349.323 88.1651C349.299 88.1651 349.251 88.1651 349.227 88.1651H343.194V93.8617H339.324V77.0363H349.708C354.275 77.0363 356.63 79.2236 356.63 82.6128C356.63 85.2567 355.38 86.8431 353.169 87.6123L357.183 93.8617ZM343.194 80.0168V85.2327H349.564C351.919 85.2327 352.688 84.0069 352.688 82.6128C352.688 81.1706 351.967 80.0168 349.564 80.0168H343.194ZM377.206 93.8617H372.903L369.346 88.1651C369.322 88.1651 369.274 88.1651 369.25 88.1651H363.216V93.8617H359.347V77.0363H369.73C374.297 77.0363 376.653 79.2236 376.653 82.6128C376.653 85.2567 375.403 86.8431 373.191 87.6123L377.206 93.8617ZM363.216 80.0168V85.2327H369.586C371.942 85.2327 372.711 84.0069 372.711 82.6128C372.711 81.1706 371.99 80.0168 369.586 80.0168H363.216ZM394.368 90.8812V93.8617H379.369V77.0363H394.127V80.0168H383.239V83.7425H393.454V86.6989H383.239V90.8812H394.368ZM397.021 77.0363H400.89V93.8617H397.021V77.0363ZM422.109 93.8617H417.807L414.249 88.1651C414.225 88.1651 414.177 88.1651 414.153 88.1651H408.12V93.8617H404.25V77.0363H414.634C419.201 77.0363 421.556 79.2236 421.556 82.6128C421.556 85.2567 420.307 86.8431 418.095 87.6123L422.109 93.8617ZM408.12 80.0168V85.2327H414.49C416.845 85.2327 417.614 84.0069 417.614 82.6128C417.614 81.1706 416.893 80.0168 414.49 80.0168H408.12ZM438.791 93.8617L437.373 90.5688H428.143L426.7 93.8617H422.59L430.378 77.0363H435.137L442.901 93.8617H438.791ZM429.441 87.6123H436.075L432.758 79.9688L429.441 87.6123ZM459.359 80.0168H448.447V84.1991H458.662V87.1556H448.447V93.8617H444.577V77.0363H459.359V80.0168ZM476.541 90.8812V93.8617H461.759V77.0363H465.653V90.8812H476.541ZM479.176 77.0363H483.046V93.8617H479.176V77.0363ZM496.741 85.0885L504.024 93.8617H499.313L494.386 87.5642L489.458 93.8617H484.723L492.03 85.0885L485.348 77.0363H490.059L494.386 82.6128L498.712 77.0363H503.423L496.741 85.0885Z" fill="url(#paint0_linear_603_850)"/>
<defs>
<linearGradient id="paint0_linear_603_850" x1="0.413466" y1="81.4379" x2="581.108" y2="41.5276" gradientUnits="userSpaceOnUse">
<stop stop-color="#FF0000"/>
<stop offset="1" stop-color="#FF0048"/>
</linearGradient>
</defs>
</svg>
