<svg width="40" height="41" viewBox="0 0 40 41" fill="none" xmlns="http://www.w3.org/2000/svg">
<rect width="39.375" height="40.0716" rx="6.47898" fill="url(#paint0_radial_603_665)"/>
<path fill-rule="evenodd" clip-rule="evenodd" d="M15.0595 14.0504L14.959 13.7403C14.8474 13.3959 14.8915 13.0199 15.0798 12.7107C17.0762 9.43256 21.8603 9.44003 23.8661 12.7334C24.0515 13.0378 24.0988 13.4076 23.9971 13.7459L23.9194 14.0044C23.7905 14.4331 23.6194 14.846 23.4095 15.2375H15.5708C15.3645 14.8599 15.1931 14.4626 15.0595 14.0504ZM16.4853 16.5333C16.576 16.6349 16.6699 16.7339 16.7667 16.8302L19.2015 19.2516C19.3811 19.2107 19.5683 19.2109 19.7479 19.2525L22.1947 16.856C22.3012 16.7517 22.404 16.6441 22.5029 16.5333H16.4853ZM23.1014 17.7817L20.8003 20.0355L23.1014 22.2893C24.064 23.2321 24.7723 24.4032 25.1603 25.6935L25.238 25.952C25.4461 26.6441 25.3488 27.3945 24.9728 28.0117C22.4668 32.1265 16.479 32.1492 13.9731 28.0343C13.5885 27.4027 13.4983 26.6348 13.7263 25.9313L13.8268 25.6212C14.2303 24.376 14.9249 23.2451 15.8529 22.3221L18.1522 20.0355L15.8529 17.749C14.9249 16.826 14.2303 15.695 13.8268 14.4499L13.7263 14.1397C13.4983 13.4362 13.5885 12.6683 13.9731 12.0367C16.479 7.92189 22.4668 7.94458 24.9728 12.0593C25.3488 12.6766 25.4461 13.4269 25.238 14.119L25.1603 14.3775C24.7723 15.6678 24.064 16.839 23.1014 17.7817ZM19.7479 20.8185C19.5683 20.8601 19.3811 20.8604 19.2015 20.8195L16.7667 23.2409C15.9847 24.0185 15.3995 24.9715 15.0595 26.0206L14.959 26.3308C14.8474 26.6752 14.8915 27.0511 15.0798 27.3603C17.0762 30.6385 21.8603 30.631 23.8661 27.3377C24.0515 27.0333 24.0988 26.6635 23.9971 26.3251L23.9194 26.0666C23.5944 24.9858 23.0011 24.0048 22.1947 23.215L19.7479 20.8185ZM20.1581 22.729C20.1581 23.1315 19.8317 23.4578 19.4292 23.4578C19.0266 23.4578 18.7003 23.1315 18.7003 22.729C18.7003 22.3264 19.0266 22.0001 19.4292 22.0001C19.8317 22.0001 20.1581 22.3264 20.1581 22.729ZM19.4292 26.4139C19.8317 26.4139 20.1581 26.0875 20.1581 25.685C20.1581 25.2824 19.8317 24.9561 19.4292 24.9561C19.0266 24.9561 18.7003 25.2824 18.7003 25.685C18.7003 26.0875 19.0266 26.4139 19.4292 26.4139Z" fill="white"/>
<defs>
<radialGradient id="paint0_radial_603_665" cx="0" cy="0" r="1" gradientUnits="userSpaceOnUse" gradientTransform="translate(39.375 1.21957) rotate(132.924) scale(47.5854 46.7582)">
<stop stop-color="#ED613A"/>
<stop offset="0.495" stop-color="#CC0B2D"/>
<stop offset="1" stop-color="#7D278E"/>
</radialGradient>
</defs>
</svg>
