<svg width="146" height="40" viewBox="0 0 146 40" fill="none" xmlns="http://www.w3.org/2000/svg">
<path d="M10.811 11.8375L9.86461 9.64003H3.70524L2.74284 11.8375H0L5.19697 0.609503H8.37289L13.5538 11.8375H10.811ZM4.57141 7.66711H8.99845L6.78493 2.56639L4.57141 7.66711ZM17.8359 12.0781C15.6384 12.0781 14.3552 10.8751 14.3552 8.95031V3.28819H16.7933V8.34079C16.7933 9.36735 17.3868 10.2496 18.8945 10.2496C20.4023 10.2496 21.076 9.33527 21.076 8.34079V3.28819H23.514V11.8375H21.076V10.6345C20.707 11.1478 19.6644 12.0781 17.8359 12.0781ZM25.4454 -1.72091e-05H27.8834V11.8375H25.4454V-1.72091e-05ZM34.0662 3.06363C36.5204 3.06363 38.6697 3.76939 38.6697 6.28767V11.8375H36.2316V10.6987C35.8627 11.2601 34.6276 12.0781 32.7189 12.0781C30.7139 12.0781 29.3344 11.244 29.3344 9.55983C29.3344 7.76335 30.2648 6.31975 36.2316 6.68867V6.28767C36.2316 5.38943 35.8306 4.73179 34.0662 4.73179C32.5906 4.73179 32.1254 5.16487 31.9971 5.75835H29.7194C29.9921 3.86563 31.7244 3.06363 34.0662 3.06363ZM36.2316 9.33527V8.13227C32.9916 7.95583 31.7886 8.26059 31.7886 9.47963C31.7886 10.2816 32.382 10.6024 33.4407 10.6024C34.756 10.6024 35.7825 10.0892 36.2316 9.33527ZM45.4045 6.68867C47.8105 7.10571 49.4466 7.28215 49.4466 9.25507C49.4466 11.212 47.7785 12.0781 44.6827 12.0781C41.6672 12.0781 39.7905 11.1318 39.7905 9.20695H42.4371C42.4371 10.0571 43.4476 10.426 44.8431 10.426C46.2226 10.426 46.9444 10.1694 46.9444 9.51171C46.9444 8.74179 45.8857 8.64555 43.608 8.26059C41.3464 7.89167 40.1274 7.41047 40.1274 5.71023C40.1274 3.99395 41.6512 3.06363 44.5384 3.06363C47.5539 3.06363 49.0617 4.18643 49.0617 5.75835H46.6075C46.6075 5.21299 45.982 4.66763 44.5063 4.66763C43.175 4.66763 42.4532 4.94031 42.4532 5.59795C42.4532 6.33579 43.8807 6.41599 45.4045 6.68867ZM60.0348 6.68867C62.4408 7.10571 64.0769 7.28215 64.0769 9.25507C64.0769 11.212 62.4087 12.0781 59.313 12.0781C56.2975 12.0781 54.4208 11.1318 54.4208 9.20695H57.0674C57.0674 10.0571 58.0779 10.426 59.4734 10.426C60.8528 10.426 61.5746 10.1694 61.5746 9.51171C61.5746 8.74179 60.516 8.64555 58.2383 8.26059C55.9767 7.89167 54.7576 7.41047 54.7576 5.71023C54.7576 3.99395 56.2814 3.06363 59.1686 3.06363C62.1841 3.06363 63.6919 4.18643 63.6919 5.75835H61.2378C61.2378 5.21299 60.6122 4.66763 59.1365 4.66763C57.8052 4.66763 57.0834 4.94031 57.0834 5.59795C57.0834 6.33579 58.511 6.41599 60.0348 6.68867ZM69.977 3.06363C72.4792 3.06363 75.0777 4.34683 75.0777 7.57087C75.0777 10.7949 72.4792 12.0781 69.977 12.0781C67.4908 12.0781 64.8762 10.7949 64.8762 7.57087C64.8762 4.34683 67.4908 3.06363 69.977 3.06363ZM69.977 10.3939C72.0301 10.3939 72.8 9.06259 72.8 7.57087C72.8 6.06311 72.0301 4.73179 69.977 4.73179C67.9238 4.73179 67.17 6.06311 67.17 7.57087C67.17 9.06259 67.9238 10.3939 69.977 10.3939ZM82.0116 3.06363C84.5139 3.06363 86.5349 4.66763 86.5349 7.57087C86.5349 10.4741 84.5139 12.0781 82.0116 12.0781C80.5841 12.0781 79.5896 11.5809 78.964 10.7789V11.8375H76.5259V0.609503H78.964V4.36287C79.5896 3.56087 80.5841 3.06363 82.0116 3.06363ZM81.4823 10.3939C83.2467 10.3939 84.2572 9.36735 84.2572 7.57087C84.2572 5.77439 83.2467 4.73179 81.4823 4.73179C79.7179 4.73179 78.6592 5.77439 78.6592 7.57087C78.6592 9.36735 79.7179 10.3939 81.4823 10.3939ZM93.6064 3.07967C94.1678 3.07967 94.5849 3.12779 94.8736 3.20799V5.45359H94.7934C94.4886 5.32527 93.9112 5.18091 93.1733 5.18091C91.1523 5.18091 90.4145 6.44807 90.4145 7.77939V11.8375H87.9764V3.28819H90.4145V4.86011C90.7673 4.25059 91.7779 3.07967 93.6064 3.07967ZM105.3 8.19643H97.7127C97.9051 9.36735 98.7232 10.3939 100.504 10.3939C101.803 10.3939 102.637 9.81647 102.974 9.09467H105.123C104.562 11.228 102.621 12.0781 100.504 12.0781C98.0655 12.0781 95.5152 10.7308 95.5152 7.57087C95.5152 4.41099 98.0335 3.06363 100.488 3.06363C102.974 3.06363 105.556 4.58743 105.3 8.19643ZM100.488 4.73179C98.9638 4.73179 98.1137 5.56587 97.7929 6.59243H103.07C102.813 5.56587 102.092 4.73179 100.488 4.73179Z" fill="#7D7D7D"/>
<path d="M7.18593 24.445C10.426 24.445 13.8746 26.0009 13.8746 30.2835C13.8746 34.5823 10.426 36.1381 7.18593 36.1381C3.94584 36.1381 0.481201 34.5823 0.481201 30.2835C0.481201 26.0009 3.94584 24.445 7.18593 24.445ZM7.18593 34.1813C9.97689 34.1813 11.2441 32.4971 11.2441 30.2835C11.2441 28.0861 9.97689 26.4019 7.18593 26.4019C4.39497 26.4019 3.1278 28.0861 3.1278 30.2835C3.1278 32.4971 4.39497 34.1813 7.18593 34.1813ZM20.8124 27.1237C23.2986 27.1237 25.3197 28.7277 25.3197 31.6309C25.3197 34.5341 23.2986 36.1381 20.8124 36.1381C19.3688 36.1381 18.3743 35.6409 17.7488 34.8389V38.5762H15.3107V27.3482H17.7488V28.4229C18.3743 27.6209 19.3688 27.1237 20.8124 27.1237ZM20.2671 34.4539C22.0315 34.4539 23.042 33.4274 23.042 31.6309C23.042 29.8344 22.0315 28.7918 20.2671 28.7918C18.5187 28.7918 17.444 29.8344 17.444 31.6309C17.444 33.4274 18.5187 34.4539 20.2671 34.4539ZM31.4127 34.4539C33.0328 34.4539 33.8187 33.6359 34.0914 32.5612H36.2889C35.8558 34.9672 33.931 35.9938 31.8458 36.1221L31.4448 36.6514C32.4233 36.3787 34.0594 36.475 34.0594 37.8865C34.0594 39.1376 33.129 39.6188 31.6373 39.6188C30.8834 39.6188 30.3381 39.5386 29.7285 39.3622V38.2715C30.0333 38.3837 30.5305 38.5441 31.124 38.5441C31.9902 38.5441 32.2789 38.3196 32.2789 37.9025C32.2789 37.3411 31.509 37.2609 30.0975 37.4695V36.8279L30.6428 36.09C28.3972 35.8655 26.2799 34.5823 26.2799 31.6309C26.2799 28.3106 28.9265 27.1237 31.4127 27.1237C33.6583 27.1237 35.8398 28.1342 36.2889 30.6845H34.0914C33.8187 29.6099 33.0328 28.7918 31.4127 28.7918C29.3596 28.7918 28.5737 30.1231 28.5737 31.6309C28.5737 33.1226 29.3596 34.4539 31.4127 34.4539ZM42.1889 27.1237C44.6911 27.1237 47.2896 28.4069 47.2896 31.6309C47.2896 34.8549 44.6911 36.1381 42.1889 36.1381C39.7027 36.1381 37.0882 34.8549 37.0882 31.6309C37.0882 28.4069 39.7027 27.1237 42.1889 27.1237ZM42.1889 34.4539C44.242 34.4539 45.0119 33.1226 45.0119 31.6309C45.0119 30.1231 44.242 28.7918 42.1889 28.7918C40.1358 28.7918 39.3819 30.1231 39.3819 31.6309C39.3819 33.1226 40.1358 34.4539 42.1889 34.4539ZM44.0976 24.1723H45.5092C45.5092 25.1668 45.06 26.2254 43.7768 26.2254C42.4134 26.2254 41.7077 25.3272 40.9698 25.3272C40.4245 25.3272 40.2962 25.7442 40.2962 26.0971H38.8686C38.8686 25.0385 39.414 24.044 40.6009 24.044C41.9804 24.044 42.6059 24.9583 43.44 24.9583C43.9854 24.9583 44.0976 24.5573 44.0976 24.1723ZM58.0411 32.2565H50.4541C50.6466 33.4274 51.4647 34.4539 53.2451 34.4539C54.5443 34.4539 55.3784 33.8765 55.7153 33.1547H57.8646C57.3032 35.288 55.3624 36.1381 53.2451 36.1381C50.807 36.1381 48.2566 34.7908 48.2566 31.6309C48.2566 28.471 50.7749 27.1237 53.2291 27.1237C55.7153 27.1237 58.2977 28.6475 58.0411 32.2565ZM53.2291 28.7918C51.7053 28.7918 50.8551 29.6259 50.5343 30.6525H55.8115C55.5549 29.6259 54.8331 28.7918 53.2291 28.7918ZM64.3267 30.7487C66.7327 31.1657 68.3688 31.3422 68.3688 33.3151C68.3688 35.272 66.7007 36.1381 63.6049 36.1381C60.5894 36.1381 58.7127 35.1918 58.7127 33.267H61.3593C61.3593 34.1171 62.3699 34.486 63.7653 34.486C65.1448 34.486 65.8666 34.2294 65.8666 33.5717C65.8666 32.8018 64.8079 32.7056 62.5303 32.3206C60.2686 31.9517 59.0496 31.4705 59.0496 29.7703C59.0496 28.054 60.5734 27.1237 63.4606 27.1237C66.4761 27.1237 67.9839 28.2465 67.9839 29.8184H65.5297C65.5297 29.273 64.9042 28.7277 63.4285 28.7277C62.0972 28.7277 61.3754 29.0003 61.3754 29.658C61.3754 30.3958 62.8029 30.476 64.3267 30.7487ZM83.8652 30.0269C85.3409 30.3798 86.175 31.1497 86.175 32.5933C86.175 35.1276 84.571 35.8975 81.0582 35.8975H74.3054V24.6695H81.3951C84.0898 24.6695 85.758 25.2951 85.758 27.5567C85.758 28.872 85.0843 29.5938 83.8652 29.9467V30.0269ZM81.5234 26.6585H76.8878V29.3051H81.5234C82.6462 29.3051 83.2718 28.9362 83.2718 27.9738C83.2718 27.0114 82.566 26.6585 81.5234 26.6585ZM81.5876 33.9246C83.0793 33.9246 83.5444 33.3472 83.5444 32.4008C83.5444 31.4545 82.8547 31.1497 81.5876 31.1497H76.8878V33.9246H81.5876ZM87.6161 35.8975V27.3482H90.0381V35.8975H87.6161ZM88.8191 26.3537C88.0813 26.3537 87.568 25.9367 87.568 25.2149C87.568 24.4771 88.0813 24.06 88.8191 24.06C89.5569 24.06 90.0863 24.4771 90.0863 25.2149C90.0863 25.9367 89.5569 26.3537 88.8191 26.3537ZM97.6489 27.1237C99.8464 27.1237 101.13 28.3106 101.13 30.2354V35.8975H98.6915V30.8449C98.6915 29.8184 98.098 28.9362 96.5902 28.9362C95.0825 28.9362 94.4088 29.8505 94.4088 30.8449V35.8975H91.9707V27.3482H94.4088V28.5512C94.7777 28.0379 95.8203 27.1237 97.6489 27.1237ZM107.311 27.1237C109.766 27.1237 111.915 27.8294 111.915 30.3477V35.8975H109.477V34.7587C109.108 35.3201 107.873 36.1381 105.964 36.1381C103.959 36.1381 102.58 35.3041 102.58 33.6199C102.58 31.8234 103.51 30.3798 109.477 30.7487V30.3477C109.477 29.4495 109.076 28.7918 107.311 28.7918C105.836 28.7918 105.371 29.2249 105.242 29.8184H102.965C103.237 27.9257 104.97 27.1237 107.311 27.1237ZM109.477 33.3953V32.1923C106.237 32.0159 105.034 32.3206 105.034 33.5397C105.034 34.3417 105.627 34.6625 106.686 34.6625C108.001 34.6625 109.028 34.1492 109.477 33.3953ZM107.472 23.9477H110.215L108.081 26.1773H106.189L107.472 23.9477ZM119.468 27.1397C120.029 27.1397 120.446 27.1878 120.735 27.268V29.5136H120.655C120.35 29.3853 119.773 29.2409 119.035 29.2409C117.014 29.2409 116.276 30.5081 116.276 31.8394V35.8975H113.838V27.3482H116.276V28.9201C116.629 28.3106 117.639 27.1397 119.468 27.1397ZM122.014 35.8975V27.3482H124.436V35.8975H122.014ZM123.217 26.3537C122.48 26.3537 121.966 25.9367 121.966 25.2149C121.966 24.4771 122.48 24.06 123.217 24.06C123.955 24.06 124.485 24.4771 124.485 25.2149C124.485 25.9367 123.955 26.3537 123.217 26.3537ZM130.62 27.1237C133.074 27.1237 135.223 27.8294 135.223 30.3477V35.8975H132.785V34.7587C132.416 35.3201 131.181 36.1381 129.272 36.1381C127.267 36.1381 125.888 35.3041 125.888 33.6199C125.888 31.8234 126.818 30.3798 132.785 30.7487V30.3477C132.785 29.4495 132.384 28.7918 130.62 28.7918C129.144 28.7918 128.679 29.2249 128.55 29.8184H126.273C126.545 27.9257 128.278 27.1237 130.62 27.1237ZM132.785 33.3953V32.1923C129.545 32.0159 128.342 32.3206 128.342 33.5397C128.342 34.3417 128.935 34.6625 129.994 34.6625C131.309 34.6625 132.336 34.1492 132.785 33.3953ZM141.958 30.7487C144.364 31.1657 146 31.3422 146 33.3151C146 35.272 144.332 36.1381 141.236 36.1381C138.221 36.1381 136.344 35.1918 136.344 33.267H138.991C138.991 34.1171 140.001 34.486 141.397 34.486C142.776 34.486 143.498 34.2294 143.498 33.5717C143.498 32.8018 142.439 32.7056 140.161 32.3206C137.9 31.9517 136.681 31.4705 136.681 29.7703C136.681 28.054 138.205 27.1237 141.092 27.1237C144.107 27.1237 145.615 28.2465 145.615 29.8184H143.161C143.161 29.273 142.535 28.7277 141.06 28.7277C139.728 28.7277 139.007 29.0003 139.007 29.658C139.007 30.3958 140.434 30.476 141.958 30.7487Z" fill="url(#paint0_radial_660_948)"/>
<defs>
<radialGradient id="paint0_radial_660_948" cx="0" cy="0" r="1" gradientUnits="userSpaceOnUse" gradientTransform="translate(85.2126 -0.526682) rotate(90) scale(42.4392 150.306)">
<stop stop-color="white"/>
<stop offset="1" stop-color="#9F9F9F"/>
</radialGradient>
</defs>
</svg>
