<svg width="40" height="41" viewBox="0 0 40 41" fill="none" xmlns="http://www.w3.org/2000/svg">
<rect width="39.375" height="40.0716" rx="6.47898" fill="url(#paint0_radial_603_643)"/>
<path fill-rule="evenodd" clip-rule="evenodd" d="M23.4048 6.3894C23.7627 6.3894 24.0527 6.67948 24.0527 7.0373V10.1953C25.2917 10.3897 26.2394 11.4619 26.2394 12.7554V23.7697C26.2394 25.0633 25.2917 26.1355 24.0527 26.3299V29.5518C24.0527 29.9096 23.7627 30.1997 23.4048 30.1997C23.047 30.1997 22.7569 29.9096 22.7569 29.5518V26.3299C21.518 26.1355 20.5703 25.0633 20.5703 23.7697V12.7554C20.5703 11.4619 21.518 10.3897 22.7569 10.1953V7.0373C22.7569 6.67948 23.047 6.3894 23.4048 6.3894ZM15.8325 10.5198C15.8325 10.1619 15.5424 9.87186 15.1846 9.87186C14.8268 9.87186 14.5367 10.1619 14.5367 10.5198V13.7654C13.278 13.9425 12.3096 15.0239 12.3096 16.3315V27.3458C12.3096 28.6534 13.278 29.7348 14.5367 29.912V33.0342C14.5367 33.392 14.8268 33.6821 15.1846 33.6821C15.5424 33.6821 15.8325 33.392 15.8325 33.0342V29.8993C17.0516 29.6881 17.9787 28.6252 17.9787 27.3458V16.3315C17.9787 15.0521 17.0516 13.9892 15.8325 13.7781V10.5198ZM23.6478 11.4597C24.3634 11.4597 24.9436 12.0398 24.9436 12.7554V23.7697C24.9436 24.4854 24.3634 25.0655 23.6478 25.0655H23.1619C22.4462 25.0655 21.8661 24.4854 21.8661 23.7697V12.7554C21.8661 12.0398 22.4462 11.4597 23.1619 11.4597H23.6478ZM14.9012 15.0357H15.3871C16.1027 15.0357 16.6829 15.6159 16.6829 16.3315V27.3458C16.6829 28.0615 16.1027 28.6416 15.3871 28.6416H14.9012C14.1855 28.6416 13.6054 28.0615 13.6054 27.3458V16.3315C13.6054 15.6159 14.1855 15.0357 14.9012 15.0357Z" fill="white"/>
<defs>
<radialGradient id="paint0_radial_603_643" cx="0" cy="0" r="1" gradientUnits="userSpaceOnUse" gradientTransform="translate(39.375 1.21957) rotate(132.924) scale(47.5854 46.7582)">
<stop stop-color="#ED613A"/>
<stop offset="0.495" stop-color="#CC0B2D"/>
<stop offset="1" stop-color="#7D278E"/>
</radialGradient>
</defs>
</svg>
