<svg width="305" height="53" viewBox="0 0 305 53" fill="none" xmlns="http://www.w3.org/2000/svg">
<path d="M0.0830045 52.5585C0.0719372 50.428 0.0664036 48.2948 0.0664036 46.1588C0.06087 44.0173 0.0553363 41.873 0.0498027 39.726C0.0442691 37.5734 0.0415023 35.4236 0.0415023 33.2765C0.0359686 31.1239 0.0332018 28.9713 0.0332018 26.8188C0.0332018 24.6662 0.030435 22.5108 0.0249013 20.3527C0.0249013 18.2001 0.0221345 16.0475 0.0166009 13.895C0.0166009 11.7479 0.0138341 9.59809 0.00830044 7.4455C0.00830044 5.30399 0.00553363 3.16524 0 1.02926C1.80396 1.00159 3.60793 0.976686 5.41189 0.954552C7.21586 0.932417 9.01705 0.91305 10.8155 0.896449C12.6194 0.874314 14.4234 0.854946 16.2274 0.838345C18.0313 0.821745 19.8353 0.805144 21.6393 0.788543C21.6559 3.1348 21.6725 5.48936 21.6891 7.85223C19.4424 7.90203 17.1958 7.94906 14.9491 7.99333C12.7025 8.04314 10.4558 8.09571 8.20914 8.15104C8.21468 10.5139 8.22298 12.8823 8.23405 15.2562C8.23958 17.6302 8.24511 20.0041 8.25065 22.378C10.0214 22.295 11.7922 22.2148 13.5629 22.1373C15.3282 22.0543 17.0962 21.9741 18.8669 21.8966C18.878 24.2816 18.8918 26.6693 18.9084 29.0599C17.1377 29.165 15.3669 29.2702 13.5961 29.3753C11.8198 29.4749 10.0463 29.5745 8.27555 29.6741C8.28108 31.5334 8.28662 33.3899 8.29215 35.2437C8.30322 37.0919 8.31152 38.9374 8.31705 40.7801C8.32812 42.6228 8.33642 44.46 8.34195 46.2916C8.35302 48.1177 8.36685 49.9355 8.38345 51.745C5.61664 52.0217 2.84982 52.2928 0.0830045 52.5585ZM26.0385 49.9438C26.0108 47.9406 25.9832 45.9292 25.9555 43.9094C25.9278 41.8785 25.9029 39.8449 25.8808 37.8086C25.8587 35.7611 25.8365 33.7109 25.8144 31.6579C25.7978 29.5994 25.7784 27.5381 25.7563 25.4741C25.7397 23.41 25.7231 21.346 25.7065 19.2819C25.6899 17.2124 25.6733 15.1456 25.6567 13.0815C25.6401 11.0175 25.6235 8.95619 25.6069 6.89767C25.5903 4.83916 25.5737 2.78895 25.5571 0.747041C27.4164 0.73044 29.2757 0.713839 31.135 0.697238C32.9943 0.675103 34.8536 0.655736 36.7129 0.639135C38.5667 0.622534 40.4232 0.605933 42.2825 0.589332C44.1418 0.572731 45.9983 0.55613 47.8521 0.539529C47.8798 2.79725 47.9074 5.06051 47.9351 7.3293C45.5833 7.37357 43.2287 7.4206 40.8714 7.4704C38.5196 7.51467 36.1651 7.55894 33.8077 7.60321C33.8243 9.7558 33.8437 11.9084 33.8658 14.061C33.888 16.2135 33.9129 18.3634 33.9405 20.5104C35.8164 20.4274 37.6951 20.3472 39.5765 20.2697C41.4524 20.1922 43.3311 20.112 45.2125 20.029C45.2457 22.3033 45.2817 24.5749 45.3204 26.8437C43.439 26.9433 41.5548 27.0484 39.6678 27.1591C37.7864 27.2642 35.9022 27.3694 34.0152 27.4745C34.0484 29.9646 34.0816 32.4465 34.1148 34.92C34.1536 37.388 34.1923 39.8477 34.2311 42.2991C36.616 42.0888 39.001 41.8785 41.386 41.6683C43.7655 41.458 46.1477 41.2505 48.5327 41.0457C48.5825 43.2481 48.6351 45.4422 48.6904 47.628C46.8035 47.8161 44.9165 48.007 43.0295 48.2007C41.1426 48.3944 39.2556 48.5881 37.3686 48.7817C35.4817 48.9754 33.5919 49.1691 31.6994 49.3628C29.8124 49.5565 27.9255 49.7501 26.0385 49.9438ZM53.4715 47.1466C53.4217 45.2485 53.3719 43.3505 53.3221 41.4524C53.2723 39.5433 53.2225 37.6287 53.1727 35.7085C53.1284 33.7828 53.0841 31.8544 53.0399 29.9231C53.0011 27.9808 52.9624 26.0357 52.9237 24.0879C52.8849 22.129 52.849 20.1701 52.8158 18.2112C52.7826 16.2467 52.7521 14.2823 52.7245 12.3179C52.6968 10.3479 52.6691 8.37515 52.6414 6.39965C52.6138 4.42967 52.5889 2.46247 52.5667 0.498027C54.581 0.475892 56.598 0.456525 58.6178 0.439924C60.6376 0.423323 62.6546 0.406722 64.6688 0.390121C66.7854 0.37352 68.6032 0.572731 70.1471 1.00435C71.6827 1.41938 72.9444 2.06681 73.9404 2.93836C74.9365 3.80991 75.6669 4.89727 76.1649 6.20874C76.6629 7.52021 76.912 9.05579 76.9452 10.8155C76.9618 11.7451 76.9784 12.6776 76.995 13.6127C77.0448 15.9452 76.6546 17.8626 75.7997 19.3733C74.9531 20.8839 73.6416 21.9962 71.8404 22.71C71.8404 22.7543 71.8404 22.7986 71.8404 22.8428C73.8989 23.3077 75.2851 24.3618 76.1649 25.9223C77.0531 27.4828 77.4515 29.5413 77.5262 32.0231C77.5705 33.3069 77.6147 34.5907 77.659 35.8745C77.7033 37.1473 77.7531 38.4173 77.8084 39.6845C77.8914 41.7679 78.0325 43.2785 78.9207 44.8058C77.5373 44.8999 76.1511 45.0023 74.7621 45.1129C73.3677 45.2292 71.9704 45.3481 70.5704 45.4699C70.0807 44.3991 69.7487 43.7434 69.6076 40.1908C69.5578 38.8516 69.5107 37.5097 69.4665 36.1651C69.4222 34.8149 69.3779 33.4591 69.3337 32.0978C69.2175 27.931 67.7649 26.6444 64.038 26.8354C63.0917 26.8796 62.1482 26.9267 61.2075 26.9765C61.2463 28.6144 61.285 30.2468 61.3237 31.8737C61.368 33.4951 61.415 35.1137 61.4648 36.7295C61.5146 38.3342 61.5644 39.9362 61.6142 41.5354C61.664 43.1291 61.7166 44.7228 61.7719 46.3165C59.0051 46.5877 56.2383 46.8643 53.4715 47.1466ZM61.0581 20.4025C62.0486 20.3638 63.0391 20.325 64.0297 20.2863C67.0842 20.1701 68.9269 18.925 68.8522 15.2645C68.8301 14.0803 68.808 12.8961 68.7858 11.7119C68.7277 8.41666 67.4412 6.98068 64.5443 7.03048C63.3048 7.05262 62.068 7.07475 60.834 7.09688C60.8672 9.32141 60.9004 11.5432 60.9336 13.7621C60.9779 15.9811 61.0194 18.1946 61.0581 20.4025ZM83.6685 44.5236C83.5911 42.7529 83.5164 40.9793 83.4444 39.203C83.378 37.4101 83.3144 35.6117 83.2535 33.8077C83.1926 31.9927 83.1345 30.1721 83.0792 28.346C83.0294 26.5089 82.9824 24.6662 82.9381 22.8179C82.8938 20.9586 82.8523 19.0993 82.8136 17.24C82.7748 15.3641 82.7361 13.4882 82.6974 11.6123C82.6642 9.72536 82.6337 7.83562 82.6061 5.94312C82.5729 4.04509 82.5424 2.14705 82.5148 0.249014C84.5345 0.237946 86.5516 0.226879 88.5658 0.215812C90.5856 0.199211 92.6026 0.185377 94.6168 0.174309C96.7334 0.166009 98.5429 0.36522 100.079 0.780242C101.622 1.19526 102.876 1.8261 103.864 2.67274C104.86 3.51939 105.59 4.58185 106.08 5.86012C106.569 7.13009 106.818 8.61587 106.843 10.3258C106.86 11.2277 106.874 12.1297 106.885 13.0317C106.918 15.2894 106.528 17.1404 105.673 18.593C104.818 20.0373 103.507 21.0997 101.714 21.7638C101.714 21.8025 101.714 21.844 101.714 21.8883C103.756 22.3614 105.125 23.399 105.988 24.9263C106.86 26.4452 107.233 28.4456 107.275 30.8611C107.303 32.1117 107.33 33.3623 107.358 34.6129C107.386 35.8579 107.413 37.103 107.441 38.3481C107.483 40.4066 107.59 41.909 108.42 43.4529C107.059 43.5082 105.698 43.5635 104.337 43.6189C102.975 43.6742 101.614 43.7295 100.253 43.7849C99.788 42.7058 99.4809 42.0584 99.3813 38.5888C99.3481 37.2884 99.3149 35.9852 99.2817 34.6793C99.2485 33.3733 99.2153 32.0674 99.1821 30.7615C99.0825 26.7441 97.6548 25.4824 93.9694 25.5986C93.0287 25.6263 92.0907 25.6567 91.1555 25.6899C91.1943 27.2504 91.2358 28.8053 91.28 30.3547C91.3243 31.9042 91.3686 33.448 91.4128 34.9864C91.4627 36.5192 91.5125 38.0493 91.5623 39.5765C91.6121 41.1038 91.6646 42.6283 91.72 44.1501C89.0362 44.2663 86.3523 44.3908 83.6685 44.5236ZM91.0144 19.4065C91.9994 19.3788 92.9844 19.3539 93.9694 19.3317C96.999 19.257 98.8335 18.0784 98.7671 14.559C98.7449 13.4191 98.7255 12.2791 98.7089 11.1392C98.6591 7.95183 97.3809 6.56566 94.484 6.59886C93.2445 6.60992 92.0105 6.62376 90.782 6.64036C90.8152 8.78188 90.8512 10.9179 90.8899 13.0483C90.9287 15.1732 90.9702 17.2926 91.0144 19.4065ZM113.119 43.2702C113.085 41.5106 113.052 39.7509 113.019 37.9912C112.986 36.2315 112.953 34.469 112.919 32.7038C112.892 30.9275 112.861 29.1512 112.828 27.3749C112.8 25.5875 112.773 23.8002 112.745 22.0128C112.717 20.2088 112.69 18.4021 112.662 16.5926C112.634 14.7776 112.609 12.957 112.587 11.1309C112.56 9.29927 112.535 7.46487 112.513 5.6277C112.49 3.77947 112.468 1.93124 112.446 0.0830045C114.3 0.0774709 116.154 0.0691705 118.007 0.0581032C119.861 0.0525696 121.715 0.0470359 123.569 0.0415023C125.423 0.0359687 127.276 0.0304351 129.13 0.0249014C130.984 0.0193678 132.838 0.016601 134.691 0.016601C134.708 2.10278 134.725 4.18619 134.741 6.26684C132.395 6.27791 130.051 6.29174 127.711 6.30834C125.364 6.31941 123.018 6.33324 120.672 6.34984C120.694 8.28108 120.716 10.2096 120.738 12.1353C120.76 14.0444 120.783 15.9507 120.805 17.8543C122.664 17.8321 124.523 17.8072 126.383 17.7796C128.242 17.7574 130.101 17.7353 131.961 17.7132C131.977 19.7495 131.994 21.7776 132.01 23.7974C130.157 23.8251 128.3 23.8555 126.441 23.8887C124.587 23.9219 122.733 23.9551 120.879 23.9883C120.907 26.1686 120.938 28.3405 120.971 30.5042C120.998 32.6623 121.026 34.8176 121.054 36.9702C123.367 36.8927 125.683 36.8208 128.001 36.7544C130.32 36.688 132.638 36.6216 134.957 36.5552C134.963 38.5196 134.971 40.4841 134.982 42.4485C133.161 42.5094 131.338 42.573 129.512 42.6394C127.691 42.7113 125.871 42.7805 124.05 42.8469C122.224 42.9189 120.401 42.988 118.58 43.0544C116.76 43.1264 114.939 43.1983 113.119 43.2702ZM139.597 42.2908C139.597 40.5864 139.594 38.8821 139.589 37.1777C139.583 35.4678 139.58 33.7552 139.58 32.0397C139.569 30.3132 139.561 28.584 139.555 26.852C139.55 25.1033 139.542 23.3519 139.531 21.5978C139.519 19.8325 139.508 18.0618 139.497 16.2855C139.486 14.4981 139.475 12.7052 139.464 10.9068C139.453 9.10283 139.442 7.29333 139.431 5.4783C139.414 3.65773 139.401 1.8344 139.389 0.00830044C142.106 0.00276681 144.829 0 147.557 0C147.568 1.82057 147.579 3.64113 147.59 5.4617C147.596 7.27119 147.604 9.07792 147.615 10.8819C147.626 12.6748 147.635 14.4622 147.64 16.244C147.646 18.0147 147.651 19.7827 147.657 21.548C147.662 23.2966 147.668 25.0397 147.673 26.7773C147.673 28.5037 147.673 30.2247 147.673 31.9401C147.673 33.6445 147.671 35.3433 147.665 37.0366C147.659 38.7188 147.651 40.3955 147.64 42.0667C144.956 42.1331 142.275 42.2078 139.597 42.2908ZM153.691 42.0169C153.702 40.3568 153.713 38.6884 153.724 37.0117C153.735 35.3239 153.744 33.6307 153.749 31.9318C153.749 30.2164 153.749 28.4954 153.749 26.769C153.749 25.0314 153.749 23.2883 153.749 21.5397C153.744 19.78 153.741 18.0147 153.741 16.244C153.73 14.4566 153.722 12.6693 153.716 10.8819C153.71 9.07792 153.702 7.27119 153.691 5.4617C153.686 3.64113 153.677 1.82057 153.666 0C155.68 0 157.697 0 159.717 0C161.731 0 163.746 0.00276681 165.76 0.00830044C167.877 0.00830044 169.694 0.224112 171.222 0.647435C172.757 1.07076 174.002 1.69329 174.99 2.53164C175.97 3.37828 176.692 4.43244 177.173 5.70241C177.646 6.96408 177.879 8.43326 177.879 10.1182C177.879 11.0036 177.879 11.8918 177.879 12.7827C177.879 15.0072 177.455 16.8167 176.575 18.2195C175.696 19.6057 174.359 20.5934 172.55 21.1827C172.55 21.2215 172.55 21.263 172.55 21.3073C174.583 21.8468 175.936 22.9175 176.783 24.4448C177.621 25.9721 177.953 27.9476 177.945 30.3215C177.945 31.55 177.942 32.7757 177.937 33.9986C177.937 35.2216 177.934 36.4445 177.928 37.6674C177.92 39.6928 177.995 41.1785 178.8 42.7556C177.417 42.7058 176.033 42.656 174.65 42.6062C173.261 42.5564 171.875 42.5066 170.491 42.4568C170.06 41.3777 169.761 40.7303 169.769 37.3769C169.775 36.1208 169.78 34.8619 169.786 33.6002C169.791 32.3386 169.794 31.0741 169.794 29.8069C169.802 25.914 168.4 24.6357 164.689 24.5942C163.754 24.5832 162.819 24.5749 161.884 24.5693C161.884 26.0634 161.881 27.552 161.875 29.035C161.875 30.5125 161.873 31.9844 161.867 33.4508C161.862 34.9172 161.856 36.3781 161.85 37.8335C161.839 39.2833 161.831 40.7303 161.826 42.1746C159.109 42.1082 156.397 42.0556 153.691 42.0169ZM161.884 18.5432C162.863 18.5487 163.848 18.5543 164.839 18.5598C167.877 18.5847 169.728 17.5056 169.728 14.0776C169.728 12.9653 169.725 11.8558 169.719 10.7491C169.719 7.63641 168.449 6.26684 165.561 6.25024C164.321 6.25024 163.084 6.24747 161.85 6.24194C161.862 8.31152 161.87 10.3756 161.875 12.4341C161.875 14.476 161.878 16.5124 161.884 18.5432ZM181.423 42.8552C181.783 41.1232 182.14 39.3912 182.494 37.6591C182.848 35.9271 183.205 34.1896 183.564 32.4465C183.919 30.6978 184.273 28.9437 184.627 27.184C184.981 25.4187 185.335 23.648 185.689 21.8717C186.044 20.0899 186.398 18.3025 186.752 16.5096C187.1 14.7056 187.452 12.8961 187.806 11.0811C188.155 9.26054 188.503 7.43444 188.852 5.6028C189.2 3.7601 189.552 1.9174 189.906 0.0747041C191.743 0.0802377 193.586 0.0885381 195.434 0.0996054C197.277 0.105139 199.119 0.11344 200.962 0.124507C201.316 1.98381 201.67 3.84588 202.025 5.71071C202.379 7.57001 202.733 9.42378 203.087 11.272C203.441 13.1202 203.795 14.9657 204.15 16.8084C204.504 18.6456 204.855 20.4772 205.204 22.3033C205.558 24.1294 205.909 25.95 206.258 27.765C206.612 29.5745 206.963 31.3812 207.312 33.1852C207.661 34.9836 208.012 36.7793 208.366 38.5722C208.715 40.3651 209.066 42.1552 209.42 43.9426C206.698 43.8319 203.975 43.7212 201.253 43.6106C201.004 42.1995 200.757 40.7856 200.514 39.369C200.265 37.9524 200.019 36.5358 199.775 35.1192C199.775 35.1579 199.775 35.1994 199.775 35.2437C198.231 35.1884 196.685 35.1358 195.135 35.086C193.591 35.0362 192.047 34.9864 190.504 34.9366C190.249 36.3089 189.997 37.6785 189.748 39.0453C189.499 40.4066 189.25 41.7706 189.001 43.1374C186.472 43.0434 183.946 42.9493 181.423 42.8552ZM191.475 29.2093C193.921 29.2757 196.366 29.3449 198.812 29.4168C198.514 27.6405 198.212 25.8587 197.908 24.0713C197.609 22.2839 197.307 20.4938 197.003 18.7009C196.699 16.8969 196.397 15.0902 196.098 13.2807C195.794 11.4657 195.489 9.64789 195.185 7.82732C195.135 7.82732 195.085 7.82732 195.036 7.82732C194.737 9.64236 194.441 11.4519 194.148 13.2558C193.854 15.0487 193.558 16.8388 193.259 18.6262C192.961 20.4025 192.664 22.176 192.371 23.9468C192.072 25.7065 191.774 27.4607 191.475 29.2093ZM213.38 44.1086C213.38 42.3323 213.38 40.556 213.38 38.7797C213.38 36.9923 213.382 35.205 213.388 33.4176C213.388 31.6136 213.388 29.8069 213.388 27.9974C213.388 26.1824 213.391 24.3591 213.396 22.5274C213.396 20.6958 213.396 18.8559 213.396 17.0076C213.396 15.1539 213.396 13.2973 213.396 11.438C213.396 9.57318 213.393 7.70282 213.388 5.82692C213.388 3.95101 213.388 2.07235 213.388 0.19091C215.186 0.201978 216.988 0.213045 218.792 0.224112C220.59 0.240713 222.388 0.254547 224.187 0.265614C225.991 0.276682 227.792 0.290516 229.59 0.307117C231.389 0.318184 233.187 0.332018 234.986 0.348619C234.991 2.54547 234.994 4.74232 234.994 6.93918C232.753 6.90597 230.515 6.87001 228.279 6.83127C226.038 6.79807 223.797 6.76763 221.556 6.73996C221.556 8.84275 221.556 10.9428 221.556 13.04C221.556 15.1262 221.556 17.2096 221.556 19.2902C223.315 19.34 225.072 19.3926 226.826 19.448C228.586 19.5088 230.343 19.5669 232.097 19.6223C232.097 21.7748 232.097 23.9219 232.097 26.0634C230.337 25.9859 228.581 25.9112 226.826 25.8393C225.067 25.7674 223.31 25.6982 221.556 25.6318C221.556 27.231 221.556 28.8275 221.556 30.4212C221.556 32.0038 221.553 33.5836 221.547 35.1607C221.547 36.7267 221.547 38.2872 221.547 39.8422C221.547 41.3916 221.547 42.9382 221.547 44.4821C218.825 44.3548 216.102 44.2303 213.38 44.1086ZM238.904 45.7936C238.904 43.9675 238.904 42.1386 238.904 40.307C238.904 38.4588 238.904 36.6078 238.904 34.754C238.904 32.8892 238.904 31.016 238.904 29.1346C238.909 27.2476 238.912 25.3551 238.912 23.4571C238.912 21.5535 238.912 19.6472 238.912 17.7381C238.912 15.8179 238.912 13.895 238.912 11.9692C238.912 10.0435 238.912 8.11507 238.912 6.18384C238.906 4.24706 238.904 2.31306 238.904 0.381821C241.626 0.403955 244.349 0.42609 247.071 0.448224C247.071 2.11938 247.071 3.79331 247.071 5.47C247.077 7.15222 247.079 8.82891 247.079 10.5001C247.079 12.1768 247.079 13.8479 247.079 15.5135C247.079 17.1847 247.079 18.8503 247.079 20.5104C247.079 22.1705 247.077 23.8278 247.071 25.4824C247.071 27.1314 247.071 28.7777 247.071 30.4212C247.071 32.0591 247.071 33.6915 247.071 35.3184C247.071 36.9453 247.071 38.5667 247.071 40.1825C249.312 40.3706 251.553 40.5615 253.795 40.7552C256.03 40.9544 258.268 41.1509 260.51 41.3445C260.51 43.5691 260.51 45.7825 260.51 47.9849C258.706 47.7968 256.904 47.6114 255.106 47.4288C253.308 47.2406 251.506 47.0553 249.702 46.8726C247.904 46.69 246.106 46.5074 244.307 46.3248C242.503 46.1477 240.702 45.9707 238.904 45.7936ZM264.427 48.3916C264.427 46.4438 264.427 44.4932 264.427 42.5398C264.427 40.5754 264.427 38.6082 264.427 36.6382C264.427 34.6571 264.427 32.6733 264.427 30.6868C264.427 28.6891 264.427 26.6915 264.427 24.6938C264.427 22.6907 264.427 20.6847 264.427 18.676C264.427 16.6673 264.427 14.6586 264.427 12.6499C264.427 10.6356 264.427 8.62417 264.427 6.61546C264.427 4.60675 264.427 2.60357 264.427 0.605933C267.15 0.633601 269.872 0.658502 272.595 0.680637C272.595 2.70595 272.595 4.73402 272.595 6.76487C272.595 8.80124 272.595 10.8404 272.595 12.8823C272.595 14.9242 272.595 16.9634 272.595 18.9997C272.595 21.0416 272.595 23.0808 272.595 25.1172C272.595 27.1535 272.595 29.1871 272.595 31.218C272.595 33.2378 272.595 35.2575 272.595 37.2773C272.595 39.286 272.595 41.2892 272.595 43.2868C272.595 45.279 272.595 47.2628 272.595 49.2383C269.872 48.9561 267.15 48.6738 264.427 48.3916ZM276.488 49.645C277.274 47.6861 278.06 45.7133 278.845 43.7268C279.631 41.7181 280.417 39.7011 281.203 37.6757C281.988 35.6283 282.774 33.5726 283.56 31.5085C284.346 29.4279 285.132 27.3417 285.917 25.25C285.17 23.1749 284.423 21.0997 283.676 19.0246C282.924 16.9661 282.174 14.9104 281.427 12.8574C280.68 10.8155 279.933 8.77911 279.186 6.74827C278.433 4.73402 277.683 2.72531 276.936 0.722139C278.369 0.73874 279.803 0.752574 281.236 0.763641C282.669 0.780242 284.105 0.794076 285.544 0.805144C286.003 2.13875 286.46 3.48065 286.913 4.83086C287.373 6.18107 287.832 7.53681 288.291 8.89808C288.75 10.2594 289.207 11.6262 289.661 12.9985C290.12 14.3708 290.579 15.746 291.039 17.1238C291.088 17.1238 291.138 17.1266 291.188 17.1321C291.658 15.7819 292.129 14.4345 292.599 13.0898C293.069 11.7341 293.54 10.3811 294.01 9.03089C294.481 7.68068 294.951 6.32771 295.421 4.97197C295.892 3.62176 296.362 2.27156 296.832 0.92135C299.405 0.954552 301.981 0.99052 304.56 1.02926C303.807 3.0933 303.058 5.16011 302.311 7.22969C301.558 9.29927 300.808 11.3688 300.061 13.4384C299.314 15.4969 298.564 17.5555 297.812 19.614C297.065 21.6614 296.318 23.7061 295.571 25.748C296.356 27.9725 297.142 30.197 297.928 32.4216C298.714 34.6516 299.5 36.8844 300.285 39.12C301.071 41.3611 301.857 43.6023 302.643 45.8434C303.428 48.0845 304.214 50.3256 305 52.5667C303.561 52.4339 302.125 52.2956 300.692 52.1517C299.253 52.0079 297.817 51.864 296.384 51.7201C295.886 50.226 295.391 48.7292 294.898 47.2296C294.406 45.7299 293.911 44.2276 293.413 42.7224C292.92 41.2228 292.428 39.7204 291.935 38.2153C291.437 36.7157 290.942 35.216 290.449 33.7164C290.4 33.7109 290.35 33.7081 290.3 33.7081C289.791 35.1358 289.282 36.5579 288.773 37.9746C288.264 39.3912 287.757 40.7995 287.254 42.1995C286.745 43.594 286.235 44.9801 285.726 46.358C285.217 47.7304 284.711 49.0944 284.207 50.4501C281.634 50.1845 279.061 49.9161 276.488 49.645Z" fill="#F10A14"/>
</svg>
