<svg width="190" height="16" viewBox="0 0 190 16" fill="none" xmlns="http://www.w3.org/2000/svg">
<path d="M10.7536 4.02968C10.8611 3.07472 10.6712 2.39618 10.1274 1.77737C9.47711 1.03641 8.30314 0.718977 6.80053 0.718977H2.43842C2.28966 0.719047 2.14593 0.772046 2.03336 0.868464C1.91979 0.964883 1.84542 1.09841 1.8223 1.24505L0.00509229 12.7643C-0.00395356 12.8177 -0.000950913 12.8725 0.0141255 12.9247C0.0292019 12.9768 0.0543416 13.0251 0.0895199 13.0663C0.124698 13.1075 0.168913 13.1406 0.218163 13.1633C0.267412 13.1859 0.320688 13.1977 0.374963 13.1977H2.83241L2.6525 14.339C2.63943 14.4189 2.64447 14.5006 2.66658 14.5784C2.68869 14.6563 2.72688 14.7284 2.77915 14.7899C2.83242 14.8515 2.89774 14.9009 2.97112 14.9348C3.04449 14.9686 3.12389 14.9862 3.2053 14.9862H5.4748C5.85775 14.9862 6.18241 14.7098 6.24372 14.3345L6.26582 14.2185L6.694 11.5053L6.72113 11.3591L6.72214 11.3528C6.7332 11.2788 6.77038 11.2115 6.82767 11.1629C6.88496 11.1143 6.95733 11.0878 7.03171 11.088H7.37042C8.49914 11.088 9.53338 10.8597 10.3535 10.2766C10.6913 10.0358 10.9878 9.73894 11.239 9.38052C11.6551 8.80119 11.9245 8.12958 12.023 7.4233C12.2391 6.31231 12.1396 5.32257 11.5154 4.61104C11.3225 4.39634 11.0933 4.21812 10.838 4.08496L10.7536 4.02968ZM4.05161 8.58334C4.13905 8.53718 4.23754 8.51302 4.33705 8.5129H5.61754C8.13229 8.5129 10.1003 7.49285 10.6752 4.5397L10.6782 4.52544C10.8712 4.636 11.035 4.76618 11.1667 4.91598C11.6531 5.47148 11.7717 6.28467 11.5677 7.33235C11.3255 8.57799 10.7958 9.38937 10.0852 9.89493C9.36955 10.4032 8.44286 10.6216 7.37143 10.6216H7.03271C6.84777 10.6214 6.66887 10.6871 6.52715 10.8072C6.38644 10.9271 6.29296 11.0933 6.26381 11.2761L6.23668 11.4224L5.8085 14.1356L5.78739 14.2516L5.7864 14.2551C5.77434 14.3288 5.73714 14.3959 5.67985 14.4443C5.62256 14.4926 5.5512 14.5192 5.47582 14.5191H3.20632C3.19225 14.5191 3.17817 14.5162 3.1661 14.5104C3.15404 14.5047 3.14299 14.4964 3.13394 14.4859C3.1249 14.4754 3.11787 14.4632 3.11485 14.45C3.11083 14.4368 3.10982 14.4229 3.11183 14.4094L3.29778 13.2324L4.05161 8.58334Z" fill="#45495B"/>
<path fill-rule="evenodd" clip-rule="evenodd" d="M28.9702 1.75057H31.8709H52.1728C51.6984 4.09332 51.233 6.38392 50.7697 8.66548C50.6712 9.14843 50.5727 9.63088 50.4752 10.1134C50.4531 10.222 50.4309 10.331 50.4088 10.4402C50.2862 11.0436 50.1636 11.651 50.036 12.1971C49.7123 13.5851 48.5142 13.9547 46.7684 13.9547H24.1879C24.4583 12.6603 24.7196 11.3377 24.9829 10.007C25.3036 8.38407 25.6262 6.749 25.971 5.13828C26.0132 4.93859 26.0524 4.73482 26.0906 4.53064C26.1629 4.14523 26.2353 3.75836 26.3388 3.39479C26.6414 2.3284 27.6887 1.8113 28.9702 1.75057ZM42.4173 8.70312C42.3279 9.4373 43.2063 9.35006 43.5199 9.0429C43.7511 8.81595 43.8154 8.41103 43.8677 8.08259C43.8697 8.07225 43.8717 8.06199 43.8727 8.0518C43.1551 7.96375 42.4927 8.09331 42.4173 8.70312ZM42.4585 6.97836C42.4847 6.87592 42.5108 6.77349 42.5309 6.66431C42.6596 6.66057 42.8073 6.64869 42.9621 6.63613C43.6717 6.57873 44.5431 6.50816 44.5793 7.1457C44.5934 7.38182 44.5381 7.63795 44.4808 7.90144C44.4557 8.01659 44.4305 8.13314 44.4104 8.25004C44.4074 8.26864 44.4034 8.28718 44.4004 8.30564C44.327 8.73512 44.2597 9.12823 44.2546 9.60927H43.732C43.724 9.43579 43.7481 9.29528 43.7742 9.15617C43.5239 9.55791 42.8003 9.85029 42.2053 9.5951C41.8967 9.46253 41.7359 8.98752 41.8806 8.50488C42.0967 7.78431 42.9199 7.6162 43.93 7.71202L43.931 7.70877C43.9752 7.58456 44.0355 7.41691 44.0004 7.25895C43.8928 6.77947 42.7762 7.05563 42.4173 7.14565C42.4304 7.08918 42.4445 7.03376 42.4585 6.97836ZM47.1513 8.61819C47.1614 9.03878 47.3644 9.29236 47.7735 9.28352C48.5162 9.26764 48.6379 8.4622 48.7514 7.71558C48.7836 7.49973 48.8158 7.2888 48.862 7.10327C48.6379 7.02682 48.4178 6.9558 48.1122 6.98996C47.4579 7.06334 47.1352 7.88167 47.1513 8.61819ZM48.9183 6.70675C49.0087 6.28756 49.0781 5.84757 49.1304 5.39011L49.7374 5.39006C49.6701 5.77358 49.5967 6.15063 49.5233 6.52768C49.3294 7.51599 49.1364 8.5043 49.059 9.60927H48.5082C48.5102 9.49077 48.5283 9.38775 48.5464 9.28472C48.5524 9.24683 48.5595 9.20894 48.5645 9.17024C48.5575 9.14562 48.5273 9.19427 48.4961 9.24432C48.4811 9.26965 48.465 9.29528 48.4519 9.31196C48.3997 9.3776 48.3193 9.47227 48.2398 9.52424C47.8318 9.793 47.0237 9.71661 46.7423 9.39679C46.5784 9.21135 46.5332 8.95123 46.5302 8.68893C46.5131 7.33281 47.4277 6.23412 48.9183 6.70675ZM32.3845 8.81635C32.4468 9.39679 33.2458 9.40202 33.5715 9.05707C33.8408 8.7714 34.064 8.06522 33.9806 7.49967C33.8851 6.84824 32.9443 6.8955 32.6247 7.28726C32.5975 7.42231 32.5744 7.56468 32.5513 7.7122C32.5342 7.81829 32.5171 7.92704 32.497 8.03768C32.484 8.11161 32.4669 8.18582 32.4498 8.25996C32.4076 8.44786 32.3644 8.63526 32.3845 8.81635ZM32.6388 6.92163C32.9101 6.70182 33.5373 6.47079 34.0519 6.66431C35.1103 7.06263 34.5012 9.09687 33.7122 9.52424C33.3303 9.73149 32.4237 9.83381 32.285 9.29779C32.2015 9.64606 32.1483 10.0245 32.094 10.4028C32.0699 10.5782 32.0447 10.7536 32.0166 10.9259H31.4085C31.6819 9.52846 31.9402 8.11669 32.1583 6.66431H32.681C32.679 6.71156 32.6689 6.75163 32.6599 6.79172C32.6498 6.83182 32.6408 6.87192 32.6388 6.91921V6.92163ZM32.6247 6.93335C32.6287 6.92941 32.6337 6.92551 32.6388 6.92163C32.6398 6.93126 32.6327 6.93258 32.6247 6.93335ZM35.5073 7.68371H36.9345C37.0642 7.13683 36.7506 6.95903 36.3124 6.97584C35.848 6.99363 35.5525 7.35499 35.5073 7.68371ZM35.2812 7.04659C35.5445 6.76814 35.9164 6.64159 36.3556 6.60769C36.8561 6.56909 37.3486 6.67308 37.4853 7.07495C37.5637 7.30346 37.5165 7.54982 37.4702 7.78885C37.4542 7.86818 37.4391 7.9467 37.429 8.02349C36.7727 8.00663 36.0923 8.00263 35.4369 8.02349C35.3344 8.45828 35.3364 8.95867 35.649 9.15617C36.0621 9.4178 36.7586 9.20763 37.1607 9.05707C37.1506 9.11778 37.1386 9.17638 37.1265 9.23497C37.1064 9.33287 37.0863 9.43076 37.0763 9.53841C36.1003 9.77622 34.8821 9.81139 34.7726 8.83052C34.6952 8.14304 34.9575 7.38807 35.2812 7.04659ZM30.9995 6.70675C30.9985 6.68677 30.9964 6.66672 31.0135 6.66431H31.6206C31.4115 7.61061 31.2437 8.59924 31.0979 9.60927H30.4909C30.6838 8.66588 30.8658 7.71 30.9995 6.70675ZM45.71 7.13152C45.8849 6.86085 46.3322 6.40946 46.8689 6.67844C46.8458 6.75548 46.8307 6.84205 46.8166 6.92861C46.8066 6.98785 46.7975 7.04708 46.7845 7.10327C45.8326 6.83374 45.6427 7.73004 45.512 8.54738C45.4959 8.64876 45.4789 8.74354 45.4628 8.83535C45.4165 9.09024 45.3743 9.32232 45.3713 9.60927H44.7491C44.9532 8.6569 45.1271 7.67556 45.2718 6.66431H45.8095C45.7864 6.73288 45.7743 6.81152 45.7623 6.89014C45.7492 6.97484 45.7362 7.0595 45.71 7.13152ZM39.987 8.34915C39.9729 8.53106 39.987 8.77053 40.0433 8.91545C40.2363 9.41438 41.0655 9.29699 41.4987 9.07124C41.4856 9.13507 41.4746 9.2013 41.4635 9.26744C41.4484 9.35488 41.4344 9.44222 41.4142 9.52424C40.6202 9.79893 39.6402 9.75993 39.4221 9.0429C39.2352 8.43008 39.4995 7.45618 39.9026 7.03241C40.3137 6.59958 41.0906 6.5163 41.9087 6.65018C41.9007 6.71579 41.8896 6.77938 41.8786 6.84299C41.8635 6.937 41.8474 7.03102 41.8384 7.13152C41.3389 6.95678 40.7137 6.9053 40.3971 7.21651C40.1669 7.44195 40.0182 7.93999 39.987 8.34915ZM38.5457 7.15988C38.7417 6.81473 39.1658 6.44632 39.7046 6.66431C39.6975 6.73155 39.6845 6.79305 39.6714 6.85457C39.6543 6.93343 39.6382 7.0123 39.6332 7.10327C39.0633 6.89928 38.6683 7.27318 38.5176 7.71202C38.3819 8.10437 38.3246 8.61142 38.2723 9.07838C38.2512 9.26502 38.2311 9.44534 38.206 9.60927H37.5989C37.623 9.48102 37.6471 9.35287 37.6723 9.22482C37.8331 8.38696 37.9939 7.5491 38.1075 6.66431H38.6442C38.6301 6.7296 38.6181 6.79776 38.607 6.8659C38.5889 6.96704 38.5718 7.06815 38.5457 7.15988ZM29.6285 7.1457C29.726 6.59269 29.8245 6.03934 29.9109 5.47504L30.6175 5.4751C30.3401 6.82016 30.1049 8.20875 29.8828 9.60937H29.1903C29.2526 9.21437 29.325 8.82992 29.3973 8.44556C29.4526 8.15539 29.5079 7.86522 29.5581 7.57053C29.0425 7.52141 28.4123 7.53778 27.8585 7.55215C27.8022 7.55361 27.747 7.55505 27.6927 7.55639C27.5701 8.11912 27.4786 8.71223 27.3861 9.30543C27.3711 9.40674 27.355 9.50816 27.3389 9.60937H26.6464C26.8353 8.6689 26.9992 7.70412 27.164 6.73928C27.2354 6.31718 27.3077 5.89507 27.3811 5.47499H28.0596C28.0033 5.7426 27.955 6.01794 27.9068 6.29327C27.8565 6.57547 27.8073 6.85764 27.749 7.13146C28.2324 7.16763 28.739 7.15941 29.2435 7.15122C29.3722 7.14914 29.5009 7.14705 29.6285 7.1457ZM31.7342 5.47504C31.9121 5.63358 31.7563 6.01443 31.6347 6.09799C31.5583 6.15111 31.299 6.21227 31.1824 6.09799C31.0638 5.98064 31.1341 5.66473 31.2115 5.55997C31.2588 5.49481 31.3291 5.45325 31.4517 5.43261C31.5834 5.41026 31.6779 5.42483 31.7342 5.47504Z" fill="#45495B"/>
<path d="M85.3208 15.3829H65.7406C65.3405 15.3829 64.9576 15.2242 64.6752 14.9418C64.3927 14.6593 64.2339 14.2762 64.2339 13.8768V7.54077H65.3194L65.5637 6.94834H66.1114L66.3557 7.53826H68.4905V7.08955L68.6815 7.5414H69.7901L69.9811 7.08201V7.54014H75.2859V6.57117H75.3865C75.4578 6.57368 75.4779 6.57996 75.4779 6.6992V7.5414H78.2228V7.3161C78.5033 7.45856 78.8339 7.54202 79.1847 7.54202L79.244 7.5414H79.241H80.3958L80.6431 6.95148H81.1909L81.4331 7.5414H83.6584V6.98035L83.9941 7.5414H85.7741V3.83622H84.0122V4.27363L83.7659 3.83622H81.9548V4.27363L81.7286 3.83622H79.2822C78.9123 3.81749 78.5425 3.89375 78.2098 4.05775L78.2228 4.0521V3.83622H76.5363V4.0521C76.3323 3.89116 76.0739 3.81418 75.8156 3.83684H75.8186H69.6544L69.2413 4.79389L68.8162 3.83684H66.8743V4.27426L66.6602 3.83684H65.0038L64.2359 5.59404V1.82861C64.2359 1.42915 64.3947 1.04604 64.6772 0.763581C64.9596 0.48112 65.3425 0.322435 65.7426 0.322435H85.3228C85.7219 0.322435 86.1048 0.48112 86.3872 0.763581C86.6697 1.04604 86.8285 1.42915 86.8285 1.82861V8.40555H85.6535C85.6344 8.40434 85.6113 8.40434 85.5902 8.40434C85.3178 8.40434 85.0645 8.48586 84.8535 8.62587L84.8585 8.62275V8.40555H83.1207C82.8483 8.39057 82.5799 8.46777 82.3578 8.62456L82.3618 8.62205V8.40495H79.2571V8.62205C79.0038 8.47882 78.7163 8.40394 78.4249 8.40495H78.4007H78.4017H76.3534V8.62205C76.086 8.45068 75.7684 8.37443 75.4528 8.40555L75.4578 8.40495H73.1672L72.6426 8.97222L72.1521 8.40495H68.7287V12.1126H72.0877L72.6275 11.5365L73.1371 12.1126H75.2076V11.2447H75.496C75.7734 11.2556 76.0508 11.2092 76.3091 11.1086L76.2951 11.1136V12.1138H78.0027V11.1481H78.0851C78.1887 11.1481 78.1997 11.1518 78.1997 11.2572V12.1146H83.387L83.4503 12.1158C83.7478 12.1158 84.0253 12.0266 84.2564 11.8741L84.2504 11.8772V12.1146H85.8957L85.9741 12.1158C86.2827 12.1158 86.5762 12.0523 86.8415 11.9376L86.8275 11.9432V13.8774C86.8275 14.2768 86.6687 14.66 86.3862 14.9424C86.1038 15.2248 85.7209 15.3829 85.3208 15.3829ZM77.4791 11.593H76.8398V8.93523H78.3063C78.5706 8.91071 78.838 8.95524 79.0802 9.06449L79.0701 9.06077C79.2661 9.16872 79.3978 9.37456 79.3978 9.61046L79.3958 9.65257V9.65066L79.3968 9.67448C79.3968 9.97953 79.2129 10.2419 78.9495 10.356L78.9445 10.3579C79.0701 10.4031 79.1757 10.4803 79.2541 10.5801L79.2561 10.5814C79.3445 10.728 79.3817 10.9001 79.3616 11.0703V11.0664V11.5924H78.7244V11.2597C78.7545 11.0787 78.7183 10.8928 78.6219 10.7364L78.6239 10.7395C78.5575 10.6892 78.4821 10.6528 78.4007 10.6327C78.3203 10.6125 78.2369 10.6089 78.1545 10.6222L78.1585 10.6215H77.4791V11.593ZM77.4791 9.48432V10.0811H78.251C78.3595 10.0913 78.4701 10.0717 78.5686 10.0247L78.5646 10.0266C78.6048 10.0005 78.6379 9.96475 78.6611 9.92254C78.6842 9.88032 78.6962 9.83309 78.6962 9.78494V9.77057C78.6993 9.72263 78.6882 9.67529 78.6651 9.63307C78.643 9.59086 78.6078 9.55608 78.5656 9.53266L78.5646 9.53206C78.4691 9.48944 78.3646 9.47216 78.261 9.48181H78.263L77.4791 9.48432ZM71.8154 11.5924H69.3006V8.93523H71.8546L72.6365 9.80635L73.4436 8.93523H75.4729C76.1936 8.93523 76.5433 9.22199 76.5433 9.81067C76.5433 10.41 76.1815 10.7012 75.4387 10.7012H74.6447V11.5917H73.4104L72.6285 10.7138L71.8154 11.5924ZM74.0125 9.22018L73.0375 10.2682L74.0125 11.3502V9.22018ZM69.9338 10.5098V11.0382H71.4947L72.2164 10.2587L71.5229 9.48432H69.9328V9.96757H71.3279V10.5092L69.9338 10.5098ZM74.6447 9.48502V10.1616H75.4649C75.7161 10.1616 75.8609 10.0335 75.8609 9.81007C75.8609 9.59669 75.7262 9.48432 75.4719 9.48432L74.6447 9.48502ZM85.9651 11.5936H84.7389V11.0225H85.9601C86.0515 11.0352 86.144 11.0113 86.2184 10.956L86.2174 10.9567C86.2405 10.9348 86.2596 10.9082 86.2726 10.8788C86.2857 10.8493 86.2917 10.8175 86.2917 10.7853V10.7834V10.7753C86.2917 10.7435 86.2847 10.7121 86.2716 10.6833C86.2586 10.6544 86.2395 10.6289 86.2143 10.6083C86.15 10.5614 86.0696 10.5404 85.9902 10.5493L85.8736 10.5456C85.3007 10.5305 84.6514 10.5129 84.6514 9.72665C84.6514 9.34381 84.8906 8.93523 85.561 8.93523H86.8275V9.5013H85.6696C85.5801 9.49125 85.4897 9.50925 85.4113 9.55277L85.4133 9.55156C85.3821 9.57186 85.358 9.60031 85.3409 9.63358C85.3248 9.66694 85.3178 9.70403 85.3208 9.74102V9.74735C85.3208 9.78957 85.3349 9.83077 85.359 9.86505C85.3841 9.89932 85.4193 9.92485 85.4595 9.93812L85.4605 9.93872C85.5399 9.96324 85.6234 9.9735 85.7068 9.96887H85.7048L86.0495 9.97762C86.3088 9.95169 86.5681 10.0291 86.7712 10.1929L86.7692 10.1916C86.7883 10.2067 86.8043 10.223 86.8194 10.2413L86.8275 11.2535C86.7219 11.3768 86.5872 11.4723 86.4365 11.5315C86.2857 11.5907 86.1219 11.6118 85.9611 11.593L85.9651 11.5936ZM83.4865 11.5936H82.2493V11.0225H83.4805C83.573 11.0346 83.6654 11.0108 83.7408 10.956L83.7398 10.9567C83.7629 10.9347 83.782 10.9081 83.7941 10.8787C83.8072 10.8492 83.8142 10.8174 83.8142 10.7853V10.7834V10.7791C83.8142 10.7467 83.8071 10.7149 83.7931 10.6854C83.78 10.656 83.7609 10.6297 83.7368 10.6083C83.6705 10.5614 83.589 10.5404 83.5086 10.5493H83.5096L83.3931 10.5456C82.8212 10.5305 82.1729 10.5129 82.1729 9.72665C82.1729 9.34381 82.4111 8.93523 83.0805 8.93523H84.3539V9.5013H83.189C83.0996 9.49135 83.0101 9.50935 82.9317 9.55277L82.9347 9.55156C82.9016 9.57417 82.8754 9.60533 82.8583 9.64172C82.8423 9.6781 82.8352 9.7183 82.8392 9.75811C82.8443 9.79791 82.8583 9.8358 82.8825 9.86776C82.9066 9.89983 82.9387 9.92475 82.9759 9.93993L82.9769 9.94063C83.0573 9.96536 83.1418 9.97551 83.2262 9.97068H83.2242L83.5669 9.97953C83.8273 9.9544 84.0886 10.0318 84.2936 10.1954L84.2916 10.1935C84.36 10.2695 84.4132 10.3591 84.4454 10.4563C84.4775 10.5537 84.4896 10.6568 84.4806 10.759V10.7559C84.4826 11.31 84.1469 11.5924 83.4845 11.5924L83.4865 11.5936ZM81.8693 11.5936H79.7476V8.93463H81.8673V9.48371H80.3818V9.96696H81.8321V10.5085H80.3818V11.037L81.8693 11.0395V11.5917V11.5936ZM83.1056 7.02114H81.812L81.5648 6.42871H80.2451L80.0059 7.02114H79.2621C78.9284 7.03873 78.6008 6.93359 78.3384 6.72555L78.3424 6.72743C78.2178 6.59032 78.1233 6.42882 78.065 6.25324C78.0067 6.07765 77.9856 5.89184 78.0027 5.70763V5.71265C77.9866 5.52506 78.0088 5.33614 78.0671 5.15737C78.1264 4.97861 78.2218 4.81373 78.3465 4.67277L78.3455 4.67402C78.4771 4.55879 78.6309 4.47191 78.7978 4.41879C78.9646 4.36567 79.1405 4.34745 79.3144 4.36526L79.3093 4.36463H79.9245V4.93133H79.3224C79.234 4.91997 79.1445 4.9282 79.0601 4.95543C78.9757 4.98266 78.8973 5.02821 78.8329 5.08885C78.6993 5.26068 78.6339 5.47582 78.651 5.6932V5.69006C78.6309 5.9134 78.6932 6.13629 78.8269 6.31638L78.8249 6.31387C78.9495 6.41582 79.1093 6.46493 79.2701 6.45068H79.2671H79.5526L80.4501 4.36087H81.405L82.4794 6.87115V4.36087H83.4463L84.562 6.21095V4.36087H85.2153V7.01675H84.3087L83.1036 5.02232V7.01675L83.1056 7.02114ZM80.9095 4.81334L80.4722 5.87268H81.3487L80.9095 4.81334ZM74.7593 7.01989H74.1251V4.36275H75.5855C75.8528 4.33508 76.1212 4.38041 76.3644 4.49391L76.3554 4.49014C76.4529 4.54416 76.5343 4.62334 76.5906 4.71946C76.6479 4.81558 76.678 4.92515 76.678 5.03675L76.676 5.08069V5.07881V5.09826C76.676 5.2432 76.6348 5.38508 76.5564 5.50686C76.477 5.62864 76.3654 5.72515 76.2338 5.78482L76.2287 5.7867C76.3544 5.83441 76.4609 5.91096 76.5413 6.00887L76.5423 6.01012C76.6318 6.15733 76.669 6.33057 76.6479 6.50151V6.49775V7.01926H76.0076L76.0046 6.68413V6.63393C76.0277 6.47007 75.9915 6.30344 75.9021 6.16388L75.9041 6.16701C75.8377 6.11818 75.7624 6.08301 75.682 6.06351C75.6026 6.04401 75.5191 6.04058 75.4377 6.05343L75.4417 6.05279H74.7603V7.01926L74.7593 7.01989ZM74.7593 4.91564V5.50555H75.5302C75.6398 5.51737 75.7493 5.49777 75.8478 5.44907L75.8438 5.45033C75.884 5.42589 75.9171 5.39152 75.9403 5.35052C75.9634 5.30954 75.9765 5.26329 75.9765 5.21624L75.9754 5.19867C75.9785 5.15099 75.9674 5.10403 75.9443 5.06244C75.9202 5.02084 75.885 4.98704 75.8428 4.96521L75.8418 4.96459C75.7463 4.92361 75.6418 4.90638 75.5382 4.91438H75.5402L74.7593 4.91564ZM68.0352 7.01989H66.7446L66.5004 6.42745H65.1777L64.9315 7.01989H64.241L65.3787 4.36275H66.3225L67.402 6.87742V4.36275H68.4382L69.2695 6.1645L70.0333 4.36275H71.0907V7.01863H70.4374L70.4364 4.94011L69.5157 7.01926H68.9589L68.0352 4.93698V7.01989ZM65.8361 4.81334L65.4029 5.87268H66.2702L65.8361 4.81334ZM77.6891 7.01926H77.0419V4.36275H77.6901V7.01863L77.6891 7.01926ZM73.6818 7.01926H71.5641V4.36275H73.6858V4.91501H72.1993V5.39384H73.6497V5.93921H72.1983V6.47013H73.6838V7.01863L73.6818 7.01926Z" fill="#45495B"/>
<path opacity="0.5" d="M111.495 14.2357C110.233 14.2359 108.999 13.8618 107.949 13.1606C106.899 12.4594 106.081 11.4627 105.598 10.2966C105.114 9.13037 104.988 7.84715 105.234 6.60904C105.48 5.37094 106.088 4.23361 106.981 3.34088C107.873 2.44815 109.01 1.84011 110.248 1.59366C111.487 1.34721 112.769 1.47341 113.936 1.95631C115.102 2.4392 116.099 3.25711 116.801 4.30659C117.502 5.35607 117.876 6.58999 117.877 7.85231C117.875 9.54433 117.202 11.1675 116.006 12.3641C114.809 13.5605 113.187 14.2336 111.495 14.2357Z" fill="#45495B"/>
<path d="M105.285 14.2347C104.023 14.2347 102.789 13.8604 101.739 13.1591C100.69 12.4578 99.8718 11.461 99.3883 10.2947C98.9049 9.12853 98.7792 7.8452 99.0255 6.60713C99.2717 5.36906 99.8798 4.23182 100.772 3.33923C101.665 2.44663 102.802 1.83876 104.04 1.59249C105.278 1.34622 106.562 1.47262 107.728 1.95569C108.893 2.43876 109.891 3.25681 110.592 4.3064C111.293 5.35598 111.668 6.58995 111.668 7.85228C111.666 9.54444 110.993 11.1669 109.796 12.3634C108.6 13.5599 106.977 14.2329 105.285 14.2347Z" fill="#45495B"/>
<path fill-rule="evenodd" clip-rule="evenodd" d="M138.137 9.03887L140.501 11.4032C141.059 11.9609 141.655 12.1022 142.37 12.1022L139.448 15.0164C139.006 15.4577 138.408 15.7056 137.783 15.7056C137.159 15.7056 136.56 15.4577 136.118 15.0164L133.204 12.1102C134.579 12.1102 135.001 11.6875 135.268 11.4199L135.277 11.411L137.65 9.03887C137.736 8.95246 137.838 8.93676 137.893 8.93676C137.948 8.93676 138.05 8.95246 138.137 9.03887ZM137.65 6.66671L135.277 4.29453C135.272 4.28936 135.267 4.28409 135.262 4.27873C135.015 4.03189 134.58 3.59545 133.227 3.59545L136.141 0.689156C136.583 0.24787 137.182 0 137.807 0C138.431 0 139.03 0.24787 139.472 0.689156L142.394 3.60331C141.679 3.60331 141.043 3.73684 140.485 4.3181L138.137 6.66671C138.074 6.72955 137.979 6.76881 137.893 6.76881C137.807 6.76881 137.712 6.72955 137.65 6.66671ZM143.179 4.38846L144.947 6.16366C145.394 6.6093 145.647 7.21388 145.65 7.84528C145.653 8.47669 145.405 9.08362 144.962 9.5334L143.195 11.3086H142.205C141.773 11.3086 141.365 11.1358 141.066 10.8373L138.702 8.473C138.482 8.25305 138.192 8.14308 137.901 8.14308C137.61 8.14308 137.32 8.25305 137.1 8.473L134.727 10.8452C134.421 11.1437 134.013 11.3164 133.589 11.3164H132.426L130.627 9.50988C130.186 9.06799 129.938 8.46907 129.938 7.8446C129.938 7.22014 130.186 6.62121 130.627 6.17937L132.426 4.37275H133.581C134.013 4.37275 134.421 4.54556 134.72 4.84405L137.092 7.22407C137.307 7.43181 137.594 7.54976 137.893 7.55397C138.184 7.55397 138.474 7.444 138.694 7.22407L141.051 4.86761C141.341 4.56127 141.765 4.38846 142.19 4.38846H143.179Z" fill="#45495B"/>
<path d="M187.608 12.9219L187.305 11.4084H183.923L183.384 12.9111L180.674 12.9165C181.964 9.8129 183.258 6.71051 184.553 3.60923C184.775 3.08319 185.167 2.81545 185.743 2.81815C186.185 2.82219 186.904 2.82219 187.903 2.81949L190 12.9178L187.608 12.9219ZM184.684 9.33518H186.864L186.05 5.54118L184.684 9.33518ZM167.209 2.8168L169.935 2.81949L165.721 12.9233L162.962 12.9206C162.268 10.2517 161.583 7.58074 160.906 4.90751C160.772 4.37475 160.505 4.00208 159.993 3.82583C159.236 3.57213 158.475 3.32904 157.711 3.09664V2.82084H162.066C162.819 2.82084 163.259 3.18544 163.401 3.93346C163.543 4.68284 163.901 6.59057 164.477 9.65671L167.209 2.8168ZM173.681 2.81949L171.525 12.9206L168.931 12.9178L171.084 2.8168L173.681 2.81949ZM178.941 2.63249C179.717 2.63249 180.695 2.87465 181.258 3.09664L180.803 5.19139C180.294 4.98689 179.458 4.71109 178.754 4.72051C177.732 4.738 177.099 5.16717 177.099 5.57885C177.099 6.24885 178.197 6.58654 179.327 7.31842C180.617 8.15256 180.787 8.90189 180.77 9.71591C180.753 11.4057 179.327 13.0726 176.319 13.0726C174.947 13.0524 174.452 12.9367 173.332 12.5398L173.806 10.3535C174.945 10.8312 175.428 10.9832 176.402 10.9832C177.294 10.9832 178.06 10.6227 178.067 9.99432C178.072 9.54766 177.797 9.32573 176.797 8.77414C175.796 8.22117 174.391 7.45565 174.41 5.91924C174.433 3.9523 176.296 2.63249 178.942 2.63249H178.941Z" fill="#45495B"/>
</svg>
