<svg width="630" height="61" viewBox="0 0 630 61" fill="none" xmlns="http://www.w3.org/2000/svg">
<path d="M102.75 38.2283L99.8023 33.9707L92.3784 44.4514H98.383L102.75 38.2283Z" fill="#1E1C2D"/>
<path d="M104.934 38.2283L107.881 33.9707L115.633 44.4514H109.519L104.934 38.2283Z" fill="#1E1C2D"/>
<path d="M79.824 25.4551V20.433H98.2746L103.842 28.5118L114.432 13.6641L110.83 11.0439L121.856 5.69434V18.3586L118.581 16.1752L103.842 36.5909L95.7635 25.4551H79.824Z" fill="#1E1C2D"/>
<path d="M77.8591 20.4328V29.6035H87.2474V34.5165H77.8591V39.5385H88.9942V44.6697H73.1641V20.4328H77.8591Z" fill="#1E1C2D"/>
<path d="M19.6684 29.6581H10.7158V25.2912H21.8516V20.4874H5.69421V44.7243H10.7158V34.2435H19.6684V29.6581Z" fill="#1E1C2D"/>
<path fill-rule="evenodd" clip-rule="evenodd" d="M36.4811 40.8624C41.041 40.8624 44.7376 37.1659 44.7376 32.6059C44.7376 28.046 41.041 24.3495 36.4811 24.3495C31.9212 24.3495 28.2246 28.046 28.2246 32.6059C28.2246 37.1659 31.9212 40.8624 36.4811 40.8624ZM36.4811 45.3795C43.5357 45.3795 49.2547 39.6606 49.2547 32.6059C49.2547 25.5513 43.5357 19.8324 36.4811 19.8324C29.4264 19.8324 23.7075 25.5513 23.7075 32.6059C23.7075 39.6606 29.4264 45.3795 36.4811 45.3795Z" fill="#1E1C2D"/>
<path fill-rule="evenodd" clip-rule="evenodd" d="M52.0255 20.4874V44.7244H57.0346V34.6802H60.7835L65.3688 44.7244H70.3908L65.3688 34.0252C66.7517 33.5157 69.5174 31.536 69.5174 27.693C69.5174 22.8893 65.3688 20.4874 63.8404 20.4874H52.0255ZM56.8161 25.0183V30.2586H62.9676C63.9502 30.2586 65.1511 29.2979 65.1511 27.6384C65.1511 25.979 63.9502 25.0911 62.9676 25.0183H56.8161Z" fill="#1E1C2D"/>
<path fill-rule="evenodd" clip-rule="evenodd" d="M194.122 15.1696C192.923 15.3712 191.911 15.5738 191.873 15.6199C191.834 15.6658 191.599 16.5605 191.351 17.6079C191.104 18.6554 189.654 24.742 188.131 31.1335C186.607 37.5253 185.405 42.8715 185.46 43.0144C185.699 43.6342 190.119 44.5868 192.759 44.5874C198.734 44.5885 203.738 40.721 205.203 34.9681C205.911 32.1918 205.466 28.3202 204.238 26.5677C202.624 24.2648 199.591 23.1829 196.83 23.9252C196.189 24.0977 195.626 24.2005 195.579 24.1535C195.512 24.0869 196.525 19.6264 197.607 15.2274C197.712 14.8016 197.649 14.754 197.012 14.7773C196.62 14.7914 195.32 14.9681 194.122 15.1696ZM214.175 15.1719C211.654 15.9303 210.503 19.1264 212.157 20.7765C213.781 22.3974 217.042 21.6667 217.959 19.4762C218.357 18.5261 218.328 16.8626 217.902 16.2566C217.494 15.6747 216.032 14.9664 215.28 14.9857C214.988 14.9931 214.491 15.0769 214.175 15.1719ZM276.461 15.2686C275.994 15.4373 275.267 15.9595 274.845 16.4295C273.259 18.193 273.527 20.4058 275.436 21.3282C276.605 21.8929 277.968 21.7738 279.132 21.0052C280.496 20.1047 281.191 17.9376 280.56 16.5545C280.012 15.3552 277.984 14.7187 276.461 15.2686ZM223.785 18.7436C222.339 18.9709 221.519 19.1988 221.4 19.407C221.299 19.5814 220.342 23.39 219.272 27.8708C217.428 35.5948 217.326 36.1439 217.311 38.4511C217.296 40.5966 217.351 40.9914 217.777 41.7866C218.787 43.6729 220.78 44.4969 224.187 44.4366C225.868 44.4067 229.114 43.8176 229.363 43.497C229.394 43.4568 229.327 42.4864 229.214 41.3408L229.007 39.2577L228.346 39.3868C226.695 39.7093 224.599 39.7673 223.971 39.5076C222.586 38.9354 222.561 37.7115 223.825 32.5261L224.728 28.823L231.052 28.6114L231.427 27.1302C231.633 26.3155 231.862 25.292 231.936 24.8554L232.07 24.0619H225.875L225.987 23.5858C226.049 23.324 226.337 22.138 226.627 20.9502C226.918 19.7625 227.155 18.6913 227.155 18.5697C227.155 18.2844 226.488 18.3189 223.785 18.7436ZM240.94 23.8695C239.54 24.1406 237.109 25.4062 235.891 26.4987C232.12 29.8821 230.78 36.17 232.904 40.5233C234.48 43.7567 238.786 45.2965 243.392 44.274C246.047 43.6847 246.073 43.6642 245.924 42.2742C245.639 39.598 245.559 39.0861 245.426 39.0882C245.35 39.0895 244.819 39.2323 244.246 39.4056C242.661 39.8853 240.433 39.8204 239.443 39.2653C237.565 38.2118 237.172 34.2281 238.664 31.3513C239.15 30.4145 240.738 29.0291 241.7 28.7041C242.809 28.3291 245.278 28.3793 246.427 28.8004C246.937 28.9874 247.376 29.1404 247.401 29.1404C247.425 29.1404 247.863 28.1776 248.372 27.0009C249.252 24.969 249.279 24.847 248.911 24.5786C247.842 23.7984 243.366 23.4004 240.94 23.8695ZM257.006 24.0384C252.559 25.4983 249.335 30.0992 249.055 35.3872C248.99 36.6122 249.042 37.9733 249.179 38.6098C249.958 42.2314 252.311 44.2368 256.124 44.5286C262.385 45.0081 267.477 39.9435 268.021 32.695C268.319 28.7274 266.8 25.664 263.861 24.3057C262.254 23.5629 258.858 23.4305 257.006 24.0384ZM287.625 23.8543C286.136 24.0606 283.182 24.8833 283.026 25.1347C282.927 25.2934 278.476 43.5802 278.476 43.8252C278.476 43.8955 279.749 43.9528 281.306 43.9528H284.136L284.481 42.4187C284.971 40.2402 287.353 30.2486 287.609 29.2991L287.823 28.5056H289.499C290.967 28.5056 291.25 28.5693 291.771 29.0173C292.321 29.4904 292.364 29.6381 292.34 30.9746C292.323 31.9474 291.888 34.1851 291.01 37.8163C290.292 40.784 289.653 43.3787 289.59 43.5825C289.484 43.9226 289.709 43.9528 292.348 43.9528C295.152 43.9528 295.224 43.9414 295.333 43.4767C295.396 43.2147 296.024 40.62 296.73 37.7105C298.214 31.5917 298.446 29.5903 297.877 27.787C297.355 26.1308 296.177 24.847 294.639 24.2574C293.254 23.7267 289.924 23.5354 287.625 23.8543ZM210.744 24.4322C210.549 25.0799 206.161 43.6215 206.161 43.7969C206.161 43.8893 207.423 43.9384 208.966 43.9061L211.771 43.847L212.013 42.789C212.146 42.2071 213.174 37.9051 214.297 33.2289C215.421 28.5528 216.34 24.5774 216.34 24.3943C216.34 24.1093 215.949 24.0619 213.597 24.0619C211.169 24.0619 210.842 24.1044 210.744 24.4322ZM273.272 24.3264C273.217 24.472 272.141 28.9235 270.881 34.219L268.591 43.847L271.336 43.9063C272.845 43.9389 274.118 43.9277 274.165 43.8813C274.255 43.7905 278.9 24.5202 278.9 24.2339C278.9 23.9337 273.387 24.0242 273.272 24.3264ZM258.462 28.5979C255.905 29.5287 254.015 33.9111 254.719 37.2739C255.094 39.0609 255.794 39.7207 257.316 39.7207C260.074 39.7207 262.129 36.8888 262.306 32.8435C262.435 29.899 261.812 28.6884 260.026 28.4131C259.616 28.3499 258.916 28.4326 258.462 28.5979ZM195.083 28.8556C194.455 29.1155 194.248 29.3446 194.089 29.9557C193.918 30.613 193.212 33.5497 192.048 38.4485C191.704 39.8972 191.812 39.9899 193.683 39.8523C195.362 39.729 196.522 39.1913 197.681 37.9999C200.083 35.5294 200.768 30.7294 198.951 29.0875C198.402 28.5911 198.129 28.5073 197.092 28.5166C196.423 28.5225 195.519 28.6751 195.083 28.8556Z" fill="#1E1C2D"/>
<path fill-rule="evenodd" clip-rule="evenodd" d="M164.169 16.2187C163.411 16.3871 161.884 16.9675 160.776 17.5086C157.039 19.3329 154.127 22.9263 152.995 27.1098C152.431 29.1933 152.486 32.6932 153.115 34.7202C154.777 40.0753 158.433 43.6758 163.681 45.1255C165.756 45.6987 168.944 45.7432 170.955 45.227C175.298 44.1125 179.054 41.0802 180.902 37.196C184.751 29.1067 180.66 19.5178 172.121 16.6156C170.03 15.9048 166.398 15.7237 164.169 16.2187ZM166.502 22.2429C166.196 23.6773 166.233 23.6625 164.258 23.1674C163.501 22.9778 162.841 22.8622 162.792 22.9109C162.744 22.9596 162.64 23.394 162.563 23.8765C162.423 24.7502 162.426 24.7542 163.182 24.8958C164.484 25.1395 164.488 25.2185 163.42 29.4683C162.884 31.6045 162.367 33.4313 162.272 33.5278C162.177 33.6245 161.754 33.6086 161.333 33.4924L160.568 33.2817L160.142 34.243C159.907 34.772 159.715 35.2321 159.715 35.2655C159.715 35.2989 160.44 35.4968 161.326 35.7054L162.938 36.0844L162.811 36.7814C162.401 39.0386 162.393 38.8895 162.927 39.0321C163.993 39.3167 164.127 39.2227 164.402 37.9977C164.695 36.6917 164.822 36.5417 165.465 36.7455C165.838 36.8633 165.887 36.9945 165.768 37.5527C165.338 39.5712 165.329 39.5249 166.174 39.803C166.603 39.9443 166.994 40.0205 167.042 39.9722C167.09 39.9242 167.256 39.3317 167.409 38.6558L167.689 37.427L169.625 37.4C171.84 37.3686 172.427 37.0845 173.217 35.661C174.046 34.1654 173.953 32.6539 172.971 31.7027L172.231 30.9851L172.76 30.7445C173.512 30.4026 174.134 29.2749 174.135 28.252C174.136 27.07 173.429 26.0854 172.045 25.3414C171.114 24.8407 170.94 24.6588 171.034 24.2834C171.096 24.0339 171.208 23.4439 171.283 22.9723C171.417 22.1303 171.406 22.1104 170.646 21.8776C169.927 21.6576 169.858 21.6755 169.685 22.1307C169.582 22.4003 169.434 22.9644 169.355 23.384C169.239 24.0013 169.117 24.1473 168.717 24.1473C168.006 24.1473 167.932 23.8822 168.275 22.5711L168.58 21.4047L167.806 21.1901C167.38 21.072 166.973 20.9751 166.902 20.9745C166.83 20.9739 166.65 21.5446 166.502 22.2429ZM167.166 27.1669C167.029 27.7755 166.861 28.4808 166.794 28.7341C166.691 29.1255 166.795 29.2286 167.488 29.4207C169.451 29.9646 170.743 29.5176 170.743 28.2944C170.743 27.3186 169.835 26.6307 167.966 26.1899C167.447 26.0676 167.401 26.1241 167.166 27.1669ZM165.795 32.6644C165.598 33.5081 165.437 34.2654 165.438 34.3473C165.443 34.6108 166.996 34.9369 168.251 34.9379C169.189 34.939 169.568 34.8414 169.895 34.516C170.893 33.5193 169.977 32.0571 167.982 31.4663C166.202 30.9386 166.2 30.9398 165.795 32.6644Z" fill="#1E1C2D"/>
<path fill-rule="evenodd" clip-rule="evenodd" d="M341.067 17.9726L335.712 23.2872L337.719 25.2774L339.726 27.2676L343.137 23.8916L346.548 20.5155L349.901 23.8336C351.745 25.6588 353.359 27.1519 353.488 27.1519C353.806 27.1519 357.267 23.7261 357.267 23.4118C357.267 23.1686 346.787 12.6582 346.544 12.6582C346.477 12.6582 344.012 15.0497 341.067 17.9726ZM431.248 21.0426C431.072 21.332 423.284 39.5045 423.284 39.626C423.284 39.6844 424.227 39.7006 425.38 39.6622L427.476 39.5924L428.256 37.6599L429.036 35.7274L433.066 35.6614L437.096 35.5953L437.93 37.5939L438.763 39.5924L440.889 39.6622C442.059 39.7006 443.016 39.6842 443.016 39.6257C443.016 39.4931 440.615 33.8205 437.481 26.548L435.086 20.9921L433.225 20.9218C432.201 20.8834 431.312 20.9377 431.248 21.0426ZM476.216 21.2218C473.636 22.0212 471.232 24.2003 470.26 26.62C469.81 27.7387 469.705 28.4735 469.699 30.5338C469.691 32.9088 469.741 33.1714 470.476 34.6619C471.422 36.5789 473.167 38.2795 475.119 39.1866C476.377 39.7711 476.784 39.834 479.313 39.834C481.826 39.834 482.253 39.7692 483.454 39.2047C484.191 38.8585 485.267 38.152 485.845 37.6345L486.896 36.6936L485.572 35.4037L484.247 34.1138L483.039 34.9749C478.898 37.9244 473.943 35.4259 473.959 30.3971C473.966 28.3445 474.478 27.1239 475.847 25.8999C477.875 24.0868 480.316 24.0539 482.939 25.8045L484.154 26.6154L485.393 25.1632C486.408 23.9727 486.578 23.6471 486.336 23.3577C485.734 22.6391 484.011 21.6351 482.733 21.259C481.143 20.7906 477.671 20.7708 476.216 21.2218ZM370.48 30.3365L370.543 39.5924L375.294 39.6692C380.842 39.7591 382.835 39.5023 384.357 38.5017C385.708 37.6133 386.278 36.6248 386.42 34.9237C386.572 33.1072 385.857 31.6798 384.266 30.6254L383.128 29.8714L383.835 29.3528C384.858 28.6028 385.36 27.4812 385.36 25.9441C385.36 23.9616 384.555 22.7176 382.602 21.6847C381.854 21.289 381.054 21.2242 376.083 21.1571L370.416 21.0808L370.48 30.3365ZM391.615 30.413V39.7132H393.686H395.757V30.413V21.1129H393.686H391.615V30.413ZM402.09 30.413V39.7132H404.157H406.223L406.288 33.9273L406.353 28.1411L410.738 33.8669L415.123 39.5924L416.889 39.6634L418.655 39.7344V30.4237V21.1129H416.707H414.758V26.6688C414.758 29.7246 414.676 32.2221 414.575 32.2192C414.474 32.216 412.479 29.7159 410.14 26.6633L405.887 21.1129H403.988H402.09V30.413ZM447.645 30.413V39.7132H449.593H451.542V33.9157C451.542 30.7271 451.624 28.1221 451.725 28.1266C451.826 28.1312 453.881 30.7338 456.292 33.9104L460.677 39.6856L462.444 39.6994L464.21 39.7132V30.413V21.1129H462.261H460.312V26.6889C460.312 30.128 460.223 32.2342 460.079 32.1844C459.886 32.1175 457.17 28.6477 452.311 22.2603L451.438 21.1129H449.541H447.645V30.413ZM491.737 30.413V39.7132H498.802H505.866V37.9015V36.0897H500.872H495.878V34.1572V32.2247H500.263H504.648V30.413V28.6013H500.263H495.878V26.6688V24.7363H500.872H505.866V22.9246V21.1129H498.802H491.737V30.413ZM374.563 26.6693V28.6429L377.386 28.5617C380.132 28.4827 380.225 28.4622 380.797 27.8027C381.504 26.986 381.545 26.1951 380.919 25.4274C380.484 24.8945 380.261 24.8518 377.508 24.7764L374.563 24.696V26.6693ZM330.843 28.1114L328.912 30.0376L329.508 30.6879C330.489 31.7568 332.761 33.9157 332.905 33.9157C332.979 33.9157 333.887 33.0709 334.922 32.0383L336.804 30.1608L334.789 28.173L332.774 26.185L330.843 28.1114ZM344.477 28.1184L342.54 30.0509L344.6 32.1042L346.659 34.1572L348.553 32.2907C349.594 31.2643 350.446 30.3106 350.446 30.1715C350.446 29.9246 346.779 26.1857 346.537 26.1857C346.47 26.1857 345.543 27.0553 344.477 28.1184ZM358.297 28.1839L356.292 30.1821L358.186 32.0489C359.227 33.0755 360.184 33.9157 360.312 33.9157C360.63 33.9157 364.088 30.4874 364.088 30.1719C364.088 30.0326 363.236 29.0786 362.195 28.0522L360.301 26.1857L358.297 28.1839ZM432.965 26.3359C432.627 26.884 430.836 31.3537 430.836 31.6489C430.836 31.91 431.342 31.9832 433.15 31.9832C434.423 31.9832 435.464 31.8924 435.464 31.7815C435.464 31.5443 433.68 27.1582 433.333 26.5449C433.203 26.3132 433.037 26.219 432.965 26.3359ZM374.563 34.0128V36.0897H377.62C381.592 36.0897 382.358 35.7419 382.358 33.9381C382.358 33.5379 382.109 33.0429 381.73 32.6895C381.141 32.1404 380.898 32.0986 377.832 32.0199L374.563 31.9358V34.0128ZM337.672 34.8667C336.054 36.4808 335.795 36.8446 336.051 37.15C336.218 37.3497 338.671 39.8055 341.502 42.6071L346.65 47.7009L352.079 42.3216L357.507 36.9422L355.504 34.9447L353.5 32.947L350.024 36.3873L346.548 39.8277L343.073 36.3873L339.597 32.9468L337.672 34.8667Z" fill="#1E1C2D"/>
<path d="M603.688 11.3887H599.147V33.8282H603.688V11.3887Z" fill="#1E1C2D"/>
<path fill-rule="evenodd" clip-rule="evenodd" d="M536.615 41.0409V18.4471L542.118 18.5006C546.793 18.5462 547.742 18.5885 548.422 18.7822C551.005 19.518 552.615 21.2017 553.033 23.6037C553.424 25.8509 552.633 27.8741 550.859 29.1601L550.353 29.527L550.93 29.8649C551.726 30.3321 552.582 31.3 552.997 32.202C553.417 33.1165 553.558 35.0189 553.293 36.2189C552.771 38.5898 551.074 40.2534 548.575 40.8434C547.928 40.996 546.579 41.0374 542.185 41.0389L536.615 41.0409ZM541.151 27.7037V22.4749L543.719 22.4756C545.181 22.476 546.516 22.5399 546.818 22.6238C548.422 23.0697 549.106 25.1884 548.095 26.5844C547.446 27.4826 546.967 27.6036 543.852 27.6572L541.151 27.7037ZM541.151 34.439C541.151 31.9556 541.172 31.7045 541.384 31.6427C541.513 31.6055 542.788 31.5866 544.219 31.601C546.654 31.6254 546.862 31.6473 547.463 31.9425C548.379 32.3918 548.802 33.0803 548.86 34.214C548.934 35.6574 548.237 36.6608 546.903 37.0317C546.638 37.1055 545.235 37.1662 543.786 37.1666L541.151 37.1674V34.439Z" fill="#1E1C2D"/>
<path d="M559.295 25.19C557.387 21.5547 555.826 18.5549 555.826 18.524C555.826 18.493 556.925 18.4678 558.268 18.4678H560.71L562.82 22.909C563.981 25.3516 564.969 27.3915 565.015 27.4421C565.061 27.4928 566.055 25.4943 567.223 23.001L569.348 18.4678H571.793C573.137 18.4678 574.237 18.4917 574.237 18.521C574.237 18.55 572.677 21.55 570.769 25.1875L567.3 31.801V41.0409H562.764V31.7998L559.295 25.19Z" fill="#1E1C2D"/>
<path fill-rule="evenodd" clip-rule="evenodd" d="M577.439 41.0409V18.4468L582.876 18.5034C588.86 18.5657 589.284 18.6149 590.795 19.4211C591.906 20.014 592.742 20.8981 593.304 22.0742C593.771 23.0517 593.783 23.1146 593.783 24.6787C593.783 26.1526 593.754 26.3406 593.421 27.0162C592.946 27.9786 592.335 28.7033 591.611 29.1634L591.023 29.5362L591.582 29.8214C593.161 30.628 594.256 32.6243 594.247 34.6811C594.244 35.539 593.889 37.0115 593.505 37.7575C593.016 38.7097 591.929 39.7804 590.981 40.2433C589.41 41.0108 589.11 41.0409 583.015 41.0409H577.439ZM581.976 27.7114V22.4749H584.62C587.24 22.4749 587.271 22.4782 587.989 22.8422C588.862 23.2851 589.313 24.0312 589.313 25.0323C589.313 26.1413 588.915 26.7939 587.913 27.325C587.431 27.58 587.113 27.613 584.677 27.6596L581.976 27.7114ZM581.976 34.4516C581.976 32.9577 582.017 31.6942 582.068 31.6434C582.118 31.5928 583.364 31.5707 584.836 31.5944C587.025 31.6296 587.609 31.68 588.044 31.871C589.167 32.3642 589.629 33.0889 589.63 34.3625C589.631 35.3145 589.491 35.6769 588.867 36.3362C588.208 37.034 587.515 37.1674 584.553 37.1674H581.976V34.4516Z" fill="#1E1C2D"/>
<path d="M607.725 22.4749V18.4678H624.401V22.4749H618.264V41.0409H613.728V22.4749H607.725Z" fill="#1E1C2D"/>
</svg>
