<svg width="1281" height="53" viewBox="0 0 1281 53" fill="none" xmlns="http://www.w3.org/2000/svg">
<path d="M0 26.2834L433 26.2835" stroke="url(#paint0_linear_603_928)" stroke-width="3"/>
<path d="M488.083 52.5585C488.072 50.428 488.066 48.2948 488.066 46.1588C488.061 44.0173 488.055 41.873 488.05 39.726C488.044 37.5734 488.042 35.4236 488.042 33.2765C488.036 31.1239 488.033 28.9713 488.033 26.8188C488.033 24.6662 488.03 22.5108 488.025 20.3527C488.025 18.2001 488.022 16.0475 488.017 13.895C488.017 11.7479 488.014 9.59809 488.008 7.4455C488.008 5.30399 488.006 3.16524 488 1.02926C489.804 1.00159 491.608 0.976686 493.412 0.954552C495.216 0.932417 497.017 0.91305 498.815 0.896449C500.619 0.874314 502.423 0.854946 504.227 0.838345C506.031 0.821745 507.835 0.805144 509.639 0.788543C509.656 3.1348 509.672 5.48936 509.689 7.85223C507.442 7.90203 505.196 7.94906 502.949 7.99333C500.702 8.04314 498.456 8.09571 496.209 8.15104C496.215 10.5139 496.223 12.8823 496.234 15.2562C496.24 17.6302 496.245 20.0041 496.251 22.378C498.021 22.295 499.792 22.2148 501.563 22.1373C503.328 22.0543 505.096 21.9741 506.867 21.8966C506.878 24.2816 506.892 26.6693 506.908 29.0599C505.138 29.165 503.367 29.2702 501.596 29.3753C499.82 29.4749 498.046 29.5745 496.276 29.6741C496.281 31.5334 496.287 33.3899 496.292 35.2437C496.303 37.0919 496.312 38.9374 496.317 40.7801C496.328 42.6228 496.336 44.46 496.342 46.2916C496.353 48.1177 496.367 49.9355 496.383 51.745C493.617 52.0217 490.85 52.2928 488.083 52.5585ZM514.039 49.9438C514.011 47.9406 513.983 45.9292 513.956 43.9094C513.928 41.8785 513.903 39.8449 513.881 37.8086C513.859 35.7611 513.837 33.7109 513.814 31.6579C513.798 29.5994 513.778 27.5381 513.756 25.4741C513.74 23.41 513.723 21.346 513.706 19.2819C513.69 17.2124 513.673 15.1456 513.657 13.0815C513.64 11.0175 513.623 8.95619 513.607 6.89767C513.59 4.83916 513.574 2.78895 513.557 0.747041C515.416 0.73044 517.276 0.713839 519.135 0.697238C520.994 0.675103 522.854 0.655736 524.713 0.639135C526.567 0.622534 528.423 0.605933 530.282 0.589332C532.142 0.572731 533.998 0.55613 535.852 0.539529C535.88 2.79725 535.907 5.06051 535.935 7.3293C533.583 7.37357 531.229 7.4206 528.871 7.4704C526.52 7.51467 524.165 7.55894 521.808 7.60321C521.824 9.7558 521.844 11.9084 521.866 14.061C521.888 16.2135 521.913 18.3634 521.941 20.5104C523.816 20.4274 525.695 20.3472 527.577 20.2697C529.452 20.1922 531.331 20.112 533.213 20.029C533.246 22.3033 533.282 24.5749 533.32 26.8437C531.439 26.9433 529.555 27.0484 527.668 27.1591C525.786 27.2642 523.902 27.3694 522.015 27.4745C522.048 29.9646 522.082 32.4465 522.115 34.92C522.154 37.388 522.192 39.8477 522.231 42.2991C524.616 42.0888 527.001 41.8785 529.386 41.6683C531.766 41.458 534.148 41.2505 536.533 41.0457C536.583 43.2481 536.635 45.4422 536.69 47.628C534.803 47.8161 532.916 48.007 531.03 48.2007C529.143 48.3944 527.256 48.5881 525.369 48.7817C523.482 48.9754 521.592 49.1691 519.699 49.3628C517.812 49.5565 515.925 49.7501 514.039 49.9438ZM541.472 47.1466C541.422 45.2485 541.372 43.3505 541.322 41.4524C541.272 39.5433 541.222 37.6287 541.173 35.7085C541.128 33.7828 541.084 31.8544 541.04 29.9231C541.001 27.9808 540.962 26.0357 540.924 24.0879C540.885 22.129 540.849 20.1701 540.816 18.2112C540.783 16.2467 540.752 14.2823 540.724 12.3179C540.697 10.3479 540.669 8.37515 540.641 6.39965C540.614 4.42967 540.589 2.46247 540.567 0.498027C542.581 0.475892 544.598 0.456525 546.618 0.439924C548.638 0.423323 550.655 0.406722 552.669 0.390121C554.785 0.37352 556.603 0.572731 558.147 1.00435C559.683 1.41938 560.944 2.06681 561.94 2.93836C562.936 3.80991 563.667 4.89727 564.165 6.20874C564.663 7.52021 564.912 9.05579 564.945 10.8155C564.962 11.7451 564.978 12.6776 564.995 13.6127C565.045 15.9452 564.655 17.8626 563.8 19.3733C562.953 20.8839 561.642 21.9962 559.84 22.71C559.84 22.7543 559.84 22.7986 559.84 22.8428C561.899 23.3077 563.285 24.3618 564.165 25.9223C565.053 27.4828 565.451 29.5413 565.526 32.0231C565.57 33.3069 565.615 34.5907 565.659 35.8745C565.703 37.1473 565.753 38.4173 565.808 39.6845C565.891 41.7679 566.033 43.2785 566.921 44.8058C565.537 44.8999 564.151 45.0023 562.762 45.1129C561.368 45.2292 559.97 45.3481 558.57 45.4699C558.081 44.3991 557.749 43.7434 557.608 40.1908C557.558 38.8516 557.511 37.5097 557.466 36.1651C557.422 34.8149 557.378 33.4591 557.334 32.0978C557.217 27.931 555.765 26.6444 552.038 26.8354C551.092 26.8796 550.148 26.9267 549.208 26.9765C549.246 28.6144 549.285 30.2468 549.324 31.8737C549.368 33.4951 549.415 35.1137 549.465 36.7295C549.515 38.3342 549.564 39.9362 549.614 41.5354C549.664 43.1291 549.717 44.7228 549.772 46.3165C547.005 46.5877 544.238 46.8643 541.472 47.1466ZM549.058 20.4025C550.049 20.3638 551.039 20.325 552.03 20.2863C555.084 20.1701 556.927 18.925 556.852 15.2645C556.83 14.0803 556.808 12.8961 556.786 11.7119C556.728 8.41666 555.441 6.98068 552.544 7.03048C551.305 7.05262 550.068 7.07475 548.834 7.09688C548.867 9.32141 548.9 11.5432 548.934 13.7621C548.978 15.9811 549.019 18.1946 549.058 20.4025ZM571.669 44.5236C571.591 42.7529 571.516 40.9793 571.444 39.203C571.378 37.4101 571.314 35.6117 571.254 33.8077C571.193 31.9927 571.135 30.1721 571.079 28.346C571.029 26.5089 570.982 24.6662 570.938 22.8179C570.894 20.9586 570.852 19.0993 570.814 17.24C570.775 15.3641 570.736 13.4882 570.697 11.6123C570.664 9.72536 570.634 7.83562 570.606 5.94312C570.573 4.04509 570.542 2.14705 570.515 0.249014C572.535 0.237946 574.552 0.226879 576.566 0.215812C578.586 0.199211 580.603 0.185377 582.617 0.174309C584.733 0.166009 586.543 0.36522 588.079 0.780242C589.622 1.19526 590.876 1.8261 591.864 2.67274C592.86 3.51939 593.59 4.58185 594.08 5.86012C594.569 7.13009 594.818 8.61587 594.843 10.3258C594.86 11.2277 594.874 12.1297 594.885 13.0317C594.918 15.2894 594.528 17.1404 593.673 18.593C592.818 20.0373 591.507 21.0997 589.714 21.7638C589.714 21.8025 589.714 21.844 589.714 21.8883C591.756 22.3614 593.125 23.399 593.988 24.9263C594.86 26.4452 595.233 28.4456 595.275 30.8611C595.303 32.1117 595.33 33.3623 595.358 34.6129C595.386 35.8579 595.413 37.103 595.441 38.3481C595.483 40.4066 595.59 41.909 596.42 43.4529C595.059 43.5082 593.698 43.5635 592.337 43.6189C590.975 43.6742 589.614 43.7295 588.253 43.7849C587.788 42.7058 587.481 42.0584 587.381 38.5888C587.348 37.2884 587.315 35.9852 587.282 34.6793C587.248 33.3733 587.215 32.0674 587.182 30.7615C587.082 26.7441 585.655 25.4824 581.969 25.5986C581.029 25.6263 580.091 25.6567 579.156 25.6899C579.194 27.2504 579.236 28.8053 579.28 30.3547C579.324 31.9042 579.369 33.448 579.413 34.9864C579.463 36.5192 579.512 38.0493 579.562 39.5765C579.612 41.1038 579.665 42.6283 579.72 44.1501C577.036 44.2663 574.352 44.3908 571.669 44.5236ZM579.014 19.4065C579.999 19.3788 580.984 19.3539 581.969 19.3317C584.999 19.257 586.833 18.0784 586.767 14.559C586.745 13.4191 586.726 12.2791 586.709 11.1392C586.659 7.95183 585.381 6.56566 582.484 6.59886C581.244 6.60992 580.01 6.62376 578.782 6.64036C578.815 8.78188 578.851 10.9179 578.89 13.0483C578.929 15.1732 578.97 17.2926 579.014 19.4065ZM601.119 43.2702C601.085 41.5106 601.052 39.7509 601.019 37.9912C600.986 36.2315 600.953 34.469 600.919 32.7038C600.892 30.9275 600.861 29.1512 600.828 27.3749C600.8 25.5875 600.773 23.8002 600.745 22.0128C600.717 20.2088 600.69 18.4021 600.662 16.5926C600.634 14.7776 600.609 12.957 600.587 11.1309C600.56 9.29927 600.535 7.46487 600.513 5.6277C600.49 3.77947 600.468 1.93124 600.446 0.0830045C602.3 0.0774709 604.154 0.0691705 606.007 0.0581032C607.861 0.0525696 609.715 0.0470359 611.569 0.0415023C613.423 0.0359687 615.276 0.0304351 617.13 0.0249014C618.984 0.0193678 620.838 0.016601 622.691 0.016601C622.708 2.10278 622.725 4.18619 622.741 6.26684C620.395 6.27791 618.051 6.29174 615.711 6.30834C613.364 6.31941 611.018 6.33324 608.672 6.34984C608.694 8.28108 608.716 10.2096 608.738 12.1353C608.76 14.0444 608.783 15.9507 608.805 17.8543C610.664 17.8321 612.523 17.8072 614.383 17.7796C616.242 17.7574 618.101 17.7353 619.961 17.7132C619.977 19.7495 619.994 21.7776 620.01 23.7974C618.157 23.8251 616.3 23.8555 614.441 23.8887C612.587 23.9219 610.733 23.9551 608.879 23.9883C608.907 26.1686 608.938 28.3405 608.971 30.5042C608.998 32.6623 609.026 34.8176 609.054 36.9702C611.367 36.8927 613.683 36.8208 616.001 36.7544C618.32 36.688 620.638 36.6216 622.957 36.5552C622.963 38.5196 622.971 40.4841 622.982 42.4485C621.161 42.5094 619.338 42.573 617.512 42.6394C615.691 42.7113 613.871 42.7805 612.05 42.8469C610.224 42.9189 608.401 42.988 606.58 43.0544C604.76 43.1264 602.939 43.1983 601.119 43.2702ZM627.597 42.2908C627.597 40.5864 627.594 38.8821 627.589 37.1777C627.583 35.4678 627.58 33.7552 627.58 32.0397C627.569 30.3132 627.561 28.584 627.555 26.852C627.55 25.1033 627.542 23.3519 627.531 21.5978C627.519 19.8325 627.508 18.0618 627.497 16.2855C627.486 14.4981 627.475 12.7052 627.464 10.9068C627.453 9.10283 627.442 7.29333 627.431 5.4783C627.414 3.65773 627.401 1.8344 627.389 0.00830044C630.106 0.00276681 632.829 0 635.557 0C635.568 1.82057 635.579 3.64113 635.59 5.4617C635.596 7.27119 635.604 9.07792 635.615 10.8819C635.626 12.6748 635.635 14.4622 635.64 16.244C635.646 18.0147 635.651 19.7827 635.657 21.548C635.662 23.2966 635.668 25.0397 635.673 26.7773C635.673 28.5037 635.673 30.2247 635.673 31.9401C635.673 33.6445 635.671 35.3433 635.665 37.0366C635.659 38.7188 635.651 40.3955 635.64 42.0667C632.956 42.1331 630.275 42.2078 627.597 42.2908ZM641.691 42.0169C641.702 40.3568 641.713 38.6884 641.724 37.0117C641.735 35.3239 641.744 33.6307 641.749 31.9318C641.749 30.2164 641.749 28.4954 641.749 26.769C641.749 25.0314 641.749 23.2883 641.749 21.5397C641.744 19.78 641.741 18.0147 641.741 16.244C641.73 14.4566 641.722 12.6693 641.716 10.8819C641.71 9.07792 641.702 7.27119 641.691 5.4617C641.686 3.64113 641.677 1.82057 641.666 0C643.68 0 645.697 0 647.717 0C649.731 0 651.746 0.00276681 653.76 0.00830044C655.877 0.00830044 657.694 0.224112 659.222 0.647435C660.757 1.07076 662.002 1.69329 662.99 2.53164C663.97 3.37828 664.692 4.43244 665.173 5.70241C665.646 6.96408 665.879 8.43326 665.879 10.1182C665.879 11.0036 665.879 11.8918 665.879 12.7827C665.879 15.0072 665.455 16.8167 664.575 18.2195C663.696 19.6057 662.359 20.5934 660.55 21.1827C660.55 21.2215 660.55 21.263 660.55 21.3073C662.583 21.8468 663.936 22.9175 664.783 24.4448C665.621 25.9721 665.953 27.9476 665.945 30.3215C665.945 31.55 665.942 32.7757 665.937 33.9986C665.937 35.2216 665.934 36.4445 665.928 37.6674C665.92 39.6928 665.995 41.1785 666.8 42.7556C665.417 42.7058 664.033 42.656 662.65 42.6062C661.261 42.5564 659.875 42.5066 658.491 42.4568C658.06 41.3777 657.761 40.7303 657.769 37.3769C657.775 36.1208 657.78 34.8619 657.786 33.6002C657.791 32.3386 657.794 31.0741 657.794 29.8069C657.802 25.914 656.4 24.6357 652.689 24.5942C651.754 24.5832 650.819 24.5749 649.884 24.5693C649.884 26.0634 649.881 27.552 649.875 29.035C649.875 30.5125 649.873 31.9844 649.867 33.4508C649.862 34.9172 649.856 36.3781 649.85 37.8335C649.839 39.2833 649.831 40.7303 649.826 42.1746C647.109 42.1082 644.397 42.0556 641.691 42.0169ZM649.884 18.5432C650.863 18.5487 651.848 18.5543 652.839 18.5598C655.877 18.5847 657.728 17.5056 657.728 14.0776C657.728 12.9653 657.725 11.8558 657.719 10.7491C657.719 7.63641 656.449 6.26684 653.561 6.25024C652.321 6.25024 651.084 6.24747 649.85 6.24194C649.862 8.31152 649.87 10.3756 649.875 12.4341C649.875 14.476 649.878 16.5124 649.884 18.5432ZM669.423 42.8552C669.783 41.1232 670.14 39.3912 670.494 37.6591C670.848 35.9271 671.205 34.1896 671.564 32.4465C671.919 30.6978 672.273 28.9437 672.627 27.184C672.981 25.4187 673.335 23.648 673.689 21.8717C674.044 20.0899 674.398 18.3025 674.752 16.5096C675.1 14.7056 675.452 12.8961 675.806 11.0811C676.155 9.26054 676.503 7.43444 676.852 5.6028C677.2 3.7601 677.552 1.9174 677.906 0.0747041C679.743 0.0802377 681.586 0.0885381 683.434 0.0996054C685.277 0.105139 687.119 0.11344 688.962 0.124507C689.316 1.98381 689.67 3.84588 690.025 5.71071C690.379 7.57001 690.733 9.42378 691.087 11.272C691.441 13.1202 691.795 14.9657 692.15 16.8084C692.504 18.6456 692.855 20.4772 693.204 22.3033C693.558 24.1294 693.909 25.95 694.258 27.765C694.612 29.5745 694.963 31.3812 695.312 33.1852C695.661 34.9836 696.012 36.7793 696.366 38.5722C696.715 40.3651 697.066 42.1552 697.42 43.9426C694.698 43.8319 691.975 43.7212 689.253 43.6106C689.004 42.1995 688.757 40.7856 688.514 39.369C688.265 37.9524 688.019 36.5358 687.775 35.1192C687.775 35.1579 687.775 35.1994 687.775 35.2437C686.231 35.1884 684.685 35.1358 683.135 35.086C681.591 35.0362 680.047 34.9864 678.504 34.9366C678.249 36.3089 677.997 37.6785 677.748 39.0453C677.499 40.4066 677.25 41.7706 677.001 43.1374C674.472 43.0434 671.946 42.9493 669.423 42.8552ZM679.475 29.2093C681.921 29.2757 684.366 29.3449 686.812 29.4168C686.514 27.6405 686.212 25.8587 685.908 24.0713C685.609 22.2839 685.307 20.4938 685.003 18.7009C684.699 16.8969 684.397 15.0902 684.098 13.2807C683.794 11.4657 683.489 9.64789 683.185 7.82732C683.135 7.82732 683.085 7.82732 683.036 7.82732C682.737 9.64236 682.441 11.4519 682.148 13.2558C681.854 15.0487 681.558 16.8388 681.259 18.6262C680.961 20.4025 680.664 22.176 680.371 23.9468C680.072 25.7065 679.774 27.4607 679.475 29.2093ZM701.38 44.1086C701.38 42.3323 701.38 40.556 701.38 38.7797C701.38 36.9923 701.382 35.205 701.388 33.4176C701.388 31.6136 701.388 29.8069 701.388 27.9974C701.388 26.1824 701.391 24.3591 701.396 22.5274C701.396 20.6958 701.396 18.8559 701.396 17.0076C701.396 15.1539 701.396 13.2973 701.396 11.438C701.396 9.57318 701.393 7.70282 701.388 5.82692C701.388 3.95101 701.388 2.07235 701.388 0.19091C703.186 0.201978 704.988 0.213045 706.792 0.224112C708.59 0.240713 710.388 0.254547 712.187 0.265614C713.991 0.276682 715.792 0.290516 717.59 0.307117C719.389 0.318184 721.187 0.332018 722.986 0.348619C722.991 2.54547 722.994 4.74232 722.994 6.93918C720.753 6.90597 718.515 6.87001 716.279 6.83127C714.038 6.79807 711.797 6.76763 709.556 6.73996C709.556 8.84275 709.556 10.9428 709.556 13.04C709.556 15.1262 709.556 17.2096 709.556 19.2902C711.315 19.34 713.072 19.3926 714.826 19.448C716.586 19.5088 718.343 19.5669 720.097 19.6223C720.097 21.7748 720.097 23.9219 720.097 26.0634C718.337 25.9859 716.581 25.9112 714.826 25.8393C713.067 25.7674 711.31 25.6982 709.556 25.6318C709.556 27.231 709.556 28.8275 709.556 30.4212C709.556 32.0038 709.553 33.5836 709.547 35.1607C709.547 36.7267 709.547 38.2872 709.547 39.8422C709.547 41.3916 709.547 42.9382 709.547 44.4821C706.825 44.3548 704.102 44.2303 701.38 44.1086ZM726.904 45.7936C726.904 43.9675 726.904 42.1386 726.904 40.307C726.904 38.4588 726.904 36.6078 726.904 34.754C726.904 32.8892 726.904 31.016 726.904 29.1346C726.909 27.2476 726.912 25.3551 726.912 23.4571C726.912 21.5535 726.912 19.6472 726.912 17.7381C726.912 15.8179 726.912 13.895 726.912 11.9692C726.912 10.0435 726.912 8.11507 726.912 6.18384C726.906 4.24706 726.904 2.31306 726.904 0.381821C729.626 0.403955 732.349 0.42609 735.071 0.448224C735.071 2.11938 735.071 3.79331 735.071 5.47C735.077 7.15222 735.079 8.82891 735.079 10.5001C735.079 12.1768 735.079 13.8479 735.079 15.5135C735.079 17.1847 735.079 18.8503 735.079 20.5104C735.079 22.1705 735.077 23.8278 735.071 25.4824C735.071 27.1314 735.071 28.7777 735.071 30.4212C735.071 32.0591 735.071 33.6915 735.071 35.3184C735.071 36.9453 735.071 38.5667 735.071 40.1825C737.312 40.3706 739.553 40.5615 741.795 40.7552C744.03 40.9544 746.268 41.1509 748.51 41.3445C748.51 43.5691 748.51 45.7825 748.51 47.9849C746.706 47.7968 744.904 47.6114 743.106 47.4288C741.308 47.2406 739.506 47.0553 737.702 46.8726C735.904 46.69 734.106 46.5074 732.307 46.3248C730.503 46.1477 728.702 45.9707 726.904 45.7936ZM752.427 48.3916C752.427 46.4438 752.427 44.4932 752.427 42.5398C752.427 40.5754 752.427 38.6082 752.427 36.6382C752.427 34.6571 752.427 32.6733 752.427 30.6868C752.427 28.6891 752.427 26.6915 752.427 24.6938C752.427 22.6907 752.427 20.6847 752.427 18.676C752.427 16.6673 752.427 14.6586 752.427 12.6499C752.427 10.6356 752.427 8.62417 752.427 6.61546C752.427 4.60675 752.427 2.60357 752.427 0.605933C755.15 0.633601 757.872 0.658502 760.595 0.680637C760.595 2.70595 760.595 4.73402 760.595 6.76487C760.595 8.80124 760.595 10.8404 760.595 12.8823C760.595 14.9242 760.595 16.9634 760.595 18.9997C760.595 21.0416 760.595 23.0808 760.595 25.1172C760.595 27.1535 760.595 29.1871 760.595 31.218C760.595 33.2378 760.595 35.2575 760.595 37.2773C760.595 39.286 760.595 41.2892 760.595 43.2868C760.595 45.279 760.595 47.2628 760.595 49.2383C757.872 48.9561 755.15 48.6738 752.427 48.3916ZM764.488 49.645C765.274 47.6861 766.06 45.7133 766.845 43.7268C767.631 41.7181 768.417 39.7011 769.203 37.6757C769.988 35.6283 770.774 33.5726 771.56 31.5085C772.346 29.4279 773.132 27.3417 773.917 25.25C773.17 23.1749 772.423 21.0997 771.676 19.0246C770.924 16.9661 770.174 14.9104 769.427 12.8574C768.68 10.8155 767.933 8.77911 767.186 6.74827C766.433 4.73402 765.683 2.72531 764.936 0.722139C766.369 0.73874 767.803 0.752574 769.236 0.763641C770.669 0.780242 772.105 0.794076 773.544 0.805144C774.003 2.13875 774.46 3.48065 774.913 4.83086C775.373 6.18107 775.832 7.53681 776.291 8.89808C776.75 10.2594 777.207 11.6262 777.661 12.9985C778.12 14.3708 778.579 15.746 779.039 17.1238C779.088 17.1238 779.138 17.1266 779.188 17.1321C779.658 15.7819 780.129 14.4345 780.599 13.0898C781.069 11.7341 781.54 10.3811 782.01 9.03089C782.481 7.68068 782.951 6.32771 783.421 4.97197C783.892 3.62176 784.362 2.27156 784.832 0.92135C787.405 0.954552 789.981 0.99052 792.56 1.02926C791.807 3.0933 791.058 5.16011 790.311 7.22969C789.558 9.29927 788.808 11.3688 788.061 13.4384C787.314 15.4969 786.564 17.5555 785.812 19.614C785.065 21.6614 784.318 23.7061 783.571 25.748C784.356 27.9725 785.142 30.197 785.928 32.4216C786.714 34.6516 787.5 36.8844 788.285 39.12C789.071 41.3611 789.857 43.6023 790.643 45.8434C791.428 48.0845 792.214 50.3256 793 52.5667C791.561 52.4339 790.125 52.2956 788.692 52.1517C787.253 52.0079 785.817 51.864 784.384 51.7201C783.886 50.226 783.391 48.7292 782.898 47.2296C782.406 45.7299 781.911 44.2276 781.413 42.7224C780.92 41.2228 780.428 39.7204 779.935 38.2153C779.437 36.7157 778.942 35.216 778.449 33.7164C778.4 33.7109 778.35 33.7081 778.3 33.7081C777.791 35.1358 777.282 36.5579 776.773 37.9746C776.264 39.3912 775.757 40.7995 775.254 42.1995C774.745 43.594 774.235 44.9801 773.726 46.358C773.217 47.7304 772.711 49.0944 772.207 50.4501C769.634 50.1845 767.061 49.9161 764.488 49.645Z" fill="#F10A14"/>
<path d="M1281 26.2834L848 26.2834" stroke="url(#paint1_linear_603_928)" stroke-width="3"/>
<defs>
<linearGradient id="paint0_linear_603_928" x1="433" y1="26.2835" x2="157.986" y2="26.2835" gradientUnits="userSpaceOnUse">
<stop stop-color="#F10A14"/>
<stop offset="1"/>
</linearGradient>
<linearGradient id="paint1_linear_603_928" x1="848" y1="26.2834" x2="1123.01" y2="26.2834" gradientUnits="userSpaceOnUse">
<stop stop-color="#F10A14"/>
<stop offset="1"/>
</linearGradient>
</defs>
</svg>
