<svg width="40" height="41" viewBox="0 0 40 41" fill="none" xmlns="http://www.w3.org/2000/svg">
<rect width="39.375" height="40.0716" rx="6.47882" fill="url(#paint0_radial_603_633)"/>
<path fill-rule="evenodd" clip-rule="evenodd" d="M19.693 26.8571C26.6173 26.8553 32.2296 23.8019 32.2296 20.0356C32.2296 16.2682 26.6141 13.2141 19.687 13.2141C12.7599 13.2141 7.14441 16.2682 7.14441 20.0356C7.14441 23.803 12.7599 26.8571 19.687 26.8571C19.6868 26.8571 19.6872 26.8571 19.687 26.8571M15.0637 25.0509C13.681 24.7302 12.4521 24.2728 11.4371 23.7208C9.34187 22.5812 8.44021 21.2209 8.44021 20.0356C8.44021 18.8503 9.34187 17.49 11.4372 16.3504C12.4521 15.7984 13.681 15.341 15.0637 15.0203C13.7124 16.2667 12.866 18.0523 12.866 20.0356C12.866 22.0189 13.7124 23.8045 15.0637 25.0509ZM19.6965 25.5613C22.7441 25.5565 25.2132 23.0844 25.2132 20.0356C25.2132 16.9838 22.7393 14.5099 19.6875 14.5099C16.6358 14.5099 14.1618 16.9838 14.1618 20.0356C14.1618 23.0874 16.6358 25.5613 19.6875 25.5613M24.3117 25.0506C25.6628 23.8042 26.509 22.0187 26.509 20.0356C26.509 18.0525 25.6628 16.267 24.3117 15.0206C25.6938 15.3413 26.9222 15.7986 27.9368 16.3504C30.0321 17.49 30.9338 18.8503 30.9338 20.0356C30.9338 21.2209 30.0321 22.5812 27.9368 23.7208C26.9222 24.2726 25.6938 24.7298 24.3117 25.0506Z" fill="#FBE6EE"/>
<defs>
<radialGradient id="paint0_radial_603_633" cx="0" cy="0" r="1" gradientUnits="userSpaceOnUse" gradientTransform="translate(39.375 1.21957) rotate(132.924) scale(47.5854 46.7582)">
<stop stop-color="#ED613A"/>
<stop offset="0.495" stop-color="#CC0B2D"/>
<stop offset="1" stop-color="#7D278E"/>
</radialGradient>
</defs>
</svg>
