<svg width="627" height="62" viewBox="0 0 627 62" fill="none" xmlns="http://www.w3.org/2000/svg">
<path d="M48.5282 0.719982C51.6002 0.719982 53.0082 2.23998 53.0082 4.49598C53.0082 7.03998 51.3282 8.28798 48.2242 8.28798H44.2082V11.92H41.6322V0.719982H48.5282ZM48.0802 6.33598C49.5842 6.33598 50.3842 5.72798 50.3842 4.49598C50.3842 3.23198 49.5842 2.70398 48.0802 2.70398H44.2082V6.33598H48.0802ZM58.3684 3.16798C60.8164 3.16798 62.9604 3.87198 62.9604 6.38398V11.92H60.5284V10.784C60.1604 11.344 58.9284 12.16 57.0244 12.16C55.0244 12.16 53.6484 11.328 53.6484 9.64798C53.6484 7.85598 54.5764 6.41598 60.5284 6.78398V6.38398C60.5284 5.48798 60.1284 4.83198 58.3684 4.83198C56.8964 4.83198 56.4324 5.26398 56.3044 5.85598H54.0324C54.3044 3.96798 56.0324 3.16798 58.3684 3.16798ZM60.5284 9.42398V8.22398C57.2964 8.04798 56.0964 8.35198 56.0964 9.56798C56.0964 10.368 56.6884 10.688 57.7444 10.688C59.0564 10.688 60.0804 10.176 60.5284 9.42398ZM70.4944 3.18398C71.0544 3.18398 71.4704 3.23198 71.7584 3.31198V5.55198H71.6784C71.3744 5.42398 70.7984 5.27998 70.0624 5.27998C68.0464 5.27998 67.3104 6.54398 67.3104 7.87198V11.92H64.8784V3.39198H67.3104V4.95998C67.6624 4.35198 68.6704 3.18398 70.4944 3.18398ZM76.9622 3.16798C79.4102 3.16798 81.5542 3.87198 81.5542 6.38398V11.92H79.1222V10.784C78.7542 11.344 77.5222 12.16 75.6182 12.16C73.6182 12.16 72.2422 11.328 72.2422 9.64798C72.2422 7.85598 73.1702 6.41598 79.1222 6.78398V6.38398C79.1222 5.48798 78.7222 4.83198 76.9622 4.83198C75.4902 4.83198 75.0262 5.26398 74.8982 5.85598H72.6262C72.8982 3.96798 74.6262 3.16798 76.9622 3.16798ZM79.1222 9.42398V8.22398C75.8902 8.04798 74.6902 8.35198 74.6902 9.56798C74.6902 10.368 75.2822 10.688 76.3382 10.688C77.6502 10.688 78.6742 10.176 79.1222 9.42398ZM92.5965 10.48C94.1965 10.48 94.9805 9.66398 95.2685 8.59198H97.4445C96.9965 11.152 94.8365 12.16 92.5965 12.16C90.1005 12.16 87.4765 10.96 87.4765 7.66398C87.4765 4.36798 90.1005 3.16798 92.5965 3.16798C94.8365 3.16798 96.9965 4.17598 97.4445 6.73598H95.2685C94.9805 5.64798 94.1965 4.83198 92.5965 4.83198C90.5485 4.83198 89.7645 6.15998 89.7645 7.66398C89.7645 9.15198 90.5485 10.48 92.5965 10.48ZM102.35 12.16C100.158 12.16 98.8784 10.96 98.8784 9.03998V3.39198H101.31V8.43198C101.31 9.45598 101.902 10.336 103.406 10.336C104.91 10.336 105.582 9.42398 105.582 8.43198V3.39198H108.014V11.92H105.582V10.72C105.214 11.232 104.174 12.16 102.35 12.16ZM121.237 3.16798C123.429 3.16798 124.565 4.35198 124.565 6.27198V11.92H122.133V6.87998C122.133 5.85598 121.685 4.97598 120.325 4.97598C118.965 4.97598 118.469 5.87198 118.469 6.87998V11.92H116.037V6.87998C116.037 5.85598 115.589 4.97598 114.229 4.97598C112.869 4.97598 112.357 5.88798 112.357 6.87998V11.92H109.941V3.39198H112.357V4.51198C112.661 3.98398 113.397 3.16798 115.141 3.16798C116.629 3.16798 117.621 3.71198 118.101 4.65598C118.405 4.19198 119.365 3.16798 121.237 3.16798ZM131.976 3.16798C134.456 3.16798 136.472 4.76798 136.472 7.66398C136.472 10.56 134.456 12.16 131.976 12.16C130.536 12.16 129.544 11.664 128.92 10.864V14.592H126.488V3.39198H128.92V4.46398C129.544 3.66398 130.536 3.16798 131.976 3.16798ZM131.432 10.48C133.192 10.48 134.2 9.45598 134.2 7.66398C134.2 5.87198 133.192 4.83198 131.432 4.83198C129.688 4.83198 128.616 5.87198 128.616 7.66398C128.616 9.45598 129.688 10.48 131.432 10.48ZM143.526 3.18398C144.086 3.18398 144.502 3.23198 144.79 3.31198V5.55198H144.71C144.406 5.42398 143.83 5.27998 143.094 5.27998C141.078 5.27998 140.342 6.54398 140.342 7.87198V11.92H137.91V3.39198H140.342V4.95998C140.694 4.35198 141.702 3.18398 143.526 3.18398ZM146.066 11.92V3.39198H148.482V11.92H146.066ZM147.266 2.39998C146.53 2.39998 146.018 1.98398 146.018 1.26398C146.018 0.527982 146.53 0.111982 147.266 0.111982C148.002 0.111982 148.53 0.527982 148.53 1.26398C148.53 1.98398 148.002 2.39998 147.266 2.39998ZM156.026 3.18398C156.586 3.18398 157.002 3.23198 157.29 3.31198V5.55198H157.21C156.906 5.42398 156.33 5.27998 155.594 5.27998C153.578 5.27998 152.842 6.54398 152.842 7.87198V11.92H150.41V3.39198H152.842V4.95998C153.194 4.35198 154.202 3.18398 156.026 3.18398ZM167.69 10.48C169.29 10.48 170.074 9.66398 170.362 8.59198H172.538C172.09 11.152 169.93 12.16 167.69 12.16C165.194 12.16 162.57 10.96 162.57 7.66398C162.57 4.36798 165.194 3.16798 167.69 3.16798C169.93 3.16798 172.09 4.17598 172.538 6.73598H170.362C170.074 5.64798 169.29 4.83198 167.69 4.83198C165.642 4.83198 164.858 6.15998 164.858 7.66398C164.858 9.15198 165.642 10.48 167.69 10.48ZM178.424 3.16798C180.92 3.16798 183.512 4.44798 183.512 7.66398C183.512 10.88 180.92 12.16 178.424 12.16C175.944 12.16 173.336 10.88 173.336 7.66398C173.336 4.44798 175.944 3.16798 178.424 3.16798ZM178.424 10.48C180.472 10.48 181.24 9.15198 181.24 7.66398C181.24 6.15998 180.472 4.83198 178.424 4.83198C176.376 4.83198 175.624 6.15998 175.624 7.66398C175.624 9.15198 176.376 10.48 178.424 10.48ZM196.252 3.16798C198.444 3.16798 199.58 4.35198 199.58 6.27198V11.92H197.148V6.87998C197.148 5.85598 196.7 4.97598 195.34 4.97598C193.98 4.97598 193.484 5.87198 193.484 6.87998V11.92H191.052V6.87998C191.052 5.85598 190.604 4.97598 189.244 4.97598C187.884 4.97598 187.372 5.88798 187.372 6.87998V11.92H184.956V3.39198H187.372V4.51198C187.676 3.98398 188.412 3.16798 190.156 3.16798C191.644 3.16798 192.636 3.71198 193.116 4.65598C193.42 4.19198 194.38 3.16798 196.252 3.16798ZM210.228 3.16798C212.676 3.16798 214.82 3.87198 214.82 6.38398V11.92H212.388V10.784C212.02 11.344 210.788 12.16 208.884 12.16C206.884 12.16 205.508 11.328 205.508 9.64798C205.508 7.85598 206.436 6.41598 212.388 6.78398V6.38398C212.388 5.48798 211.988 4.83198 210.228 4.83198C208.756 4.83198 208.292 5.26398 208.164 5.85598H205.892C206.164 3.96798 207.892 3.16798 210.228 3.16798ZM212.388 9.42398V8.22398C209.156 8.04798 207.956 8.35198 207.956 9.56798C207.956 10.368 208.548 10.688 209.604 10.688C210.916 10.688 211.94 10.176 212.388 9.42398ZM226.71 3.16798C229.19 3.16798 231.206 4.76798 231.206 7.66398C231.206 10.56 229.19 12.16 226.71 12.16C225.27 12.16 224.278 11.664 223.654 10.864V14.592H221.222V3.39198H223.654V4.46398C224.278 3.66398 225.27 3.16798 226.71 3.16798ZM226.166 10.48C227.926 10.48 228.934 9.45598 228.934 7.66398C228.934 5.87198 227.926 4.83198 226.166 4.83198C224.422 4.83198 223.35 5.87198 223.35 7.66398C223.35 9.45598 224.422 10.48 226.166 10.48ZM238.26 3.18398C238.82 3.18398 239.236 3.23198 239.524 3.31198V5.55198H239.444C239.14 5.42398 238.564 5.27998 237.828 5.27998C235.812 5.27998 235.076 6.54398 235.076 7.87198V11.92H232.644V3.39198H235.076V4.95998C235.428 4.35198 236.436 3.18398 238.26 3.18398ZM245.252 3.16798C247.748 3.16798 250.34 4.44798 250.34 7.66398C250.34 10.88 247.748 12.16 245.252 12.16C242.772 12.16 240.164 10.88 240.164 7.66398C240.164 4.44798 242.772 3.16798 245.252 3.16798ZM245.252 10.48C247.3 10.48 248.068 9.15198 248.068 7.66398C248.068 6.15998 247.3 4.83198 245.252 4.83198C243.204 4.83198 242.452 6.15998 242.452 7.66398C242.452 9.15198 243.204 10.48 245.252 10.48ZM263.081 3.16798C265.273 3.16798 266.409 4.35198 266.409 6.27198V11.92H263.977V6.87998C263.977 5.85598 263.529 4.97598 262.169 4.97598C260.809 4.97598 260.313 5.87198 260.313 6.87998V11.92H257.881V6.87998C257.881 5.85598 257.433 4.97598 256.073 4.97598C254.713 4.97598 254.201 5.88798 254.201 6.87998V11.92H251.785V3.39198H254.201V4.51198C254.505 3.98398 255.241 3.16798 256.985 3.16798C258.473 3.16798 259.465 3.71198 259.945 4.65598C260.249 4.19198 261.209 3.16798 263.081 3.16798ZM277.611 8.28798H270.043C270.235 9.45598 271.051 10.48 272.827 10.48C274.123 10.48 274.955 9.90398 275.291 9.18398H277.435C276.875 11.312 274.939 12.16 272.827 12.16C270.395 12.16 267.851 10.816 267.851 7.66398C267.851 4.51198 270.363 3.16798 272.811 3.16798C275.291 3.16798 277.867 4.68798 277.611 8.28798ZM272.811 4.83198C271.291 4.83198 270.443 5.66398 270.123 6.68798H275.387C275.131 5.66398 274.411 4.83198 272.811 4.83198ZM283.881 6.78398C286.281 7.19998 287.913 7.37598 287.913 9.34398C287.913 11.296 286.249 12.16 283.161 12.16C280.153 12.16 278.281 11.216 278.281 9.29598H280.921C280.921 10.144 281.929 10.512 283.321 10.512C284.697 10.512 285.417 10.256 285.417 9.59998C285.417 8.83198 284.361 8.73598 282.089 8.35198C279.833 7.98398 278.617 7.50398 278.617 5.80798C278.617 4.09598 280.137 3.16798 283.017 3.16798C286.025 3.16798 287.529 4.28798 287.529 5.85598H285.081C285.081 5.31198 284.457 4.76798 282.985 4.76798C281.657 4.76798 280.937 5.03998 280.937 5.69598C280.937 6.43198 282.361 6.51198 283.881 6.78398ZM293.991 6.78398C296.391 7.19998 298.023 7.37598 298.023 9.34398C298.023 11.296 296.359 12.16 293.271 12.16C290.263 12.16 288.391 11.216 288.391 9.29598H291.031C291.031 10.144 292.039 10.512 293.431 10.512C294.807 10.512 295.527 10.256 295.527 9.59998C295.527 8.83198 294.471 8.73598 292.199 8.35198C289.943 7.98398 288.727 7.50398 288.727 5.80798C288.727 4.09598 290.247 3.16798 293.127 3.16798C296.135 3.16798 297.639 4.28798 297.639 5.85598H295.191C295.191 5.31198 294.567 4.76798 293.095 4.76798C291.767 4.76798 291.047 5.03998 291.047 5.69598C291.047 6.43198 292.471 6.51198 293.991 6.78398ZM303.54 3.16798C305.988 3.16798 308.132 3.87198 308.132 6.38398V11.92H305.7V10.784C305.332 11.344 304.1 12.16 302.196 12.16C300.196 12.16 298.82 11.328 298.82 9.64798C298.82 7.85598 299.748 6.41598 305.7 6.78398V6.38398C305.7 5.48798 305.3 4.83198 303.54 4.83198C302.068 4.83198 301.604 5.26398 301.476 5.85598H299.204C299.476 3.96798 301.204 3.16798 303.54 3.16798ZM305.7 9.42398V8.22398C302.468 8.04798 301.268 8.35198 301.268 9.56798C301.268 10.368 301.86 10.688 302.916 10.688C304.228 10.688 305.252 10.176 305.7 9.42398ZM321.623 0.719982H324.055V11.92H321.623V10.864C320.999 11.664 320.007 12.16 318.567 12.16C316.087 12.16 314.055 10.56 314.055 7.66398C314.055 4.76798 316.087 3.16798 318.567 3.16798C320.007 3.16798 320.999 3.66398 321.623 4.46398V0.719982ZM319.111 10.48C320.855 10.48 321.927 9.45598 321.927 7.66398C321.927 5.87198 320.855 4.83198 319.111 4.83198C317.351 4.83198 316.343 5.87198 316.343 7.66398C316.343 9.45598 317.351 10.48 319.111 10.48ZM335.252 8.28798H327.684C327.876 9.45598 328.692 10.48 330.468 10.48C331.764 10.48 332.596 9.90398 332.932 9.18398H335.076C334.516 11.312 332.58 12.16 330.468 12.16C328.036 12.16 325.492 10.816 325.492 7.66398C325.492 4.51198 328.004 3.16798 330.452 3.16798C332.932 3.16798 335.508 4.68798 335.252 8.28798ZM330.452 4.83198C328.932 4.83198 328.084 5.66398 327.764 6.68798H333.028C332.772 5.66398 332.052 4.83198 330.452 4.83198ZM350.486 8.28798H342.918C343.11 9.45598 343.926 10.48 345.702 10.48C346.998 10.48 347.83 9.90398 348.166 9.18398H350.31C349.75 11.312 347.814 12.16 345.702 12.16C343.27 12.16 340.726 10.816 340.726 7.66398C340.726 4.51198 343.238 3.16798 345.686 3.16798C348.166 3.16798 350.742 4.68798 350.486 8.28798ZM345.686 4.83198C344.166 4.83198 343.318 5.66398 342.998 6.68798H348.262C348.006 5.66398 347.286 4.83198 345.686 4.83198ZM357.62 3.16798C359.812 3.16798 361.092 4.35198 361.092 6.27198V11.92H358.66V6.87998C358.66 5.85598 358.068 4.97598 356.564 4.97598C355.06 4.97598 354.388 5.88798 354.388 6.87998V11.92H351.956V3.39198H354.388V4.59198C354.756 4.07998 355.796 3.16798 357.62 3.16798ZM368.578 5.05598H366.082V8.63998C366.082 10.032 366.594 10.304 368.578 10.096V11.92C368.258 11.968 367.874 12.048 367.314 12.048C364.242 12.048 363.65 10.72 363.65 8.59198V5.05598H362.066V3.39198H363.65V1.18398H366.082V3.39198H368.578V5.05598ZM375.791 3.18398C376.351 3.18398 376.767 3.23198 377.055 3.31198V5.55198H376.975C376.671 5.42398 376.095 5.27998 375.359 5.27998C373.343 5.27998 372.607 6.54398 372.607 7.87198V11.92H370.175V3.39198H372.607V4.95998C372.959 4.35198 373.967 3.18398 375.791 3.18398ZM387.455 8.28798H379.887C380.079 9.45598 380.895 10.48 382.671 10.48C383.967 10.48 384.799 9.90398 385.135 9.18398H387.279C386.719 11.312 384.783 12.16 382.671 12.16C380.239 12.16 377.695 10.816 377.695 7.66398C377.695 4.51198 380.207 3.16798 382.655 3.16798C385.135 3.16798 387.711 4.68798 387.455 8.28798ZM382.655 4.83198C381.135 4.83198 380.287 5.66398 379.967 6.68798H385.231C384.975 5.66398 384.255 4.83198 382.655 4.83198ZM396.013 3.39198H398.429V11.12C398.429 14.448 395.661 14.896 393.213 14.896C390.365 14.896 388.733 13.92 388.573 12.288H390.845C391.021 12.816 391.869 13.216 393.213 13.216C395.149 13.216 396.013 12.656 396.013 11.12V10.336C395.373 11.024 394.397 11.392 392.957 11.392C390.461 11.392 388.445 10.256 388.445 7.35998C388.445 4.46398 390.461 3.16798 392.957 3.16798C394.269 3.16798 395.325 3.66398 396.013 4.51198V3.39198ZM393.485 9.87198C395.245 9.87198 396.317 8.95998 396.317 7.35998C396.317 5.74398 395.245 4.84798 393.485 4.84798C391.741 4.84798 390.733 5.75998 390.733 7.35998C390.733 8.95998 391.741 9.87198 393.485 9.87198ZM404.587 3.16798C407.035 3.16798 409.179 3.87198 409.179 6.38398V11.92H406.747V10.784C406.379 11.344 405.147 12.16 403.243 12.16C401.243 12.16 399.867 11.328 399.867 9.64798C399.867 7.85598 400.795 6.41598 406.747 6.78398V6.38398C406.747 5.48798 406.347 4.83198 404.587 4.83198C403.115 4.83198 402.651 5.26398 402.523 5.85598H400.251C400.523 3.96798 402.251 3.16798 404.587 3.16798ZM406.747 9.42398V8.22398C403.515 8.04798 402.315 8.35198 402.315 9.56798C402.315 10.368 402.907 10.688 403.963 10.688C405.275 10.688 406.299 10.176 406.747 9.42398ZM416.713 3.18398C417.273 3.18398 417.689 3.23198 417.977 3.31198V5.55198H417.897C417.593 5.42398 417.017 5.27998 416.281 5.27998C414.265 5.27998 413.529 6.54398 413.529 7.87198V11.92H411.097V3.39198H413.529V4.95998C413.881 4.35198 414.889 3.18398 416.713 3.18398ZM427.978 3.16798C430.426 3.16798 432.57 3.87198 432.57 6.38398V11.92H430.138V10.784C429.77 11.344 428.538 12.16 426.634 12.16C424.634 12.16 423.258 11.328 423.258 9.64798C423.258 7.85598 424.186 6.41598 430.138 6.78398V6.38398C430.138 5.48798 429.738 4.83198 427.978 4.83198C426.506 4.83198 426.042 5.26398 425.914 5.85598H423.642C423.914 3.96798 425.642 3.16798 427.978 3.16798ZM430.138 9.42398V8.22398C426.906 8.04798 425.706 8.35198 425.706 9.56798C425.706 10.368 426.298 10.688 427.354 10.688C428.666 10.688 429.69 10.176 430.138 9.42398ZM437.96 12.16C435.768 12.16 434.488 10.96 434.488 9.03998V3.39198H436.92V8.43198C436.92 9.45598 437.512 10.336 439.016 10.336C440.52 10.336 441.192 9.42398 441.192 8.43198V3.39198H443.624V11.92H441.192V10.72C440.824 11.232 439.784 12.16 437.96 12.16ZM445.55 0.111982H447.982V11.92H445.55V0.111982ZM454.149 3.16798C456.597 3.16798 458.741 3.87198 458.741 6.38398V11.92H456.309V10.784C455.941 11.344 454.709 12.16 452.805 12.16C450.805 12.16 449.429 11.328 449.429 9.64798C449.429 7.85598 450.357 6.41598 456.309 6.78398V6.38398C456.309 5.48798 455.909 4.83198 454.149 4.83198C452.677 4.83198 452.213 5.26398 452.085 5.85598H449.813C450.085 3.96798 451.813 3.16798 454.149 3.16798ZM456.309 9.42398V8.22398C453.077 8.04798 451.877 8.35198 451.877 9.56798C451.877 10.368 452.469 10.688 453.525 10.688C454.837 10.688 455.861 10.176 456.309 9.42398ZM465.459 6.78398C467.859 7.19998 469.491 7.37598 469.491 9.34398C469.491 11.296 467.827 12.16 464.739 12.16C461.731 12.16 459.859 11.216 459.859 9.29598H462.499C462.499 10.144 463.507 10.512 464.899 10.512C466.275 10.512 466.995 10.256 466.995 9.59998C466.995 8.83198 465.939 8.73598 463.667 8.35198C461.411 7.98398 460.195 7.50398 460.195 5.80798C460.195 4.09598 461.715 3.16798 464.595 3.16798C467.603 3.16798 469.107 4.28798 469.107 5.85598H466.659C466.659 5.31198 466.035 4.76798 464.563 4.76798C463.235 4.76798 462.515 5.03998 462.515 5.69598C462.515 6.43198 463.939 6.51198 465.459 6.78398ZM482.341 0.719982H484.773V11.92H482.341V10.864C481.717 11.664 480.725 12.16 479.285 12.16C476.805 12.16 474.773 10.56 474.773 7.66398C474.773 4.76798 476.805 3.16798 479.285 3.16798C480.725 3.16798 481.717 3.66398 482.341 4.46398V0.719982ZM479.829 10.48C481.573 10.48 482.645 9.45598 482.645 7.66398C482.645 5.87198 481.573 4.83198 479.829 4.83198C478.069 4.83198 477.061 5.87198 477.061 7.66398C477.061 9.45598 478.069 10.48 479.829 10.48ZM491.299 3.16798C493.795 3.16798 496.387 4.44798 496.387 7.66398C496.387 10.88 493.795 12.16 491.299 12.16C488.819 12.16 486.211 10.88 486.211 7.66398C486.211 4.44798 488.819 3.16798 491.299 3.16798ZM491.299 10.48C493.347 10.48 494.115 9.15198 494.115 7.66398C494.115 6.15998 493.347 4.83198 491.299 4.83198C489.251 4.83198 488.499 6.15998 488.499 7.66398C488.499 9.15198 489.251 10.48 491.299 10.48ZM507.788 3.16798C510.284 3.16798 512.3 4.76798 512.3 7.66398C512.3 10.56 510.284 12.16 507.788 12.16C506.364 12.16 505.372 11.664 504.748 10.864V11.92H502.316V0.719982H504.748V4.46398C505.372 3.66398 506.364 3.16798 507.788 3.16798ZM507.26 10.48C509.02 10.48 510.028 9.45598 510.028 7.66398C510.028 5.87198 509.02 4.83198 507.26 4.83198C505.5 4.83198 504.444 5.87198 504.444 7.66398C504.444 9.45598 505.5 10.48 507.26 10.48ZM517.978 3.16798C520.426 3.16798 522.57 3.87198 522.57 6.38398V11.92H520.138V10.784C519.77 11.344 518.538 12.16 516.634 12.16C514.634 12.16 513.258 11.328 513.258 9.64798C513.258 7.85598 514.186 6.41598 520.138 6.78398V6.38398C520.138 5.48798 519.738 4.83198 517.978 4.83198C516.506 4.83198 516.042 5.26398 515.914 5.85598H513.642C513.914 3.96798 515.642 3.16798 517.978 3.16798ZM520.138 9.42398V8.22398C516.906 8.04798 515.706 8.35198 515.706 9.56798C515.706 10.368 516.298 10.688 517.354 10.688C518.666 10.688 519.69 10.176 520.138 9.42398ZM518.138 -1.81198e-05H520.874L518.746 2.22398H516.858L518.138 -1.81198e-05ZM529.288 6.78398C531.688 7.19998 533.32 7.37598 533.32 9.34398C533.32 11.296 531.656 12.16 528.568 12.16C525.56 12.16 523.688 11.216 523.688 9.29598H526.328C526.328 10.144 527.336 10.512 528.728 10.512C530.104 10.512 530.824 10.256 530.824 9.59998C530.824 8.83198 529.768 8.73598 527.496 8.35198C525.24 7.98398 524.024 7.50398 524.024 5.80798C524.024 4.09598 525.544 3.16798 528.424 3.16798C531.432 3.16798 532.936 4.28798 532.936 5.85598H530.488C530.488 5.31198 529.864 4.76798 528.392 4.76798C527.064 4.76798 526.344 5.03998 526.344 5.69598C526.344 6.43198 527.768 6.51198 529.288 6.78398ZM534.597 11.92V3.39198H537.013V11.92H534.597ZM535.797 2.39998C535.061 2.39998 534.549 1.98398 534.549 1.26398C534.549 0.527982 535.061 0.111982 535.797 0.111982C536.533 0.111982 537.061 0.527982 537.061 1.26398C537.061 1.98398 536.533 2.39998 535.797 2.39998ZM543.581 10.48C545.181 10.48 545.965 9.66398 546.253 8.59198H548.429C547.981 11.152 545.821 12.16 543.581 12.16C541.085 12.16 538.461 10.96 538.461 7.66398C538.461 4.36798 541.085 3.16798 543.581 3.16798C545.821 3.16798 547.981 4.17598 548.429 6.73598H546.253C545.965 5.64798 545.181 4.83198 543.581 4.83198C541.533 4.83198 540.749 6.15998 540.749 7.66398C540.749 9.15198 541.533 10.48 543.581 10.48ZM554.314 3.16798C556.81 3.16798 559.402 4.44798 559.402 7.66398C559.402 10.88 556.81 12.16 554.314 12.16C551.834 12.16 549.226 10.88 549.226 7.66398C549.226 4.44798 551.834 3.16798 554.314 3.16798ZM554.314 10.48C556.362 10.48 557.13 9.15198 557.13 7.66398C557.13 6.15998 556.362 4.83198 554.314 4.83198C552.266 4.83198 551.514 6.15998 551.514 7.66398C551.514 9.15198 552.266 10.48 554.314 10.48ZM569.571 3.16798C572.019 3.16798 574.163 3.87198 574.163 6.38398V11.92H571.731V10.784C571.363 11.344 570.131 12.16 568.227 12.16C566.227 12.16 564.851 11.328 564.851 9.64798C564.851 7.85598 565.779 6.41598 571.731 6.78398V6.38398C571.731 5.48798 571.331 4.83198 569.571 4.83198C568.099 4.83198 567.635 5.26398 567.507 5.85598H565.235C565.507 3.96798 567.235 3.16798 569.571 3.16798ZM571.731 9.42398V8.22398C568.499 8.04798 567.299 8.35198 567.299 9.56798C567.299 10.368 567.891 10.688 568.947 10.688C570.259 10.688 571.283 10.176 571.731 9.42398ZM580.689 3.16798C583.185 3.16798 585.777 4.44798 585.777 7.66398C585.777 10.88 583.185 12.16 580.689 12.16C578.209 12.16 575.601 10.88 575.601 7.66398C575.601 4.44798 578.209 3.16798 580.689 3.16798ZM580.689 10.48C582.737 10.48 583.505 9.15198 583.505 7.66398C583.505 6.15998 582.737 4.83198 580.689 4.83198C578.641 4.83198 577.889 6.15998 577.889 7.66398C577.889 9.15198 578.641 10.48 580.689 10.48ZM4.72002 27.168C7.16802 27.168 9.31201 27.872 9.31201 30.384V35.92H6.88002V34.784C6.51202 35.344 5.28002 36.16 3.37602 36.16C1.37602 36.16 1.95503e-05 35.328 1.95503e-05 33.648C1.95503e-05 31.856 0.928019 30.416 6.88002 30.784V30.384C6.88002 29.488 6.48002 28.832 4.72002 28.832C3.24802 28.832 2.78402 29.264 2.65602 29.856H0.384019C0.656019 27.968 2.38402 27.168 4.72002 27.168ZM6.88002 33.424V32.224C3.64802 32.048 2.44802 32.352 2.44802 33.568C2.44802 34.368 3.04002 34.688 4.09602 34.688C5.40802 34.688 6.43202 34.176 6.88002 33.424ZM17.7495 27.392H20.2775L16.3895 35.92H14.0055L10.1175 27.392H12.6455L15.2055 33.456L17.7495 27.392ZM25.0013 27.168C27.4493 27.168 29.5933 27.872 29.5933 30.384V35.92H27.1613V34.784C26.7933 35.344 25.5613 36.16 23.6573 36.16C21.6573 36.16 20.2813 35.328 20.2813 33.648C20.2813 31.856 21.2093 30.416 27.1613 30.784V30.384C27.1613 29.488 26.7613 28.832 25.0013 28.832C23.5293 28.832 23.0653 29.264 22.9373 29.856H20.6653C20.9373 27.968 22.6653 27.168 25.0013 27.168ZM27.1613 33.424V32.224C23.9293 32.048 22.7293 32.352 22.7293 33.568C22.7293 34.368 23.3213 34.688 24.3773 34.688C25.6893 34.688 26.7133 34.176 27.1613 33.424ZM37.1752 27.168C39.3672 27.168 40.6472 28.352 40.6472 30.272V35.92H38.2152V30.88C38.2152 29.856 37.6232 28.976 36.1192 28.976C34.6152 28.976 33.9432 29.888 33.9432 30.88V35.92H31.5113V27.392H33.9432V28.592C34.3112 28.08 35.3512 27.168 37.1752 27.168ZM47.2137 34.48C48.8297 34.48 49.6137 33.664 49.8857 32.592H52.0777C51.6457 34.992 49.7257 36.016 47.6457 36.144L47.2457 36.672C48.2217 36.4 49.8537 36.496 49.8537 37.904C49.8537 39.152 48.9257 39.632 47.4377 39.632C46.6857 39.632 46.1417 39.552 45.5337 39.376V38.288C45.8377 38.4 46.3337 38.56 46.9257 38.56C47.7897 38.56 48.0777 38.336 48.0777 37.92C48.0777 37.36 47.3097 37.28 45.9017 37.488V36.848L46.4457 36.112C44.2057 35.888 42.0937 34.608 42.0937 31.664C42.0937 28.352 44.7337 27.168 47.2137 27.168C49.4537 27.168 51.6297 28.176 52.0777 30.72H49.8857C49.6137 29.648 48.8297 28.832 47.2137 28.832C45.1657 28.832 44.3817 30.16 44.3817 31.664C44.3817 33.152 45.1657 34.48 47.2137 34.48ZM57.595 27.168C60.043 27.168 62.187 27.872 62.187 30.384V35.92H59.755V34.784C59.387 35.344 58.155 36.16 56.251 36.16C54.251 36.16 52.875 35.328 52.875 33.648C52.875 31.856 53.803 30.416 59.755 30.784V30.384C59.755 29.488 59.355 28.832 57.595 28.832C56.123 28.832 55.659 29.264 55.531 29.856H53.259C53.531 27.968 55.259 27.168 57.595 27.168ZM59.755 33.424V32.224C56.523 32.048 55.323 32.352 55.323 33.568C55.323 34.368 55.915 34.688 56.971 34.688C58.283 34.688 59.307 34.176 59.755 33.424ZM71.193 24.72H73.625V35.92H71.193V34.864C70.569 35.664 69.577 36.16 68.137 36.16C65.657 36.16 63.625 34.56 63.625 31.664C63.625 28.768 65.657 27.168 68.137 27.168C69.577 27.168 70.569 27.664 71.193 28.464V24.72ZM68.681 34.48C70.425 34.48 71.497 33.456 71.497 31.664C71.497 29.872 70.425 28.832 68.681 28.832C66.921 28.832 65.913 29.872 65.913 31.664C65.913 33.456 66.921 34.48 68.681 34.48ZM80.1505 27.168C82.6465 27.168 85.2385 28.448 85.2385 31.664C85.2385 34.88 82.6465 36.16 80.1505 36.16C77.6705 36.16 75.0625 34.88 75.0625 31.664C75.0625 28.448 77.6705 27.168 80.1505 27.168ZM80.1505 34.48C82.1985 34.48 82.9665 33.152 82.9665 31.664C82.9665 30.16 82.1985 28.832 80.1505 28.832C78.1025 28.832 77.3505 30.16 77.3505 31.664C77.3505 33.152 78.1025 34.48 80.1505 34.48ZM98.2395 27.392H100.671V38.592H98.2395V34.864C97.6155 35.664 96.6395 36.16 95.1995 36.16C92.7035 36.16 90.6875 34.56 90.6875 31.664C90.6875 28.768 92.7035 27.168 95.1995 27.168C96.6395 27.168 97.6155 27.664 98.2395 28.464V27.392ZM95.7275 34.48C97.4875 34.48 98.5435 33.456 98.5435 31.664C98.5435 29.872 97.4875 28.832 95.7275 28.832C93.9675 28.832 92.9595 29.872 92.9595 31.664C92.9595 33.456 93.9675 34.48 95.7275 34.48ZM106.061 36.16C103.869 36.16 102.589 34.96 102.589 33.04V27.392H105.021V32.432C105.021 33.456 105.613 34.336 107.117 34.336C108.621 34.336 109.293 33.424 109.293 32.432V27.392H111.725V35.92H109.293V34.72C108.925 35.232 107.885 36.16 106.061 36.16ZM122.932 32.288H115.364C115.556 33.456 116.372 34.48 118.148 34.48C119.444 34.48 120.276 33.904 120.612 33.184H122.756C122.196 35.312 120.26 36.16 118.148 36.16C115.716 36.16 113.172 34.816 113.172 31.664C113.172 28.512 115.684 27.168 118.132 27.168C120.612 27.168 123.188 28.688 122.932 32.288ZM118.132 28.832C116.612 28.832 115.764 29.664 115.444 30.688H120.708C120.452 29.664 119.732 28.832 118.132 28.832ZM250.698 57.5679H253.114L251.578 61.3919H250.058L250.698 57.5679ZM266.038 51.392H268.566L264.678 59.9199H262.294L258.406 51.392H260.934L263.494 57.4559L266.038 51.392ZM273.814 51.168C276.31 51.168 278.902 52.448 278.902 55.664C278.902 58.8799 276.31 60.1599 273.814 60.1599C271.334 60.1599 268.726 58.8799 268.726 55.664C268.726 52.448 271.334 51.168 273.814 51.168ZM273.814 58.4799C275.862 58.4799 276.63 57.1519 276.63 55.664C276.63 54.16 275.862 52.832 273.814 52.832C271.766 52.832 271.014 54.16 271.014 55.664C271.014 57.1519 271.766 58.4799 273.814 58.4799ZM284.987 58.4799C286.587 58.4799 287.371 57.6639 287.659 56.5919H289.835C289.387 59.1519 287.227 60.1599 284.987 60.1599C282.491 60.1599 279.867 58.9599 279.867 55.664C279.867 52.368 282.491 51.168 284.987 51.168C287.227 51.168 289.387 52.176 289.835 54.736H287.659C287.371 53.648 286.587 52.832 284.987 52.832C282.939 52.832 282.155 54.16 282.155 55.664C282.155 57.1519 282.939 58.4799 284.987 58.4799ZM300.393 56.2879H292.825C293.017 57.4559 293.833 58.4799 295.609 58.4799C296.905 58.4799 297.737 57.9039 298.073 57.1839H300.217C299.657 59.3119 297.721 60.1599 295.609 60.1599C293.177 60.1599 290.633 58.8159 290.633 55.664C290.633 52.512 293.145 51.168 295.593 51.168C298.073 51.168 300.649 52.688 300.393 56.2879ZM295.593 52.832C294.073 52.832 293.225 53.664 292.905 54.688H298.169C297.913 53.664 297.193 52.832 295.593 52.832ZM299.209 50.224H296.777L295.529 48.8L294.265 50.224H291.833L294.057 48H297.001L299.209 50.224ZM312.219 53.056H309.723V56.6399C309.723 58.0319 310.235 58.3039 312.219 58.0959V59.9199C311.899 59.9679 311.515 60.0479 310.955 60.0479C307.883 60.0479 307.291 58.7199 307.291 56.5919V53.056H305.707V51.392H307.291V49.184H309.723V51.392H312.219V53.056ZM322.94 56.2879H315.372C315.564 57.4559 316.38 58.4799 318.156 58.4799C319.452 58.4799 320.284 57.9039 320.62 57.1839H322.764C322.204 59.3119 320.268 60.1599 318.156 60.1599C315.724 60.1599 313.18 58.8159 313.18 55.664C313.18 52.512 315.692 51.168 318.14 51.168C320.62 51.168 323.196 52.688 322.94 56.2879ZM318.14 52.832C316.62 52.832 315.772 53.664 315.452 54.688H320.716C320.46 53.664 319.74 52.832 318.14 52.832ZM330.026 51.184C330.586 51.184 331.002 51.232 331.29 51.312V53.552H331.21C330.906 53.424 330.33 53.28 329.594 53.28C327.578 53.28 326.842 54.544 326.842 55.8719V59.9199H324.41V51.392H326.842V52.96C327.194 52.352 328.202 51.184 330.026 51.184ZM336.493 51.168C338.941 51.168 341.085 51.872 341.085 54.384V59.9199H338.653V58.7839C338.285 59.3439 337.053 60.1599 335.149 60.1599C333.149 60.1599 331.773 59.3279 331.773 57.6479C331.773 55.856 332.701 54.416 338.653 54.784V54.384C338.653 53.488 338.253 52.832 336.493 52.832C335.021 52.832 334.557 53.264 334.429 53.856H332.157C332.429 51.968 334.157 51.168 336.493 51.168ZM338.653 57.4239V56.2239C335.421 56.0479 334.221 56.3519 334.221 57.5679C334.221 58.3679 334.813 58.6879 335.869 58.6879C337.181 58.6879 338.205 58.1759 338.653 57.4239ZM336.653 48H339.389L337.261 50.224H335.373L336.653 48ZM351.728 51.168C354.176 51.168 356.32 51.872 356.32 54.384V59.9199H353.888V58.7839C353.52 59.3439 352.288 60.1599 350.384 60.1599C348.384 60.1599 347.008 59.3279 347.008 57.6479C347.008 55.856 347.936 54.416 353.888 54.784V54.384C353.888 53.488 353.488 52.832 351.728 52.832C350.256 52.832 349.792 53.264 349.664 53.856H347.392C347.664 51.968 349.392 51.168 351.728 51.168ZM353.888 57.4239V56.2239C350.656 56.0479 349.456 56.3519 349.456 57.5679C349.456 58.3679 350.048 58.6879 351.104 58.6879C352.416 58.6879 353.44 58.1759 353.888 57.4239ZM362.878 58.4799C364.478 58.4799 365.262 57.6639 365.55 56.5919H367.726C367.278 59.1519 365.118 60.1599 362.878 60.1599C360.382 60.1599 357.758 58.9599 357.758 55.664C357.758 52.368 360.382 51.168 362.878 51.168C365.118 51.168 367.278 52.176 367.726 54.736H365.55C365.262 53.648 364.478 52.832 362.878 52.832C360.83 52.832 360.046 54.16 360.046 55.664C360.046 57.1519 360.83 58.4799 362.878 58.4799ZM378.283 56.2879H370.715C370.907 57.4559 371.723 58.4799 373.499 58.4799C374.795 58.4799 375.627 57.9039 375.963 57.1839H378.107C377.547 59.3119 375.611 60.1599 373.499 60.1599C371.067 60.1599 368.523 58.8159 368.523 55.664C368.523 52.512 371.035 51.168 373.483 51.168C375.963 51.168 378.539 52.688 378.283 56.2879ZM373.483 52.832C371.963 52.832 371.115 53.664 370.795 54.688H376.059C375.803 53.664 375.083 52.832 373.483 52.832ZM384.553 54.784C386.953 55.2 388.585 55.376 388.585 57.3439C388.585 59.2959 386.921 60.1599 383.833 60.1599C380.825 60.1599 378.953 59.2159 378.953 57.2959H381.593C381.593 58.1439 382.601 58.5119 383.993 58.5119C385.369 58.5119 386.089 58.2559 386.089 57.5999C386.089 56.8319 385.033 56.7359 382.761 56.3519C380.505 55.984 379.289 55.504 379.289 53.808C379.289 52.096 380.809 51.168 383.689 51.168C386.697 51.168 388.201 52.288 388.201 53.856H385.753C385.753 53.312 385.129 52.768 383.657 52.768C382.329 52.768 381.609 53.04 381.609 53.696C381.609 54.432 383.033 54.512 384.553 54.784ZM394.663 54.784C397.063 55.2 398.695 55.376 398.695 57.3439C398.695 59.2959 397.031 60.1599 393.943 60.1599C390.935 60.1599 389.063 59.2159 389.063 57.2959H391.703C391.703 58.1439 392.711 58.5119 394.103 58.5119C395.479 58.5119 396.199 58.2559 396.199 57.5999C396.199 56.8319 395.143 56.7359 392.871 56.3519C390.615 55.984 389.399 55.504 389.399 53.808C389.399 52.096 390.919 51.168 393.799 51.168C396.807 51.168 398.311 52.288 398.311 53.856H395.863C395.863 53.312 395.239 52.768 393.767 52.768C392.439 52.768 391.719 53.04 391.719 53.696C391.719 54.432 393.143 54.512 394.663 54.784ZM404.58 51.168C407.076 51.168 409.668 52.448 409.668 55.664C409.668 58.8799 407.076 60.1599 404.58 60.1599C402.1 60.1599 399.492 58.8799 399.492 55.664C399.492 52.448 402.1 51.168 404.58 51.168ZM404.58 58.4799C406.628 58.4799 407.396 57.1519 407.396 55.664C407.396 54.16 406.628 52.832 404.58 52.832C402.532 52.832 401.78 54.16 401.78 55.664C401.78 57.1519 402.532 58.4799 404.58 58.4799ZM419.837 51.168C422.285 51.168 424.429 51.872 424.429 54.384V59.9199H421.997V58.7839C421.629 59.3439 420.397 60.1599 418.493 60.1599C416.493 60.1599 415.117 59.3279 415.117 57.6479C415.117 55.856 416.045 54.416 421.997 54.784V54.384C421.997 53.488 421.597 52.832 419.837 52.832C418.365 52.832 417.901 53.264 417.773 53.856H415.501C415.773 51.968 417.501 51.168 419.837 51.168ZM421.997 57.4239V56.2239C418.765 56.0479 417.565 56.3519 417.565 57.5679C417.565 58.3679 418.157 58.6879 419.213 58.6879C420.525 58.6879 421.549 58.1759 421.997 57.4239ZM427.371 57.4559C428.123 57.4559 428.715 58.0639 428.715 58.8159C428.715 59.5519 428.123 60.1599 427.371 60.1599C426.635 60.1599 426.027 59.5519 426.027 58.8159C426.027 58.0639 426.635 57.4559 427.371 57.4559ZM427.371 53.856C426.635 53.856 426.027 53.248 426.027 52.512C426.027 51.76 426.635 51.168 427.371 51.168C428.123 51.168 428.715 51.76 428.715 52.512C428.715 53.248 428.123 53.856 427.371 53.856Z" fill="url(#paint0_radial_660_938)"/>
<path d="M135.718 27.392H138.246L134.358 35.92H131.974L128.086 27.392H130.614L133.174 33.456L135.718 27.392ZM142.97 27.168C145.418 27.168 147.562 27.872 147.562 30.384V35.92H145.13V34.784C144.762 35.344 143.53 36.16 141.626 36.16C139.626 36.16 138.25 35.328 138.25 33.648C138.25 31.856 139.178 30.416 145.13 30.784V30.384C145.13 29.488 144.73 28.832 142.97 28.832C141.498 28.832 141.034 29.264 140.906 29.856H138.634C138.906 27.968 140.634 27.168 142.97 27.168ZM145.13 33.424V32.224C141.898 32.048 140.698 32.352 140.698 33.568C140.698 34.368 141.29 34.688 142.346 34.688C143.658 34.688 144.682 34.176 145.13 33.424ZM145.13 24.224H146.538C146.538 25.216 146.09 26.272 144.81 26.272C143.45 26.272 142.746 25.376 142.01 25.376C141.466 25.376 141.338 25.792 141.338 26.144H139.914C139.914 25.088 140.458 24.096 141.642 24.096C143.018 24.096 143.642 25.008 144.474 25.008C145.018 25.008 145.13 24.608 145.13 24.224ZM154.088 27.168C156.584 27.168 159.176 28.448 159.176 31.664C159.176 34.88 156.584 36.16 154.088 36.16C151.608 36.16 149 34.88 149 31.664C149 28.448 151.608 27.168 154.088 27.168ZM154.088 34.48C156.136 34.48 156.904 33.152 156.904 31.664C156.904 30.16 156.136 28.832 154.088 28.832C152.04 28.832 151.288 30.16 151.288 31.664C151.288 33.152 152.04 34.48 154.088 34.48ZM172.193 27.392H174.609V35.12C174.609 38.448 171.841 38.896 169.393 38.896C166.545 38.896 164.913 37.92 164.753 36.288H167.025C167.201 36.816 168.049 37.216 169.393 37.216C171.329 37.216 172.193 36.656 172.193 35.12V34.336C171.553 35.024 170.577 35.392 169.137 35.392C166.641 35.392 164.625 34.256 164.625 31.36C164.625 28.464 166.641 27.168 169.137 27.168C170.449 27.168 171.505 27.664 172.193 28.512V27.392ZM169.665 33.872C171.425 33.872 172.497 32.96 172.497 31.36C172.497 29.744 171.425 28.848 169.665 28.848C167.921 28.848 166.913 29.76 166.913 31.36C166.913 32.96 167.921 33.872 169.665 33.872ZM180.767 27.168C183.215 27.168 185.359 27.872 185.359 30.384V35.92H182.927V34.784C182.559 35.344 181.327 36.16 179.423 36.16C177.423 36.16 176.047 35.328 176.047 33.648C176.047 31.856 176.975 30.416 182.927 30.784V30.384C182.927 29.488 182.527 28.832 180.767 28.832C179.295 28.832 178.831 29.264 178.703 29.856H176.431C176.703 27.968 178.431 27.168 180.767 27.168ZM182.927 33.424V32.224C179.695 32.048 178.495 32.352 178.495 33.568C178.495 34.368 179.087 34.688 180.143 34.688C181.455 34.688 182.479 34.176 182.927 33.424ZM192.893 27.184C193.453 27.184 193.869 27.232 194.157 27.312V29.552H194.077C193.773 29.424 193.197 29.28 192.461 29.28C190.445 29.28 189.709 30.544 189.709 31.872V35.92H187.277V27.392H189.709V28.96C190.061 28.352 191.069 27.184 192.893 27.184ZM199.361 27.168C201.809 27.168 203.953 27.872 203.953 30.384V35.92H201.521V34.784C201.153 35.344 199.921 36.16 198.017 36.16C196.017 36.16 194.641 35.328 194.641 33.648C194.641 31.856 195.569 30.416 201.521 30.784V30.384C201.521 29.488 201.121 28.832 199.361 28.832C197.889 28.832 197.425 29.264 197.297 29.856H195.025C195.297 27.968 197.025 27.168 199.361 27.168ZM201.521 33.424V32.224C198.289 32.048 197.089 32.352 197.089 33.568C197.089 34.368 197.681 34.688 198.737 34.688C200.049 34.688 201.073 34.176 201.521 33.424ZM211.535 27.168C213.727 27.168 215.007 28.352 215.007 30.272V35.92H212.575V30.88C212.575 29.856 211.983 28.976 210.479 28.976C208.975 28.976 208.303 29.888 208.303 30.88V35.92H205.871V27.392H208.303V28.592C208.671 28.08 209.711 27.168 211.535 27.168ZM222.493 29.056H219.997V32.64C219.997 34.032 220.509 34.304 222.493 34.096V35.92C222.173 35.968 221.789 36.048 221.229 36.048C218.157 36.048 217.565 34.72 217.565 32.592V29.056H215.981V27.392H217.565V25.184H219.997V27.392H222.493V29.056ZM224.089 35.92V27.392H226.505V35.92H224.089ZM225.289 26.4C224.553 26.4 224.041 25.984 224.041 25.264C224.041 24.528 224.553 24.112 225.289 24.112C226.025 24.112 226.553 24.528 226.553 25.264C226.553 25.984 226.025 26.4 225.289 26.4ZM234.049 27.184C234.609 27.184 235.025 27.232 235.313 27.312V29.552H235.233C234.929 29.424 234.353 29.28 233.617 29.28C231.601 29.28 230.865 30.544 230.865 31.872V35.92H228.433V27.392H230.865V28.96C231.217 28.352 232.225 27.184 234.049 27.184ZM248.146 27.392H250.578V38.592H248.146V34.864C247.522 35.664 246.546 36.16 245.106 36.16C242.61 36.16 240.594 34.56 240.594 31.664C240.594 28.768 242.61 27.168 245.106 27.168C246.546 27.168 247.522 27.664 248.146 28.464V27.392ZM245.634 34.48C247.394 34.48 248.45 33.456 248.45 31.664C248.45 29.872 247.394 28.832 245.634 28.832C243.874 28.832 242.866 29.872 242.866 31.664C242.866 33.456 243.874 34.48 245.634 34.48ZM255.967 36.16C253.775 36.16 252.495 34.96 252.495 33.04V27.392H254.927V32.432C254.927 33.456 255.519 34.336 257.023 34.336C258.527 34.336 259.199 33.424 259.199 32.432V27.392H261.631V35.92H259.199V34.72C258.831 35.232 257.791 36.16 255.967 36.16ZM272.838 32.288H265.27C265.462 33.456 266.278 34.48 268.054 34.48C269.35 34.48 270.182 33.904 270.518 33.184H272.662C272.102 35.312 270.166 36.16 268.054 36.16C265.622 36.16 263.078 34.816 263.078 31.664C263.078 28.512 265.59 27.168 268.038 27.168C270.518 27.168 273.094 28.688 272.838 32.288ZM268.038 28.832C266.518 28.832 265.67 29.664 265.35 30.688H270.614C270.358 29.664 269.638 28.832 268.038 28.832ZM283.4 27.168C285.896 27.168 288.488 28.448 288.488 31.664C288.488 34.88 285.896 36.16 283.4 36.16C280.92 36.16 278.312 34.88 278.312 31.664C278.312 28.448 280.92 27.168 283.4 27.168ZM283.4 34.48C285.448 34.48 286.216 33.152 286.216 31.664C286.216 30.16 285.448 28.832 283.4 28.832C281.352 28.832 280.6 30.16 280.6 31.664C280.6 33.152 281.352 34.48 283.4 34.48ZM305.713 27.168C307.905 27.168 309.041 28.352 309.041 30.272V35.92H306.609V30.88C306.609 29.856 306.161 28.976 304.801 28.976C303.441 28.976 302.945 29.872 302.945 30.88V35.92H300.513V30.88C300.513 29.856 300.065 28.976 298.705 28.976C297.345 28.976 296.833 29.888 296.833 30.88V35.92H294.417V27.392H296.833V28.512C297.137 27.984 297.873 27.168 299.617 27.168C301.105 27.168 302.097 27.712 302.577 28.656C302.881 28.192 303.841 27.168 305.713 27.168ZM320.244 32.288H312.676C312.868 33.456 313.684 34.48 315.46 34.48C316.756 34.48 317.588 33.904 317.924 33.184H320.068C319.508 35.312 317.572 36.16 315.46 36.16C313.028 36.16 310.484 34.816 310.484 31.664C310.484 28.512 312.996 27.168 315.444 27.168C317.924 27.168 320.5 28.688 320.244 32.288ZM315.444 28.832C313.924 28.832 313.076 29.664 312.756 30.688H318.02C317.764 29.664 317.044 28.832 315.444 28.832ZM327.33 27.184C327.89 27.184 328.306 27.232 328.594 27.312V29.552H328.514C328.21 29.424 327.634 29.28 326.898 29.28C324.882 29.28 324.146 30.544 324.146 31.872V35.92H321.714V27.392H324.146V28.96C324.498 28.352 325.506 27.184 327.33 27.184ZM334.354 34.48C335.954 34.48 336.738 33.664 337.026 32.592H339.202C338.754 35.152 336.594 36.16 334.354 36.16C331.858 36.16 329.234 34.96 329.234 31.664C329.234 28.368 331.858 27.168 334.354 27.168C336.594 27.168 338.754 28.176 339.202 30.736H337.026C336.738 29.648 335.954 28.832 334.354 28.832C332.306 28.832 331.522 30.16 331.522 31.664C331.522 33.152 332.306 34.48 334.354 34.48ZM344.72 27.168C347.168 27.168 349.312 27.872 349.312 30.384V35.92H346.88V34.784C346.512 35.344 345.28 36.16 343.376 36.16C341.376 36.16 340 35.328 340 33.648C340 31.856 340.928 30.416 346.88 30.784V30.384C346.88 29.488 346.48 28.832 344.72 28.832C343.248 28.832 342.784 29.264 342.656 29.856H340.384C340.656 27.968 342.384 27.168 344.72 27.168ZM346.88 33.424V32.224C343.648 32.048 342.448 32.352 342.448 33.568C342.448 34.368 343.04 34.688 344.096 34.688C345.408 34.688 346.432 34.176 346.88 33.424ZM358.318 24.72H360.75V35.92H358.318V34.864C357.694 35.664 356.702 36.16 355.262 36.16C352.782 36.16 350.75 34.56 350.75 31.664C350.75 28.768 352.782 27.168 355.262 27.168C356.702 27.168 357.694 27.664 358.318 28.464V24.72ZM355.806 34.48C357.55 34.48 358.622 33.456 358.622 31.664C358.622 29.872 357.55 28.832 355.806 28.832C354.046 28.832 353.038 29.872 353.038 31.664C353.038 33.456 354.046 34.48 355.806 34.48ZM367.275 27.168C369.771 27.168 372.363 28.448 372.363 31.664C372.363 34.88 369.771 36.16 367.275 36.16C364.795 36.16 362.187 34.88 362.187 31.664C362.187 28.448 364.795 27.168 367.275 27.168ZM367.275 34.48C369.323 34.48 370.091 33.152 370.091 31.664C370.091 30.16 369.323 28.832 367.275 28.832C365.227 28.832 364.475 30.16 364.475 31.664C364.475 33.152 365.227 34.48 367.275 34.48ZM383.092 30.784C385.492 31.2 387.124 31.376 387.124 33.344C387.124 35.296 385.46 36.16 382.372 36.16C379.364 36.16 377.492 35.216 377.492 33.296H380.132C380.132 34.144 381.14 34.512 382.532 34.512C383.908 34.512 384.628 34.256 384.628 33.6C384.628 32.832 383.572 32.736 381.3 32.352C379.044 31.984 377.828 31.504 377.828 29.808C377.828 28.096 379.348 27.168 382.228 27.168C385.236 27.168 386.74 28.288 386.74 29.856H384.292C384.292 29.312 383.668 28.768 382.196 28.768C380.868 28.768 380.148 29.04 380.148 29.696C380.148 30.432 381.572 30.512 383.092 30.784ZM397.682 32.288H390.114C390.306 33.456 391.122 34.48 392.898 34.48C394.194 34.48 395.026 33.904 395.362 33.184H397.506C396.946 35.312 395.01 36.16 392.898 36.16C390.466 36.16 387.922 34.816 387.922 31.664C387.922 28.512 390.434 27.168 392.882 27.168C395.362 27.168 397.938 28.688 397.682 32.288ZM392.882 28.832C391.362 28.832 390.514 29.664 390.194 30.688H395.458C395.202 29.664 394.482 28.832 392.882 28.832ZM409.508 29.056H407.012V32.64C407.012 34.032 407.524 34.304 409.508 34.096V35.92C409.188 35.968 408.804 36.048 408.244 36.048C405.172 36.048 404.58 34.72 404.58 32.592V29.056H402.996V27.392H404.58V25.184H407.012V27.392H409.508V29.056ZM415.557 27.168C418.053 27.168 420.645 28.448 420.645 31.664C420.645 34.88 418.053 36.16 415.557 36.16C413.077 36.16 410.469 34.88 410.469 31.664C410.469 28.448 413.077 27.168 415.557 27.168ZM415.557 34.48C417.605 34.48 418.373 33.152 418.373 31.664C418.373 30.16 417.605 28.832 415.557 28.832C413.509 28.832 412.757 30.16 412.757 31.664C412.757 33.152 413.509 34.48 415.557 34.48ZM427.705 27.184C428.265 27.184 428.681 27.232 428.969 27.312V29.552H428.889C428.585 29.424 428.009 29.28 427.273 29.28C425.257 29.28 424.521 30.544 424.521 31.872V35.92H422.089V27.392H424.521V28.96C424.873 28.352 425.881 27.184 427.705 27.184ZM435.909 27.168C438.101 27.168 439.381 28.352 439.381 30.272V35.92H436.949V30.88C436.949 29.856 436.357 28.976 434.853 28.976C433.349 28.976 432.677 29.888 432.677 30.88V35.92H430.245V27.392H432.677V28.592C433.045 28.08 434.085 27.168 435.909 27.168ZM450.588 32.288H443.02C443.212 33.456 444.028 34.48 445.804 34.48C447.1 34.48 447.932 33.904 448.268 33.184H450.412C449.852 35.312 447.916 36.16 445.804 36.16C443.372 36.16 440.828 34.816 440.828 31.664C440.828 28.512 443.34 27.168 445.788 27.168C448.268 27.168 450.844 28.688 450.588 32.288ZM445.788 28.832C444.268 28.832 443.42 29.664 443.1 30.688H448.364C448.108 29.664 447.388 28.832 445.788 28.832ZM460.782 27.168C463.23 27.168 465.374 27.872 465.374 30.384V35.92H462.942V34.784C462.574 35.344 461.342 36.16 459.438 36.16C457.438 36.16 456.062 35.328 456.062 33.648C456.062 31.856 456.99 30.416 462.942 30.784V30.384C462.942 29.488 462.542 28.832 460.782 28.832C459.31 28.832 458.846 29.264 458.718 29.856H456.446C456.718 27.968 458.446 27.168 460.782 27.168ZM462.942 33.424V32.224C459.71 32.048 458.51 32.352 458.51 33.568C458.51 34.368 459.102 34.688 460.158 34.688C461.47 34.688 462.494 34.176 462.942 33.424ZM476.577 30.784C478.977 31.2 480.609 31.376 480.609 33.344C480.609 35.296 478.945 36.16 475.857 36.16C472.849 36.16 470.977 35.216 470.977 33.296H473.617C473.617 34.144 474.625 34.512 476.017 34.512C477.393 34.512 478.113 34.256 478.113 33.6C478.113 32.832 477.057 32.736 474.785 32.352C472.529 31.984 471.313 31.504 471.313 29.808C471.313 28.096 472.833 27.168 475.713 27.168C478.721 27.168 480.225 28.288 480.225 29.856H477.777C477.777 29.312 477.153 28.768 475.681 28.768C474.353 28.768 473.633 29.04 473.633 29.696C473.633 30.432 475.057 30.512 476.577 30.784ZM485.358 36.16C483.166 36.16 481.886 34.96 481.886 33.04V27.392H484.318V32.432C484.318 33.456 484.91 34.336 486.414 34.336C487.918 34.336 488.59 33.424 488.59 32.432V27.392H491.022V35.92H488.59V34.72C488.222 35.232 487.182 36.16 485.358 36.16ZM497.188 27.168C499.636 27.168 501.78 27.872 501.78 30.384V35.92H499.348V34.784C498.98 35.344 497.748 36.16 495.844 36.16C493.844 36.16 492.468 35.328 492.468 33.648C492.468 31.856 493.396 30.416 499.348 30.784V30.384C499.348 29.488 498.948 28.832 497.188 28.832C495.716 28.832 495.252 29.264 495.124 29.856H492.852C493.124 27.968 494.852 27.168 497.188 27.168ZM499.348 33.424V32.224C496.116 32.048 494.916 32.352 494.916 33.568C494.916 34.368 495.508 34.688 496.564 34.688C497.876 34.688 498.9 34.176 499.348 33.424ZM513.847 27.168C516.039 27.168 517.319 28.352 517.319 30.272V35.92H514.887V30.88C514.887 29.856 514.295 28.976 512.791 28.976C511.287 28.976 510.615 29.888 510.615 30.88V35.92H508.183V27.392H510.615V28.592C510.983 28.08 512.023 27.168 513.847 27.168ZM523.853 27.168C526.349 27.168 528.941 28.448 528.941 31.664C528.941 34.88 526.349 36.16 523.853 36.16C521.373 36.16 518.765 34.88 518.765 31.664C518.765 28.448 521.373 27.168 523.853 27.168ZM523.853 34.48C525.901 34.48 526.669 33.152 526.669 31.664C526.669 30.16 525.901 28.832 523.853 28.832C521.805 28.832 521.053 30.16 521.053 31.664C521.053 33.152 521.805 34.48 523.853 34.48ZM536.734 27.392H539.262L535.374 35.92H532.99L529.102 27.392H531.63L534.19 33.456L536.734 27.392ZM543.985 27.168C546.433 27.168 548.577 27.872 548.577 30.384V35.92H546.145V34.784C545.777 35.344 544.545 36.16 542.641 36.16C540.641 36.16 539.265 35.328 539.265 33.648C539.265 31.856 540.193 30.416 546.145 30.784V30.384C546.145 29.488 545.745 28.832 543.985 28.832C542.513 28.832 542.049 29.264 541.921 29.856H539.649C539.921 27.968 541.649 27.168 543.985 27.168ZM546.145 33.424V32.224C542.913 32.048 541.713 32.352 541.713 33.568C541.713 34.368 542.305 34.688 543.361 34.688C544.673 34.688 545.697 34.176 546.145 33.424ZM560.628 25.952C559.044 25.824 558.18 25.888 558.18 27.392H560.404V29.056H558.18V35.92H555.764V29.056H554.34V27.392H555.764C555.764 25.696 556.356 24.112 559.204 24.112C559.764 24.112 560.132 24.16 560.628 24.224V25.952ZM566.197 27.168C568.693 27.168 571.285 28.448 571.285 31.664C571.285 34.88 568.693 36.16 566.197 36.16C563.717 36.16 561.109 34.88 561.109 31.664C561.109 28.448 563.717 27.168 566.197 27.168ZM566.197 34.48C568.245 34.48 569.013 33.152 569.013 31.664C569.013 30.16 568.245 28.832 566.197 28.832C564.149 28.832 563.397 30.16 563.397 31.664C563.397 33.152 564.149 34.48 566.197 34.48ZM578.394 27.168C580.586 27.168 581.866 28.352 581.866 30.272V35.92H579.434V30.88C579.434 29.856 578.842 28.976 577.338 28.976C575.834 28.976 575.162 29.888 575.162 30.88V35.92H572.73V27.392H575.162V28.592C575.53 28.08 576.57 27.168 578.394 27.168ZM589.352 29.056H586.856V32.64C586.856 34.032 587.368 34.304 589.352 34.096V35.92C589.032 35.968 588.648 36.048 588.088 36.048C585.016 36.048 584.424 34.72 584.424 32.592V29.056H582.84V27.392H584.424V25.184H586.856V27.392H589.352V29.056ZM600.072 32.288H592.504C592.696 33.456 593.512 34.48 595.288 34.48C596.584 34.48 597.416 33.904 597.752 33.184H599.896C599.336 35.312 597.4 36.16 595.288 36.16C592.856 36.16 590.312 34.816 590.312 31.664C590.312 28.512 592.824 27.168 595.272 27.168C597.752 27.168 600.328 28.688 600.072 32.288ZM595.272 28.832C593.752 28.832 592.904 29.664 592.584 30.688H597.848C597.592 29.664 596.872 28.832 595.272 28.832ZM613.115 24.72H615.547V35.92H613.115V34.864C612.491 35.664 611.499 36.16 610.059 36.16C607.579 36.16 605.547 34.56 605.547 31.664C605.547 28.768 607.579 27.168 610.059 27.168C611.499 27.168 612.491 27.664 613.115 28.464V24.72ZM610.603 34.48C612.347 34.48 613.419 33.456 613.419 31.664C613.419 29.872 612.347 28.832 610.603 28.832C608.843 28.832 607.835 29.872 607.835 31.664C607.835 33.456 608.843 34.48 610.603 34.48ZM626.744 32.288H619.176C619.368 33.456 620.184 34.48 621.96 34.48C623.256 34.48 624.088 33.904 624.424 33.184H626.568C626.008 35.312 624.072 36.16 621.96 36.16C619.528 36.16 616.984 34.816 616.984 31.664C616.984 28.512 619.496 27.168 621.944 27.168C624.424 27.168 627 28.688 626.744 32.288ZM621.944 28.832C620.424 28.832 619.576 29.664 619.256 30.688H624.52C624.264 29.664 623.544 28.832 621.944 28.832ZM203.994 51.184C204.554 51.184 204.97 51.232 205.258 51.312V53.552H205.178C204.874 53.424 204.298 53.28 203.562 53.28C201.546 53.28 200.81 54.544 200.81 55.8719V59.9199H198.378V51.392H200.81V52.96C201.162 52.352 202.17 51.184 203.994 51.184ZM215.658 56.2879H208.09C208.282 57.4559 209.098 58.4799 210.874 58.4799C212.17 58.4799 213.002 57.9039 213.338 57.1839H215.482C214.922 59.3119 212.986 60.1599 210.874 60.1599C208.442 60.1599 205.898 58.8159 205.898 55.664C205.898 52.512 208.41 51.168 210.858 51.168C213.338 51.168 215.914 52.688 215.658 56.2879ZM210.858 52.832C209.338 52.832 208.49 53.664 208.17 54.688H213.434C213.178 53.664 212.458 52.832 210.858 52.832ZM222.792 51.168C224.984 51.168 226.264 52.352 226.264 54.272V59.9199H223.832V54.88C223.832 53.856 223.24 52.976 221.736 52.976C220.232 52.976 219.56 53.888 219.56 54.88V59.9199H217.128V51.392H219.56V52.592C219.928 52.08 220.968 51.168 222.792 51.168ZM235.279 48.72H237.711V59.9199H235.279V58.8639C234.655 59.6639 233.663 60.1599 232.223 60.1599C229.743 60.1599 227.711 58.5599 227.711 55.664C227.711 52.768 229.743 51.168 232.223 51.168C233.663 51.168 234.655 51.664 235.279 52.464V48.72ZM232.767 58.4799C234.511 58.4799 235.583 57.4559 235.583 55.664C235.583 53.872 234.511 52.832 232.767 52.832C231.007 52.832 229.999 53.872 229.999 55.664C229.999 57.4559 231.007 58.4799 232.767 58.4799ZM243.868 51.168C246.316 51.168 248.46 51.872 248.46 54.384V59.9199H246.028V58.7839C245.66 59.3439 244.428 60.1599 242.524 60.1599C240.524 60.1599 239.148 59.3279 239.148 57.6479C239.148 55.856 240.076 54.416 246.028 54.784V54.384C246.028 53.488 245.628 52.832 243.868 52.832C242.396 52.832 241.932 53.264 241.804 53.856H239.532C239.804 51.968 241.532 51.168 243.868 51.168ZM246.028 57.4239V56.2239C242.796 56.0479 241.596 56.3519 241.596 57.5679C241.596 58.3679 242.188 58.6879 243.244 58.6879C244.556 58.6879 245.58 58.1759 246.028 57.4239Z" fill="url(#paint1_linear_660_938)"/>
<defs>
<radialGradient id="paint0_radial_660_938" cx="0" cy="0" r="1" gradientUnits="userSpaceOnUse" gradientTransform="translate(313.387 2.41996) rotate(90) scale(63.5 555.625)">
<stop stop-color="white"/>
<stop offset="1" stop-color="#9F9F9F"/>
</radialGradient>
<linearGradient id="paint1_linear_660_938" x1="6.3872" y1="51.6499" x2="582.817" y2="-7.77584" gradientUnits="userSpaceOnUse">
<stop stop-color="#FF0000"/>
<stop offset="1" stop-color="#FF0048"/>
</linearGradient>
</defs>
</svg>
