<svg xmlns="http://www.w3.org/2000/svg" width="147" height="108" viewBox="0 0 147 108" fill="none"><path d="M40.3464 17.3258C40.3464 13.5598 43.3994 10.5068 47.1654 10.5068H97.7247C101.491 10.5068 104.544 13.5598 104.544 17.3258V94.5507C104.544 98.3025 101.086 101.1 97.4168 100.316L45.0108 89.1249C42.2906 88.544 40.3464 86.1408 40.3464 83.3592V17.3258Z" fill="#FD0821"></path><path fill-rule="evenodd" clip-rule="evenodd" d="M71.9036 28.0435C76.2815 28.0435 80.9412 30.1457 80.9412 35.9324C80.9412 41.7407 76.2815 43.843 71.9036 43.843C67.5257 43.843 62.8443 41.7407 62.8443 35.9324C62.8443 30.1457 67.5257 28.0435 71.9036 28.0435ZM71.9036 41.1989C75.6747 41.1989 77.3868 38.9232 77.3868 35.9324C77.3868 32.9632 75.6747 30.6875 71.9036 30.6875C68.1325 30.6875 66.4203 32.9632 66.4203 35.9324C66.4203 38.9232 68.1325 41.1989 71.9036 41.1989ZM92.4383 28.3469C96.5995 28.3469 98.5067 30.4058 98.5067 33.4617C98.5067 36.9077 96.2311 38.5982 92.0265 38.5982H86.5866V43.5179H83.0973V28.3469H92.4383ZM91.8315 35.9541C93.8687 35.9541 94.9524 35.1305 94.9524 33.4617C94.9524 31.7496 93.8687 31.0344 91.8315 31.0344H86.5866V35.9541H91.8315ZM62.2005 31.0344V28.3469H47.2245V31.0344H52.9678V43.5179H56.4572V31.0344H62.2005ZM81.698 47.8065C89.8036 47.8065 97.4027 52.5041 97.4027 64.5705C97.4027 76.6829 89.8036 81.3805 81.698 81.3805C73.5463 81.3805 65.9472 76.6829 65.9472 64.5705C65.9472 52.5041 73.5463 47.8065 81.698 47.8065ZM81.698 76.1763C88.5141 76.1763 90.7247 70.926 90.7247 64.5705C90.7247 58.261 88.5141 52.9647 81.698 52.9647C74.8358 52.9647 72.6712 58.261 72.6712 64.5705C72.6712 70.926 74.8358 76.1763 81.698 76.1763ZM61.8114 48.4512H56.8836L46.3831 54.991V60.4715L54.8571 55.2213V80.6896H61.8114V48.4512Z" fill="white"></path><rect x="87.4451" y="37.9604" width="56" height="16.7518" rx="8.37591" fill="url(#paint0_radial_667_1014)"></rect><path d="M103.172 46.6888C103.365 49.2706 101.858 50.4742 99.6164 50.4742C97.5583 50.4742 95.7207 49.4728 95.7207 47.1207C95.7207 44.7777 97.6134 43.7763 99.4602 43.7763C101.105 43.7763 102.557 44.447 103.007 45.963H101.454C101.16 45.3474 100.563 44.8972 99.4602 44.8972C97.9258 44.8972 97.2275 45.8895 97.2275 47.1207C97.2275 48.361 98.0452 49.3533 99.6256 49.3533C101.123 49.3533 101.592 48.4805 101.656 47.8189H99.5429V46.6888H103.172ZM110.936 50.3364H109.292L107.932 48.1589C107.923 48.1589 107.904 48.1589 107.895 48.1589H105.589V50.3364H104.11V43.9049H108.079C109.825 43.9049 110.725 44.741 110.725 46.0365C110.725 47.0472 110.247 47.6536 109.402 47.9476L110.936 50.3364ZM105.589 45.0442V47.038H108.024C108.924 47.038 109.218 46.5694 109.218 46.0365C109.218 45.4852 108.943 45.0442 108.024 45.0442H105.589ZM117.313 50.3364L116.771 49.0777H113.243L112.691 50.3364H111.12L114.097 43.9049H115.916L118.884 50.3364H117.313ZM113.739 47.9476H116.275L115.007 45.0258L113.739 47.9476ZM115.227 42.0214H116.798L115.576 43.2985H114.492L115.227 42.0214ZM124.313 43.9049V45.0442H121.878V50.3364H120.398V45.0442H117.964V43.9049H124.313ZM125.231 43.9049H126.71V50.3364H125.231V43.9049ZM131.357 46.5051C133.131 46.7531 134.362 46.9001 134.362 48.3335C134.362 49.73 133.213 50.4742 130.926 50.4742C128.702 50.4742 127.535 49.6381 127.535 48.3335H129.079C129.116 49.0042 129.887 49.3441 131.054 49.3441C132.276 49.3441 132.791 49.0226 132.791 48.5356C132.791 47.8741 131.798 47.9384 130.044 47.6444C128.289 47.3504 127.737 46.8175 127.737 45.8068C127.737 44.7502 128.454 43.7763 130.815 43.7763C133.085 43.7763 133.967 44.6399 134.004 45.7792H132.57C132.515 45.3198 131.982 44.9064 130.797 44.9064C129.474 44.9064 129.162 45.2647 129.162 45.7057C129.162 46.3121 130.227 46.3489 131.357 46.5051Z" fill="#010D15"></path><defs><radialGradient id="paint0_radial_667_1014" cx="0" cy="0" r="1" gradientUnits="userSpaceOnUse" gradientTransform="translate(123.143 35.7079) rotate(67.0903) scale(17.1565 53.5883)"><stop stop-color="#FFEA98"></stop><stop offset="1" stop-color="#998D5B"></stop></radialGradient></defs></svg>