<svg width="49" height="7" viewBox="0 0 49 7" fill="none" xmlns="http://www.w3.org/2000/svg">
<path d="M2.80913 0.349362C2.96049 -0.116453 3.61949 -0.116454 3.77084 0.34936L4.20089 1.67291C4.26858 1.88123 4.4627 2.02227 4.68174 2.02227H6.07341C6.56319 2.02227 6.76684 2.64902 6.37059 2.93691L5.24471 3.75491C5.06751 3.88366 4.99336 4.11187 5.06104 4.32019L5.49109 5.64374C5.64244 6.10955 5.1093 6.4969 4.71305 6.20902L3.58717 5.39102C3.40997 5.26227 3.17001 5.26227 2.9928 5.39102L1.86693 6.20901C1.47068 6.4969 0.937533 6.10955 1.08889 5.64374L1.51893 4.32019C1.58662 4.11187 1.51247 3.88366 1.33526 3.75491L0.209385 2.93691C-0.18686 2.64902 0.0167818 2.02227 0.506568 2.02227H1.89823C2.11727 2.02227 2.3114 1.88123 2.37909 1.67291L2.80913 0.349362Z" fill="url(#paint0_linear_603_796)"/>
<path d="M13.414 0.349362C13.5654 -0.116453 14.2244 -0.116454 14.3757 0.34936L14.8058 1.67291C14.8735 1.88123 15.0676 2.02227 15.2866 2.02227H16.6783C17.1681 2.02227 17.3717 2.64902 16.9755 2.93691L15.8496 3.75491C15.6724 3.88366 15.5982 4.11187 15.6659 4.32019L16.096 5.64374C16.2473 6.10955 15.7142 6.4969 15.3179 6.20902L14.1921 5.39102C14.0149 5.26227 13.7749 5.26227 13.5977 5.39102L12.4718 6.20901C12.0756 6.4969 11.5424 6.10955 11.6938 5.64374L12.1238 4.32019C12.1915 4.11187 12.1174 3.88366 11.9401 3.75491L10.8143 2.93691C10.418 2.64902 10.6217 2.02227 11.1115 2.02227H12.5031C12.7222 2.02227 12.9163 1.88123 12.984 1.67291L13.414 0.349362Z" fill="url(#paint1_linear_603_796)"/>
<path d="M24.019 0.349362C24.1704 -0.116453 24.8294 -0.116454 24.9807 0.34936L25.4108 1.67291C25.4785 1.88123 25.6726 2.02227 25.8916 2.02227H27.2833C27.7731 2.02227 27.9767 2.64902 27.5805 2.93691L26.4546 3.75491C26.2774 3.88366 26.2033 4.11187 26.2709 4.32019L26.701 5.64374C26.8523 6.10955 26.3192 6.4969 25.9229 6.20902L24.7971 5.39102C24.6199 5.26227 24.3799 5.26227 24.2027 5.39102L23.0768 6.20901C22.6806 6.4969 22.1474 6.10955 22.2988 5.64374L22.7288 4.32019C22.7965 4.11187 22.7224 3.88366 22.5452 3.75491L21.4193 2.93691C21.023 2.64902 21.2267 2.02227 21.7165 2.02227H23.1081C23.3272 2.02227 23.5213 1.88123 23.589 1.67291L24.019 0.349362Z" fill="url(#paint2_linear_603_796)"/>
<path d="M34.6242 0.349362C34.7755 -0.116453 35.4345 -0.116454 35.5859 0.34936L36.0159 1.67291C36.0836 1.88123 36.2777 2.02227 36.4968 2.02227H37.8884C38.3782 2.02227 38.5819 2.64902 38.1856 2.93691L37.0597 3.75491C36.8825 3.88366 36.8084 4.11187 36.8761 4.32019L37.3061 5.64374C37.4575 6.10955 36.9243 6.4969 36.5281 6.20902L35.4022 5.39102C35.225 5.26227 34.985 5.26227 34.8078 5.39102L33.682 6.20901C33.2857 6.4969 32.7526 6.10955 32.9039 5.64374L33.334 4.32019C33.4016 4.11187 33.3275 3.88366 33.1503 3.75491L32.0244 2.93691C31.6282 2.64902 31.8318 2.02227 32.3216 2.02227H33.7133C33.9323 2.02227 34.1264 1.88123 34.1941 1.67291L34.6242 0.349362Z" fill="url(#paint3_linear_603_796)"/>
<path d="M45.2292 0.349362C45.3805 -0.116453 46.0395 -0.116454 46.1909 0.34936L46.6209 1.67291C46.6886 1.88123 46.8827 2.02227 47.1018 2.02227H48.4934C48.9832 2.02227 49.1869 2.64902 48.7906 2.93691L47.6648 3.75491C47.4875 3.88366 47.4134 4.11187 47.4811 4.32019L47.9111 5.64374C48.0625 6.10955 47.5293 6.4969 47.1331 6.20902L46.0072 5.39102C45.83 5.26227 45.5901 5.26227 45.4128 5.39102L44.287 6.20901C43.8907 6.4969 43.3576 6.10955 43.5089 5.64374L43.939 4.32019C44.0067 4.11187 43.9325 3.88366 43.7553 3.75491L42.6294 2.93691C42.2332 2.64902 42.4368 2.02227 42.9266 2.02227H44.3183C44.5373 2.02227 44.7314 1.88123 44.7991 1.67291L45.2292 0.349362Z" fill="url(#paint4_linear_603_796)"/>
<defs>
<linearGradient id="paint0_linear_603_796" x1="0" y1="3.15393" x2="49" y2="3.15393" gradientUnits="userSpaceOnUse">
<stop stop-color="#B19D85"/>
<stop offset="1" stop-color="#F0DFCA"/>
</linearGradient>
<linearGradient id="paint1_linear_603_796" x1="0" y1="3.15393" x2="49" y2="3.15393" gradientUnits="userSpaceOnUse">
<stop stop-color="#B19D85"/>
<stop offset="1" stop-color="#F0DFCA"/>
</linearGradient>
<linearGradient id="paint2_linear_603_796" x1="0" y1="3.15393" x2="49" y2="3.15393" gradientUnits="userSpaceOnUse">
<stop stop-color="#B19D85"/>
<stop offset="1" stop-color="#F0DFCA"/>
</linearGradient>
<linearGradient id="paint3_linear_603_796" x1="0" y1="3.15393" x2="49" y2="3.15393" gradientUnits="userSpaceOnUse">
<stop stop-color="#B19D85"/>
<stop offset="1" stop-color="#F0DFCA"/>
</linearGradient>
<linearGradient id="paint4_linear_603_796" x1="0" y1="3.15393" x2="49" y2="3.15393" gradientUnits="userSpaceOnUse">
<stop stop-color="#B19D85"/>
<stop offset="1" stop-color="#F0DFCA"/>
</linearGradient>
</defs>
</svg>
